G75*
%MOIN*%
%OFA0B0*%
%FSLAX25Y25*%
%IPPOS*%
%LPD*%
%AMOC8*
5,1,8,0,0,1.08239X$1,22.5*
%
%ADD10C,0.06184*%
%ADD11OC8,0.06184*%
%ADD12R,0.03346X0.07283*%
%ADD13C,0.06984*%
%ADD14OC8,0.07584*%
%ADD15R,0.01969X0.04921*%
%ADD16R,0.06102X0.07283*%
%ADD17R,0.06102X0.06890*%
%ADD18C,0.07480*%
%ADD19R,0.06890X0.06102*%
%ADD20R,0.05346X0.05346*%
D10*
X0198500Y0061000D03*
D11*
X0198500Y0081000D03*
D12*
X0123500Y0085764D03*
X0118500Y0085764D03*
X0113500Y0085764D03*
X0108500Y0085764D03*
X0108500Y0106236D03*
X0113500Y0106236D03*
X0118500Y0106236D03*
X0123500Y0106236D03*
X0123500Y0165764D03*
X0118500Y0165764D03*
X0113500Y0165764D03*
X0108500Y0165764D03*
X0108500Y0186236D03*
X0113500Y0186236D03*
X0118500Y0186236D03*
X0123500Y0186236D03*
D13*
X0054000Y0061000D02*
X0048000Y0061000D01*
X0048000Y0071000D02*
X0054000Y0071000D01*
X0083000Y0091000D02*
X0089000Y0091000D01*
X0089000Y0101000D02*
X0083000Y0101000D01*
X0086000Y0056500D02*
X0086000Y0050500D01*
X0096000Y0050500D02*
X0096000Y0056500D01*
X0106000Y0056500D02*
X0106000Y0050500D01*
X0163000Y0131000D02*
X0169000Y0131000D01*
X0169000Y0141000D02*
X0163000Y0141000D01*
X0089000Y0171000D02*
X0083000Y0171000D01*
X0083000Y0181000D02*
X0089000Y0181000D01*
X0086000Y0205500D02*
X0086000Y0211500D01*
X0096000Y0211500D02*
X0096000Y0205500D01*
X0106000Y0205500D02*
X0106000Y0211500D01*
X0248500Y0201500D02*
X0248500Y0195500D01*
X0258500Y0195500D02*
X0258500Y0201500D01*
X0268500Y0201500D02*
X0268500Y0195500D01*
X0278500Y0195500D02*
X0278500Y0201500D01*
X0281500Y0071000D02*
X0275500Y0071000D01*
X0275500Y0061000D02*
X0281500Y0061000D01*
X0259000Y0061000D02*
X0253000Y0061000D01*
X0253000Y0071000D02*
X0259000Y0071000D01*
D14*
X0256000Y0036000D03*
X0246000Y0036000D03*
X0236000Y0036000D03*
X0216000Y0036000D03*
X0206000Y0036000D03*
X0196000Y0036000D03*
X0186000Y0036000D03*
X0176000Y0036000D03*
X0166000Y0036000D03*
X0266000Y0036000D03*
X0276000Y0036000D03*
X0286000Y0036000D03*
X0286000Y0226000D03*
X0276000Y0226000D03*
X0266000Y0226000D03*
X0256000Y0226000D03*
X0246000Y0226000D03*
X0236000Y0226000D03*
X0226000Y0226000D03*
X0216000Y0226000D03*
X0200000Y0226000D03*
X0190000Y0226000D03*
X0180000Y0226000D03*
X0170000Y0226000D03*
X0160000Y0226000D03*
X0150000Y0226000D03*
X0140000Y0226000D03*
X0130000Y0226000D03*
D15*
X0182063Y0139319D03*
X0184031Y0139319D03*
X0186000Y0139319D03*
X0187969Y0139319D03*
X0189937Y0139319D03*
X0189937Y0122681D03*
X0187969Y0122681D03*
X0186000Y0122681D03*
X0184031Y0122681D03*
X0182063Y0122681D03*
D16*
X0179740Y0111000D03*
X0172260Y0111000D03*
X0189760Y0111000D03*
X0197240Y0111000D03*
X0184740Y0156000D03*
X0177260Y0156000D03*
D17*
X0196010Y0149750D03*
X0203490Y0149750D03*
X0197240Y0101000D03*
X0189760Y0101000D03*
X0115990Y0117250D03*
X0108510Y0117250D03*
X0109760Y0153500D03*
X0117240Y0153500D03*
D18*
X0229002Y0081000D02*
X0235498Y0081000D01*
X0235498Y0071000D02*
X0229002Y0071000D01*
X0229002Y0061000D02*
X0235498Y0061000D01*
D19*
X0098500Y0092260D03*
X0098500Y0099740D03*
X0098500Y0172260D03*
X0098500Y0179740D03*
D20*
X0208500Y0123500D03*
X0156000Y0088500D03*
X0214750Y0077250D03*
X0214750Y0047250D03*
M02*
