G75*
%MOIN*%
%OFA0B0*%
%FSLAX25Y25*%
%IPPOS*%
%LPD*%
%AMOC8*
5,1,8,0,0,1.08239X$1,22.5*
%
%ADD10C,0.06184*%
%ADD11OC8,0.06184*%
%ADD12R,0.03346X0.07283*%
%ADD13C,0.06984*%
%ADD14OC8,0.07584*%
%ADD15R,0.01969X0.04921*%
%ADD16R,0.06102X0.07283*%
%ADD17R,0.06102X0.06890*%
%ADD18C,0.07480*%
%ADD19R,0.06890X0.06102*%
%ADD20R,0.05346X0.05346*%
D10*
X0189500Y0040000D03*
D11*
X0189500Y0060000D03*
D12*
X0114500Y0064764D03*
X0109500Y0064764D03*
X0104500Y0064764D03*
X0099500Y0064764D03*
X0099500Y0085236D03*
X0104500Y0085236D03*
X0109500Y0085236D03*
X0114500Y0085236D03*
X0114500Y0144764D03*
X0109500Y0144764D03*
X0104500Y0144764D03*
X0099500Y0144764D03*
X0099500Y0165236D03*
X0104500Y0165236D03*
X0109500Y0165236D03*
X0114500Y0165236D03*
D13*
X0045000Y0040000D02*
X0039000Y0040000D01*
X0039000Y0050000D02*
X0045000Y0050000D01*
X0074000Y0070000D02*
X0080000Y0070000D01*
X0080000Y0080000D02*
X0074000Y0080000D01*
X0077000Y0035500D02*
X0077000Y0029500D01*
X0087000Y0029500D02*
X0087000Y0035500D01*
X0097000Y0035500D02*
X0097000Y0029500D01*
X0154000Y0110000D02*
X0160000Y0110000D01*
X0160000Y0120000D02*
X0154000Y0120000D01*
X0080000Y0150000D02*
X0074000Y0150000D01*
X0074000Y0160000D02*
X0080000Y0160000D01*
X0077000Y0184500D02*
X0077000Y0190500D01*
X0087000Y0190500D02*
X0087000Y0184500D01*
X0097000Y0184500D02*
X0097000Y0190500D01*
X0239500Y0180500D02*
X0239500Y0174500D01*
X0249500Y0174500D02*
X0249500Y0180500D01*
X0259500Y0180500D02*
X0259500Y0174500D01*
X0269500Y0174500D02*
X0269500Y0180500D01*
X0272500Y0050000D02*
X0266500Y0050000D01*
X0266500Y0040000D02*
X0272500Y0040000D01*
X0250000Y0040000D02*
X0244000Y0040000D01*
X0244000Y0050000D02*
X0250000Y0050000D01*
D14*
X0247000Y0015000D03*
X0237000Y0015000D03*
X0227000Y0015000D03*
X0207000Y0015000D03*
X0197000Y0015000D03*
X0187000Y0015000D03*
X0177000Y0015000D03*
X0167000Y0015000D03*
X0157000Y0015000D03*
X0257000Y0015000D03*
X0267000Y0015000D03*
X0277000Y0015000D03*
X0277000Y0205000D03*
X0267000Y0205000D03*
X0257000Y0205000D03*
X0247000Y0205000D03*
X0237000Y0205000D03*
X0227000Y0205000D03*
X0217000Y0205000D03*
X0207000Y0205000D03*
X0191000Y0205000D03*
X0181000Y0205000D03*
X0171000Y0205000D03*
X0161000Y0205000D03*
X0151000Y0205000D03*
X0141000Y0205000D03*
X0131000Y0205000D03*
X0121000Y0205000D03*
D15*
X0173063Y0118319D03*
X0175031Y0118319D03*
X0177000Y0118319D03*
X0178969Y0118319D03*
X0180937Y0118319D03*
X0180937Y0101681D03*
X0178969Y0101681D03*
X0177000Y0101681D03*
X0175031Y0101681D03*
X0173063Y0101681D03*
D16*
X0170740Y0090000D03*
X0163260Y0090000D03*
X0180760Y0090000D03*
X0188240Y0090000D03*
X0175740Y0135000D03*
X0168260Y0135000D03*
D17*
X0187010Y0128750D03*
X0194490Y0128750D03*
X0188240Y0080000D03*
X0180760Y0080000D03*
X0106990Y0096250D03*
X0099510Y0096250D03*
X0100760Y0132500D03*
X0108240Y0132500D03*
D18*
X0220002Y0060000D02*
X0226498Y0060000D01*
X0226498Y0050000D02*
X0220002Y0050000D01*
X0220002Y0040000D02*
X0226498Y0040000D01*
D19*
X0089500Y0071260D03*
X0089500Y0078740D03*
X0089500Y0151260D03*
X0089500Y0158740D03*
D20*
X0199500Y0102500D03*
X0147000Y0067500D03*
X0205750Y0056250D03*
X0205750Y0026250D03*
M02*
