G75*
%MOIN*%
%OFA0B0*%
%FSLAX25Y25*%
%IPPOS*%
%LPD*%
%AMOC8*
5,1,8,0,0,1.08239X$1,22.5*
%
%ADD10R,0.02362X0.06299*%
%ADD11R,0.00984X0.03937*%
%ADD12R,0.05118X0.06299*%
%ADD13R,0.05118X0.05906*%
%ADD14R,0.05906X0.05118*%
%ADD15R,0.03150X0.02362*%
%ADD16R,0.04724X0.04724*%
D10*
X0099500Y0064764D03*
X0104500Y0064764D03*
X0109500Y0064764D03*
X0114500Y0064764D03*
X0114500Y0085236D03*
X0109500Y0085236D03*
X0104500Y0085236D03*
X0099500Y0085236D03*
X0099500Y0144764D03*
X0104500Y0144764D03*
X0109500Y0144764D03*
X0114500Y0144764D03*
X0114500Y0165236D03*
X0109500Y0165236D03*
X0104500Y0165236D03*
X0099500Y0165236D03*
D11*
X0173063Y0118319D03*
X0175031Y0118319D03*
X0177000Y0118319D03*
X0178969Y0118319D03*
X0180937Y0118319D03*
X0180937Y0101681D03*
X0178969Y0101681D03*
X0177000Y0101681D03*
X0175031Y0101681D03*
X0173063Y0101681D03*
D12*
X0170740Y0090000D03*
X0163260Y0090000D03*
X0180760Y0090000D03*
X0188240Y0090000D03*
X0175740Y0135000D03*
X0168260Y0135000D03*
X0160740Y0193750D03*
X0153260Y0193750D03*
D13*
X0108240Y0132500D03*
X0100760Y0132500D03*
X0099510Y0096250D03*
X0106990Y0096250D03*
X0180760Y0080000D03*
X0188240Y0080000D03*
X0187010Y0128750D03*
X0194490Y0128750D03*
D14*
X0089500Y0071260D03*
X0089500Y0078740D03*
X0089500Y0151260D03*
X0089500Y0158740D03*
D15*
X0255829Y0050000D03*
X0265671Y0050000D03*
D16*
X0141134Y0193750D03*
X0132866Y0193750D03*
M02*
