G75*
%MOIN*%
%OFA0B0*%
%FSLAX25Y25*%
%IPPOS*%
%LPD*%
%AMOC8*
5,1,8,0,0,1.08239X$1,22.5*
%
%ADD10C,0.05200*%
%ADD11OC8,0.05200*%
%ADD12C,0.06000*%
%ADD13OC8,0.06600*%
%ADD14C,0.06496*%
%ADD15C,0.01600*%
%ADD16C,0.05600*%
%ADD17R,0.04362X0.04362*%
%ADD18C,0.02400*%
%ADD19C,0.03200*%
D10*
X0189500Y0040000D03*
D11*
X0189500Y0060000D03*
D12*
X0244000Y0050000D02*
X0250000Y0050000D01*
X0250000Y0040000D02*
X0244000Y0040000D01*
X0266500Y0040000D02*
X0272500Y0040000D01*
X0272500Y0050000D02*
X0266500Y0050000D01*
X0160000Y0110000D02*
X0154000Y0110000D01*
X0154000Y0120000D02*
X0160000Y0120000D01*
X0080000Y0150000D02*
X0074000Y0150000D01*
X0074000Y0160000D02*
X0080000Y0160000D01*
X0077000Y0184500D02*
X0077000Y0190500D01*
X0087000Y0190500D02*
X0087000Y0184500D01*
X0097000Y0184500D02*
X0097000Y0190500D01*
X0239500Y0180500D02*
X0239500Y0174500D01*
X0249500Y0174500D02*
X0249500Y0180500D01*
X0259500Y0180500D02*
X0259500Y0174500D01*
X0269500Y0174500D02*
X0269500Y0180500D01*
X0080000Y0080000D02*
X0074000Y0080000D01*
X0074000Y0070000D02*
X0080000Y0070000D01*
X0045000Y0050000D02*
X0039000Y0050000D01*
X0039000Y0040000D02*
X0045000Y0040000D01*
X0077000Y0035500D02*
X0077000Y0029500D01*
X0087000Y0029500D02*
X0087000Y0035500D01*
X0097000Y0035500D02*
X0097000Y0029500D01*
D13*
X0157000Y0015000D03*
X0167000Y0015000D03*
X0177000Y0015000D03*
X0187000Y0015000D03*
X0197000Y0015000D03*
X0207000Y0015000D03*
X0227000Y0015000D03*
X0237000Y0015000D03*
X0247000Y0015000D03*
X0257000Y0015000D03*
X0267000Y0015000D03*
X0277000Y0015000D03*
X0277000Y0205000D03*
X0267000Y0205000D03*
X0257000Y0205000D03*
X0247000Y0205000D03*
X0237000Y0205000D03*
X0227000Y0205000D03*
X0217000Y0205000D03*
X0207000Y0205000D03*
X0191000Y0205000D03*
X0181000Y0205000D03*
X0171000Y0205000D03*
X0161000Y0205000D03*
X0151000Y0205000D03*
X0141000Y0205000D03*
X0131000Y0205000D03*
X0121000Y0205000D03*
D14*
X0220002Y0060000D02*
X0226498Y0060000D01*
X0226498Y0050000D02*
X0220002Y0050000D01*
X0220002Y0040000D02*
X0226498Y0040000D01*
D15*
X0028800Y0006800D02*
X0028800Y0213161D01*
X0283839Y0213161D01*
X0287000Y0210000D01*
X0287000Y0165000D01*
X0295151Y0156849D01*
X0295151Y0147500D01*
X0217000Y0147500D01*
X0214500Y0145000D01*
X0214500Y0072500D01*
X0229500Y0072500D01*
X0239500Y0062500D01*
X0274500Y0062500D01*
X0282000Y0055000D01*
X0295151Y0055000D01*
X0295151Y0023151D01*
X0287000Y0015000D01*
X0287000Y0006800D01*
X0028800Y0006800D01*
X0028800Y0008197D02*
X0287000Y0008197D01*
X0287000Y0009796D02*
X0028800Y0009796D01*
X0028800Y0011394D02*
X0153694Y0011394D01*
X0154976Y0010113D02*
X0159024Y0010113D01*
X0161887Y0012976D01*
X0161887Y0017024D01*
X0159024Y0019887D01*
X0154976Y0019887D01*
X0152113Y0017024D01*
X0152113Y0012976D01*
X0154976Y0010113D01*
X0152113Y0012993D02*
X0028800Y0012993D01*
X0028800Y0014591D02*
X0152113Y0014591D01*
X0152113Y0016190D02*
X0028800Y0016190D01*
X0028800Y0017788D02*
X0152876Y0017788D01*
X0154475Y0019387D02*
X0028800Y0019387D01*
X0028800Y0020985D02*
X0162613Y0020985D01*
X0162613Y0019387D02*
X0159525Y0019387D01*
X0161124Y0017788D02*
X0162613Y0017788D01*
X0162613Y0017524D02*
X0162113Y0017024D01*
X0162113Y0012976D01*
X0164976Y0010113D01*
X0169024Y0010113D01*
X0171887Y0012976D01*
X0171887Y0017024D01*
X0171387Y0017524D01*
X0171387Y0068373D01*
X0170719Y0069985D01*
X0169485Y0071219D01*
X0167873Y0071887D01*
X0146127Y0071887D01*
X0144633Y0071268D01*
X0144161Y0071268D01*
X0143231Y0070339D01*
X0143231Y0069867D01*
X0142613Y0068373D01*
X0142613Y0066627D01*
X0143231Y0065133D01*
X0143231Y0064661D01*
X0144161Y0063731D01*
X0144633Y0063731D01*
X0146127Y0063113D01*
X0162613Y0063113D01*
X0162613Y0017524D01*
X0162113Y0016190D02*
X0161887Y0016190D01*
X0161887Y0014591D02*
X0162113Y0014591D01*
X0162113Y0012993D02*
X0161887Y0012993D01*
X0160306Y0011394D02*
X0163694Y0011394D01*
X0170306Y0011394D02*
X0173694Y0011394D01*
X0174976Y0010113D02*
X0179024Y0010113D01*
X0181887Y0012976D01*
X0181887Y0017024D01*
X0179024Y0019887D01*
X0174976Y0019887D01*
X0172113Y0017024D01*
X0172113Y0012976D01*
X0174976Y0010113D01*
X0172113Y0012993D02*
X0171887Y0012993D01*
X0171887Y0014591D02*
X0172113Y0014591D01*
X0172113Y0016190D02*
X0171887Y0016190D01*
X0171387Y0017788D02*
X0172876Y0017788D01*
X0171387Y0019387D02*
X0174475Y0019387D01*
X0171387Y0020985D02*
X0292985Y0020985D01*
X0291387Y0019387D02*
X0279525Y0019387D01*
X0279024Y0019887D02*
X0274976Y0019887D01*
X0272113Y0017024D01*
X0272113Y0012976D01*
X0274976Y0010113D01*
X0279024Y0010113D01*
X0281887Y0012976D01*
X0281887Y0017024D01*
X0279024Y0019887D01*
X0281124Y0017788D02*
X0289788Y0017788D01*
X0288190Y0016190D02*
X0281887Y0016190D01*
X0281887Y0014591D02*
X0287000Y0014591D01*
X0287000Y0012993D02*
X0281887Y0012993D01*
X0280306Y0011394D02*
X0287000Y0011394D01*
X0273694Y0011394D02*
X0270306Y0011394D01*
X0269024Y0010113D02*
X0271887Y0012976D01*
X0271887Y0017024D01*
X0269024Y0019887D01*
X0264976Y0019887D01*
X0262113Y0017024D01*
X0262113Y0012976D01*
X0264976Y0010113D01*
X0269024Y0010113D01*
X0271887Y0012993D02*
X0272113Y0012993D01*
X0272113Y0014591D02*
X0271887Y0014591D01*
X0271887Y0016190D02*
X0272113Y0016190D01*
X0272876Y0017788D02*
X0271124Y0017788D01*
X0269525Y0019387D02*
X0274475Y0019387D01*
X0264475Y0019387D02*
X0259525Y0019387D01*
X0259024Y0019887D02*
X0254976Y0019887D01*
X0252113Y0017024D01*
X0252113Y0012976D01*
X0254976Y0010113D01*
X0259024Y0010113D01*
X0261887Y0012976D01*
X0261887Y0017024D01*
X0259024Y0019887D01*
X0261124Y0017788D02*
X0262876Y0017788D01*
X0262113Y0016190D02*
X0261887Y0016190D01*
X0261887Y0014591D02*
X0262113Y0014591D01*
X0262113Y0012993D02*
X0261887Y0012993D01*
X0260306Y0011394D02*
X0263694Y0011394D01*
X0254475Y0019387D02*
X0249525Y0019387D01*
X0249024Y0019887D02*
X0244976Y0019887D01*
X0242113Y0017024D01*
X0242113Y0012976D01*
X0244976Y0010113D01*
X0249024Y0010113D01*
X0251887Y0012976D01*
X0251887Y0017024D01*
X0249024Y0019887D01*
X0251124Y0017788D02*
X0252876Y0017788D01*
X0252113Y0016190D02*
X0251887Y0016190D01*
X0251887Y0014591D02*
X0252113Y0014591D01*
X0252113Y0012993D02*
X0251887Y0012993D01*
X0250306Y0011394D02*
X0253694Y0011394D01*
X0243694Y0011394D02*
X0240306Y0011394D01*
X0239024Y0010113D02*
X0241887Y0012976D01*
X0241887Y0017024D01*
X0239024Y0019887D01*
X0234976Y0019887D01*
X0232113Y0017024D01*
X0232113Y0012976D01*
X0234976Y0010113D01*
X0239024Y0010113D01*
X0241887Y0012993D02*
X0242113Y0012993D01*
X0242113Y0014591D02*
X0241887Y0014591D01*
X0241887Y0016190D02*
X0242113Y0016190D01*
X0242876Y0017788D02*
X0241124Y0017788D01*
X0239525Y0019387D02*
X0244475Y0019387D01*
X0234475Y0019387D02*
X0229525Y0019387D01*
X0229024Y0019887D02*
X0224976Y0019887D01*
X0222113Y0017024D01*
X0222113Y0012976D01*
X0224976Y0010113D01*
X0229024Y0010113D01*
X0231887Y0012976D01*
X0231887Y0017024D01*
X0229024Y0019887D01*
X0231124Y0017788D02*
X0232876Y0017788D01*
X0232113Y0016190D02*
X0231887Y0016190D01*
X0231887Y0014591D02*
X0232113Y0014591D01*
X0232113Y0012993D02*
X0231887Y0012993D01*
X0230306Y0011394D02*
X0233694Y0011394D01*
X0224475Y0019387D02*
X0209525Y0019387D01*
X0209024Y0019887D02*
X0204976Y0019887D01*
X0202113Y0017024D01*
X0202113Y0012976D01*
X0204976Y0010113D01*
X0209024Y0010113D01*
X0211887Y0012976D01*
X0211887Y0017024D01*
X0209024Y0019887D01*
X0208589Y0022481D02*
X0209518Y0023411D01*
X0209518Y0029089D01*
X0208589Y0030018D01*
X0208537Y0030018D01*
X0208537Y0052481D01*
X0208589Y0052481D01*
X0209518Y0053411D01*
X0209518Y0059089D01*
X0208589Y0060018D01*
X0202911Y0060018D01*
X0201981Y0059089D01*
X0201981Y0053411D01*
X0202911Y0052481D01*
X0202963Y0052481D01*
X0202963Y0030018D01*
X0202911Y0030018D01*
X0201981Y0029089D01*
X0201981Y0023411D01*
X0202911Y0022481D01*
X0208589Y0022481D01*
X0208691Y0022584D02*
X0294584Y0022584D01*
X0295151Y0024182D02*
X0209518Y0024182D01*
X0209518Y0025781D02*
X0295151Y0025781D01*
X0295151Y0027379D02*
X0209518Y0027379D01*
X0209518Y0028978D02*
X0295151Y0028978D01*
X0295151Y0030576D02*
X0208537Y0030576D01*
X0208537Y0032175D02*
X0295151Y0032175D01*
X0295151Y0033773D02*
X0208537Y0033773D01*
X0208537Y0035372D02*
X0218540Y0035372D01*
X0219040Y0035165D02*
X0227460Y0035165D01*
X0229237Y0035901D01*
X0230597Y0037261D01*
X0231333Y0039038D01*
X0231333Y0040962D01*
X0230597Y0042739D01*
X0229237Y0044099D01*
X0227460Y0044835D01*
X0219040Y0044835D01*
X0217263Y0044099D01*
X0215903Y0042739D01*
X0215167Y0040962D01*
X0215167Y0039038D01*
X0215903Y0037261D01*
X0217263Y0035901D01*
X0219040Y0035165D01*
X0216193Y0036970D02*
X0208537Y0036970D01*
X0208537Y0038569D02*
X0215361Y0038569D01*
X0215167Y0040167D02*
X0208537Y0040167D01*
X0208537Y0041766D02*
X0215500Y0041766D01*
X0216528Y0043364D02*
X0208537Y0043364D01*
X0208537Y0044963D02*
X0295151Y0044963D01*
X0295151Y0046561D02*
X0275549Y0046561D01*
X0275099Y0046111D02*
X0276389Y0047401D01*
X0277087Y0049087D01*
X0277087Y0050912D01*
X0276389Y0052599D01*
X0275099Y0053889D01*
X0273412Y0054587D01*
X0265588Y0054587D01*
X0263901Y0053889D01*
X0262611Y0052599D01*
X0261913Y0050912D01*
X0261913Y0049087D01*
X0262611Y0047401D01*
X0263901Y0046111D01*
X0265588Y0045413D01*
X0273412Y0045413D01*
X0275099Y0046111D01*
X0274343Y0044448D02*
X0273624Y0044682D01*
X0272878Y0044800D01*
X0269700Y0044800D01*
X0269700Y0040200D01*
X0269300Y0040200D01*
X0269300Y0044800D01*
X0266122Y0044800D01*
X0265376Y0044682D01*
X0264657Y0044448D01*
X0263984Y0044105D01*
X0263373Y0043661D01*
X0262839Y0043127D01*
X0262395Y0042516D01*
X0262052Y0041843D01*
X0261818Y0041124D01*
X0261700Y0040378D01*
X0261700Y0040200D01*
X0269300Y0040200D01*
X0269300Y0039800D01*
X0269700Y0039800D01*
X0269700Y0040200D01*
X0277300Y0040200D01*
X0277300Y0040378D01*
X0277182Y0041124D01*
X0276948Y0041843D01*
X0276605Y0042516D01*
X0276161Y0043127D01*
X0275627Y0043661D01*
X0275016Y0044105D01*
X0274343Y0044448D01*
X0275924Y0043364D02*
X0295151Y0043364D01*
X0295151Y0041766D02*
X0276973Y0041766D01*
X0277300Y0039800D02*
X0269700Y0039800D01*
X0269700Y0035200D01*
X0272878Y0035200D01*
X0273624Y0035318D01*
X0274343Y0035552D01*
X0275016Y0035895D01*
X0275627Y0036339D01*
X0276161Y0036873D01*
X0276605Y0037484D01*
X0276948Y0038157D01*
X0277182Y0038876D01*
X0277300Y0039622D01*
X0277300Y0039800D01*
X0277082Y0038569D02*
X0295151Y0038569D01*
X0295151Y0040167D02*
X0269700Y0040167D01*
X0269300Y0040167D02*
X0247200Y0040167D01*
X0247200Y0040200D02*
X0254800Y0040200D01*
X0254800Y0040378D01*
X0254682Y0041124D01*
X0254448Y0041843D01*
X0254105Y0042516D01*
X0253661Y0043127D01*
X0253127Y0043661D01*
X0252516Y0044105D01*
X0251843Y0044448D01*
X0251124Y0044682D01*
X0250378Y0044800D01*
X0247200Y0044800D01*
X0247200Y0040200D01*
X0246800Y0040200D01*
X0246800Y0044800D01*
X0243622Y0044800D01*
X0242876Y0044682D01*
X0242157Y0044448D01*
X0241484Y0044105D01*
X0240873Y0043661D01*
X0240339Y0043127D01*
X0239895Y0042516D01*
X0239552Y0041843D01*
X0239318Y0041124D01*
X0239200Y0040378D01*
X0239200Y0040200D01*
X0246800Y0040200D01*
X0246800Y0039800D01*
X0247200Y0039800D01*
X0247200Y0040200D01*
X0247200Y0039800D02*
X0254800Y0039800D01*
X0254800Y0039622D01*
X0254682Y0038876D01*
X0254448Y0038157D01*
X0254105Y0037484D01*
X0253661Y0036873D01*
X0253127Y0036339D01*
X0252516Y0035895D01*
X0251843Y0035552D01*
X0251124Y0035318D01*
X0250378Y0035200D01*
X0247200Y0035200D01*
X0247200Y0039800D01*
X0246800Y0039800D02*
X0246800Y0035200D01*
X0243622Y0035200D01*
X0242876Y0035318D01*
X0242157Y0035552D01*
X0241484Y0035895D01*
X0240873Y0036339D01*
X0240339Y0036873D01*
X0239895Y0037484D01*
X0239552Y0038157D01*
X0239318Y0038876D01*
X0239200Y0039622D01*
X0239200Y0039800D01*
X0246800Y0039800D01*
X0246800Y0040167D02*
X0231333Y0040167D01*
X0231139Y0038569D02*
X0239418Y0038569D01*
X0240268Y0036970D02*
X0230307Y0036970D01*
X0227960Y0035372D02*
X0242711Y0035372D01*
X0246800Y0035372D02*
X0247200Y0035372D01*
X0247200Y0036970D02*
X0246800Y0036970D01*
X0246800Y0038569D02*
X0247200Y0038569D01*
X0247200Y0041766D02*
X0246800Y0041766D01*
X0246800Y0043364D02*
X0247200Y0043364D01*
X0250912Y0045413D02*
X0243087Y0045413D01*
X0241401Y0046111D01*
X0240111Y0047401D01*
X0239413Y0049087D01*
X0239413Y0050912D01*
X0240111Y0052599D01*
X0241401Y0053889D01*
X0243087Y0054587D01*
X0250912Y0054587D01*
X0252599Y0053889D01*
X0253889Y0052599D01*
X0254587Y0050912D01*
X0254587Y0049087D01*
X0253889Y0047401D01*
X0252599Y0046111D01*
X0250912Y0045413D01*
X0253049Y0046561D02*
X0263451Y0046561D01*
X0262297Y0048160D02*
X0254203Y0048160D01*
X0254587Y0049758D02*
X0261913Y0049758D01*
X0262097Y0051357D02*
X0254403Y0051357D01*
X0253532Y0052955D02*
X0262968Y0052955D01*
X0265507Y0054554D02*
X0250993Y0054554D01*
X0243007Y0054554D02*
X0228140Y0054554D01*
X0227460Y0054835D02*
X0229237Y0054099D01*
X0230597Y0052739D01*
X0231333Y0050962D01*
X0231333Y0049038D01*
X0230597Y0047261D01*
X0229237Y0045901D01*
X0227460Y0045165D01*
X0219040Y0045165D01*
X0217263Y0045901D01*
X0215903Y0047261D01*
X0215167Y0049038D01*
X0215167Y0050962D01*
X0215903Y0052739D01*
X0217263Y0054099D01*
X0219040Y0054835D01*
X0227460Y0054835D01*
X0227460Y0055165D02*
X0229237Y0055901D01*
X0230597Y0057261D01*
X0231333Y0059038D01*
X0231333Y0060962D01*
X0230597Y0062739D01*
X0229237Y0064099D01*
X0227460Y0064835D01*
X0219040Y0064835D01*
X0217263Y0064099D01*
X0215903Y0062739D01*
X0215167Y0060962D01*
X0215167Y0059038D01*
X0215903Y0057261D01*
X0217263Y0055901D01*
X0219040Y0055165D01*
X0227460Y0055165D01*
X0229489Y0056152D02*
X0280848Y0056152D01*
X0279249Y0057751D02*
X0230800Y0057751D01*
X0231333Y0059349D02*
X0277651Y0059349D01*
X0276052Y0060948D02*
X0231333Y0060948D01*
X0230677Y0062546D02*
X0239454Y0062546D01*
X0237855Y0064145D02*
X0229127Y0064145D01*
X0233060Y0068940D02*
X0171152Y0068940D01*
X0171387Y0067342D02*
X0234658Y0067342D01*
X0236257Y0065743D02*
X0171387Y0065743D01*
X0171387Y0064145D02*
X0187422Y0064145D01*
X0187677Y0064400D02*
X0185100Y0061823D01*
X0185100Y0060000D01*
X0189500Y0060000D01*
X0189500Y0060000D01*
X0189500Y0064400D01*
X0191323Y0064400D01*
X0193900Y0061823D01*
X0193900Y0060000D01*
X0189500Y0060000D01*
X0189500Y0060000D01*
X0189500Y0060000D01*
X0189500Y0064400D01*
X0187677Y0064400D01*
X0189500Y0064145D02*
X0189500Y0064145D01*
X0189500Y0062546D02*
X0189500Y0062546D01*
X0189500Y0060948D02*
X0189500Y0060948D01*
X0189500Y0060000D02*
X0185100Y0060000D01*
X0185100Y0058177D01*
X0187677Y0055600D01*
X0189500Y0055600D01*
X0191323Y0055600D01*
X0193900Y0058177D01*
X0193900Y0060000D01*
X0189500Y0060000D01*
X0189500Y0055600D01*
X0189500Y0060000D01*
X0189500Y0060000D01*
X0189500Y0059349D02*
X0189500Y0059349D01*
X0189500Y0057751D02*
X0189500Y0057751D01*
X0189500Y0056152D02*
X0189500Y0056152D01*
X0191875Y0056152D02*
X0201981Y0056152D01*
X0201981Y0054554D02*
X0171387Y0054554D01*
X0171387Y0056152D02*
X0187125Y0056152D01*
X0185527Y0057751D02*
X0171387Y0057751D01*
X0171387Y0059349D02*
X0185100Y0059349D01*
X0185100Y0060948D02*
X0171387Y0060948D01*
X0171387Y0062546D02*
X0185824Y0062546D01*
X0191578Y0064145D02*
X0217373Y0064145D01*
X0215823Y0062546D02*
X0193176Y0062546D01*
X0193900Y0060948D02*
X0215167Y0060948D01*
X0215167Y0059349D02*
X0209258Y0059349D01*
X0209518Y0057751D02*
X0215700Y0057751D01*
X0217011Y0056152D02*
X0209518Y0056152D01*
X0209518Y0054554D02*
X0218360Y0054554D01*
X0216119Y0052955D02*
X0209062Y0052955D01*
X0208537Y0051357D02*
X0215330Y0051357D01*
X0215167Y0049758D02*
X0208537Y0049758D01*
X0208537Y0048160D02*
X0215530Y0048160D01*
X0216602Y0046561D02*
X0208537Y0046561D01*
X0202963Y0046561D02*
X0171387Y0046561D01*
X0171387Y0044963D02*
X0202963Y0044963D01*
X0202963Y0043364D02*
X0192058Y0043364D01*
X0191872Y0043550D02*
X0190333Y0044187D01*
X0188667Y0044187D01*
X0187128Y0043550D01*
X0185950Y0042372D01*
X0185313Y0040833D01*
X0185313Y0039167D01*
X0185950Y0037628D01*
X0187128Y0036450D01*
X0188667Y0035813D01*
X0190333Y0035813D01*
X0191872Y0036450D01*
X0193050Y0037628D01*
X0193687Y0039167D01*
X0193687Y0040833D01*
X0193050Y0042372D01*
X0191872Y0043550D01*
X0193301Y0041766D02*
X0202963Y0041766D01*
X0202963Y0040167D02*
X0193687Y0040167D01*
X0193440Y0038569D02*
X0202963Y0038569D01*
X0202963Y0036970D02*
X0192392Y0036970D01*
X0186608Y0036970D02*
X0171387Y0036970D01*
X0171387Y0035372D02*
X0202963Y0035372D01*
X0202963Y0033773D02*
X0171387Y0033773D01*
X0171387Y0032175D02*
X0202963Y0032175D01*
X0202963Y0030576D02*
X0171387Y0030576D01*
X0171387Y0028978D02*
X0201981Y0028978D01*
X0201981Y0027379D02*
X0171387Y0027379D01*
X0171387Y0025781D02*
X0201981Y0025781D01*
X0201981Y0024182D02*
X0171387Y0024182D01*
X0171387Y0022584D02*
X0202809Y0022584D01*
X0199112Y0020100D02*
X0197184Y0020100D01*
X0197184Y0015184D01*
X0196816Y0015184D01*
X0196816Y0014816D01*
X0197184Y0014816D01*
X0197184Y0009900D01*
X0199112Y0009900D01*
X0202100Y0012888D01*
X0202100Y0014816D01*
X0197184Y0014816D01*
X0197184Y0015184D01*
X0202100Y0015184D01*
X0202100Y0017112D01*
X0199112Y0020100D01*
X0199826Y0019387D02*
X0204475Y0019387D01*
X0202876Y0017788D02*
X0201424Y0017788D01*
X0202100Y0016190D02*
X0202113Y0016190D01*
X0202100Y0014591D02*
X0202113Y0014591D01*
X0202100Y0012993D02*
X0202113Y0012993D01*
X0200607Y0011394D02*
X0203694Y0011394D01*
X0210306Y0011394D02*
X0223694Y0011394D01*
X0222113Y0012993D02*
X0211887Y0012993D01*
X0211887Y0014591D02*
X0222113Y0014591D01*
X0222113Y0016190D02*
X0211887Y0016190D01*
X0211124Y0017788D02*
X0222876Y0017788D01*
X0197184Y0017788D02*
X0196816Y0017788D01*
X0196816Y0016190D02*
X0197184Y0016190D01*
X0196816Y0015184D02*
X0196816Y0020100D01*
X0194888Y0020100D01*
X0192000Y0017212D01*
X0189112Y0020100D01*
X0187184Y0020100D01*
X0187184Y0015184D01*
X0186816Y0015184D01*
X0186816Y0014816D01*
X0187184Y0014816D01*
X0187184Y0009900D01*
X0189112Y0009900D01*
X0192000Y0012788D01*
X0194888Y0009900D01*
X0196816Y0009900D01*
X0196816Y0014816D01*
X0187184Y0014816D01*
X0187184Y0015184D01*
X0192100Y0015184D01*
X0196816Y0015184D01*
X0196816Y0014591D02*
X0197184Y0014591D01*
X0197184Y0012993D02*
X0196816Y0012993D01*
X0196816Y0011394D02*
X0197184Y0011394D01*
X0193393Y0011394D02*
X0190607Y0011394D01*
X0187184Y0011394D02*
X0186816Y0011394D01*
X0186816Y0009900D02*
X0184888Y0009900D01*
X0181900Y0012888D01*
X0181900Y0014816D01*
X0186816Y0014816D01*
X0186816Y0009900D01*
X0186816Y0012993D02*
X0187184Y0012993D01*
X0187184Y0014591D02*
X0186816Y0014591D01*
X0186816Y0015184D02*
X0181900Y0015184D01*
X0181900Y0017112D01*
X0184888Y0020100D01*
X0186816Y0020100D01*
X0186816Y0015184D01*
X0186816Y0016190D02*
X0187184Y0016190D01*
X0187184Y0017788D02*
X0186816Y0017788D01*
X0186816Y0019387D02*
X0187184Y0019387D01*
X0189826Y0019387D02*
X0194174Y0019387D01*
X0192576Y0017788D02*
X0191424Y0017788D01*
X0196816Y0019387D02*
X0197184Y0019387D01*
X0184174Y0019387D02*
X0179525Y0019387D01*
X0181124Y0017788D02*
X0182576Y0017788D01*
X0181900Y0016190D02*
X0181887Y0016190D01*
X0181887Y0014591D02*
X0181900Y0014591D01*
X0181887Y0012993D02*
X0181900Y0012993D01*
X0183393Y0011394D02*
X0180306Y0011394D01*
X0162613Y0022584D02*
X0028800Y0022584D01*
X0028800Y0024182D02*
X0162613Y0024182D01*
X0162613Y0025781D02*
X0100047Y0025781D01*
X0100127Y0025839D02*
X0100661Y0026373D01*
X0101105Y0026984D01*
X0101448Y0027657D01*
X0101682Y0028376D01*
X0101800Y0029122D01*
X0101800Y0032300D01*
X0097200Y0032300D01*
X0097200Y0032700D01*
X0101800Y0032700D01*
X0101800Y0035878D01*
X0101682Y0036624D01*
X0101448Y0037343D01*
X0101105Y0038016D01*
X0100661Y0038627D01*
X0100127Y0039161D01*
X0099516Y0039605D01*
X0098843Y0039948D01*
X0098124Y0040182D01*
X0097378Y0040300D01*
X0097200Y0040300D01*
X0097200Y0032700D01*
X0096800Y0032700D01*
X0096800Y0040300D01*
X0096622Y0040300D01*
X0095876Y0040182D01*
X0095157Y0039948D01*
X0094484Y0039605D01*
X0093873Y0039161D01*
X0093339Y0038627D01*
X0092895Y0038016D01*
X0092552Y0037343D01*
X0092318Y0036624D01*
X0092200Y0035878D01*
X0092200Y0032700D01*
X0096800Y0032700D01*
X0096800Y0032300D01*
X0097200Y0032300D01*
X0097200Y0024700D01*
X0097378Y0024700D01*
X0098124Y0024818D01*
X0098843Y0025052D01*
X0099516Y0025395D01*
X0100127Y0025839D01*
X0101307Y0027379D02*
X0162613Y0027379D01*
X0162613Y0028978D02*
X0101777Y0028978D01*
X0101800Y0030576D02*
X0162613Y0030576D01*
X0162613Y0032175D02*
X0101800Y0032175D01*
X0101800Y0033773D02*
X0162613Y0033773D01*
X0162613Y0035372D02*
X0101800Y0035372D01*
X0101569Y0036970D02*
X0162613Y0036970D01*
X0162613Y0038569D02*
X0100704Y0038569D01*
X0098169Y0040167D02*
X0162613Y0040167D01*
X0162613Y0041766D02*
X0090187Y0041766D01*
X0090187Y0041813D02*
X0133884Y0041813D01*
X0135056Y0042298D01*
X0137556Y0044798D01*
X0138452Y0045694D01*
X0138937Y0046866D01*
X0138937Y0148680D01*
X0182556Y0192298D01*
X0183452Y0193194D01*
X0183937Y0194366D01*
X0183937Y0201026D01*
X0185887Y0202976D01*
X0185887Y0207024D01*
X0183024Y0209887D01*
X0178976Y0209887D01*
X0176113Y0207024D01*
X0176113Y0202976D01*
X0177563Y0201526D01*
X0177563Y0196320D01*
X0133048Y0151806D01*
X0132563Y0150634D01*
X0132563Y0048820D01*
X0131930Y0048187D01*
X0087616Y0048187D01*
X0086444Y0047702D01*
X0085548Y0046806D01*
X0084298Y0045556D01*
X0083813Y0044384D01*
X0083813Y0038800D01*
X0083111Y0038099D01*
X0082413Y0036412D01*
X0082413Y0028587D01*
X0083111Y0026901D01*
X0084401Y0025611D01*
X0086088Y0024913D01*
X0087912Y0024913D01*
X0089599Y0025611D01*
X0090889Y0026901D01*
X0091587Y0028587D01*
X0091587Y0036412D01*
X0090889Y0038099D01*
X0090187Y0038800D01*
X0090187Y0041813D01*
X0090187Y0040167D02*
X0095831Y0040167D01*
X0096800Y0040167D02*
X0097200Y0040167D01*
X0097200Y0038569D02*
X0096800Y0038569D01*
X0096800Y0036970D02*
X0097200Y0036970D01*
X0097200Y0035372D02*
X0096800Y0035372D01*
X0096800Y0033773D02*
X0097200Y0033773D01*
X0096800Y0032300D02*
X0092200Y0032300D01*
X0092200Y0029122D01*
X0092318Y0028376D01*
X0092552Y0027657D01*
X0092895Y0026984D01*
X0093339Y0026373D01*
X0093873Y0025839D01*
X0094484Y0025395D01*
X0095157Y0025052D01*
X0095876Y0024818D01*
X0096622Y0024700D01*
X0096800Y0024700D01*
X0096800Y0032300D01*
X0096800Y0032175D02*
X0097200Y0032175D01*
X0097200Y0030576D02*
X0096800Y0030576D01*
X0096800Y0028978D02*
X0097200Y0028978D01*
X0097200Y0027379D02*
X0096800Y0027379D01*
X0096800Y0025781D02*
X0097200Y0025781D01*
X0093953Y0025781D02*
X0089768Y0025781D01*
X0091087Y0027379D02*
X0092693Y0027379D01*
X0092223Y0028978D02*
X0091587Y0028978D01*
X0091587Y0030576D02*
X0092200Y0030576D01*
X0092200Y0032175D02*
X0091587Y0032175D01*
X0091587Y0033773D02*
X0092200Y0033773D01*
X0092200Y0035372D02*
X0091587Y0035372D01*
X0091356Y0036970D02*
X0092431Y0036970D01*
X0093296Y0038569D02*
X0090419Y0038569D01*
X0083813Y0040167D02*
X0075537Y0040167D01*
X0075755Y0039950D02*
X0063887Y0051817D01*
X0063887Y0168183D01*
X0075755Y0180050D01*
X0076088Y0179913D01*
X0077912Y0179913D01*
X0079599Y0180611D01*
X0080889Y0181901D01*
X0081587Y0183587D01*
X0081587Y0191412D01*
X0080889Y0193099D01*
X0079599Y0194389D01*
X0077912Y0195087D01*
X0076088Y0195087D01*
X0074401Y0194389D01*
X0073111Y0193099D01*
X0072413Y0191412D01*
X0072413Y0189117D01*
X0057015Y0173719D01*
X0055781Y0172485D01*
X0055113Y0170873D01*
X0055113Y0049317D01*
X0050183Y0044387D01*
X0046395Y0044387D01*
X0045912Y0044587D01*
X0038088Y0044587D01*
X0036401Y0043889D01*
X0035111Y0042599D01*
X0034413Y0040912D01*
X0034413Y0039088D01*
X0035111Y0037401D01*
X0036401Y0036111D01*
X0038088Y0035413D01*
X0045912Y0035413D01*
X0046395Y0035613D01*
X0052873Y0035613D01*
X0054485Y0036281D01*
X0055719Y0037515D01*
X0060750Y0042545D01*
X0072413Y0030883D01*
X0072413Y0028587D01*
X0073111Y0026901D01*
X0074401Y0025611D01*
X0076088Y0024913D01*
X0077912Y0024913D01*
X0079599Y0025611D01*
X0080889Y0026901D01*
X0081587Y0028587D01*
X0081587Y0036412D01*
X0080889Y0038099D01*
X0079599Y0039389D01*
X0077912Y0040087D01*
X0076088Y0040087D01*
X0075755Y0039950D01*
X0073939Y0041766D02*
X0083813Y0041766D01*
X0083813Y0043364D02*
X0072340Y0043364D01*
X0070742Y0044963D02*
X0084052Y0044963D01*
X0085304Y0046561D02*
X0069143Y0046561D01*
X0067545Y0048160D02*
X0087549Y0048160D01*
X0083581Y0038569D02*
X0080419Y0038569D01*
X0081356Y0036970D02*
X0082644Y0036970D01*
X0082413Y0035372D02*
X0081587Y0035372D01*
X0081587Y0033773D02*
X0082413Y0033773D01*
X0082413Y0032175D02*
X0081587Y0032175D01*
X0081587Y0030576D02*
X0082413Y0030576D01*
X0082413Y0028978D02*
X0081587Y0028978D01*
X0081087Y0027379D02*
X0082913Y0027379D01*
X0084232Y0025781D02*
X0079768Y0025781D01*
X0074232Y0025781D02*
X0028800Y0025781D01*
X0028800Y0027379D02*
X0072913Y0027379D01*
X0072413Y0028978D02*
X0028800Y0028978D01*
X0028800Y0030576D02*
X0072413Y0030576D01*
X0071121Y0032175D02*
X0028800Y0032175D01*
X0028800Y0033773D02*
X0069522Y0033773D01*
X0067924Y0035372D02*
X0028800Y0035372D01*
X0028800Y0036970D02*
X0035542Y0036970D01*
X0034627Y0038569D02*
X0028800Y0038569D01*
X0028800Y0040167D02*
X0034413Y0040167D01*
X0034766Y0041766D02*
X0028800Y0041766D01*
X0028800Y0043364D02*
X0035877Y0043364D01*
X0037157Y0045552D02*
X0037876Y0045318D01*
X0038622Y0045200D01*
X0041800Y0045200D01*
X0041800Y0049800D01*
X0042200Y0049800D01*
X0042200Y0050200D01*
X0041800Y0050200D01*
X0041800Y0054800D01*
X0038622Y0054800D01*
X0037876Y0054682D01*
X0037157Y0054448D01*
X0036484Y0054105D01*
X0035873Y0053661D01*
X0035339Y0053127D01*
X0034895Y0052516D01*
X0034552Y0051843D01*
X0034318Y0051124D01*
X0034200Y0050378D01*
X0034200Y0050200D01*
X0041800Y0050200D01*
X0041800Y0049800D01*
X0034200Y0049800D01*
X0034200Y0049622D01*
X0034318Y0048876D01*
X0034552Y0048157D01*
X0034895Y0047484D01*
X0035339Y0046873D01*
X0035873Y0046339D01*
X0036484Y0045895D01*
X0037157Y0045552D01*
X0035650Y0046561D02*
X0028800Y0046561D01*
X0028800Y0044963D02*
X0050758Y0044963D01*
X0052357Y0046561D02*
X0048350Y0046561D01*
X0048127Y0046339D02*
X0048661Y0046873D01*
X0049105Y0047484D01*
X0049448Y0048157D01*
X0049682Y0048876D01*
X0049800Y0049622D01*
X0049800Y0049800D01*
X0042200Y0049800D01*
X0042200Y0045200D01*
X0045378Y0045200D01*
X0046124Y0045318D01*
X0046843Y0045552D01*
X0047516Y0045895D01*
X0048127Y0046339D01*
X0049449Y0048160D02*
X0053955Y0048160D01*
X0055113Y0049758D02*
X0049800Y0049758D01*
X0049800Y0050200D02*
X0049800Y0050378D01*
X0049682Y0051124D01*
X0049448Y0051843D01*
X0049105Y0052516D01*
X0048661Y0053127D01*
X0048127Y0053661D01*
X0047516Y0054105D01*
X0046843Y0054448D01*
X0046124Y0054682D01*
X0045378Y0054800D01*
X0042200Y0054800D01*
X0042200Y0050200D01*
X0049800Y0050200D01*
X0049606Y0051357D02*
X0055113Y0051357D01*
X0055113Y0052955D02*
X0048786Y0052955D01*
X0046518Y0054554D02*
X0055113Y0054554D01*
X0055113Y0056152D02*
X0028800Y0056152D01*
X0028800Y0054554D02*
X0037482Y0054554D01*
X0035214Y0052955D02*
X0028800Y0052955D01*
X0028800Y0051357D02*
X0034394Y0051357D01*
X0034200Y0049758D02*
X0028800Y0049758D01*
X0028800Y0048160D02*
X0034551Y0048160D01*
X0041800Y0048160D02*
X0042200Y0048160D01*
X0042200Y0049758D02*
X0041800Y0049758D01*
X0041800Y0051357D02*
X0042200Y0051357D01*
X0042200Y0052955D02*
X0041800Y0052955D01*
X0041800Y0054554D02*
X0042200Y0054554D01*
X0042200Y0046561D02*
X0041800Y0046561D01*
X0055175Y0036970D02*
X0066325Y0036970D01*
X0064727Y0038569D02*
X0056773Y0038569D01*
X0055719Y0037515D02*
X0055719Y0037515D01*
X0058372Y0040167D02*
X0063128Y0040167D01*
X0061530Y0041766D02*
X0059970Y0041766D01*
X0065946Y0049758D02*
X0132563Y0049758D01*
X0132563Y0051357D02*
X0064348Y0051357D01*
X0063887Y0052955D02*
X0132563Y0052955D01*
X0132563Y0054554D02*
X0063887Y0054554D01*
X0063887Y0056152D02*
X0132563Y0056152D01*
X0132563Y0057751D02*
X0063887Y0057751D01*
X0063887Y0059349D02*
X0132563Y0059349D01*
X0132563Y0060948D02*
X0063887Y0060948D01*
X0063887Y0062546D02*
X0132563Y0062546D01*
X0132563Y0064145D02*
X0063887Y0064145D01*
X0063887Y0065743D02*
X0072289Y0065743D01*
X0073088Y0065413D02*
X0071401Y0066111D01*
X0070111Y0067401D01*
X0069413Y0069088D01*
X0069413Y0070912D01*
X0070111Y0072599D01*
X0071401Y0073889D01*
X0073088Y0074587D01*
X0080912Y0074587D01*
X0082599Y0073889D01*
X0083889Y0072599D01*
X0084587Y0070912D01*
X0084587Y0069088D01*
X0083889Y0067401D01*
X0082599Y0066111D01*
X0080912Y0065413D01*
X0073088Y0065413D01*
X0070170Y0067342D02*
X0063887Y0067342D01*
X0063887Y0068940D02*
X0069473Y0068940D01*
X0069413Y0070539D02*
X0063887Y0070539D01*
X0063887Y0072137D02*
X0069920Y0072137D01*
X0071248Y0073736D02*
X0063887Y0073736D01*
X0063887Y0075334D02*
X0132563Y0075334D01*
X0132563Y0073736D02*
X0082752Y0073736D01*
X0084080Y0072137D02*
X0132563Y0072137D01*
X0132563Y0070539D02*
X0084587Y0070539D01*
X0084526Y0068940D02*
X0132563Y0068940D01*
X0132563Y0067342D02*
X0083830Y0067342D01*
X0081711Y0065743D02*
X0132563Y0065743D01*
X0138937Y0065743D02*
X0142979Y0065743D01*
X0142613Y0067342D02*
X0138937Y0067342D01*
X0138937Y0068940D02*
X0142848Y0068940D01*
X0143432Y0070539D02*
X0138937Y0070539D01*
X0138937Y0072137D02*
X0229863Y0072137D01*
X0231461Y0070539D02*
X0170166Y0070539D01*
X0162613Y0062546D02*
X0138937Y0062546D01*
X0138937Y0060948D02*
X0162613Y0060948D01*
X0162613Y0059349D02*
X0138937Y0059349D01*
X0138937Y0057751D02*
X0162613Y0057751D01*
X0162613Y0056152D02*
X0138937Y0056152D01*
X0138937Y0054554D02*
X0162613Y0054554D01*
X0162613Y0052955D02*
X0138937Y0052955D01*
X0138937Y0051357D02*
X0162613Y0051357D01*
X0162613Y0049758D02*
X0138937Y0049758D01*
X0138937Y0048160D02*
X0162613Y0048160D01*
X0162613Y0046561D02*
X0138811Y0046561D01*
X0137720Y0044963D02*
X0162613Y0044963D01*
X0162613Y0043364D02*
X0136122Y0043364D01*
X0138937Y0064145D02*
X0143748Y0064145D01*
X0138937Y0073736D02*
X0214500Y0073736D01*
X0214500Y0075334D02*
X0138937Y0075334D01*
X0138937Y0076933D02*
X0214500Y0076933D01*
X0214500Y0078532D02*
X0138937Y0078532D01*
X0138937Y0080130D02*
X0214500Y0080130D01*
X0214500Y0081729D02*
X0138937Y0081729D01*
X0138937Y0083327D02*
X0214500Y0083327D01*
X0214500Y0084926D02*
X0138937Y0084926D01*
X0138937Y0086524D02*
X0214500Y0086524D01*
X0214500Y0088123D02*
X0138937Y0088123D01*
X0138937Y0089721D02*
X0214500Y0089721D01*
X0214500Y0091320D02*
X0138937Y0091320D01*
X0138937Y0092918D02*
X0214500Y0092918D01*
X0214500Y0094517D02*
X0138937Y0094517D01*
X0138937Y0096115D02*
X0214500Y0096115D01*
X0214500Y0097714D02*
X0138937Y0097714D01*
X0138937Y0099312D02*
X0196081Y0099312D01*
X0195731Y0099661D02*
X0196661Y0098731D01*
X0202339Y0098731D01*
X0203268Y0099661D01*
X0203268Y0105339D01*
X0202687Y0105920D01*
X0202687Y0189313D01*
X0257634Y0189313D01*
X0258806Y0189798D01*
X0259702Y0190694D01*
X0260187Y0191866D01*
X0260187Y0201276D01*
X0261887Y0202976D01*
X0261887Y0207024D01*
X0259024Y0209887D01*
X0254976Y0209887D01*
X0252113Y0207024D01*
X0252113Y0202976D01*
X0253813Y0201276D01*
X0253813Y0195687D01*
X0198866Y0195687D01*
X0197694Y0195202D01*
X0196798Y0194306D01*
X0196313Y0193134D01*
X0196313Y0105920D01*
X0195731Y0105339D01*
X0195731Y0099661D01*
X0195731Y0100911D02*
X0138937Y0100911D01*
X0138937Y0102509D02*
X0195731Y0102509D01*
X0195731Y0104108D02*
X0138937Y0104108D01*
X0138937Y0105706D02*
X0151854Y0105706D01*
X0152157Y0105552D02*
X0152876Y0105318D01*
X0153622Y0105200D01*
X0156800Y0105200D01*
X0156800Y0109800D01*
X0157200Y0109800D01*
X0157200Y0110200D01*
X0156800Y0110200D01*
X0156800Y0114800D01*
X0153622Y0114800D01*
X0152876Y0114682D01*
X0152157Y0114448D01*
X0151484Y0114105D01*
X0150873Y0113661D01*
X0150339Y0113127D01*
X0149895Y0112516D01*
X0149552Y0111843D01*
X0149318Y0111124D01*
X0149200Y0110378D01*
X0149200Y0110200D01*
X0156800Y0110200D01*
X0156800Y0109800D01*
X0149200Y0109800D01*
X0149200Y0109622D01*
X0149318Y0108876D01*
X0149552Y0108157D01*
X0149895Y0107484D01*
X0150339Y0106873D01*
X0150873Y0106339D01*
X0151484Y0105895D01*
X0152157Y0105552D01*
X0150025Y0107305D02*
X0138937Y0107305D01*
X0138937Y0108903D02*
X0149314Y0108903D01*
X0149220Y0110502D02*
X0138937Y0110502D01*
X0138937Y0112100D02*
X0149683Y0112100D01*
X0150925Y0113699D02*
X0138937Y0113699D01*
X0138937Y0115297D02*
X0196313Y0115297D01*
X0196313Y0113699D02*
X0163075Y0113699D01*
X0163127Y0113661D02*
X0162516Y0114105D01*
X0161843Y0114448D01*
X0161124Y0114682D01*
X0160378Y0114800D01*
X0157200Y0114800D01*
X0157200Y0110200D01*
X0164800Y0110200D01*
X0164800Y0110378D01*
X0164682Y0111124D01*
X0164448Y0111843D01*
X0164105Y0112516D01*
X0163661Y0113127D01*
X0163127Y0113661D01*
X0164317Y0112100D02*
X0196313Y0112100D01*
X0196313Y0110502D02*
X0164780Y0110502D01*
X0164800Y0109800D02*
X0157200Y0109800D01*
X0157200Y0105200D01*
X0160378Y0105200D01*
X0161124Y0105318D01*
X0161843Y0105552D01*
X0162516Y0105895D01*
X0163127Y0106339D01*
X0163661Y0106873D01*
X0164105Y0107484D01*
X0164448Y0108157D01*
X0164682Y0108876D01*
X0164800Y0109622D01*
X0164800Y0109800D01*
X0164686Y0108903D02*
X0196313Y0108903D01*
X0196313Y0107305D02*
X0163975Y0107305D01*
X0162146Y0105706D02*
X0196099Y0105706D01*
X0202687Y0107305D02*
X0214500Y0107305D01*
X0214500Y0108903D02*
X0202687Y0108903D01*
X0202687Y0110502D02*
X0214500Y0110502D01*
X0214500Y0112100D02*
X0202687Y0112100D01*
X0202687Y0113699D02*
X0214500Y0113699D01*
X0214500Y0115297D02*
X0202687Y0115297D01*
X0202687Y0116896D02*
X0214500Y0116896D01*
X0214500Y0118494D02*
X0202687Y0118494D01*
X0202687Y0120093D02*
X0214500Y0120093D01*
X0214500Y0121691D02*
X0202687Y0121691D01*
X0202687Y0123290D02*
X0214500Y0123290D01*
X0214500Y0124888D02*
X0202687Y0124888D01*
X0202687Y0126487D02*
X0214500Y0126487D01*
X0214500Y0128085D02*
X0202687Y0128085D01*
X0202687Y0129684D02*
X0214500Y0129684D01*
X0214500Y0131282D02*
X0202687Y0131282D01*
X0202687Y0132881D02*
X0214500Y0132881D01*
X0214500Y0134479D02*
X0202687Y0134479D01*
X0202687Y0136078D02*
X0214500Y0136078D01*
X0214500Y0137676D02*
X0202687Y0137676D01*
X0202687Y0139275D02*
X0214500Y0139275D01*
X0214500Y0140873D02*
X0202687Y0140873D01*
X0202687Y0142472D02*
X0214500Y0142472D01*
X0214500Y0144070D02*
X0202687Y0144070D01*
X0202687Y0145669D02*
X0215169Y0145669D01*
X0216768Y0147268D02*
X0202687Y0147268D01*
X0202687Y0148866D02*
X0295151Y0148866D01*
X0295151Y0150465D02*
X0202687Y0150465D01*
X0202687Y0152063D02*
X0295151Y0152063D01*
X0295151Y0153662D02*
X0202687Y0153662D01*
X0202687Y0155260D02*
X0295151Y0155260D01*
X0295141Y0156859D02*
X0202687Y0156859D01*
X0202687Y0158457D02*
X0293543Y0158457D01*
X0291944Y0160056D02*
X0202687Y0160056D01*
X0202687Y0161654D02*
X0290346Y0161654D01*
X0288747Y0163253D02*
X0202687Y0163253D01*
X0202687Y0164851D02*
X0287149Y0164851D01*
X0287000Y0166450D02*
X0202687Y0166450D01*
X0202687Y0168048D02*
X0287000Y0168048D01*
X0287000Y0169647D02*
X0202687Y0169647D01*
X0202687Y0171245D02*
X0235967Y0171245D01*
X0235839Y0171373D02*
X0236373Y0170839D01*
X0236984Y0170395D01*
X0237657Y0170052D01*
X0238376Y0169818D01*
X0239122Y0169700D01*
X0239300Y0169700D01*
X0239300Y0177300D01*
X0239700Y0177300D01*
X0239700Y0177700D01*
X0244300Y0177700D01*
X0244300Y0180878D01*
X0244182Y0181624D01*
X0243948Y0182343D01*
X0243605Y0183016D01*
X0243161Y0183627D01*
X0242627Y0184161D01*
X0242016Y0184605D01*
X0241343Y0184948D01*
X0240624Y0185182D01*
X0239878Y0185300D01*
X0239700Y0185300D01*
X0239700Y0177700D01*
X0239300Y0177700D01*
X0239300Y0185300D01*
X0239122Y0185300D01*
X0238376Y0185182D01*
X0237657Y0184948D01*
X0236984Y0184605D01*
X0236373Y0184161D01*
X0235839Y0183627D01*
X0235395Y0183016D01*
X0235052Y0182343D01*
X0234818Y0181624D01*
X0234700Y0180878D01*
X0234700Y0177700D01*
X0239300Y0177700D01*
X0239300Y0177300D01*
X0234700Y0177300D01*
X0234700Y0174122D01*
X0234818Y0173376D01*
X0235052Y0172657D01*
X0235395Y0171984D01*
X0235839Y0171373D01*
X0234991Y0172844D02*
X0202687Y0172844D01*
X0202687Y0174442D02*
X0234700Y0174442D01*
X0234700Y0176041D02*
X0202687Y0176041D01*
X0202687Y0177639D02*
X0239300Y0177639D01*
X0239700Y0177639D02*
X0244913Y0177639D01*
X0244300Y0177300D02*
X0239700Y0177300D01*
X0239700Y0169700D01*
X0239878Y0169700D01*
X0240624Y0169818D01*
X0241343Y0170052D01*
X0242016Y0170395D01*
X0242627Y0170839D01*
X0243161Y0171373D01*
X0243605Y0171984D01*
X0243948Y0172657D01*
X0244182Y0173376D01*
X0244300Y0174122D01*
X0244300Y0177300D01*
X0244300Y0176041D02*
X0244913Y0176041D01*
X0244913Y0174442D02*
X0244300Y0174442D01*
X0244913Y0173587D02*
X0245611Y0171901D01*
X0246901Y0170611D01*
X0248587Y0169913D01*
X0250412Y0169913D01*
X0252099Y0170611D01*
X0253389Y0171901D01*
X0254087Y0173587D01*
X0254087Y0181412D01*
X0253389Y0183099D01*
X0252099Y0184389D01*
X0250412Y0185087D01*
X0248587Y0185087D01*
X0246901Y0184389D01*
X0245611Y0183099D01*
X0244913Y0181412D01*
X0244913Y0173587D01*
X0245221Y0172844D02*
X0244009Y0172844D01*
X0243033Y0171245D02*
X0246267Y0171245D01*
X0252733Y0171245D02*
X0256267Y0171245D01*
X0256901Y0170611D02*
X0258587Y0169913D01*
X0260412Y0169913D01*
X0262099Y0170611D01*
X0263389Y0171901D01*
X0264087Y0173587D01*
X0264087Y0181412D01*
X0263389Y0183099D01*
X0262099Y0184389D01*
X0260412Y0185087D01*
X0258587Y0185087D01*
X0256901Y0184389D01*
X0255611Y0183099D01*
X0254913Y0181412D01*
X0254913Y0173587D01*
X0255611Y0171901D01*
X0256901Y0170611D01*
X0255221Y0172844D02*
X0253779Y0172844D01*
X0254087Y0174442D02*
X0254913Y0174442D01*
X0254913Y0176041D02*
X0254087Y0176041D01*
X0254087Y0177639D02*
X0254913Y0177639D01*
X0254913Y0179238D02*
X0254087Y0179238D01*
X0254087Y0180836D02*
X0254913Y0180836D01*
X0255336Y0182435D02*
X0253664Y0182435D01*
X0252454Y0184033D02*
X0256546Y0184033D01*
X0262454Y0184033D02*
X0266546Y0184033D01*
X0266901Y0184389D02*
X0265611Y0183099D01*
X0264913Y0181412D01*
X0264913Y0173587D01*
X0265611Y0171901D01*
X0266901Y0170611D01*
X0268588Y0169913D01*
X0270412Y0169913D01*
X0272099Y0170611D01*
X0273389Y0171901D01*
X0274087Y0173587D01*
X0274087Y0181412D01*
X0273389Y0183099D01*
X0272099Y0184389D01*
X0270412Y0185087D01*
X0268588Y0185087D01*
X0266901Y0184389D01*
X0265336Y0182435D02*
X0263664Y0182435D01*
X0264087Y0180836D02*
X0264913Y0180836D01*
X0264913Y0179238D02*
X0264087Y0179238D01*
X0264087Y0177639D02*
X0264913Y0177639D01*
X0264913Y0176041D02*
X0264087Y0176041D01*
X0264087Y0174442D02*
X0264913Y0174442D01*
X0265221Y0172844D02*
X0263779Y0172844D01*
X0262733Y0171245D02*
X0266267Y0171245D01*
X0272733Y0171245D02*
X0287000Y0171245D01*
X0287000Y0172844D02*
X0273779Y0172844D01*
X0274087Y0174442D02*
X0287000Y0174442D01*
X0287000Y0176041D02*
X0274087Y0176041D01*
X0274087Y0177639D02*
X0287000Y0177639D01*
X0287000Y0179238D02*
X0274087Y0179238D01*
X0274087Y0180836D02*
X0287000Y0180836D01*
X0287000Y0182435D02*
X0273664Y0182435D01*
X0272454Y0184033D02*
X0287000Y0184033D01*
X0287000Y0185632D02*
X0202687Y0185632D01*
X0202687Y0187230D02*
X0287000Y0187230D01*
X0287000Y0188829D02*
X0202687Y0188829D01*
X0196313Y0188829D02*
X0179086Y0188829D01*
X0177488Y0187230D02*
X0196313Y0187230D01*
X0196313Y0185632D02*
X0175889Y0185632D01*
X0174291Y0184033D02*
X0196313Y0184033D01*
X0196313Y0182435D02*
X0172692Y0182435D01*
X0171094Y0180836D02*
X0196313Y0180836D01*
X0196313Y0179238D02*
X0169495Y0179238D01*
X0167897Y0177639D02*
X0196313Y0177639D01*
X0196313Y0176041D02*
X0166298Y0176041D01*
X0164700Y0174442D02*
X0196313Y0174442D01*
X0196313Y0172844D02*
X0163101Y0172844D01*
X0161503Y0171245D02*
X0196313Y0171245D01*
X0196313Y0169647D02*
X0159904Y0169647D01*
X0158306Y0168048D02*
X0196313Y0168048D01*
X0196313Y0166450D02*
X0156707Y0166450D01*
X0155109Y0164851D02*
X0196313Y0164851D01*
X0196313Y0163253D02*
X0153510Y0163253D01*
X0151912Y0161654D02*
X0196313Y0161654D01*
X0196313Y0160056D02*
X0150313Y0160056D01*
X0148715Y0158457D02*
X0196313Y0158457D01*
X0196313Y0156859D02*
X0147116Y0156859D01*
X0145518Y0155260D02*
X0196313Y0155260D01*
X0196313Y0153662D02*
X0143919Y0153662D01*
X0142321Y0152063D02*
X0196313Y0152063D01*
X0196313Y0150465D02*
X0140722Y0150465D01*
X0139124Y0148866D02*
X0196313Y0148866D01*
X0196313Y0147268D02*
X0138937Y0147268D01*
X0138937Y0145669D02*
X0196313Y0145669D01*
X0196313Y0144070D02*
X0138937Y0144070D01*
X0138937Y0142472D02*
X0196313Y0142472D01*
X0196313Y0140873D02*
X0138937Y0140873D01*
X0138937Y0139275D02*
X0196313Y0139275D01*
X0196313Y0137676D02*
X0138937Y0137676D01*
X0138937Y0136078D02*
X0196313Y0136078D01*
X0196313Y0134479D02*
X0138937Y0134479D01*
X0138937Y0132881D02*
X0196313Y0132881D01*
X0196313Y0131282D02*
X0138937Y0131282D01*
X0138937Y0129684D02*
X0196313Y0129684D01*
X0196313Y0128085D02*
X0138937Y0128085D01*
X0138937Y0126487D02*
X0196313Y0126487D01*
X0196313Y0124888D02*
X0138937Y0124888D01*
X0138937Y0123290D02*
X0150802Y0123290D01*
X0151401Y0123889D02*
X0150111Y0122599D01*
X0149413Y0120912D01*
X0149413Y0119087D01*
X0150111Y0117401D01*
X0151401Y0116111D01*
X0153088Y0115413D01*
X0160912Y0115413D01*
X0162599Y0116111D01*
X0163889Y0117401D01*
X0164587Y0119087D01*
X0164587Y0120912D01*
X0163889Y0122599D01*
X0162599Y0123889D01*
X0160912Y0124587D01*
X0153088Y0124587D01*
X0151401Y0123889D01*
X0149735Y0121691D02*
X0138937Y0121691D01*
X0138937Y0120093D02*
X0149413Y0120093D01*
X0149658Y0118494D02*
X0138937Y0118494D01*
X0138937Y0116896D02*
X0150617Y0116896D01*
X0156800Y0113699D02*
X0157200Y0113699D01*
X0157200Y0112100D02*
X0156800Y0112100D01*
X0156800Y0110502D02*
X0157200Y0110502D01*
X0157200Y0108903D02*
X0156800Y0108903D01*
X0156800Y0107305D02*
X0157200Y0107305D01*
X0157200Y0105706D02*
X0156800Y0105706D01*
X0163383Y0116896D02*
X0196313Y0116896D01*
X0196313Y0118494D02*
X0164342Y0118494D01*
X0164587Y0120093D02*
X0196313Y0120093D01*
X0196313Y0121691D02*
X0164265Y0121691D01*
X0163198Y0123290D02*
X0196313Y0123290D01*
X0202901Y0105706D02*
X0214500Y0105706D01*
X0214500Y0104108D02*
X0203268Y0104108D01*
X0203268Y0102509D02*
X0214500Y0102509D01*
X0214500Y0100911D02*
X0203268Y0100911D01*
X0202919Y0099312D02*
X0214500Y0099312D01*
X0202242Y0059349D02*
X0193900Y0059349D01*
X0193473Y0057751D02*
X0201981Y0057751D01*
X0202438Y0052955D02*
X0171387Y0052955D01*
X0171387Y0051357D02*
X0202963Y0051357D01*
X0202963Y0049758D02*
X0171387Y0049758D01*
X0171387Y0048160D02*
X0202963Y0048160D01*
X0186942Y0043364D02*
X0171387Y0043364D01*
X0171387Y0041766D02*
X0185699Y0041766D01*
X0185313Y0040167D02*
X0171387Y0040167D01*
X0171387Y0038569D02*
X0185560Y0038569D01*
X0229972Y0043364D02*
X0240576Y0043364D01*
X0239527Y0041766D02*
X0231000Y0041766D01*
X0229898Y0046561D02*
X0240951Y0046561D01*
X0239797Y0048160D02*
X0230970Y0048160D01*
X0231333Y0049758D02*
X0239413Y0049758D01*
X0239597Y0051357D02*
X0231170Y0051357D01*
X0230381Y0052955D02*
X0240468Y0052955D01*
X0253424Y0043364D02*
X0263076Y0043364D01*
X0262027Y0041766D02*
X0254473Y0041766D01*
X0254582Y0038569D02*
X0261918Y0038569D01*
X0261818Y0038876D02*
X0262052Y0038157D01*
X0262395Y0037484D01*
X0262839Y0036873D01*
X0263373Y0036339D01*
X0263984Y0035895D01*
X0264657Y0035552D01*
X0265376Y0035318D01*
X0266122Y0035200D01*
X0269300Y0035200D01*
X0269300Y0039800D01*
X0261700Y0039800D01*
X0261700Y0039622D01*
X0261818Y0038876D01*
X0262768Y0036970D02*
X0253732Y0036970D01*
X0251289Y0035372D02*
X0265211Y0035372D01*
X0269300Y0035372D02*
X0269700Y0035372D01*
X0269700Y0036970D02*
X0269300Y0036970D01*
X0269300Y0038569D02*
X0269700Y0038569D01*
X0273789Y0035372D02*
X0295151Y0035372D01*
X0295151Y0036970D02*
X0276232Y0036970D01*
X0269700Y0041766D02*
X0269300Y0041766D01*
X0269300Y0043364D02*
X0269700Y0043364D01*
X0276703Y0048160D02*
X0295151Y0048160D01*
X0295151Y0049758D02*
X0277087Y0049758D01*
X0276903Y0051357D02*
X0295151Y0051357D01*
X0295151Y0052955D02*
X0276032Y0052955D01*
X0273493Y0054554D02*
X0295151Y0054554D01*
X0144495Y0163253D02*
X0083235Y0163253D01*
X0082599Y0163889D02*
X0080912Y0164587D01*
X0073088Y0164587D01*
X0071401Y0163889D01*
X0070111Y0162599D01*
X0069413Y0160912D01*
X0069413Y0159088D01*
X0070111Y0157401D01*
X0071401Y0156111D01*
X0073088Y0155413D01*
X0080912Y0155413D01*
X0082599Y0156111D01*
X0083889Y0157401D01*
X0084587Y0159088D01*
X0084587Y0160912D01*
X0083889Y0162599D01*
X0082599Y0163889D01*
X0084280Y0161654D02*
X0142896Y0161654D01*
X0141298Y0160056D02*
X0084587Y0160056D01*
X0084326Y0158457D02*
X0139699Y0158457D01*
X0138101Y0156859D02*
X0083346Y0156859D01*
X0082599Y0153889D02*
X0080912Y0154587D01*
X0073088Y0154587D01*
X0071401Y0153889D01*
X0070111Y0152599D01*
X0069413Y0150912D01*
X0069413Y0149088D01*
X0070111Y0147401D01*
X0071401Y0146111D01*
X0073088Y0145413D01*
X0080912Y0145413D01*
X0082599Y0146111D01*
X0083889Y0147401D01*
X0084587Y0149088D01*
X0084587Y0150912D01*
X0083889Y0152599D01*
X0082599Y0153889D01*
X0082826Y0153662D02*
X0134904Y0153662D01*
X0136502Y0155260D02*
X0063887Y0155260D01*
X0063887Y0153662D02*
X0071174Y0153662D01*
X0069889Y0152063D02*
X0063887Y0152063D01*
X0063887Y0150465D02*
X0069413Y0150465D01*
X0069504Y0148866D02*
X0063887Y0148866D01*
X0063887Y0147268D02*
X0070245Y0147268D01*
X0072468Y0145669D02*
X0063887Y0145669D01*
X0063887Y0144070D02*
X0132563Y0144070D01*
X0132563Y0142472D02*
X0063887Y0142472D01*
X0063887Y0140873D02*
X0132563Y0140873D01*
X0132563Y0139275D02*
X0063887Y0139275D01*
X0063887Y0137676D02*
X0132563Y0137676D01*
X0132563Y0136078D02*
X0063887Y0136078D01*
X0063887Y0134479D02*
X0132563Y0134479D01*
X0132563Y0132881D02*
X0063887Y0132881D01*
X0063887Y0131282D02*
X0132563Y0131282D01*
X0132563Y0129684D02*
X0063887Y0129684D01*
X0063887Y0128085D02*
X0132563Y0128085D01*
X0132563Y0126487D02*
X0063887Y0126487D01*
X0063887Y0124888D02*
X0132563Y0124888D01*
X0132563Y0123290D02*
X0063887Y0123290D01*
X0063887Y0121691D02*
X0132563Y0121691D01*
X0132563Y0120093D02*
X0063887Y0120093D01*
X0063887Y0118494D02*
X0132563Y0118494D01*
X0132563Y0116896D02*
X0063887Y0116896D01*
X0063887Y0115297D02*
X0132563Y0115297D01*
X0132563Y0113699D02*
X0063887Y0113699D01*
X0063887Y0112100D02*
X0132563Y0112100D01*
X0132563Y0110502D02*
X0063887Y0110502D01*
X0063887Y0108903D02*
X0132563Y0108903D01*
X0132563Y0107305D02*
X0063887Y0107305D01*
X0063887Y0105706D02*
X0132563Y0105706D01*
X0132563Y0104108D02*
X0063887Y0104108D01*
X0063887Y0102509D02*
X0132563Y0102509D01*
X0132563Y0100911D02*
X0063887Y0100911D01*
X0063887Y0099312D02*
X0132563Y0099312D01*
X0132563Y0097714D02*
X0063887Y0097714D01*
X0063887Y0096115D02*
X0132563Y0096115D01*
X0132563Y0094517D02*
X0063887Y0094517D01*
X0063887Y0092918D02*
X0132563Y0092918D01*
X0132563Y0091320D02*
X0063887Y0091320D01*
X0063887Y0089721D02*
X0132563Y0089721D01*
X0132563Y0088123D02*
X0063887Y0088123D01*
X0063887Y0086524D02*
X0132563Y0086524D01*
X0132563Y0084926D02*
X0063887Y0084926D01*
X0063887Y0083327D02*
X0070839Y0083327D01*
X0071401Y0083889D02*
X0070111Y0082599D01*
X0069413Y0080912D01*
X0069413Y0079088D01*
X0070111Y0077401D01*
X0071401Y0076111D01*
X0073088Y0075413D01*
X0080912Y0075413D01*
X0082599Y0076111D01*
X0083889Y0077401D01*
X0084587Y0079088D01*
X0084587Y0080912D01*
X0083889Y0082599D01*
X0082599Y0083889D01*
X0080912Y0084587D01*
X0073088Y0084587D01*
X0071401Y0083889D01*
X0069751Y0081729D02*
X0063887Y0081729D01*
X0063887Y0080130D02*
X0069413Y0080130D01*
X0069643Y0078532D02*
X0063887Y0078532D01*
X0063887Y0076933D02*
X0070579Y0076933D01*
X0083421Y0076933D02*
X0132563Y0076933D01*
X0132563Y0078532D02*
X0084357Y0078532D01*
X0084587Y0080130D02*
X0132563Y0080130D01*
X0132563Y0081729D02*
X0084249Y0081729D01*
X0083160Y0083327D02*
X0132563Y0083327D01*
X0055113Y0083327D02*
X0028800Y0083327D01*
X0028800Y0081729D02*
X0055113Y0081729D01*
X0055113Y0080130D02*
X0028800Y0080130D01*
X0028800Y0078532D02*
X0055113Y0078532D01*
X0055113Y0076933D02*
X0028800Y0076933D01*
X0028800Y0075334D02*
X0055113Y0075334D01*
X0055113Y0073736D02*
X0028800Y0073736D01*
X0028800Y0072137D02*
X0055113Y0072137D01*
X0055113Y0070539D02*
X0028800Y0070539D01*
X0028800Y0068940D02*
X0055113Y0068940D01*
X0055113Y0067342D02*
X0028800Y0067342D01*
X0028800Y0065743D02*
X0055113Y0065743D01*
X0055113Y0064145D02*
X0028800Y0064145D01*
X0028800Y0062546D02*
X0055113Y0062546D01*
X0055113Y0060948D02*
X0028800Y0060948D01*
X0028800Y0059349D02*
X0055113Y0059349D01*
X0055113Y0057751D02*
X0028800Y0057751D01*
X0028800Y0084926D02*
X0055113Y0084926D01*
X0055113Y0086524D02*
X0028800Y0086524D01*
X0028800Y0088123D02*
X0055113Y0088123D01*
X0055113Y0089721D02*
X0028800Y0089721D01*
X0028800Y0091320D02*
X0055113Y0091320D01*
X0055113Y0092918D02*
X0028800Y0092918D01*
X0028800Y0094517D02*
X0055113Y0094517D01*
X0055113Y0096115D02*
X0028800Y0096115D01*
X0028800Y0097714D02*
X0055113Y0097714D01*
X0055113Y0099312D02*
X0028800Y0099312D01*
X0028800Y0100911D02*
X0055113Y0100911D01*
X0055113Y0102509D02*
X0028800Y0102509D01*
X0028800Y0104108D02*
X0055113Y0104108D01*
X0055113Y0105706D02*
X0028800Y0105706D01*
X0028800Y0107305D02*
X0055113Y0107305D01*
X0055113Y0108903D02*
X0028800Y0108903D01*
X0028800Y0110502D02*
X0055113Y0110502D01*
X0055113Y0112100D02*
X0028800Y0112100D01*
X0028800Y0113699D02*
X0055113Y0113699D01*
X0055113Y0115297D02*
X0028800Y0115297D01*
X0028800Y0116896D02*
X0055113Y0116896D01*
X0055113Y0118494D02*
X0028800Y0118494D01*
X0028800Y0120093D02*
X0055113Y0120093D01*
X0055113Y0121691D02*
X0028800Y0121691D01*
X0028800Y0123290D02*
X0055113Y0123290D01*
X0055113Y0124888D02*
X0028800Y0124888D01*
X0028800Y0126487D02*
X0055113Y0126487D01*
X0055113Y0128085D02*
X0028800Y0128085D01*
X0028800Y0129684D02*
X0055113Y0129684D01*
X0055113Y0131282D02*
X0028800Y0131282D01*
X0028800Y0132881D02*
X0055113Y0132881D01*
X0055113Y0134479D02*
X0028800Y0134479D01*
X0028800Y0136078D02*
X0055113Y0136078D01*
X0055113Y0137676D02*
X0028800Y0137676D01*
X0028800Y0139275D02*
X0055113Y0139275D01*
X0055113Y0140873D02*
X0028800Y0140873D01*
X0028800Y0142472D02*
X0055113Y0142472D01*
X0055113Y0144070D02*
X0028800Y0144070D01*
X0028800Y0145669D02*
X0055113Y0145669D01*
X0055113Y0147268D02*
X0028800Y0147268D01*
X0028800Y0148866D02*
X0055113Y0148866D01*
X0055113Y0150465D02*
X0028800Y0150465D01*
X0028800Y0152063D02*
X0055113Y0152063D01*
X0055113Y0153662D02*
X0028800Y0153662D01*
X0028800Y0155260D02*
X0055113Y0155260D01*
X0055113Y0156859D02*
X0028800Y0156859D01*
X0028800Y0158457D02*
X0055113Y0158457D01*
X0055113Y0160056D02*
X0028800Y0160056D01*
X0028800Y0161654D02*
X0055113Y0161654D01*
X0055113Y0163253D02*
X0028800Y0163253D01*
X0028800Y0164851D02*
X0055113Y0164851D01*
X0055113Y0166450D02*
X0028800Y0166450D01*
X0028800Y0168048D02*
X0055113Y0168048D01*
X0055113Y0169647D02*
X0028800Y0169647D01*
X0028800Y0171245D02*
X0055267Y0171245D01*
X0056139Y0172844D02*
X0028800Y0172844D01*
X0028800Y0174442D02*
X0057737Y0174442D01*
X0059336Y0176041D02*
X0028800Y0176041D01*
X0028800Y0177639D02*
X0060934Y0177639D01*
X0062533Y0179238D02*
X0028800Y0179238D01*
X0028800Y0180836D02*
X0064132Y0180836D01*
X0065730Y0182435D02*
X0028800Y0182435D01*
X0028800Y0184033D02*
X0067329Y0184033D01*
X0068927Y0185632D02*
X0028800Y0185632D01*
X0028800Y0187230D02*
X0070526Y0187230D01*
X0072124Y0188829D02*
X0028800Y0188829D01*
X0028800Y0190427D02*
X0072413Y0190427D01*
X0072667Y0192026D02*
X0028800Y0192026D01*
X0028800Y0193624D02*
X0073637Y0193624D01*
X0080363Y0193624D02*
X0083637Y0193624D01*
X0083111Y0193099D02*
X0082413Y0191412D01*
X0082413Y0183587D01*
X0083111Y0181901D01*
X0084401Y0180611D01*
X0086088Y0179913D01*
X0087912Y0179913D01*
X0089599Y0180611D01*
X0090889Y0181901D01*
X0091587Y0183587D01*
X0091587Y0191412D01*
X0090889Y0193099D01*
X0089599Y0194389D01*
X0087912Y0195087D01*
X0086088Y0195087D01*
X0084401Y0194389D01*
X0083111Y0193099D01*
X0082667Y0192026D02*
X0081333Y0192026D01*
X0081587Y0190427D02*
X0082413Y0190427D01*
X0082413Y0188829D02*
X0081587Y0188829D01*
X0081587Y0187230D02*
X0082413Y0187230D01*
X0082413Y0185632D02*
X0081587Y0185632D01*
X0081587Y0184033D02*
X0082413Y0184033D01*
X0082890Y0182435D02*
X0081110Y0182435D01*
X0079824Y0180836D02*
X0084176Y0180836D01*
X0089824Y0180836D02*
X0093876Y0180836D01*
X0093873Y0180839D02*
X0094484Y0180395D01*
X0095157Y0180052D01*
X0095876Y0179818D01*
X0096622Y0179700D01*
X0096800Y0179700D01*
X0096800Y0187300D01*
X0097200Y0187300D01*
X0097200Y0187700D01*
X0101800Y0187700D01*
X0101800Y0190878D01*
X0101682Y0191624D01*
X0101448Y0192343D01*
X0101105Y0193016D01*
X0100661Y0193627D01*
X0100127Y0194161D01*
X0099516Y0194605D01*
X0098843Y0194948D01*
X0098124Y0195182D01*
X0097378Y0195300D01*
X0097200Y0195300D01*
X0097200Y0187700D01*
X0096800Y0187700D01*
X0096800Y0195300D01*
X0096622Y0195300D01*
X0095876Y0195182D01*
X0095157Y0194948D01*
X0094484Y0194605D01*
X0093873Y0194161D01*
X0093339Y0193627D01*
X0092895Y0193016D01*
X0092552Y0192343D01*
X0092318Y0191624D01*
X0092200Y0190878D01*
X0092200Y0187700D01*
X0096800Y0187700D01*
X0096800Y0187300D01*
X0092200Y0187300D01*
X0092200Y0184122D01*
X0092318Y0183376D01*
X0092552Y0182657D01*
X0092895Y0181984D01*
X0093339Y0181373D01*
X0093873Y0180839D01*
X0092665Y0182435D02*
X0091110Y0182435D01*
X0091587Y0184033D02*
X0092214Y0184033D01*
X0092200Y0185632D02*
X0091587Y0185632D01*
X0091587Y0187230D02*
X0092200Y0187230D01*
X0092200Y0188829D02*
X0091587Y0188829D01*
X0091587Y0190427D02*
X0092200Y0190427D01*
X0092449Y0192026D02*
X0091333Y0192026D01*
X0090363Y0193624D02*
X0093337Y0193624D01*
X0096135Y0195223D02*
X0028800Y0195223D01*
X0028800Y0196821D02*
X0177563Y0196821D01*
X0177563Y0198420D02*
X0028800Y0198420D01*
X0028800Y0200018D02*
X0128769Y0200018D01*
X0128888Y0199900D02*
X0130816Y0199900D01*
X0130816Y0204816D01*
X0131184Y0204816D01*
X0131184Y0199900D01*
X0133112Y0199900D01*
X0136100Y0202888D01*
X0136100Y0204816D01*
X0131184Y0204816D01*
X0131184Y0205184D01*
X0136100Y0205184D01*
X0136100Y0207112D01*
X0133112Y0210100D01*
X0131184Y0210100D01*
X0131184Y0205184D01*
X0130816Y0205184D01*
X0130816Y0204816D01*
X0125900Y0204816D01*
X0125900Y0202888D01*
X0128888Y0199900D01*
X0130816Y0200018D02*
X0131184Y0200018D01*
X0131184Y0201617D02*
X0130816Y0201617D01*
X0130816Y0203215D02*
X0131184Y0203215D01*
X0131184Y0204814D02*
X0130816Y0204814D01*
X0130816Y0205184D02*
X0125900Y0205184D01*
X0125900Y0207112D01*
X0128888Y0210100D01*
X0130816Y0210100D01*
X0130816Y0205184D01*
X0130816Y0206412D02*
X0131184Y0206412D01*
X0131184Y0208011D02*
X0130816Y0208011D01*
X0130816Y0209609D02*
X0131184Y0209609D01*
X0133603Y0209609D02*
X0138698Y0209609D01*
X0138976Y0209887D02*
X0136113Y0207024D01*
X0136113Y0202976D01*
X0138976Y0200113D01*
X0143024Y0200113D01*
X0145887Y0202976D01*
X0145887Y0207024D01*
X0143024Y0209887D01*
X0138976Y0209887D01*
X0137099Y0208011D02*
X0135202Y0208011D01*
X0136100Y0206412D02*
X0136113Y0206412D01*
X0136100Y0204814D02*
X0136113Y0204814D01*
X0136100Y0203215D02*
X0136113Y0203215D01*
X0134829Y0201617D02*
X0137471Y0201617D01*
X0133231Y0200018D02*
X0177563Y0200018D01*
X0177471Y0201617D02*
X0174529Y0201617D01*
X0175887Y0202976D02*
X0173024Y0200113D01*
X0168976Y0200113D01*
X0166113Y0202976D01*
X0166113Y0207024D01*
X0168976Y0209887D01*
X0173024Y0209887D01*
X0175887Y0207024D01*
X0175887Y0202976D01*
X0175887Y0203215D02*
X0176113Y0203215D01*
X0176113Y0204814D02*
X0175887Y0204814D01*
X0175887Y0206412D02*
X0176113Y0206412D01*
X0177099Y0208011D02*
X0174901Y0208011D01*
X0173302Y0209609D02*
X0178698Y0209609D01*
X0183302Y0209609D02*
X0188698Y0209609D01*
X0188976Y0209887D02*
X0186113Y0207024D01*
X0186113Y0202976D01*
X0188976Y0200113D01*
X0193024Y0200113D01*
X0195887Y0202976D01*
X0195887Y0207024D01*
X0193024Y0209887D01*
X0188976Y0209887D01*
X0187099Y0208011D02*
X0184901Y0208011D01*
X0185887Y0206412D02*
X0186113Y0206412D01*
X0186113Y0204814D02*
X0185887Y0204814D01*
X0185887Y0203215D02*
X0186113Y0203215D01*
X0187471Y0201617D02*
X0184529Y0201617D01*
X0183937Y0200018D02*
X0253813Y0200018D01*
X0253813Y0198420D02*
X0183937Y0198420D01*
X0183937Y0196821D02*
X0253813Y0196821D01*
X0253471Y0201617D02*
X0250529Y0201617D01*
X0251887Y0202976D02*
X0249024Y0200113D01*
X0244976Y0200113D01*
X0242113Y0202976D01*
X0242113Y0207024D01*
X0244976Y0209887D01*
X0249024Y0209887D01*
X0251887Y0207024D01*
X0251887Y0202976D01*
X0251887Y0203215D02*
X0252113Y0203215D01*
X0252113Y0204814D02*
X0251887Y0204814D01*
X0251887Y0206412D02*
X0252113Y0206412D01*
X0253099Y0208011D02*
X0250901Y0208011D01*
X0249302Y0209609D02*
X0254698Y0209609D01*
X0259302Y0209609D02*
X0264698Y0209609D01*
X0264976Y0209887D02*
X0262113Y0207024D01*
X0262113Y0202976D01*
X0264976Y0200113D01*
X0269024Y0200113D01*
X0271887Y0202976D01*
X0271887Y0207024D01*
X0269024Y0209887D01*
X0264976Y0209887D01*
X0263099Y0208011D02*
X0260901Y0208011D01*
X0261887Y0206412D02*
X0262113Y0206412D01*
X0262113Y0204814D02*
X0261887Y0204814D01*
X0261887Y0203215D02*
X0262113Y0203215D01*
X0263471Y0201617D02*
X0260529Y0201617D01*
X0260187Y0200018D02*
X0287000Y0200018D01*
X0287000Y0198420D02*
X0260187Y0198420D01*
X0260187Y0196821D02*
X0287000Y0196821D01*
X0287000Y0195223D02*
X0260187Y0195223D01*
X0260187Y0193624D02*
X0287000Y0193624D01*
X0287000Y0192026D02*
X0260187Y0192026D01*
X0259435Y0190427D02*
X0287000Y0190427D01*
X0287000Y0201617D02*
X0280529Y0201617D01*
X0281887Y0202976D02*
X0279024Y0200113D01*
X0274976Y0200113D01*
X0272113Y0202976D01*
X0272113Y0207024D01*
X0274976Y0209887D01*
X0279024Y0209887D01*
X0281887Y0207024D01*
X0281887Y0202976D01*
X0281887Y0203215D02*
X0287000Y0203215D01*
X0287000Y0204814D02*
X0281887Y0204814D01*
X0281887Y0206412D02*
X0287000Y0206412D01*
X0287000Y0208011D02*
X0280901Y0208011D01*
X0279302Y0209609D02*
X0287000Y0209609D01*
X0285792Y0211208D02*
X0028800Y0211208D01*
X0028800Y0212806D02*
X0284194Y0212806D01*
X0274698Y0209609D02*
X0269302Y0209609D01*
X0270901Y0208011D02*
X0273099Y0208011D01*
X0272113Y0206412D02*
X0271887Y0206412D01*
X0271887Y0204814D02*
X0272113Y0204814D01*
X0272113Y0203215D02*
X0271887Y0203215D01*
X0270529Y0201617D02*
X0273471Y0201617D01*
X0246546Y0184033D02*
X0242755Y0184033D01*
X0243901Y0182435D02*
X0245336Y0182435D01*
X0244913Y0180836D02*
X0244300Y0180836D01*
X0244300Y0179238D02*
X0244913Y0179238D01*
X0239700Y0179238D02*
X0239300Y0179238D01*
X0239300Y0180836D02*
X0239700Y0180836D01*
X0239700Y0182435D02*
X0239300Y0182435D01*
X0239300Y0184033D02*
X0239700Y0184033D01*
X0236245Y0184033D02*
X0202687Y0184033D01*
X0202687Y0182435D02*
X0235099Y0182435D01*
X0234700Y0180836D02*
X0202687Y0180836D01*
X0202687Y0179238D02*
X0234700Y0179238D01*
X0239300Y0176041D02*
X0239700Y0176041D01*
X0239700Y0174442D02*
X0239300Y0174442D01*
X0239300Y0172844D02*
X0239700Y0172844D01*
X0239700Y0171245D02*
X0239300Y0171245D01*
X0239024Y0200113D02*
X0234976Y0200113D01*
X0232113Y0202976D01*
X0232113Y0207024D01*
X0234976Y0209887D01*
X0239024Y0209887D01*
X0241887Y0207024D01*
X0241887Y0202976D01*
X0239024Y0200113D01*
X0240529Y0201617D02*
X0243471Y0201617D01*
X0242113Y0203215D02*
X0241887Y0203215D01*
X0241887Y0204814D02*
X0242113Y0204814D01*
X0242113Y0206412D02*
X0241887Y0206412D01*
X0240901Y0208011D02*
X0243099Y0208011D01*
X0244698Y0209609D02*
X0239302Y0209609D01*
X0234698Y0209609D02*
X0229302Y0209609D01*
X0229024Y0209887D02*
X0224976Y0209887D01*
X0222113Y0207024D01*
X0222113Y0202976D01*
X0224976Y0200113D01*
X0229024Y0200113D01*
X0231887Y0202976D01*
X0231887Y0207024D01*
X0229024Y0209887D01*
X0230901Y0208011D02*
X0233099Y0208011D01*
X0232113Y0206412D02*
X0231887Y0206412D01*
X0231887Y0204814D02*
X0232113Y0204814D01*
X0232113Y0203215D02*
X0231887Y0203215D01*
X0230529Y0201617D02*
X0233471Y0201617D01*
X0223471Y0201617D02*
X0220529Y0201617D01*
X0221887Y0202976D02*
X0219024Y0200113D01*
X0214976Y0200113D01*
X0212113Y0202976D01*
X0212113Y0207024D01*
X0214976Y0209887D01*
X0219024Y0209887D01*
X0221887Y0207024D01*
X0221887Y0202976D01*
X0221887Y0203215D02*
X0222113Y0203215D01*
X0222113Y0204814D02*
X0221887Y0204814D01*
X0221887Y0206412D02*
X0222113Y0206412D01*
X0223099Y0208011D02*
X0220901Y0208011D01*
X0219302Y0209609D02*
X0224698Y0209609D01*
X0214698Y0209609D02*
X0209302Y0209609D01*
X0209024Y0209887D02*
X0211887Y0207024D01*
X0211887Y0202976D01*
X0209024Y0200113D01*
X0204976Y0200113D01*
X0202113Y0202976D01*
X0202113Y0207024D01*
X0204976Y0209887D01*
X0209024Y0209887D01*
X0210901Y0208011D02*
X0213099Y0208011D01*
X0212113Y0206412D02*
X0211887Y0206412D01*
X0211887Y0204814D02*
X0212113Y0204814D01*
X0212113Y0203215D02*
X0211887Y0203215D01*
X0210529Y0201617D02*
X0213471Y0201617D01*
X0203471Y0201617D02*
X0194529Y0201617D01*
X0195887Y0203215D02*
X0202113Y0203215D01*
X0202113Y0204814D02*
X0195887Y0204814D01*
X0195887Y0206412D02*
X0202113Y0206412D01*
X0203099Y0208011D02*
X0194901Y0208011D01*
X0193302Y0209609D02*
X0204698Y0209609D01*
X0197744Y0195223D02*
X0183937Y0195223D01*
X0183630Y0193624D02*
X0196516Y0193624D01*
X0196313Y0192026D02*
X0182283Y0192026D01*
X0180685Y0190427D02*
X0196313Y0190427D01*
X0176465Y0195223D02*
X0097865Y0195223D01*
X0097200Y0195223D02*
X0096800Y0195223D01*
X0096800Y0193624D02*
X0097200Y0193624D01*
X0097200Y0192026D02*
X0096800Y0192026D01*
X0096800Y0190427D02*
X0097200Y0190427D01*
X0097200Y0188829D02*
X0096800Y0188829D01*
X0097200Y0187300D02*
X0101800Y0187300D01*
X0101800Y0184122D01*
X0101682Y0183376D01*
X0101448Y0182657D01*
X0101105Y0181984D01*
X0100661Y0181373D01*
X0100127Y0180839D01*
X0099516Y0180395D01*
X0098843Y0180052D01*
X0098124Y0179818D01*
X0097378Y0179700D01*
X0097200Y0179700D01*
X0097200Y0187300D01*
X0097200Y0187230D02*
X0096800Y0187230D01*
X0096800Y0185632D02*
X0097200Y0185632D01*
X0097200Y0184033D02*
X0096800Y0184033D01*
X0096800Y0182435D02*
X0097200Y0182435D01*
X0097200Y0180836D02*
X0096800Y0180836D01*
X0100123Y0180836D02*
X0162079Y0180836D01*
X0163677Y0182435D02*
X0101335Y0182435D01*
X0101786Y0184033D02*
X0165276Y0184033D01*
X0166874Y0185632D02*
X0101800Y0185632D01*
X0101800Y0187230D02*
X0168473Y0187230D01*
X0170071Y0188829D02*
X0101800Y0188829D01*
X0101800Y0190427D02*
X0171670Y0190427D01*
X0173268Y0192026D02*
X0101551Y0192026D01*
X0100663Y0193624D02*
X0174867Y0193624D01*
X0167471Y0201617D02*
X0164529Y0201617D01*
X0165887Y0202976D02*
X0163024Y0200113D01*
X0158976Y0200113D01*
X0156113Y0202976D01*
X0156113Y0207024D01*
X0158976Y0209887D01*
X0163024Y0209887D01*
X0165887Y0207024D01*
X0165887Y0202976D01*
X0165887Y0203215D02*
X0166113Y0203215D01*
X0166113Y0204814D02*
X0165887Y0204814D01*
X0165887Y0206412D02*
X0166113Y0206412D01*
X0167099Y0208011D02*
X0164901Y0208011D01*
X0163302Y0209609D02*
X0168698Y0209609D01*
X0158698Y0209609D02*
X0153302Y0209609D01*
X0153024Y0209887D02*
X0148976Y0209887D01*
X0146113Y0207024D01*
X0146113Y0202976D01*
X0148976Y0200113D01*
X0153024Y0200113D01*
X0155887Y0202976D01*
X0155887Y0207024D01*
X0153024Y0209887D01*
X0154901Y0208011D02*
X0157099Y0208011D01*
X0156113Y0206412D02*
X0155887Y0206412D01*
X0155887Y0204814D02*
X0156113Y0204814D01*
X0156113Y0203215D02*
X0155887Y0203215D01*
X0154529Y0201617D02*
X0157471Y0201617D01*
X0147471Y0201617D02*
X0144529Y0201617D01*
X0145887Y0203215D02*
X0146113Y0203215D01*
X0146113Y0204814D02*
X0145887Y0204814D01*
X0145887Y0206412D02*
X0146113Y0206412D01*
X0147099Y0208011D02*
X0144901Y0208011D01*
X0143302Y0209609D02*
X0148698Y0209609D01*
X0128397Y0209609D02*
X0123302Y0209609D01*
X0123024Y0209887D02*
X0118976Y0209887D01*
X0116113Y0207024D01*
X0116113Y0202976D01*
X0118976Y0200113D01*
X0123024Y0200113D01*
X0125887Y0202976D01*
X0125887Y0207024D01*
X0123024Y0209887D01*
X0124901Y0208011D02*
X0126798Y0208011D01*
X0125900Y0206412D02*
X0125887Y0206412D01*
X0125887Y0204814D02*
X0125900Y0204814D01*
X0125887Y0203215D02*
X0125900Y0203215D01*
X0127171Y0201617D02*
X0124529Y0201617D01*
X0117471Y0201617D02*
X0028800Y0201617D01*
X0028800Y0203215D02*
X0116113Y0203215D01*
X0116113Y0204814D02*
X0028800Y0204814D01*
X0028800Y0206412D02*
X0116113Y0206412D01*
X0117099Y0208011D02*
X0028800Y0208011D01*
X0028800Y0209609D02*
X0118698Y0209609D01*
X0160480Y0179238D02*
X0074942Y0179238D01*
X0073344Y0177639D02*
X0158882Y0177639D01*
X0157283Y0176041D02*
X0071745Y0176041D01*
X0070147Y0174442D02*
X0155685Y0174442D01*
X0154086Y0172844D02*
X0068548Y0172844D01*
X0066950Y0171245D02*
X0152488Y0171245D01*
X0150889Y0169647D02*
X0065351Y0169647D01*
X0063887Y0168048D02*
X0149290Y0168048D01*
X0147692Y0166450D02*
X0063887Y0166450D01*
X0063887Y0164851D02*
X0146093Y0164851D01*
X0133305Y0152063D02*
X0084111Y0152063D01*
X0084587Y0150465D02*
X0132563Y0150465D01*
X0132563Y0148866D02*
X0084496Y0148866D01*
X0083755Y0147268D02*
X0132563Y0147268D01*
X0132563Y0145669D02*
X0081531Y0145669D01*
X0070654Y0156859D02*
X0063887Y0156859D01*
X0063887Y0158457D02*
X0069674Y0158457D01*
X0069413Y0160056D02*
X0063887Y0160056D01*
X0063887Y0161654D02*
X0069720Y0161654D01*
X0070765Y0163253D02*
X0063887Y0163253D01*
D16*
X0059500Y0170000D02*
X0059500Y0050000D01*
X0059500Y0047500D01*
X0052000Y0040000D01*
X0042000Y0040000D01*
X0059500Y0050000D02*
X0077000Y0032500D01*
X0147000Y0067500D02*
X0167000Y0067500D01*
X0167000Y0015000D01*
X0059500Y0170000D02*
X0077000Y0187500D01*
D17*
X0199500Y0102500D03*
X0147000Y0067500D03*
X0205750Y0056250D03*
X0205750Y0026250D03*
D18*
X0205750Y0056250D01*
D19*
X0199500Y0102500D02*
X0199500Y0192500D01*
X0257000Y0192500D01*
X0257000Y0205000D01*
X0181000Y0205000D02*
X0180750Y0204750D01*
X0180750Y0195000D01*
X0135750Y0150000D01*
X0135750Y0047500D01*
X0133250Y0045000D01*
X0088250Y0045000D01*
X0087000Y0043750D01*
X0087000Y0032500D01*
M02*
