G75*
%MOIN*%
%OFA0B0*%
%FSLAX25Y25*%
%IPPOS*%
%LPD*%
%AMOC8*
5,1,8,0,0,1.08239X$1,22.5*
%
%ADD10C,0.00400*%
%ADD11C,0.00300*%
%ADD12C,0.00600*%
%ADD13R,0.10000X0.02000*%
%ADD14C,0.00500*%
%ADD15C,0.00800*%
D10*
X0075998Y0089950D02*
X0075998Y0093019D01*
X0076485Y0100717D02*
X0076485Y0103787D01*
X0074950Y0102252D02*
X0078019Y0102252D01*
X0079946Y0107450D02*
X0079946Y0109752D01*
X0080713Y0110519D01*
X0082248Y0110519D01*
X0083015Y0109752D01*
X0083015Y0107450D01*
X0083015Y0108985D02*
X0084550Y0110519D01*
X0084550Y0112054D02*
X0084550Y0113589D01*
X0084550Y0112821D02*
X0081481Y0112821D01*
X0081481Y0112054D01*
X0079946Y0112821D02*
X0079179Y0112821D01*
X0082248Y0115123D02*
X0083783Y0115123D01*
X0084550Y0115891D01*
X0084550Y0118192D01*
X0085317Y0118192D02*
X0081481Y0118192D01*
X0081481Y0115891D01*
X0082248Y0115123D01*
X0086085Y0116658D02*
X0086085Y0117425D01*
X0085317Y0118192D01*
X0084550Y0119727D02*
X0079946Y0119727D01*
X0081481Y0120494D02*
X0081481Y0122029D01*
X0082248Y0122796D01*
X0084550Y0122796D01*
X0083783Y0125098D02*
X0084550Y0125866D01*
X0083783Y0125098D02*
X0080713Y0125098D01*
X0081481Y0124331D02*
X0081481Y0125866D01*
X0088981Y0125866D02*
X0088981Y0126633D01*
X0088981Y0125866D02*
X0090515Y0124331D01*
X0088981Y0124331D02*
X0092050Y0124331D01*
X0091283Y0122796D02*
X0089748Y0122796D01*
X0088981Y0122029D01*
X0088981Y0120494D01*
X0089748Y0119727D01*
X0091283Y0119727D01*
X0092050Y0120494D01*
X0092050Y0122029D01*
X0091283Y0122796D01*
X0092050Y0118192D02*
X0091283Y0117425D01*
X0088213Y0117425D01*
X0088981Y0116658D02*
X0088981Y0118192D01*
X0089748Y0115123D02*
X0088981Y0114356D01*
X0088981Y0112821D01*
X0089748Y0112054D01*
X0091283Y0112054D01*
X0092050Y0112821D01*
X0092050Y0114356D01*
X0091283Y0115123D01*
X0089748Y0115123D01*
X0087446Y0110519D02*
X0092050Y0110519D01*
X0092050Y0107450D02*
X0087446Y0107450D01*
X0088981Y0108985D01*
X0087446Y0110519D01*
X0084550Y0107450D02*
X0079946Y0107450D01*
X0082248Y0119727D02*
X0081481Y0120494D01*
X0096732Y0123217D02*
X0099802Y0126287D01*
X0099802Y0123217D01*
X0099034Y0122450D01*
X0097500Y0122450D01*
X0096732Y0123217D01*
X0096732Y0126287D01*
X0097500Y0127054D01*
X0099034Y0127054D01*
X0099802Y0126287D01*
X0103638Y0125519D02*
X0105173Y0127054D01*
X0105173Y0122450D01*
X0106707Y0122450D02*
X0103638Y0122450D01*
X0102104Y0122450D02*
X0101336Y0122450D01*
X0101336Y0123217D01*
X0102104Y0123217D01*
X0102104Y0122450D01*
X0108242Y0123217D02*
X0109009Y0122450D01*
X0111311Y0122450D01*
X0111311Y0125519D01*
X0112846Y0124752D02*
X0114381Y0124752D01*
X0112846Y0127054D02*
X0115915Y0127054D01*
X0112846Y0127054D02*
X0112846Y0122450D01*
X0108242Y0123217D02*
X0108242Y0125519D01*
X0108354Y0142450D02*
X0107586Y0142450D01*
X0107586Y0143217D01*
X0108354Y0143217D01*
X0108354Y0142450D01*
X0109888Y0142450D02*
X0112957Y0142450D01*
X0111423Y0142450D02*
X0111423Y0147054D01*
X0109888Y0145519D01*
X0106052Y0146287D02*
X0106052Y0143217D01*
X0105284Y0142450D01*
X0103750Y0142450D01*
X0102982Y0143217D01*
X0106052Y0146287D01*
X0105284Y0147054D01*
X0103750Y0147054D01*
X0102982Y0146287D01*
X0102982Y0143217D01*
X0114492Y0143217D02*
X0115259Y0142450D01*
X0117561Y0142450D01*
X0117561Y0145519D01*
X0119096Y0144752D02*
X0120631Y0144752D01*
X0119096Y0147054D02*
X0122165Y0147054D01*
X0119096Y0147054D02*
X0119096Y0142450D01*
X0114492Y0143217D02*
X0114492Y0145519D01*
X0128696Y0163700D02*
X0128696Y0166002D01*
X0129463Y0166769D01*
X0130231Y0166769D01*
X0130998Y0166002D01*
X0130998Y0163700D01*
X0133300Y0163700D02*
X0128696Y0163700D01*
X0130998Y0166002D02*
X0131765Y0166769D01*
X0132533Y0166769D01*
X0133300Y0166002D01*
X0133300Y0163700D01*
X0133300Y0168304D02*
X0128696Y0168304D01*
X0128696Y0170606D01*
X0129463Y0171373D01*
X0132533Y0171373D01*
X0133300Y0170606D01*
X0133300Y0168304D01*
X0132533Y0172908D02*
X0133300Y0173675D01*
X0133300Y0175210D01*
X0132533Y0175977D01*
X0131765Y0175977D01*
X0130998Y0175210D01*
X0130998Y0172908D01*
X0132533Y0172908D01*
X0130998Y0172908D02*
X0129463Y0174442D01*
X0128696Y0175977D01*
X0129463Y0177512D02*
X0128696Y0178279D01*
X0128696Y0179814D01*
X0129463Y0180581D01*
X0130231Y0180581D01*
X0133300Y0177512D01*
X0133300Y0180581D01*
X0132533Y0182116D02*
X0133300Y0182883D01*
X0133300Y0184418D01*
X0132533Y0185185D01*
X0131765Y0185185D01*
X0130998Y0184418D01*
X0130998Y0183650D01*
X0130998Y0184418D02*
X0130231Y0185185D01*
X0129463Y0185185D01*
X0128696Y0184418D01*
X0128696Y0182883D01*
X0129463Y0182116D01*
X0129463Y0186720D02*
X0128696Y0187487D01*
X0128696Y0189022D01*
X0129463Y0189789D01*
X0132533Y0186720D01*
X0133300Y0187487D01*
X0133300Y0189022D01*
X0132533Y0189789D01*
X0129463Y0189789D01*
X0128696Y0191324D02*
X0128696Y0194393D01*
X0130998Y0192858D02*
X0130998Y0191324D01*
X0133300Y0191324D02*
X0128696Y0191324D01*
X0129463Y0186720D02*
X0132533Y0186720D01*
X0090800Y0164331D02*
X0087731Y0164331D01*
X0089265Y0164331D02*
X0087731Y0165866D01*
X0087731Y0166633D01*
X0088498Y0162796D02*
X0087731Y0162029D01*
X0087731Y0160494D01*
X0088498Y0159727D01*
X0090033Y0159727D01*
X0090800Y0160494D01*
X0090800Y0162029D01*
X0090033Y0162796D01*
X0088498Y0162796D01*
X0087731Y0158192D02*
X0087731Y0156658D01*
X0086963Y0157425D02*
X0090033Y0157425D01*
X0090800Y0158192D01*
X0090033Y0155123D02*
X0088498Y0155123D01*
X0087731Y0154356D01*
X0087731Y0152821D01*
X0088498Y0152054D01*
X0090033Y0152054D01*
X0090800Y0152821D01*
X0090800Y0154356D01*
X0090033Y0155123D01*
X0090800Y0150519D02*
X0086196Y0150519D01*
X0087731Y0148985D01*
X0086196Y0147450D01*
X0090800Y0147450D01*
X0083300Y0147450D02*
X0083300Y0150519D01*
X0082533Y0152054D02*
X0080998Y0152054D01*
X0080231Y0152821D01*
X0080231Y0154356D01*
X0080998Y0155123D01*
X0081765Y0155123D01*
X0081765Y0152054D01*
X0082533Y0152054D02*
X0083300Y0152821D01*
X0083300Y0154356D01*
X0080998Y0156658D02*
X0080998Y0158192D01*
X0079463Y0157425D02*
X0083300Y0157425D01*
X0082533Y0160494D02*
X0079463Y0160494D01*
X0080231Y0159727D02*
X0080231Y0161262D01*
X0082533Y0160494D02*
X0083300Y0161262D01*
X0079463Y0157425D02*
X0078696Y0158192D01*
X0078696Y0147450D02*
X0083300Y0147450D01*
X0075998Y0171200D02*
X0075998Y0174269D01*
X0076485Y0179467D02*
X0076485Y0182537D01*
X0074950Y0181002D02*
X0078019Y0181002D01*
X0153981Y0146633D02*
X0153981Y0145098D01*
X0154748Y0144331D01*
X0156283Y0144331D01*
X0157050Y0145098D01*
X0157050Y0146633D01*
X0156283Y0147400D01*
X0154748Y0147400D01*
X0153981Y0146633D01*
X0153981Y0142796D02*
X0153981Y0141262D01*
X0153213Y0142029D02*
X0156283Y0142029D01*
X0157050Y0142796D01*
X0156283Y0139727D02*
X0154748Y0139727D01*
X0153981Y0138960D01*
X0153981Y0137425D01*
X0154748Y0136658D01*
X0156283Y0136658D01*
X0157050Y0137425D01*
X0157050Y0138960D01*
X0156283Y0139727D01*
X0157050Y0135123D02*
X0154748Y0135123D01*
X0153981Y0134356D01*
X0153981Y0132821D01*
X0154748Y0132054D01*
X0154748Y0130519D02*
X0156283Y0130519D01*
X0157050Y0129752D01*
X0157050Y0127450D01*
X0158585Y0127450D02*
X0153981Y0127450D01*
X0153981Y0129752D01*
X0154748Y0130519D01*
X0152446Y0132054D02*
X0157050Y0132054D01*
X0163696Y0123019D02*
X0163696Y0119950D01*
X0168300Y0119950D01*
X0168300Y0123019D01*
X0165998Y0121485D02*
X0165998Y0119950D01*
X0170173Y0105804D02*
X0170173Y0101200D01*
X0171707Y0101200D02*
X0168638Y0101200D01*
X0173242Y0101967D02*
X0174009Y0101200D01*
X0175544Y0101200D01*
X0176311Y0101967D01*
X0176311Y0103502D01*
X0175544Y0104269D01*
X0174777Y0104269D01*
X0173242Y0103502D01*
X0173242Y0105804D01*
X0176311Y0105804D01*
X0177846Y0105804D02*
X0177846Y0101200D01*
X0177846Y0102735D02*
X0180915Y0105804D01*
X0178613Y0103502D02*
X0180915Y0101200D01*
X0188700Y0094269D02*
X0190235Y0095804D01*
X0190235Y0091200D01*
X0191769Y0091200D02*
X0188700Y0091200D01*
X0193304Y0091967D02*
X0194071Y0091200D01*
X0196373Y0091200D01*
X0196373Y0094269D01*
X0197908Y0093502D02*
X0199442Y0093502D01*
X0197908Y0091200D02*
X0197908Y0095804D01*
X0200977Y0095804D01*
X0193304Y0094269D02*
X0193304Y0091967D01*
X0199888Y0107450D02*
X0202957Y0107450D01*
X0201423Y0107450D02*
X0201423Y0112054D01*
X0199888Y0110519D01*
X0204492Y0111287D02*
X0204492Y0108217D01*
X0207561Y0111287D01*
X0207561Y0108217D01*
X0206794Y0107450D01*
X0205259Y0107450D01*
X0204492Y0108217D01*
X0204492Y0111287D02*
X0205259Y0112054D01*
X0206794Y0112054D01*
X0207561Y0111287D01*
X0209096Y0112054D02*
X0209096Y0107450D01*
X0209096Y0108985D02*
X0212165Y0112054D01*
X0209863Y0109752D02*
X0212165Y0107450D01*
X0211064Y0139950D02*
X0211064Y0144554D01*
X0214133Y0144554D01*
X0212598Y0142252D02*
X0211064Y0142252D01*
X0209529Y0143019D02*
X0209529Y0139950D01*
X0207227Y0139950D01*
X0206460Y0140717D01*
X0206460Y0143019D01*
X0203391Y0144554D02*
X0203391Y0139950D01*
X0204925Y0139950D02*
X0201856Y0139950D01*
X0200321Y0139950D02*
X0199554Y0139950D01*
X0199554Y0140717D01*
X0200321Y0140717D01*
X0200321Y0139950D01*
X0198019Y0140717D02*
X0197252Y0139950D01*
X0195717Y0139950D01*
X0194950Y0140717D01*
X0198019Y0143787D01*
X0198019Y0140717D01*
X0194950Y0140717D02*
X0194950Y0143787D01*
X0195717Y0144554D01*
X0197252Y0144554D01*
X0198019Y0143787D01*
X0201856Y0143019D02*
X0203391Y0144554D01*
X0187227Y0161200D02*
X0184925Y0163502D01*
X0184158Y0162735D02*
X0187227Y0165804D01*
X0184158Y0165804D02*
X0184158Y0161200D01*
X0182623Y0161967D02*
X0182623Y0163502D01*
X0181856Y0164269D01*
X0181089Y0164269D01*
X0179554Y0163502D01*
X0179554Y0165804D01*
X0182623Y0165804D01*
X0182623Y0161967D02*
X0181856Y0161200D01*
X0180321Y0161200D01*
X0179554Y0161967D01*
X0178019Y0161200D02*
X0174950Y0161200D01*
X0176485Y0161200D02*
X0176485Y0165804D01*
X0174950Y0164269D01*
X0167533Y0150519D02*
X0168300Y0149752D01*
X0168300Y0148217D01*
X0167533Y0147450D01*
X0164463Y0147450D01*
X0163696Y0148217D01*
X0163696Y0149752D01*
X0164463Y0150519D01*
X0128696Y0114393D02*
X0128696Y0111324D01*
X0133300Y0111324D01*
X0132533Y0109789D02*
X0129463Y0109789D01*
X0132533Y0106720D01*
X0133300Y0107487D01*
X0133300Y0109022D01*
X0132533Y0109789D01*
X0130998Y0111324D02*
X0130998Y0112858D01*
X0129463Y0109789D02*
X0128696Y0109022D01*
X0128696Y0107487D01*
X0129463Y0106720D01*
X0132533Y0106720D01*
X0132533Y0105185D02*
X0133300Y0104418D01*
X0133300Y0102883D01*
X0132533Y0102116D01*
X0133300Y0100581D02*
X0133300Y0097512D01*
X0130231Y0100581D01*
X0129463Y0100581D01*
X0128696Y0099814D01*
X0128696Y0098279D01*
X0129463Y0097512D01*
X0128696Y0095977D02*
X0129463Y0094442D01*
X0130998Y0092908D01*
X0130998Y0095210D01*
X0131765Y0095977D01*
X0132533Y0095977D01*
X0133300Y0095210D01*
X0133300Y0093675D01*
X0132533Y0092908D01*
X0130998Y0092908D01*
X0129463Y0091373D02*
X0128696Y0090606D01*
X0128696Y0088304D01*
X0133300Y0088304D01*
X0133300Y0090606D01*
X0132533Y0091373D01*
X0129463Y0091373D01*
X0129463Y0086769D02*
X0130231Y0086769D01*
X0130998Y0086002D01*
X0130998Y0083700D01*
X0133300Y0083700D02*
X0128696Y0083700D01*
X0128696Y0086002D01*
X0129463Y0086769D01*
X0130998Y0086002D02*
X0131765Y0086769D01*
X0132533Y0086769D01*
X0133300Y0086002D01*
X0133300Y0083700D01*
X0129463Y0102116D02*
X0128696Y0102883D01*
X0128696Y0104418D01*
X0129463Y0105185D01*
X0130231Y0105185D01*
X0130998Y0104418D01*
X0131765Y0105185D01*
X0132533Y0105185D01*
X0130998Y0104418D02*
X0130998Y0103650D01*
X0168638Y0104269D02*
X0170173Y0105804D01*
X0244463Y0072994D02*
X0247533Y0072994D01*
X0248300Y0073762D01*
X0245231Y0073762D02*
X0245231Y0072227D01*
X0245231Y0070692D02*
X0245231Y0069158D01*
X0244463Y0069925D02*
X0247533Y0069925D01*
X0248300Y0070692D01*
X0248300Y0067623D02*
X0248300Y0065321D01*
X0247533Y0064554D01*
X0246765Y0065321D01*
X0246765Y0067623D01*
X0245998Y0067623D02*
X0248300Y0067623D01*
X0245998Y0067623D02*
X0245231Y0066856D01*
X0245231Y0065321D01*
X0245231Y0063019D02*
X0245998Y0062252D01*
X0245998Y0059950D01*
X0248300Y0059950D02*
X0243696Y0059950D01*
X0243696Y0062252D01*
X0244463Y0063019D01*
X0245231Y0063019D01*
X0245998Y0062252D02*
X0246765Y0063019D01*
X0247533Y0063019D01*
X0248300Y0062252D01*
X0248300Y0059950D01*
X0255998Y0055519D02*
X0255998Y0052450D01*
X0254748Y0077450D02*
X0254748Y0080519D01*
X0253213Y0078985D02*
X0256283Y0078985D01*
X0261196Y0092450D02*
X0261196Y0095519D01*
X0262731Y0097054D02*
X0265800Y0097054D01*
X0264265Y0097054D02*
X0262731Y0098589D01*
X0262731Y0099356D01*
X0262731Y0101658D02*
X0262731Y0103192D01*
X0263498Y0103960D01*
X0265800Y0103960D01*
X0265800Y0101658D01*
X0265033Y0100891D01*
X0264265Y0101658D01*
X0264265Y0103960D01*
X0262731Y0105494D02*
X0262731Y0107796D01*
X0263498Y0108564D01*
X0265800Y0108564D01*
X0265800Y0110098D02*
X0261196Y0110098D01*
X0262731Y0112400D02*
X0264265Y0110098D01*
X0265800Y0112400D01*
X0261196Y0118539D02*
X0261196Y0121608D01*
X0261196Y0120074D02*
X0265800Y0120074D01*
X0265800Y0123143D02*
X0261196Y0123143D01*
X0262731Y0123910D02*
X0263498Y0123143D01*
X0262731Y0123910D02*
X0262731Y0125445D01*
X0263498Y0126212D01*
X0265800Y0126212D01*
X0265033Y0127747D02*
X0263498Y0127747D01*
X0262731Y0128514D01*
X0262731Y0130049D01*
X0263498Y0130816D01*
X0264265Y0130816D01*
X0264265Y0127747D01*
X0265033Y0127747D02*
X0265800Y0128514D01*
X0265800Y0130049D01*
X0265800Y0136955D02*
X0261196Y0136955D01*
X0261196Y0139257D01*
X0261963Y0140024D01*
X0263498Y0140024D01*
X0264265Y0139257D01*
X0264265Y0136955D01*
X0264265Y0138489D02*
X0265800Y0140024D01*
X0265033Y0141559D02*
X0263498Y0141559D01*
X0262731Y0142326D01*
X0262731Y0143860D01*
X0263498Y0144628D01*
X0265033Y0144628D01*
X0265800Y0143860D01*
X0265800Y0142326D01*
X0265033Y0141559D01*
X0265800Y0146162D02*
X0261196Y0146162D01*
X0262731Y0146162D02*
X0262731Y0148464D01*
X0263498Y0149232D01*
X0265033Y0149232D01*
X0265800Y0148464D01*
X0265800Y0146162D01*
X0265033Y0150766D02*
X0263498Y0150766D01*
X0262731Y0151534D01*
X0262731Y0153068D01*
X0263498Y0153836D01*
X0265033Y0153836D01*
X0265800Y0153068D01*
X0265800Y0151534D01*
X0265033Y0150766D01*
X0262731Y0155370D02*
X0262731Y0156905D01*
X0261963Y0156138D02*
X0265033Y0156138D01*
X0265800Y0156905D01*
X0258498Y0173700D02*
X0258498Y0176769D01*
X0256963Y0175235D02*
X0260033Y0175235D01*
X0260033Y0178304D02*
X0260800Y0179071D01*
X0260800Y0180606D01*
X0260033Y0181373D01*
X0259265Y0181373D01*
X0258498Y0180606D01*
X0258498Y0179839D01*
X0258498Y0180606D02*
X0257731Y0181373D01*
X0256963Y0181373D01*
X0256196Y0180606D01*
X0256196Y0179071D01*
X0256963Y0178304D01*
X0256196Y0182908D02*
X0259265Y0182908D01*
X0260800Y0184442D01*
X0259265Y0185977D01*
X0256196Y0185977D01*
X0256963Y0187512D02*
X0256196Y0188279D01*
X0256196Y0189814D01*
X0256963Y0190581D01*
X0257731Y0190581D01*
X0258498Y0189814D01*
X0259265Y0190581D01*
X0260033Y0190581D01*
X0260800Y0189814D01*
X0260800Y0188279D01*
X0260033Y0187512D01*
X0258498Y0189046D02*
X0258498Y0189814D01*
X0266196Y0186942D02*
X0267731Y0188477D01*
X0270800Y0188477D01*
X0268498Y0188477D02*
X0268498Y0185408D01*
X0267731Y0185408D02*
X0266196Y0186942D01*
X0267731Y0185408D02*
X0270800Y0185408D01*
X0270033Y0183873D02*
X0266963Y0183873D01*
X0266196Y0183106D01*
X0266196Y0180804D01*
X0270800Y0180804D01*
X0270800Y0183106D01*
X0270033Y0183873D01*
X0270033Y0179269D02*
X0270800Y0178502D01*
X0270800Y0176967D01*
X0270033Y0176200D01*
X0268498Y0176967D02*
X0267731Y0176200D01*
X0266963Y0176200D01*
X0266196Y0176967D01*
X0266196Y0178502D01*
X0266963Y0179269D01*
X0268498Y0178502D02*
X0269265Y0179269D01*
X0270033Y0179269D01*
X0268498Y0178502D02*
X0268498Y0176967D01*
X0276196Y0178217D02*
X0276963Y0177450D01*
X0277731Y0177450D01*
X0278498Y0178217D01*
X0278498Y0179752D01*
X0279265Y0180519D01*
X0280033Y0180519D01*
X0280800Y0179752D01*
X0280800Y0178217D01*
X0280033Y0177450D01*
X0276963Y0180519D02*
X0276196Y0179752D01*
X0276196Y0178217D01*
X0276963Y0182054D02*
X0276196Y0182821D01*
X0276196Y0184356D01*
X0276963Y0185123D01*
X0276196Y0186658D02*
X0280800Y0186658D01*
X0280800Y0189727D01*
X0280033Y0185123D02*
X0280800Y0184356D01*
X0280800Y0182821D01*
X0280033Y0182054D01*
X0276963Y0182054D01*
X0250800Y0185717D02*
X0250800Y0187252D01*
X0250033Y0188019D01*
X0248498Y0188019D01*
X0248498Y0186485D01*
X0246963Y0188019D02*
X0246196Y0187252D01*
X0246196Y0185717D01*
X0246963Y0184950D01*
X0250033Y0184950D01*
X0250800Y0185717D01*
X0252215Y0207450D02*
X0255284Y0207450D01*
X0256819Y0207450D02*
X0258354Y0207450D01*
X0257586Y0207450D02*
X0257586Y0212054D01*
X0256819Y0212054D02*
X0258354Y0212054D01*
X0259888Y0212054D02*
X0262190Y0212054D01*
X0262957Y0211287D01*
X0262957Y0208217D01*
X0262190Y0207450D01*
X0259888Y0207450D01*
X0259888Y0212054D01*
X0264492Y0210519D02*
X0264492Y0207450D01*
X0264492Y0209752D02*
X0267561Y0209752D01*
X0267561Y0210519D02*
X0266027Y0212054D01*
X0264492Y0210519D01*
X0267561Y0210519D02*
X0267561Y0207450D01*
X0269096Y0207450D02*
X0269096Y0212054D01*
X0271398Y0212054D01*
X0272165Y0211287D01*
X0272165Y0209752D01*
X0271398Y0208985D01*
X0269096Y0208985D01*
X0270631Y0208985D02*
X0272165Y0207450D01*
X0252215Y0207450D02*
X0252215Y0212054D01*
X0262731Y0105494D02*
X0265800Y0105494D01*
X0263498Y0093985D02*
X0263498Y0092450D01*
X0265800Y0092450D02*
X0261196Y0092450D01*
D11*
X0050248Y0054869D02*
X0050248Y0052400D01*
X0049014Y0053634D02*
X0051483Y0053634D01*
X0043350Y0059900D02*
X0039647Y0059900D01*
X0039647Y0061752D01*
X0040264Y0062369D01*
X0041498Y0062369D01*
X0042116Y0061752D01*
X0042116Y0059900D01*
X0042733Y0063583D02*
X0043350Y0064200D01*
X0042733Y0064818D01*
X0043350Y0065435D01*
X0042733Y0066052D01*
X0040881Y0066052D01*
X0040881Y0067266D02*
X0043350Y0067266D01*
X0042116Y0067266D02*
X0040881Y0068501D01*
X0040881Y0069118D01*
X0040881Y0063583D02*
X0042733Y0063583D01*
X0051498Y0078650D02*
X0051498Y0081119D01*
X0051397Y0103650D02*
X0052631Y0104884D01*
X0051397Y0106119D01*
X0055100Y0106119D01*
X0054483Y0107333D02*
X0053248Y0107333D01*
X0052631Y0107950D01*
X0052631Y0109185D01*
X0053248Y0109802D01*
X0053866Y0109802D01*
X0053866Y0107333D01*
X0054483Y0107333D02*
X0055100Y0107950D01*
X0055100Y0109185D01*
X0054483Y0111016D02*
X0055100Y0111633D01*
X0055100Y0113485D01*
X0055100Y0114699D02*
X0051397Y0114699D01*
X0052631Y0115317D02*
X0052631Y0116551D01*
X0053248Y0117168D01*
X0055100Y0117168D01*
X0054483Y0118383D02*
X0053866Y0119000D01*
X0053866Y0120851D01*
X0053248Y0120851D02*
X0055100Y0120851D01*
X0055100Y0119000D01*
X0054483Y0118383D01*
X0052631Y0119000D02*
X0052631Y0120234D01*
X0053248Y0120851D01*
X0052631Y0122066D02*
X0052631Y0123917D01*
X0053248Y0124534D01*
X0055100Y0124534D01*
X0055100Y0125749D02*
X0055100Y0126983D01*
X0055100Y0126366D02*
X0052631Y0126366D01*
X0052631Y0125749D01*
X0051397Y0126366D02*
X0050780Y0126366D01*
X0049100Y0125756D02*
X0049100Y0124521D01*
X0049100Y0125138D02*
X0045397Y0125138D01*
X0045397Y0124521D01*
X0046631Y0122690D02*
X0047248Y0123307D01*
X0048483Y0123307D01*
X0049100Y0122690D01*
X0049100Y0120838D01*
X0049100Y0119624D02*
X0049100Y0117772D01*
X0048483Y0117155D01*
X0047866Y0117772D01*
X0047866Y0119624D01*
X0047248Y0119624D02*
X0049100Y0119624D01*
X0050334Y0120838D02*
X0046631Y0120838D01*
X0046631Y0122690D01*
X0047248Y0119624D02*
X0046631Y0119006D01*
X0046631Y0117772D01*
X0046631Y0115937D02*
X0046631Y0115320D01*
X0047866Y0114086D01*
X0049100Y0114086D02*
X0046631Y0114086D01*
X0047248Y0112871D02*
X0048483Y0112871D01*
X0049100Y0112254D01*
X0049100Y0110402D01*
X0050334Y0110402D02*
X0046631Y0110402D01*
X0046631Y0112254D01*
X0047248Y0112871D01*
X0047248Y0109188D02*
X0047866Y0109188D01*
X0047866Y0106719D01*
X0048483Y0106719D02*
X0047248Y0106719D01*
X0046631Y0107336D01*
X0046631Y0108571D01*
X0047248Y0109188D01*
X0049100Y0108571D02*
X0049100Y0107336D01*
X0048483Y0106719D01*
X0046631Y0105502D02*
X0046631Y0104884D01*
X0047866Y0103650D01*
X0049100Y0103650D02*
X0046631Y0103650D01*
X0051397Y0103650D02*
X0055100Y0103650D01*
X0057397Y0103650D02*
X0057397Y0106119D01*
X0057397Y0107333D02*
X0057397Y0107950D01*
X0061100Y0107950D01*
X0061100Y0107333D02*
X0061100Y0108568D01*
X0060483Y0109789D02*
X0059248Y0109789D01*
X0058631Y0110406D01*
X0058631Y0111640D01*
X0059248Y0112257D01*
X0059866Y0112257D01*
X0059866Y0109789D01*
X0060483Y0109789D02*
X0061100Y0110406D01*
X0061100Y0111640D01*
X0060483Y0113472D02*
X0061100Y0114089D01*
X0061100Y0115940D01*
X0060483Y0117772D02*
X0058014Y0117772D01*
X0058631Y0117155D02*
X0058631Y0118389D01*
X0058631Y0119610D02*
X0061100Y0119610D01*
X0061100Y0118389D02*
X0060483Y0117772D01*
X0059866Y0119610D02*
X0058631Y0120845D01*
X0058631Y0121462D01*
X0059248Y0122680D02*
X0058631Y0123297D01*
X0058631Y0124531D01*
X0059248Y0125148D01*
X0060483Y0125148D01*
X0061100Y0124531D01*
X0061100Y0123297D01*
X0060483Y0122680D01*
X0059248Y0122680D01*
X0064631Y0123307D02*
X0064631Y0121455D01*
X0065248Y0120838D01*
X0066483Y0120838D01*
X0067100Y0121455D01*
X0067100Y0123307D01*
X0066483Y0124521D02*
X0065248Y0124521D01*
X0064631Y0125138D01*
X0064631Y0126373D01*
X0065248Y0126990D01*
X0065866Y0126990D01*
X0065866Y0124521D01*
X0066483Y0124521D02*
X0067100Y0125138D01*
X0067100Y0126373D01*
X0065248Y0131887D02*
X0065248Y0134356D01*
X0061100Y0134970D02*
X0061100Y0133118D01*
X0060483Y0132501D01*
X0059248Y0132501D01*
X0058631Y0133118D01*
X0058631Y0134970D01*
X0059248Y0136184D02*
X0058631Y0136802D01*
X0058631Y0138653D01*
X0058631Y0139868D02*
X0059248Y0139868D01*
X0059248Y0140485D01*
X0058631Y0140485D01*
X0058631Y0139868D01*
X0060483Y0139868D02*
X0060483Y0140485D01*
X0061100Y0140485D01*
X0061100Y0139868D01*
X0060483Y0139868D01*
X0060483Y0138653D02*
X0059866Y0138036D01*
X0059866Y0136802D01*
X0059248Y0136184D01*
X0061100Y0136184D02*
X0061100Y0138036D01*
X0060483Y0138653D01*
X0063397Y0139871D02*
X0063397Y0141105D01*
X0064014Y0141723D01*
X0065248Y0141723D02*
X0065248Y0140488D01*
X0065248Y0141723D02*
X0066483Y0141723D01*
X0067100Y0141105D01*
X0067100Y0139871D01*
X0066483Y0139254D01*
X0064014Y0139254D01*
X0063397Y0139871D01*
X0063397Y0142937D02*
X0063397Y0144788D01*
X0064014Y0145406D01*
X0065248Y0145406D01*
X0065866Y0144788D01*
X0065866Y0142937D01*
X0067100Y0142937D02*
X0063397Y0142937D01*
X0061100Y0145392D02*
X0058631Y0145392D01*
X0057397Y0146627D01*
X0058631Y0147861D01*
X0061100Y0147861D01*
X0060483Y0149075D02*
X0059248Y0149075D01*
X0058631Y0149693D01*
X0058631Y0151544D01*
X0058631Y0152759D02*
X0061100Y0152759D01*
X0061100Y0151544D02*
X0057397Y0151544D01*
X0055100Y0152155D02*
X0054483Y0152772D01*
X0053248Y0152772D01*
X0052631Y0152155D01*
X0052631Y0150920D01*
X0053248Y0150303D01*
X0054483Y0150303D01*
X0055100Y0150920D01*
X0055100Y0152155D01*
X0055100Y0154603D02*
X0052014Y0154603D01*
X0051397Y0155221D01*
X0052631Y0156442D02*
X0052631Y0157676D01*
X0052014Y0157059D02*
X0054483Y0157059D01*
X0055100Y0157676D01*
X0054483Y0158897D02*
X0055100Y0159514D01*
X0054483Y0160132D01*
X0055100Y0160749D01*
X0054483Y0161366D01*
X0052631Y0161366D01*
X0052631Y0163197D02*
X0052631Y0164432D01*
X0053248Y0165049D01*
X0055100Y0165049D01*
X0055100Y0163197D01*
X0054483Y0162580D01*
X0053866Y0163197D01*
X0053866Y0165049D01*
X0053866Y0166263D02*
X0052631Y0167498D01*
X0052631Y0168115D01*
X0053248Y0169333D02*
X0052631Y0169950D01*
X0052631Y0171184D01*
X0053248Y0171802D01*
X0053866Y0171802D01*
X0053866Y0169333D01*
X0054483Y0169333D02*
X0053248Y0169333D01*
X0054483Y0169333D02*
X0055100Y0169950D01*
X0055100Y0171184D01*
X0055100Y0173016D02*
X0054483Y0173016D01*
X0054483Y0173633D01*
X0055100Y0173633D01*
X0055100Y0173016D01*
X0053248Y0173016D02*
X0052631Y0173016D01*
X0052631Y0173633D01*
X0053248Y0173633D01*
X0053248Y0173016D01*
X0057397Y0171184D02*
X0058014Y0171801D01*
X0058631Y0171801D01*
X0059248Y0171184D01*
X0059248Y0169333D01*
X0057397Y0169333D02*
X0061100Y0169333D01*
X0061100Y0171184D01*
X0060483Y0171801D01*
X0059866Y0171801D01*
X0059248Y0171184D01*
X0059248Y0173016D02*
X0058631Y0173633D01*
X0058631Y0174867D01*
X0059248Y0175485D01*
X0060483Y0175485D01*
X0061100Y0174867D01*
X0061100Y0173633D01*
X0060483Y0173016D01*
X0059248Y0173016D01*
X0057397Y0171184D02*
X0057397Y0169333D01*
X0055100Y0166263D02*
X0052631Y0166263D01*
X0058631Y0163818D02*
X0058631Y0161966D01*
X0061100Y0161966D01*
X0061100Y0160752D02*
X0061100Y0158900D01*
X0060483Y0158283D01*
X0059866Y0158900D01*
X0059866Y0160752D01*
X0059248Y0160752D02*
X0061100Y0160752D01*
X0059248Y0160752D02*
X0058631Y0160135D01*
X0058631Y0158900D01*
X0058631Y0156445D02*
X0061100Y0156445D01*
X0061100Y0155828D02*
X0061100Y0157062D01*
X0058631Y0156445D02*
X0058631Y0155828D01*
X0058631Y0154610D02*
X0058631Y0153993D01*
X0059866Y0152759D01*
X0061100Y0151544D02*
X0061100Y0149693D01*
X0060483Y0149075D01*
X0059248Y0147861D02*
X0059248Y0145392D01*
X0063397Y0146620D02*
X0067100Y0146620D01*
X0067100Y0149089D01*
X0057397Y0156445D02*
X0056780Y0156445D01*
X0054483Y0158897D02*
X0052631Y0158897D01*
X0053248Y0155221D02*
X0053248Y0153986D01*
X0052631Y0149089D02*
X0052631Y0147237D01*
X0053248Y0146620D01*
X0053866Y0147237D01*
X0053866Y0148472D01*
X0054483Y0149089D01*
X0055100Y0148472D01*
X0055100Y0146620D01*
X0055100Y0141723D02*
X0052631Y0139254D01*
X0052014Y0139254D01*
X0051397Y0139871D01*
X0052014Y0140488D01*
X0052631Y0140488D01*
X0053866Y0139254D01*
X0054483Y0139254D01*
X0055100Y0139871D01*
X0055100Y0140488D01*
X0053866Y0141723D01*
X0049100Y0142323D02*
X0046631Y0142323D01*
X0046631Y0142940D01*
X0047248Y0143557D01*
X0046631Y0144175D01*
X0047248Y0144792D01*
X0049100Y0144792D01*
X0049100Y0143557D02*
X0047248Y0143557D01*
X0047248Y0141109D02*
X0046631Y0140491D01*
X0046631Y0139257D01*
X0047248Y0138640D01*
X0048483Y0138640D01*
X0049100Y0139257D01*
X0049100Y0140491D01*
X0048483Y0141109D01*
X0047248Y0141109D01*
X0046631Y0137425D02*
X0046631Y0135574D01*
X0047248Y0134957D01*
X0048483Y0134957D01*
X0049100Y0135574D01*
X0049100Y0137425D01*
X0049100Y0133732D02*
X0049100Y0133115D01*
X0048483Y0133115D01*
X0048483Y0133732D01*
X0049100Y0133732D01*
X0049100Y0131901D02*
X0045397Y0131901D01*
X0046631Y0131901D02*
X0046631Y0130049D01*
X0047248Y0129432D01*
X0048483Y0129432D01*
X0049100Y0130049D01*
X0049100Y0131901D01*
X0052631Y0132505D02*
X0052631Y0134356D01*
X0053866Y0133739D02*
X0053866Y0132505D01*
X0053248Y0131887D01*
X0052631Y0132505D01*
X0053866Y0133739D02*
X0054483Y0134356D01*
X0055100Y0133739D01*
X0055100Y0131887D01*
X0055100Y0130673D02*
X0055100Y0128821D01*
X0054483Y0128204D01*
X0053248Y0128204D01*
X0052631Y0128821D01*
X0052631Y0130673D01*
X0056780Y0130663D02*
X0057397Y0130663D01*
X0058631Y0130663D02*
X0061100Y0130663D01*
X0061100Y0130046D02*
X0061100Y0131280D01*
X0061100Y0128831D02*
X0059248Y0128831D01*
X0058631Y0128214D01*
X0058631Y0126363D01*
X0061100Y0126363D01*
X0058631Y0130046D02*
X0058631Y0130663D01*
X0049100Y0128211D02*
X0048483Y0127594D01*
X0046014Y0127594D01*
X0046631Y0126977D02*
X0046631Y0128211D01*
X0043100Y0127600D02*
X0042483Y0128218D01*
X0041866Y0128218D01*
X0041248Y0127600D01*
X0041248Y0125749D01*
X0042483Y0125749D01*
X0043100Y0126366D01*
X0043100Y0127600D01*
X0043100Y0129432D02*
X0039397Y0131901D01*
X0040631Y0133115D02*
X0039397Y0134350D01*
X0040631Y0135584D01*
X0043100Y0135584D01*
X0043100Y0136798D02*
X0040631Y0136798D01*
X0041866Y0136798D02*
X0040631Y0138033D01*
X0040631Y0138650D01*
X0041248Y0139868D02*
X0040631Y0140485D01*
X0040631Y0142336D01*
X0040631Y0143551D02*
X0042483Y0143551D01*
X0043100Y0144168D01*
X0043100Y0146020D01*
X0040631Y0146020D01*
X0040631Y0147234D02*
X0040631Y0147851D01*
X0043100Y0147851D01*
X0043100Y0147234D02*
X0043100Y0148468D01*
X0043100Y0149689D02*
X0040631Y0149689D01*
X0040631Y0151541D01*
X0041248Y0152158D01*
X0043100Y0152158D01*
X0042483Y0153372D02*
X0043100Y0153990D01*
X0043100Y0155224D01*
X0042483Y0155841D01*
X0041248Y0155841D01*
X0040631Y0155224D01*
X0040631Y0153990D01*
X0041248Y0153372D01*
X0042483Y0153372D01*
X0039397Y0147851D02*
X0038780Y0147851D01*
X0039397Y0142336D02*
X0043100Y0142336D01*
X0043100Y0140485D01*
X0042483Y0139868D01*
X0041248Y0139868D01*
X0041248Y0135584D02*
X0041248Y0133115D01*
X0040631Y0133115D02*
X0043100Y0133115D01*
X0039397Y0128218D02*
X0040014Y0126983D01*
X0041248Y0125749D01*
X0041866Y0124534D02*
X0041248Y0123917D01*
X0041248Y0122066D01*
X0042483Y0122066D01*
X0043100Y0122683D01*
X0043100Y0123917D01*
X0042483Y0124534D01*
X0041866Y0124534D01*
X0040014Y0123300D02*
X0041248Y0122066D01*
X0040631Y0120851D02*
X0040014Y0120851D01*
X0039397Y0120234D01*
X0039397Y0119000D01*
X0040014Y0118383D01*
X0040014Y0117168D02*
X0040631Y0117168D01*
X0041248Y0116551D01*
X0041248Y0115317D01*
X0040631Y0114699D01*
X0040014Y0114699D01*
X0039397Y0115317D01*
X0039397Y0116551D01*
X0040014Y0117168D01*
X0041248Y0116551D02*
X0041866Y0117168D01*
X0042483Y0117168D01*
X0043100Y0116551D01*
X0043100Y0115317D01*
X0042483Y0114699D01*
X0041866Y0114699D01*
X0041248Y0115317D01*
X0041866Y0113485D02*
X0042483Y0113485D01*
X0043100Y0112868D01*
X0043100Y0111633D01*
X0042483Y0111016D01*
X0041248Y0111633D02*
X0040631Y0111016D01*
X0040014Y0111016D01*
X0039397Y0111633D01*
X0039397Y0112868D01*
X0040014Y0113485D01*
X0041248Y0112868D02*
X0041866Y0113485D01*
X0041248Y0112868D02*
X0041248Y0111633D01*
X0041248Y0109802D02*
X0040014Y0109802D01*
X0039397Y0109185D01*
X0039397Y0107333D01*
X0043100Y0107333D01*
X0043100Y0106119D02*
X0043100Y0103650D01*
X0039397Y0103650D01*
X0039397Y0106119D01*
X0041248Y0104884D02*
X0041248Y0103650D01*
X0041866Y0107333D02*
X0041866Y0109185D01*
X0041248Y0109802D01*
X0043100Y0118383D02*
X0040631Y0120851D01*
X0043100Y0120851D02*
X0043100Y0118383D01*
X0040014Y0123300D02*
X0039397Y0124534D01*
X0052631Y0122066D02*
X0055100Y0122066D01*
X0058631Y0115940D02*
X0058631Y0114089D01*
X0059248Y0113472D01*
X0060483Y0113472D01*
X0064631Y0114089D02*
X0064631Y0115323D01*
X0065248Y0115940D01*
X0065866Y0115940D01*
X0065866Y0113472D01*
X0066483Y0113472D02*
X0065248Y0113472D01*
X0064631Y0114089D01*
X0064631Y0112257D02*
X0064631Y0110406D01*
X0065248Y0109789D01*
X0066483Y0109789D01*
X0067100Y0110406D01*
X0067100Y0112257D01*
X0066483Y0113472D02*
X0067100Y0114089D01*
X0067100Y0115323D01*
X0067100Y0117155D02*
X0064631Y0117155D01*
X0064631Y0119006D01*
X0065248Y0119624D01*
X0067100Y0119624D01*
X0053248Y0114699D02*
X0052631Y0115317D01*
X0052631Y0113485D02*
X0052631Y0111633D01*
X0053248Y0111016D01*
X0054483Y0111016D01*
X0059248Y0104884D02*
X0059248Y0103650D01*
X0057397Y0103650D02*
X0061100Y0103650D01*
X0061100Y0106119D01*
X0062780Y0107950D02*
X0063397Y0107950D01*
X0064631Y0107950D02*
X0067100Y0107950D01*
X0067100Y0107333D02*
X0067100Y0108568D01*
X0067100Y0106119D02*
X0067100Y0103650D01*
X0063397Y0103650D01*
X0064631Y0107333D02*
X0064631Y0107950D01*
X0097147Y0089010D02*
X0097147Y0086541D01*
X0100850Y0086541D01*
X0100850Y0085327D02*
X0098381Y0085327D01*
X0098998Y0086541D02*
X0098998Y0087775D01*
X0100850Y0085327D02*
X0100850Y0083475D01*
X0100233Y0082858D01*
X0098381Y0082858D01*
X0097147Y0080409D02*
X0100850Y0080409D01*
X0100850Y0079175D02*
X0100850Y0081643D01*
X0098381Y0079175D02*
X0097147Y0080409D01*
X0100233Y0077950D02*
X0100850Y0077950D01*
X0100850Y0077333D01*
X0100233Y0077333D01*
X0100233Y0077950D01*
X0100233Y0076119D02*
X0097764Y0076119D01*
X0100233Y0073650D01*
X0100850Y0074267D01*
X0100850Y0075502D01*
X0100233Y0076119D01*
X0097764Y0076119D02*
X0097147Y0075502D01*
X0097147Y0074267D01*
X0097764Y0073650D01*
X0100233Y0073650D01*
X0097717Y0069757D02*
X0094631Y0069757D01*
X0094631Y0067906D01*
X0095248Y0067289D01*
X0096483Y0067289D01*
X0097100Y0067906D01*
X0097100Y0069757D01*
X0097717Y0069757D02*
X0098334Y0069140D01*
X0098334Y0068523D01*
X0097100Y0066068D02*
X0097100Y0064833D01*
X0097100Y0065450D02*
X0094631Y0065450D01*
X0094631Y0064833D01*
X0094631Y0063619D02*
X0094631Y0061767D01*
X0095248Y0061150D01*
X0095866Y0061767D01*
X0095866Y0063002D01*
X0096483Y0063619D01*
X0097100Y0063002D01*
X0097100Y0061150D01*
X0093397Y0065450D02*
X0092780Y0065450D01*
X0088350Y0065450D02*
X0087733Y0064833D01*
X0088350Y0065450D02*
X0088350Y0066685D01*
X0087733Y0067302D01*
X0087116Y0067302D01*
X0086498Y0066685D01*
X0086498Y0066068D01*
X0086498Y0066685D02*
X0085881Y0067302D01*
X0085264Y0067302D01*
X0084647Y0066685D01*
X0084647Y0065450D01*
X0085264Y0064833D01*
X0086498Y0063619D02*
X0086498Y0061150D01*
X0085264Y0062384D02*
X0087733Y0062384D01*
X0087116Y0068516D02*
X0084647Y0068516D01*
X0087116Y0068516D02*
X0088350Y0069751D01*
X0087116Y0070985D01*
X0084647Y0070985D01*
X0085264Y0072199D02*
X0084647Y0072817D01*
X0084647Y0074051D01*
X0085264Y0074668D01*
X0085881Y0074668D01*
X0086498Y0074051D01*
X0087116Y0074668D01*
X0087733Y0074668D01*
X0088350Y0074051D01*
X0088350Y0072817D01*
X0087733Y0072199D01*
X0086498Y0073434D02*
X0086498Y0074051D01*
X0103397Y0064252D02*
X0103397Y0063017D01*
X0104014Y0062400D01*
X0106483Y0062400D01*
X0107100Y0063017D01*
X0107100Y0064252D01*
X0106483Y0064869D01*
X0105248Y0064869D01*
X0105248Y0063634D01*
X0104014Y0064869D02*
X0103397Y0064252D01*
X0102724Y0043619D02*
X0104576Y0043619D01*
X0105193Y0043002D01*
X0105193Y0041150D01*
X0106407Y0041150D02*
X0108259Y0041150D01*
X0108876Y0041767D01*
X0108259Y0042384D01*
X0107024Y0042384D01*
X0106407Y0043002D01*
X0107024Y0043619D01*
X0108876Y0043619D01*
X0110090Y0043002D02*
X0110708Y0043619D01*
X0111942Y0043619D01*
X0112559Y0043002D01*
X0112559Y0042384D01*
X0110090Y0042384D01*
X0110090Y0041767D02*
X0110090Y0043002D01*
X0110090Y0041767D02*
X0110708Y0041150D01*
X0111942Y0041150D01*
X0102724Y0041150D02*
X0102724Y0043619D01*
X0101510Y0043002D02*
X0101510Y0042384D01*
X0099041Y0042384D01*
X0099041Y0041767D02*
X0099041Y0043002D01*
X0099658Y0043619D01*
X0100893Y0043619D01*
X0101510Y0043002D01*
X0100893Y0041150D02*
X0099658Y0041150D01*
X0099041Y0041767D01*
X0097827Y0041767D02*
X0097209Y0042384D01*
X0095975Y0042384D01*
X0095358Y0043002D01*
X0095975Y0043619D01*
X0097827Y0043619D01*
X0097827Y0041767D02*
X0097209Y0041150D01*
X0095358Y0041150D01*
X0090450Y0041150D02*
X0089833Y0041150D01*
X0089833Y0041767D01*
X0090450Y0041767D01*
X0090450Y0041150D01*
X0088619Y0041150D02*
X0087384Y0042384D01*
X0088002Y0042384D02*
X0086150Y0042384D01*
X0086150Y0041150D02*
X0086150Y0044853D01*
X0088002Y0044853D01*
X0088619Y0044236D01*
X0088619Y0043002D01*
X0088002Y0042384D01*
X0159110Y0042384D02*
X0160962Y0042384D01*
X0161579Y0043002D01*
X0161579Y0044236D01*
X0160962Y0044853D01*
X0159110Y0044853D01*
X0159110Y0041150D01*
X0160345Y0042384D02*
X0161579Y0041150D01*
X0162793Y0041767D02*
X0163411Y0041150D01*
X0164645Y0041150D01*
X0165262Y0041767D01*
X0165262Y0042384D01*
X0164645Y0043002D01*
X0163411Y0043002D01*
X0162793Y0043619D01*
X0162793Y0044236D01*
X0163411Y0044853D01*
X0164645Y0044853D01*
X0165262Y0044236D01*
X0166477Y0044853D02*
X0168945Y0044853D01*
X0167711Y0044853D02*
X0167711Y0041150D01*
X0172970Y0041767D02*
X0173587Y0041150D01*
X0174822Y0041150D01*
X0175439Y0041767D01*
X0175439Y0042384D01*
X0174822Y0043002D01*
X0174204Y0043002D01*
X0174822Y0043002D02*
X0175439Y0043619D01*
X0175439Y0044236D01*
X0174822Y0044853D01*
X0173587Y0044853D01*
X0172970Y0044236D01*
X0176653Y0043619D02*
X0177888Y0041150D01*
X0179122Y0043619D01*
X0183970Y0043002D02*
X0185204Y0043619D01*
X0185822Y0043619D01*
X0186439Y0043002D01*
X0186439Y0041767D01*
X0185822Y0041150D01*
X0184587Y0041150D01*
X0183970Y0041767D01*
X0183970Y0043002D02*
X0183970Y0044853D01*
X0186439Y0044853D01*
X0187653Y0043619D02*
X0188888Y0041150D01*
X0190122Y0043619D01*
X0196690Y0044236D02*
X0196690Y0041767D01*
X0197307Y0041150D01*
X0198541Y0041150D01*
X0199159Y0041767D01*
X0199159Y0043002D01*
X0197924Y0043002D01*
X0196690Y0044236D02*
X0197307Y0044853D01*
X0198541Y0044853D01*
X0199159Y0044236D01*
X0200373Y0043619D02*
X0202224Y0043619D01*
X0202842Y0043002D01*
X0202842Y0041150D01*
X0204056Y0041767D02*
X0204056Y0043002D01*
X0204673Y0043619D01*
X0206525Y0043619D01*
X0206525Y0044853D02*
X0206525Y0041150D01*
X0204673Y0041150D01*
X0204056Y0041767D01*
X0200373Y0041150D02*
X0200373Y0043619D01*
X0212470Y0044853D02*
X0212470Y0042384D01*
X0213704Y0041150D01*
X0214939Y0042384D01*
X0214939Y0044853D01*
X0216153Y0043619D02*
X0216770Y0043619D01*
X0216770Y0041150D01*
X0216153Y0041150D02*
X0217388Y0041150D01*
X0218609Y0041150D02*
X0218609Y0043619D01*
X0220460Y0043619D01*
X0221077Y0043002D01*
X0221077Y0041150D01*
X0216770Y0044853D02*
X0216770Y0045470D01*
X0234650Y0044236D02*
X0234650Y0041767D01*
X0237119Y0044236D01*
X0237119Y0041767D01*
X0236502Y0041150D01*
X0235267Y0041150D01*
X0234650Y0041767D01*
X0234650Y0044236D02*
X0235267Y0044853D01*
X0236502Y0044853D01*
X0237119Y0044236D01*
X0244650Y0043619D02*
X0245884Y0044853D01*
X0245884Y0041150D01*
X0244650Y0041150D02*
X0247119Y0041150D01*
X0254650Y0041150D02*
X0257119Y0043619D01*
X0257119Y0044236D01*
X0256502Y0044853D01*
X0255267Y0044853D01*
X0254650Y0044236D01*
X0254650Y0041150D02*
X0257119Y0041150D01*
X0264650Y0041767D02*
X0265267Y0041150D01*
X0266502Y0041150D01*
X0267119Y0041767D01*
X0267119Y0042384D01*
X0266502Y0043002D01*
X0265884Y0043002D01*
X0266502Y0043002D02*
X0267119Y0043619D01*
X0267119Y0044236D01*
X0266502Y0044853D01*
X0265267Y0044853D01*
X0264650Y0044236D01*
X0274650Y0043002D02*
X0277119Y0043002D01*
X0276502Y0044853D02*
X0274650Y0043002D01*
X0276502Y0044853D02*
X0276502Y0041150D01*
X0284650Y0041767D02*
X0285267Y0041150D01*
X0286502Y0041150D01*
X0287119Y0041767D01*
X0287119Y0043002D01*
X0286502Y0043619D01*
X0285884Y0043619D01*
X0284650Y0043002D01*
X0284650Y0044853D01*
X0287119Y0044853D01*
X0289248Y0052165D02*
X0288631Y0052782D01*
X0288631Y0054634D01*
X0289248Y0055848D02*
X0288631Y0056465D01*
X0288631Y0057700D01*
X0289248Y0058317D01*
X0291100Y0058317D01*
X0290483Y0059531D02*
X0289866Y0060148D01*
X0289866Y0062000D01*
X0289248Y0062000D02*
X0291100Y0062000D01*
X0291100Y0060148D01*
X0290483Y0059531D01*
X0288631Y0060148D02*
X0288631Y0061383D01*
X0289248Y0062000D01*
X0288631Y0063214D02*
X0291100Y0063214D01*
X0289866Y0063214D02*
X0288631Y0064449D01*
X0288631Y0065066D01*
X0289248Y0066284D02*
X0288631Y0066901D01*
X0288631Y0068752D01*
X0291717Y0068752D01*
X0292334Y0068135D01*
X0292334Y0067518D01*
X0291100Y0066901D02*
X0291100Y0068752D01*
X0290483Y0069967D02*
X0289248Y0069967D01*
X0288631Y0070584D01*
X0288631Y0071818D01*
X0289248Y0072436D01*
X0289866Y0072436D01*
X0289866Y0069967D01*
X0290483Y0069967D02*
X0291100Y0070584D01*
X0291100Y0071818D01*
X0291100Y0066901D02*
X0290483Y0066284D01*
X0289248Y0066284D01*
X0287397Y0055848D02*
X0291100Y0055848D01*
X0291100Y0054634D02*
X0291100Y0052782D01*
X0290483Y0052165D01*
X0289248Y0052165D01*
X0274978Y0031673D02*
X0273744Y0031673D01*
X0274361Y0031673D02*
X0274361Y0027970D01*
X0273744Y0027970D02*
X0274978Y0027970D01*
X0276199Y0027970D02*
X0276199Y0030439D01*
X0278051Y0030439D01*
X0278668Y0029822D01*
X0278668Y0027970D01*
X0268847Y0027970D02*
X0266995Y0027970D01*
X0266378Y0028587D01*
X0266378Y0029822D01*
X0266995Y0030439D01*
X0268847Y0030439D01*
X0268847Y0027353D01*
X0268229Y0026736D01*
X0267612Y0026736D01*
X0265163Y0028587D02*
X0265163Y0029822D01*
X0264546Y0030439D01*
X0263312Y0030439D01*
X0262695Y0029822D01*
X0262695Y0028587D01*
X0263312Y0027970D01*
X0264546Y0027970D01*
X0265163Y0028587D01*
X0261474Y0027970D02*
X0260239Y0027970D01*
X0260856Y0027970D02*
X0260856Y0031673D01*
X0260239Y0031673D01*
X0258408Y0030439D02*
X0257173Y0030439D01*
X0257173Y0029204D02*
X0259025Y0029204D01*
X0259025Y0029822D02*
X0259025Y0027970D01*
X0257173Y0027970D01*
X0256556Y0028587D01*
X0257173Y0029204D01*
X0258408Y0030439D02*
X0259025Y0029822D01*
X0255342Y0029822D02*
X0255342Y0027970D01*
X0255342Y0029822D02*
X0254724Y0030439D01*
X0252873Y0030439D01*
X0252873Y0027970D01*
X0251659Y0027970D02*
X0251659Y0030439D01*
X0250424Y0031673D01*
X0249190Y0030439D01*
X0249190Y0027970D01*
X0249190Y0029822D02*
X0251659Y0029822D01*
X0099600Y0154267D02*
X0098983Y0153650D01*
X0096514Y0156119D01*
X0098983Y0156119D01*
X0099600Y0155502D01*
X0099600Y0154267D01*
X0098983Y0153650D02*
X0096514Y0153650D01*
X0095897Y0154267D01*
X0095897Y0155502D01*
X0096514Y0156119D01*
X0098983Y0157333D02*
X0098983Y0157950D01*
X0099600Y0157950D01*
X0099600Y0157333D01*
X0098983Y0157333D01*
X0099600Y0159175D02*
X0099600Y0161643D01*
X0099600Y0160409D02*
X0095897Y0160409D01*
X0097131Y0159175D01*
X0097131Y0162858D02*
X0098983Y0162858D01*
X0099600Y0163475D01*
X0099600Y0165327D01*
X0097131Y0165327D01*
X0097748Y0166541D02*
X0097748Y0167775D01*
X0095897Y0166541D02*
X0095897Y0169010D01*
X0095897Y0166541D02*
X0099600Y0166541D01*
X0086498Y0187400D02*
X0086498Y0189869D01*
X0085264Y0191083D02*
X0084647Y0191700D01*
X0084647Y0192935D01*
X0085264Y0193552D01*
X0085881Y0193552D01*
X0086498Y0192935D01*
X0087116Y0193552D01*
X0087733Y0193552D01*
X0088350Y0192935D01*
X0088350Y0191700D01*
X0087733Y0191083D01*
X0086498Y0192318D02*
X0086498Y0192935D01*
X0087116Y0194766D02*
X0084647Y0194766D01*
X0087116Y0194766D02*
X0088350Y0196001D01*
X0087116Y0197235D01*
X0084647Y0197235D01*
X0085264Y0198449D02*
X0084647Y0199067D01*
X0084647Y0200301D01*
X0085264Y0200918D01*
X0085881Y0200918D01*
X0086498Y0200301D01*
X0087116Y0200918D01*
X0087733Y0200918D01*
X0088350Y0200301D01*
X0088350Y0199067D01*
X0087733Y0198449D01*
X0086498Y0199684D02*
X0086498Y0200301D01*
X0092780Y0197950D02*
X0093397Y0197950D01*
X0094631Y0197950D02*
X0097100Y0197950D01*
X0097100Y0197333D02*
X0097100Y0198568D01*
X0096483Y0199789D02*
X0097100Y0200406D01*
X0097100Y0202257D01*
X0097717Y0202257D02*
X0094631Y0202257D01*
X0094631Y0200406D01*
X0095248Y0199789D01*
X0096483Y0199789D01*
X0098334Y0201023D02*
X0098334Y0201640D01*
X0097717Y0202257D01*
X0094631Y0197950D02*
X0094631Y0197333D01*
X0094631Y0196119D02*
X0094631Y0194267D01*
X0095248Y0193650D01*
X0095866Y0194267D01*
X0095866Y0195502D01*
X0096483Y0196119D01*
X0097100Y0195502D01*
X0097100Y0193650D01*
X0104647Y0196767D02*
X0105264Y0196150D01*
X0107733Y0196150D01*
X0108350Y0196767D01*
X0108350Y0198002D01*
X0107733Y0198619D01*
X0106498Y0198619D01*
X0106498Y0197384D01*
X0105264Y0198619D02*
X0104647Y0198002D01*
X0104647Y0196767D01*
X0087733Y0188634D02*
X0085264Y0188634D01*
X0062334Y0182234D02*
X0062334Y0181617D01*
X0062334Y0182234D02*
X0061717Y0182851D01*
X0058631Y0182851D01*
X0059248Y0184065D02*
X0058631Y0184682D01*
X0058631Y0185917D01*
X0059248Y0186534D01*
X0059866Y0186534D01*
X0059866Y0184065D01*
X0060483Y0184065D02*
X0059248Y0184065D01*
X0060483Y0184065D02*
X0061100Y0184682D01*
X0061100Y0185917D01*
X0061100Y0187748D02*
X0058631Y0187748D01*
X0059866Y0187748D02*
X0058631Y0188983D01*
X0058631Y0189600D01*
X0056334Y0192052D02*
X0056334Y0192669D01*
X0055717Y0193287D01*
X0052631Y0193287D01*
X0055100Y0193287D02*
X0055100Y0191435D01*
X0054483Y0190818D01*
X0052631Y0190818D01*
X0051397Y0188979D02*
X0055100Y0188979D01*
X0055100Y0188362D02*
X0055100Y0189597D01*
X0055100Y0187141D02*
X0055100Y0185907D01*
X0055100Y0186524D02*
X0051397Y0186524D01*
X0051397Y0185907D01*
X0052631Y0184075D02*
X0053248Y0184693D01*
X0055100Y0184693D01*
X0055100Y0182841D01*
X0054483Y0182224D01*
X0053866Y0182841D01*
X0053866Y0184693D01*
X0052631Y0184075D02*
X0052631Y0182841D01*
X0052014Y0181009D02*
X0051397Y0180392D01*
X0051397Y0179158D01*
X0052014Y0178541D01*
X0052631Y0178541D01*
X0053248Y0179158D01*
X0053248Y0180392D01*
X0053866Y0181009D01*
X0054483Y0181009D01*
X0055100Y0180392D01*
X0055100Y0179158D01*
X0054483Y0178541D01*
X0058631Y0179168D02*
X0060483Y0179168D01*
X0061100Y0178551D01*
X0060483Y0177933D01*
X0061100Y0177316D01*
X0060483Y0176699D01*
X0058631Y0176699D01*
X0058631Y0180382D02*
X0060483Y0180382D01*
X0061100Y0180999D01*
X0061100Y0182851D01*
X0051397Y0188362D02*
X0051397Y0188979D01*
X0043100Y0188983D02*
X0039397Y0188983D01*
X0040631Y0187748D01*
X0041866Y0186534D02*
X0039397Y0186534D01*
X0041866Y0186534D02*
X0043100Y0185300D01*
X0041866Y0184065D01*
X0039397Y0184065D01*
X0043100Y0187748D02*
X0043100Y0190217D01*
X0043100Y0191432D02*
X0043100Y0192049D01*
X0042483Y0192049D01*
X0042483Y0191432D01*
X0043100Y0191432D01*
X0042483Y0193273D02*
X0040014Y0195742D01*
X0042483Y0195742D01*
X0043100Y0195125D01*
X0043100Y0193890D01*
X0042483Y0193273D01*
X0040014Y0193273D01*
X0039397Y0193890D01*
X0039397Y0195125D01*
X0040014Y0195742D01*
X0051397Y0198184D02*
X0051397Y0200036D01*
X0052014Y0200653D01*
X0052631Y0200653D01*
X0053248Y0200036D01*
X0053248Y0198184D01*
X0051397Y0198184D02*
X0055100Y0198184D01*
X0055100Y0200036D01*
X0054483Y0200653D01*
X0053866Y0200653D01*
X0053248Y0200036D01*
X0053248Y0201867D02*
X0052631Y0202484D01*
X0052631Y0203719D01*
X0053248Y0204336D01*
X0054483Y0204336D01*
X0055100Y0203719D01*
X0055100Y0202484D01*
X0054483Y0201867D01*
X0053248Y0201867D01*
X0052631Y0205550D02*
X0054483Y0205550D01*
X0055100Y0206167D01*
X0054483Y0206785D01*
X0055100Y0207402D01*
X0054483Y0208019D01*
X0052631Y0208019D01*
X0052631Y0209233D02*
X0054483Y0209233D01*
X0055100Y0209851D01*
X0055100Y0211702D01*
X0055717Y0211702D02*
X0056334Y0211085D01*
X0056334Y0210468D01*
X0055717Y0211702D02*
X0052631Y0211702D01*
X0053248Y0212917D02*
X0052631Y0213534D01*
X0052631Y0214768D01*
X0053248Y0215385D01*
X0053866Y0215385D01*
X0053866Y0212917D01*
X0054483Y0212917D02*
X0053248Y0212917D01*
X0054483Y0212917D02*
X0055100Y0213534D01*
X0055100Y0214768D01*
X0055100Y0216600D02*
X0052631Y0216600D01*
X0052631Y0217834D02*
X0052631Y0218451D01*
X0052631Y0217834D02*
X0053866Y0216600D01*
X0086150Y0218650D02*
X0088619Y0218650D01*
X0089833Y0218650D02*
X0090450Y0218650D01*
X0090450Y0219267D01*
X0089833Y0219267D01*
X0089833Y0218650D01*
X0086150Y0218650D02*
X0086150Y0222353D01*
X0095358Y0220502D02*
X0095975Y0219884D01*
X0097209Y0219884D01*
X0097827Y0219267D01*
X0097209Y0218650D01*
X0095358Y0218650D01*
X0095358Y0220502D02*
X0095975Y0221119D01*
X0097827Y0221119D01*
X0099041Y0220502D02*
X0099658Y0221119D01*
X0100893Y0221119D01*
X0101510Y0220502D01*
X0101510Y0219884D01*
X0099041Y0219884D01*
X0099041Y0219267D02*
X0099041Y0220502D01*
X0099041Y0219267D02*
X0099658Y0218650D01*
X0100893Y0218650D01*
X0102724Y0218650D02*
X0102724Y0221119D01*
X0104576Y0221119D01*
X0105193Y0220502D01*
X0105193Y0218650D01*
X0106407Y0218650D02*
X0108259Y0218650D01*
X0108876Y0219267D01*
X0108259Y0219884D01*
X0107024Y0219884D01*
X0106407Y0220502D01*
X0107024Y0221119D01*
X0108876Y0221119D01*
X0110090Y0220502D02*
X0110708Y0221119D01*
X0111942Y0221119D01*
X0112559Y0220502D01*
X0112559Y0219884D01*
X0110090Y0219884D01*
X0110090Y0219267D02*
X0110090Y0220502D01*
X0110090Y0219267D02*
X0110708Y0218650D01*
X0111942Y0218650D01*
X0120145Y0219002D02*
X0122614Y0219002D01*
X0122614Y0219619D02*
X0122614Y0217150D01*
X0123828Y0217150D02*
X0123828Y0220853D01*
X0125680Y0220853D01*
X0126297Y0220236D01*
X0126297Y0219002D01*
X0125680Y0218384D01*
X0123828Y0218384D01*
X0125063Y0218384D02*
X0126297Y0217150D01*
X0127511Y0217767D02*
X0127511Y0219002D01*
X0128129Y0219619D01*
X0129363Y0219619D01*
X0129980Y0219002D01*
X0129980Y0218384D01*
X0127511Y0218384D01*
X0127511Y0217767D02*
X0128129Y0217150D01*
X0129363Y0217150D01*
X0131812Y0217150D02*
X0131812Y0220236D01*
X0132429Y0220853D01*
X0132429Y0219002D02*
X0131195Y0219002D01*
X0135101Y0219002D02*
X0135101Y0217767D01*
X0135718Y0217150D01*
X0137569Y0217150D01*
X0137569Y0216533D02*
X0137569Y0219619D01*
X0135718Y0219619D01*
X0135101Y0219002D01*
X0136335Y0215916D02*
X0136952Y0215916D01*
X0137569Y0216533D01*
X0138784Y0217150D02*
X0138784Y0219619D01*
X0140635Y0219619D01*
X0141252Y0219002D01*
X0141252Y0217150D01*
X0142467Y0217767D02*
X0142467Y0219002D01*
X0143084Y0219619D01*
X0144936Y0219619D01*
X0144936Y0220853D02*
X0144936Y0217150D01*
X0143084Y0217150D01*
X0142467Y0217767D01*
X0147284Y0217150D02*
X0149752Y0217150D01*
X0148518Y0217150D02*
X0148518Y0220853D01*
X0147284Y0219619D01*
X0150967Y0220236D02*
X0151584Y0220853D01*
X0152818Y0220853D01*
X0153436Y0220236D01*
X0153436Y0219619D01*
X0152818Y0219002D01*
X0153436Y0218384D01*
X0153436Y0217767D01*
X0152818Y0217150D01*
X0151584Y0217150D01*
X0150967Y0217767D01*
X0152201Y0219002D02*
X0152818Y0219002D01*
X0157284Y0219619D02*
X0158518Y0220853D01*
X0158518Y0217150D01*
X0157284Y0217150D02*
X0159752Y0217150D01*
X0160967Y0217150D02*
X0163436Y0219619D01*
X0163436Y0220236D01*
X0162818Y0220853D01*
X0161584Y0220853D01*
X0160967Y0220236D01*
X0160967Y0217150D02*
X0163436Y0217150D01*
X0167284Y0217150D02*
X0169752Y0217150D01*
X0170967Y0217150D02*
X0173436Y0217150D01*
X0172201Y0217150D02*
X0172201Y0220853D01*
X0170967Y0219619D01*
X0168518Y0220853D02*
X0168518Y0217150D01*
X0167284Y0219619D02*
X0168518Y0220853D01*
X0177284Y0219619D02*
X0178518Y0220853D01*
X0178518Y0217150D01*
X0177284Y0217150D02*
X0179752Y0217150D01*
X0180967Y0217767D02*
X0183436Y0220236D01*
X0183436Y0217767D01*
X0182818Y0217150D01*
X0181584Y0217150D01*
X0180967Y0217767D01*
X0180967Y0220236D01*
X0181584Y0220853D01*
X0182818Y0220853D01*
X0183436Y0220236D01*
X0188967Y0220236D02*
X0188967Y0219619D01*
X0189584Y0219002D01*
X0191436Y0219002D01*
X0191436Y0220236D02*
X0191436Y0217767D01*
X0190818Y0217150D01*
X0189584Y0217150D01*
X0188967Y0217767D01*
X0188967Y0220236D02*
X0189584Y0220853D01*
X0190818Y0220853D01*
X0191436Y0220236D01*
X0198967Y0220236D02*
X0198967Y0219619D01*
X0199584Y0219002D01*
X0200818Y0219002D01*
X0201436Y0218384D01*
X0201436Y0217767D01*
X0200818Y0217150D01*
X0199584Y0217150D01*
X0198967Y0217767D01*
X0198967Y0218384D01*
X0199584Y0219002D01*
X0200818Y0219002D02*
X0201436Y0219619D01*
X0201436Y0220236D01*
X0200818Y0220853D01*
X0199584Y0220853D01*
X0198967Y0220236D01*
X0193194Y0231150D02*
X0191960Y0231150D01*
X0191343Y0231767D01*
X0191343Y0234236D01*
X0191960Y0234853D01*
X0193194Y0234853D01*
X0193812Y0234236D01*
X0193812Y0231767D01*
X0193194Y0231150D01*
X0190128Y0234853D02*
X0187660Y0231150D01*
X0186439Y0231150D02*
X0185204Y0231150D01*
X0185821Y0231150D02*
X0185821Y0234853D01*
X0185204Y0234853D02*
X0186439Y0234853D01*
X0180300Y0231150D02*
X0179066Y0231150D01*
X0179683Y0231150D02*
X0179683Y0234853D01*
X0179066Y0234853D01*
X0177234Y0233619D02*
X0176000Y0233619D01*
X0177234Y0233619D02*
X0177851Y0233002D01*
X0177851Y0231150D01*
X0176000Y0231150D01*
X0175383Y0231767D01*
X0176000Y0232384D01*
X0177851Y0232384D01*
X0174162Y0231150D02*
X0173544Y0231767D01*
X0173544Y0234236D01*
X0172927Y0233619D02*
X0174162Y0233619D01*
X0171089Y0233619D02*
X0171089Y0231150D01*
X0170472Y0231150D02*
X0171706Y0231150D01*
X0169257Y0231150D02*
X0167406Y0231150D01*
X0166789Y0231767D01*
X0166789Y0233002D01*
X0167406Y0233619D01*
X0169257Y0233619D01*
X0169257Y0230533D01*
X0168640Y0229916D01*
X0168023Y0229916D01*
X0165568Y0231150D02*
X0164333Y0231150D01*
X0164950Y0231150D02*
X0164950Y0233619D01*
X0164333Y0233619D01*
X0163119Y0234236D02*
X0162502Y0234853D01*
X0160650Y0234853D01*
X0160650Y0231150D01*
X0162502Y0231150D01*
X0163119Y0231767D01*
X0163119Y0234236D01*
X0164950Y0234853D02*
X0164950Y0235470D01*
X0170472Y0233619D02*
X0171089Y0233619D01*
X0171089Y0234853D02*
X0171089Y0235470D01*
X0214967Y0220853D02*
X0217436Y0220853D01*
X0217436Y0220236D01*
X0214967Y0217767D01*
X0214967Y0217150D01*
X0224967Y0217767D02*
X0225584Y0217150D01*
X0226818Y0217150D01*
X0227436Y0217767D01*
X0227436Y0218384D01*
X0226818Y0219002D01*
X0224967Y0219002D01*
X0224967Y0217767D01*
X0224967Y0219002D02*
X0226201Y0220236D01*
X0227436Y0220853D01*
X0234967Y0220853D02*
X0234967Y0219002D01*
X0236201Y0219619D01*
X0236818Y0219619D01*
X0237436Y0219002D01*
X0237436Y0217767D01*
X0236818Y0217150D01*
X0235584Y0217150D01*
X0234967Y0217767D01*
X0234967Y0220853D02*
X0237436Y0220853D01*
X0244967Y0219002D02*
X0247436Y0219002D01*
X0246818Y0220853D02*
X0246818Y0217150D01*
X0244967Y0219002D02*
X0246818Y0220853D01*
X0254967Y0220236D02*
X0255584Y0220853D01*
X0256818Y0220853D01*
X0257436Y0220236D01*
X0257436Y0219619D01*
X0256818Y0219002D01*
X0257436Y0218384D01*
X0257436Y0217767D01*
X0256818Y0217150D01*
X0255584Y0217150D01*
X0254967Y0217767D01*
X0256201Y0219002D02*
X0256818Y0219002D01*
X0264967Y0220236D02*
X0265584Y0220853D01*
X0266818Y0220853D01*
X0267436Y0220236D01*
X0267436Y0219619D01*
X0264967Y0217150D01*
X0267436Y0217150D01*
X0274967Y0217150D02*
X0277436Y0217150D01*
X0276201Y0217150D02*
X0276201Y0220853D01*
X0274967Y0219619D01*
X0284967Y0220236D02*
X0284967Y0217767D01*
X0287436Y0220236D01*
X0287436Y0217767D01*
X0286818Y0217150D01*
X0285584Y0217150D01*
X0284967Y0217767D01*
X0284967Y0220236D02*
X0285584Y0220853D01*
X0286818Y0220853D01*
X0287436Y0220236D01*
X0269812Y0231767D02*
X0269812Y0234236D01*
X0269194Y0234853D01*
X0267960Y0234853D01*
X0267343Y0234236D01*
X0267343Y0231767D01*
X0267960Y0231150D01*
X0269194Y0231150D01*
X0269812Y0231767D01*
X0266128Y0234853D02*
X0263660Y0231150D01*
X0262439Y0231150D02*
X0261204Y0231150D01*
X0261821Y0231150D02*
X0261821Y0234853D01*
X0261204Y0234853D02*
X0262439Y0234853D01*
X0255683Y0234853D02*
X0255683Y0231150D01*
X0255066Y0231150D02*
X0256300Y0231150D01*
X0253851Y0231150D02*
X0253851Y0233002D01*
X0253234Y0233619D01*
X0252000Y0233619D01*
X0252000Y0232384D02*
X0253851Y0232384D01*
X0253851Y0231150D02*
X0252000Y0231150D01*
X0251383Y0231767D01*
X0252000Y0232384D01*
X0250162Y0231150D02*
X0249544Y0231767D01*
X0249544Y0234236D01*
X0248927Y0233619D02*
X0250162Y0233619D01*
X0247089Y0233619D02*
X0247089Y0231150D01*
X0246472Y0231150D02*
X0247706Y0231150D01*
X0245257Y0231150D02*
X0243406Y0231150D01*
X0242789Y0231767D01*
X0242789Y0233002D01*
X0243406Y0233619D01*
X0245257Y0233619D01*
X0245257Y0230533D01*
X0244640Y0229916D01*
X0244023Y0229916D01*
X0241568Y0231150D02*
X0240333Y0231150D01*
X0240950Y0231150D02*
X0240950Y0233619D01*
X0240333Y0233619D01*
X0239119Y0234236D02*
X0239119Y0231767D01*
X0238502Y0231150D01*
X0236650Y0231150D01*
X0236650Y0234853D01*
X0238502Y0234853D01*
X0239119Y0234236D01*
X0240950Y0234853D02*
X0240950Y0235470D01*
X0246472Y0233619D02*
X0247089Y0233619D01*
X0247089Y0234853D02*
X0247089Y0235470D01*
X0255066Y0234853D02*
X0255683Y0234853D01*
X0122614Y0219619D02*
X0121380Y0220853D01*
X0120145Y0219619D01*
X0120145Y0217150D01*
X0061100Y0164435D02*
X0059248Y0164435D01*
X0058631Y0163818D01*
X0043100Y0164422D02*
X0039397Y0164422D01*
X0040014Y0163208D02*
X0039397Y0162590D01*
X0039397Y0161356D01*
X0040014Y0160739D01*
X0040631Y0160739D01*
X0041248Y0161356D01*
X0041248Y0162590D01*
X0041866Y0163208D01*
X0042483Y0163208D01*
X0043100Y0162590D01*
X0043100Y0161356D01*
X0042483Y0160739D01*
X0041248Y0164422D02*
X0040631Y0165039D01*
X0040631Y0166273D01*
X0041248Y0166891D01*
X0043100Y0166891D01*
X0043100Y0168105D02*
X0043100Y0169339D01*
X0043100Y0168722D02*
X0040631Y0168722D01*
X0040631Y0168105D01*
X0039397Y0168722D02*
X0038780Y0168722D01*
X0040631Y0171178D02*
X0040631Y0172412D01*
X0041248Y0173029D01*
X0041866Y0173029D01*
X0041866Y0170560D01*
X0042483Y0170560D02*
X0041248Y0170560D01*
X0040631Y0171178D01*
X0042483Y0170560D02*
X0043100Y0171178D01*
X0043100Y0172412D01*
X0043100Y0174244D02*
X0043100Y0175478D01*
X0043100Y0174861D02*
X0039397Y0174861D01*
X0039397Y0174244D01*
X0041248Y0176699D02*
X0040631Y0177316D01*
X0040631Y0179168D01*
X0039397Y0179168D02*
X0043100Y0179168D01*
X0043100Y0177316D01*
X0042483Y0176699D01*
X0041248Y0176699D01*
D12*
X0081000Y0178500D02*
X0083500Y0176000D01*
X0088500Y0176000D01*
X0091000Y0178500D01*
X0091000Y0183500D01*
X0088500Y0186000D01*
X0083500Y0186000D01*
X0081000Y0183500D01*
X0081000Y0178500D01*
X0083500Y0176000D02*
X0081000Y0173500D01*
X0081000Y0168500D01*
X0083500Y0166000D01*
X0088500Y0166000D01*
X0091000Y0168500D01*
X0091000Y0173500D01*
X0088500Y0176000D01*
X0088500Y0203500D02*
X0083500Y0203500D01*
X0081000Y0206000D01*
X0081000Y0211000D01*
X0083500Y0213500D01*
X0088500Y0213500D01*
X0091000Y0211000D01*
X0093500Y0213500D01*
X0098500Y0213500D01*
X0101000Y0211000D01*
X0103500Y0213500D01*
X0108500Y0213500D01*
X0111000Y0211000D01*
X0111000Y0206000D01*
X0108500Y0203500D01*
X0103500Y0203500D01*
X0101000Y0206000D01*
X0098500Y0203500D01*
X0093500Y0203500D01*
X0091000Y0206000D01*
X0088500Y0203500D01*
X0091000Y0206000D02*
X0091000Y0211000D01*
X0101000Y0211000D02*
X0101000Y0206000D01*
X0163500Y0146000D02*
X0161000Y0143500D01*
X0161000Y0138500D01*
X0163500Y0136000D01*
X0161000Y0133500D01*
X0161000Y0128500D01*
X0163500Y0126000D01*
X0168500Y0126000D01*
X0171000Y0128500D01*
X0171000Y0133500D01*
X0168500Y0136000D01*
X0163500Y0136000D01*
X0168500Y0136000D02*
X0171000Y0138500D01*
X0171000Y0143500D01*
X0168500Y0146000D01*
X0163500Y0146000D01*
X0091000Y0103500D02*
X0091000Y0098500D01*
X0088500Y0096000D01*
X0091000Y0093500D01*
X0091000Y0088500D01*
X0088500Y0086000D01*
X0083500Y0086000D01*
X0081000Y0088500D01*
X0081000Y0093500D01*
X0083500Y0096000D01*
X0081000Y0098500D01*
X0081000Y0103500D01*
X0083500Y0106000D01*
X0088500Y0106000D01*
X0091000Y0103500D01*
X0088500Y0096000D02*
X0083500Y0096000D01*
X0056000Y0073500D02*
X0056000Y0068500D01*
X0053500Y0066000D01*
X0056000Y0063500D01*
X0056000Y0058500D01*
X0053500Y0056000D01*
X0048500Y0056000D01*
X0046000Y0058500D01*
X0046000Y0063500D01*
X0048500Y0066000D01*
X0046000Y0068500D01*
X0046000Y0073500D01*
X0048500Y0076000D01*
X0053500Y0076000D01*
X0056000Y0073500D01*
X0053500Y0066000D02*
X0048500Y0066000D01*
X0081000Y0056000D02*
X0081000Y0051000D01*
X0083500Y0048500D01*
X0088500Y0048500D01*
X0091000Y0051000D01*
X0093500Y0048500D01*
X0098500Y0048500D01*
X0101000Y0051000D01*
X0103500Y0048500D01*
X0108500Y0048500D01*
X0111000Y0051000D01*
X0111000Y0056000D01*
X0108500Y0058500D01*
X0103500Y0058500D01*
X0101000Y0056000D01*
X0101000Y0051000D01*
X0101000Y0056000D02*
X0098500Y0058500D01*
X0093500Y0058500D01*
X0091000Y0056000D01*
X0091000Y0051000D01*
X0091000Y0056000D02*
X0088500Y0058500D01*
X0083500Y0058500D01*
X0081000Y0056000D01*
X0189000Y0059500D02*
X0192000Y0056500D01*
X0205000Y0056500D01*
X0208000Y0059500D01*
X0208000Y0084000D01*
X0207998Y0084076D01*
X0207992Y0084152D01*
X0207983Y0084227D01*
X0207969Y0084302D01*
X0207952Y0084376D01*
X0207931Y0084449D01*
X0207907Y0084521D01*
X0207878Y0084592D01*
X0207847Y0084661D01*
X0207812Y0084728D01*
X0207773Y0084793D01*
X0207731Y0084857D01*
X0207686Y0084918D01*
X0207638Y0084977D01*
X0207587Y0085033D01*
X0207533Y0085087D01*
X0207477Y0085138D01*
X0207418Y0085186D01*
X0207357Y0085231D01*
X0207293Y0085273D01*
X0207228Y0085312D01*
X0207161Y0085347D01*
X0207092Y0085378D01*
X0207021Y0085407D01*
X0206949Y0085431D01*
X0206876Y0085452D01*
X0206802Y0085469D01*
X0206727Y0085483D01*
X0206652Y0085492D01*
X0206576Y0085498D01*
X0206500Y0085500D01*
X0190500Y0085500D01*
X0190424Y0085498D01*
X0190348Y0085492D01*
X0190273Y0085483D01*
X0190198Y0085469D01*
X0190124Y0085452D01*
X0190051Y0085431D01*
X0189979Y0085407D01*
X0189908Y0085378D01*
X0189839Y0085347D01*
X0189772Y0085312D01*
X0189707Y0085273D01*
X0189643Y0085231D01*
X0189582Y0085186D01*
X0189523Y0085138D01*
X0189467Y0085087D01*
X0189413Y0085033D01*
X0189362Y0084977D01*
X0189314Y0084918D01*
X0189269Y0084857D01*
X0189227Y0084793D01*
X0189188Y0084728D01*
X0189153Y0084661D01*
X0189122Y0084592D01*
X0189093Y0084521D01*
X0189069Y0084449D01*
X0189048Y0084376D01*
X0189031Y0084302D01*
X0189017Y0084227D01*
X0189008Y0084152D01*
X0189002Y0084076D01*
X0189000Y0084000D01*
X0189000Y0059500D01*
X0193100Y0062700D02*
X0193100Y0065300D01*
X0191900Y0064000D02*
X0194400Y0064000D01*
X0198500Y0065000D02*
X0198500Y0068500D01*
X0193700Y0068500D01*
X0193700Y0070500D01*
X0203300Y0070500D01*
X0203300Y0068500D01*
X0198500Y0068500D01*
X0198500Y0073500D02*
X0198500Y0077000D01*
X0212545Y0076234D02*
X0213612Y0074099D01*
X0215747Y0071963D01*
X0215747Y0075166D01*
X0216815Y0076234D01*
X0217882Y0076234D01*
X0218950Y0075166D01*
X0218950Y0073031D01*
X0217882Y0071963D01*
X0215747Y0071963D01*
X0214680Y0069788D02*
X0213612Y0069788D01*
X0212545Y0068721D01*
X0212545Y0066586D01*
X0213612Y0065518D01*
X0215747Y0067653D02*
X0215747Y0068721D01*
X0216815Y0069788D01*
X0217882Y0069788D01*
X0218950Y0068721D01*
X0218950Y0066586D01*
X0217882Y0065518D01*
X0218950Y0063343D02*
X0218950Y0059072D01*
X0212545Y0059072D01*
X0212545Y0056897D02*
X0212545Y0052627D01*
X0212545Y0054762D02*
X0218950Y0054762D01*
X0215747Y0068721D02*
X0214680Y0069788D01*
X0216815Y0078409D02*
X0216815Y0081612D01*
X0215747Y0082679D01*
X0213612Y0082679D01*
X0212545Y0081612D01*
X0212545Y0078409D01*
X0218950Y0078409D01*
X0217882Y0084854D02*
X0213612Y0084854D01*
X0212545Y0085922D01*
X0212545Y0088057D01*
X0213612Y0089125D01*
X0217882Y0089125D01*
X0218950Y0088057D01*
X0218950Y0085922D01*
X0217882Y0084854D01*
X0251000Y0073500D02*
X0251000Y0068500D01*
X0253500Y0066000D01*
X0258500Y0066000D01*
X0261000Y0068500D01*
X0261000Y0073500D01*
X0258500Y0076000D01*
X0253500Y0076000D01*
X0251000Y0073500D01*
X0253500Y0066000D02*
X0251000Y0063500D01*
X0251000Y0058500D01*
X0253500Y0056000D01*
X0258500Y0056000D01*
X0261000Y0058500D01*
X0261000Y0063500D01*
X0258500Y0066000D01*
X0273500Y0063500D02*
X0273500Y0058500D01*
X0276000Y0056000D01*
X0281000Y0056000D01*
X0283500Y0058500D01*
X0283500Y0063500D01*
X0281000Y0066000D01*
X0283500Y0068500D01*
X0283500Y0073500D01*
X0281000Y0076000D01*
X0276000Y0076000D01*
X0273500Y0073500D01*
X0273500Y0068500D01*
X0276000Y0066000D01*
X0281000Y0066000D01*
X0276000Y0066000D02*
X0273500Y0063500D01*
X0271000Y0193500D02*
X0266000Y0193500D01*
X0263500Y0196000D01*
X0261000Y0193500D01*
X0256000Y0193500D01*
X0253500Y0196000D01*
X0251000Y0193500D01*
X0246000Y0193500D01*
X0243500Y0196000D01*
X0243500Y0201000D01*
X0246000Y0203500D01*
X0251000Y0203500D01*
X0253500Y0201000D01*
X0256000Y0203500D01*
X0261000Y0203500D01*
X0263500Y0201000D01*
X0263500Y0196000D01*
X0263500Y0201000D02*
X0266000Y0203500D01*
X0271000Y0203500D01*
X0273500Y0201000D01*
X0276000Y0203500D01*
X0281000Y0203500D01*
X0283500Y0201000D01*
X0283500Y0196000D01*
X0281000Y0193500D01*
X0276000Y0193500D01*
X0273500Y0196000D01*
X0271000Y0193500D01*
X0273500Y0196000D02*
X0273500Y0201000D01*
X0253500Y0201000D02*
X0253500Y0196000D01*
D13*
X0198500Y0073000D03*
D14*
X0187250Y0071710D02*
X0187250Y0070208D01*
X0186499Y0069458D01*
X0183497Y0072460D01*
X0186499Y0072460D01*
X0187250Y0071710D01*
X0186499Y0069458D02*
X0183497Y0069458D01*
X0182746Y0070208D01*
X0182746Y0071710D01*
X0183497Y0072460D01*
X0183497Y0074062D02*
X0182746Y0074812D01*
X0182746Y0076314D01*
X0183497Y0077064D01*
X0186499Y0074062D01*
X0187250Y0074812D01*
X0187250Y0076314D01*
X0186499Y0077064D01*
X0183497Y0077064D01*
X0184247Y0078666D02*
X0186499Y0078666D01*
X0187250Y0079416D01*
X0187250Y0081668D01*
X0184247Y0081668D01*
X0184998Y0083270D02*
X0184998Y0084771D01*
X0182746Y0083270D02*
X0182746Y0086272D01*
X0182746Y0083270D02*
X0187250Y0083270D01*
X0186499Y0074062D02*
X0183497Y0074062D01*
X0183497Y0067856D02*
X0186499Y0064854D01*
X0187250Y0065605D01*
X0187250Y0067106D01*
X0186499Y0067856D01*
X0183497Y0067856D01*
X0182746Y0067106D01*
X0182746Y0065605D01*
X0183497Y0064854D01*
X0186499Y0064854D01*
X0187250Y0063253D02*
X0187250Y0060250D01*
X0187250Y0061751D02*
X0182746Y0061751D01*
X0184247Y0060250D01*
X0175496Y0116250D02*
X0175496Y0119253D01*
X0175496Y0117751D02*
X0180000Y0117751D01*
X0179249Y0120854D02*
X0180000Y0121605D01*
X0180000Y0123106D01*
X0179249Y0123856D01*
X0178499Y0123856D01*
X0177748Y0123106D01*
X0177748Y0121605D01*
X0176997Y0120854D01*
X0176247Y0120854D01*
X0175496Y0121605D01*
X0175496Y0123106D01*
X0176247Y0123856D01*
X0175496Y0125458D02*
X0177748Y0125458D01*
X0176997Y0126959D01*
X0176997Y0127710D01*
X0177748Y0128460D01*
X0179249Y0128460D01*
X0180000Y0127710D01*
X0180000Y0126208D01*
X0179249Y0125458D01*
X0175496Y0125458D02*
X0175496Y0128460D01*
X0176997Y0130062D02*
X0175496Y0131563D01*
X0176997Y0133064D01*
X0180000Y0133064D01*
X0180000Y0134666D02*
X0176997Y0137668D01*
X0176247Y0137668D01*
X0175496Y0136918D01*
X0175496Y0135416D01*
X0176247Y0134666D01*
X0177748Y0133064D02*
X0177748Y0130062D01*
X0176997Y0130062D02*
X0180000Y0130062D01*
X0180000Y0134666D02*
X0180000Y0137668D01*
X0179249Y0139270D02*
X0180000Y0140020D01*
X0180000Y0141522D01*
X0179249Y0142272D01*
X0178499Y0142272D01*
X0177748Y0141522D01*
X0177748Y0140771D01*
X0177748Y0141522D02*
X0176997Y0142272D01*
X0176247Y0142272D01*
X0175496Y0141522D01*
X0175496Y0140020D01*
X0176247Y0139270D01*
X0176997Y0143874D02*
X0175496Y0145375D01*
X0180000Y0145375D01*
X0180000Y0143874D02*
X0180000Y0146876D01*
X0179249Y0148477D02*
X0180000Y0149228D01*
X0180000Y0150729D01*
X0179249Y0151480D01*
X0177748Y0151480D01*
X0176997Y0150729D01*
X0176997Y0149979D01*
X0177748Y0148477D01*
X0175496Y0148477D01*
X0175496Y0151480D01*
X0175496Y0153081D02*
X0175496Y0156084D01*
X0176247Y0156084D01*
X0179249Y0153081D01*
X0180000Y0153081D01*
D15*
X0180488Y0136512D02*
X0180488Y0125488D01*
X0191512Y0125488D01*
X0191512Y0136512D01*
X0180488Y0136512D01*
X0182850Y0129031D02*
X0182850Y0126669D01*
X0182783Y0126671D01*
X0182715Y0126677D01*
X0182649Y0126686D01*
X0182583Y0126700D01*
X0182517Y0126717D01*
X0182453Y0126738D01*
X0182390Y0126762D01*
X0182329Y0126790D01*
X0182269Y0126822D01*
X0182212Y0126856D01*
X0182156Y0126895D01*
X0182102Y0126936D01*
X0182051Y0126980D01*
X0182003Y0127027D01*
X0181957Y0127077D01*
X0181915Y0127129D01*
X0181875Y0127183D01*
X0181839Y0127240D01*
X0181805Y0127299D01*
X0181776Y0127359D01*
X0181749Y0127422D01*
X0181727Y0127485D01*
X0181708Y0127550D01*
X0181693Y0127615D01*
X0181681Y0127682D01*
X0181673Y0127749D01*
X0181669Y0127816D01*
X0181669Y0127884D01*
X0181673Y0127951D01*
X0181681Y0128018D01*
X0181693Y0128085D01*
X0181708Y0128150D01*
X0181727Y0128215D01*
X0181749Y0128278D01*
X0181776Y0128341D01*
X0181805Y0128401D01*
X0181839Y0128460D01*
X0181875Y0128517D01*
X0181915Y0128571D01*
X0181957Y0128623D01*
X0182003Y0128673D01*
X0182051Y0128720D01*
X0182102Y0128764D01*
X0182156Y0128805D01*
X0182212Y0128844D01*
X0182269Y0128878D01*
X0182329Y0128910D01*
X0182390Y0128938D01*
X0182453Y0128962D01*
X0182517Y0128983D01*
X0182583Y0129000D01*
X0182649Y0129014D01*
X0182715Y0129023D01*
X0182783Y0129029D01*
X0182850Y0129031D01*
X0222250Y0091000D02*
X0242250Y0091000D01*
X0242250Y0051000D01*
X0222250Y0051000D01*
X0222250Y0091000D01*
X0125429Y0087693D02*
X0125429Y0104209D01*
X0106571Y0104209D02*
X0106571Y0087693D01*
X0106787Y0093500D02*
X0106885Y0093502D01*
X0106983Y0093508D01*
X0107081Y0093517D01*
X0107178Y0093531D01*
X0107275Y0093548D01*
X0107371Y0093569D01*
X0107466Y0093594D01*
X0107560Y0093622D01*
X0107652Y0093655D01*
X0107744Y0093690D01*
X0107834Y0093730D01*
X0107922Y0093772D01*
X0108009Y0093819D01*
X0108093Y0093868D01*
X0108176Y0093921D01*
X0108256Y0093977D01*
X0108335Y0094037D01*
X0108411Y0094099D01*
X0108484Y0094164D01*
X0108555Y0094232D01*
X0108623Y0094303D01*
X0108688Y0094376D01*
X0108750Y0094452D01*
X0108810Y0094531D01*
X0108866Y0094611D01*
X0108919Y0094694D01*
X0108968Y0094778D01*
X0109015Y0094865D01*
X0109057Y0094953D01*
X0109097Y0095043D01*
X0109132Y0095135D01*
X0109165Y0095227D01*
X0109193Y0095321D01*
X0109218Y0095416D01*
X0109239Y0095512D01*
X0109256Y0095609D01*
X0109270Y0095706D01*
X0109279Y0095804D01*
X0109285Y0095902D01*
X0109287Y0096000D01*
X0109285Y0096098D01*
X0109279Y0096196D01*
X0109270Y0096294D01*
X0109256Y0096391D01*
X0109239Y0096488D01*
X0109218Y0096584D01*
X0109193Y0096679D01*
X0109165Y0096773D01*
X0109132Y0096865D01*
X0109097Y0096957D01*
X0109057Y0097047D01*
X0109015Y0097135D01*
X0108968Y0097222D01*
X0108919Y0097306D01*
X0108866Y0097389D01*
X0108810Y0097469D01*
X0108750Y0097548D01*
X0108688Y0097624D01*
X0108623Y0097697D01*
X0108555Y0097768D01*
X0108484Y0097836D01*
X0108411Y0097901D01*
X0108335Y0097963D01*
X0108256Y0098023D01*
X0108176Y0098079D01*
X0108093Y0098132D01*
X0108009Y0098181D01*
X0107922Y0098228D01*
X0107834Y0098270D01*
X0107744Y0098310D01*
X0107652Y0098345D01*
X0107560Y0098378D01*
X0107466Y0098406D01*
X0107371Y0098431D01*
X0107275Y0098452D01*
X0107178Y0098469D01*
X0107081Y0098483D01*
X0106983Y0098492D01*
X0106885Y0098498D01*
X0106787Y0098500D01*
X0106571Y0167693D02*
X0106571Y0184209D01*
X0106787Y0178500D02*
X0106885Y0178498D01*
X0106983Y0178492D01*
X0107081Y0178483D01*
X0107178Y0178469D01*
X0107275Y0178452D01*
X0107371Y0178431D01*
X0107466Y0178406D01*
X0107560Y0178378D01*
X0107652Y0178345D01*
X0107744Y0178310D01*
X0107834Y0178270D01*
X0107922Y0178228D01*
X0108009Y0178181D01*
X0108093Y0178132D01*
X0108176Y0178079D01*
X0108256Y0178023D01*
X0108335Y0177963D01*
X0108411Y0177901D01*
X0108484Y0177836D01*
X0108555Y0177768D01*
X0108623Y0177697D01*
X0108688Y0177624D01*
X0108750Y0177548D01*
X0108810Y0177469D01*
X0108866Y0177389D01*
X0108919Y0177306D01*
X0108968Y0177222D01*
X0109015Y0177135D01*
X0109057Y0177047D01*
X0109097Y0176957D01*
X0109132Y0176865D01*
X0109165Y0176773D01*
X0109193Y0176679D01*
X0109218Y0176584D01*
X0109239Y0176488D01*
X0109256Y0176391D01*
X0109270Y0176294D01*
X0109279Y0176196D01*
X0109285Y0176098D01*
X0109287Y0176000D01*
X0109285Y0175902D01*
X0109279Y0175804D01*
X0109270Y0175706D01*
X0109256Y0175609D01*
X0109239Y0175512D01*
X0109218Y0175416D01*
X0109193Y0175321D01*
X0109165Y0175227D01*
X0109132Y0175135D01*
X0109097Y0175043D01*
X0109057Y0174953D01*
X0109015Y0174865D01*
X0108968Y0174778D01*
X0108919Y0174694D01*
X0108866Y0174611D01*
X0108810Y0174531D01*
X0108750Y0174452D01*
X0108688Y0174376D01*
X0108623Y0174303D01*
X0108555Y0174232D01*
X0108484Y0174164D01*
X0108411Y0174099D01*
X0108335Y0174037D01*
X0108256Y0173977D01*
X0108176Y0173921D01*
X0108093Y0173868D01*
X0108009Y0173819D01*
X0107922Y0173772D01*
X0107834Y0173730D01*
X0107744Y0173690D01*
X0107652Y0173655D01*
X0107560Y0173622D01*
X0107466Y0173594D01*
X0107371Y0173569D01*
X0107275Y0173548D01*
X0107178Y0173531D01*
X0107081Y0173517D01*
X0106983Y0173508D01*
X0106885Y0173502D01*
X0106787Y0173500D01*
X0125429Y0167693D02*
X0125429Y0184209D01*
M02*
