%
M48
M72
T01C0.02362
T02C0.03200
T03C0.03937
T04C0.04000
T05C0.04331
%
T01
X156000Y88500
X208500Y123500
X214750Y77250
X214750Y47250
T02
X198500Y61000
X198500Y81000
T03
X196000Y36000
X206000Y36000
X216000Y36000
X236000Y36000
X246000Y36000
X256000Y36000
X266000Y36000
X276000Y36000
X286000Y36000
X186000Y36000
X176000Y36000
X166000Y36000
X170000Y226000
X160000Y226000
X150000Y226000
X140000Y226000
X130000Y226000
X180000Y226000
X190000Y226000
X200000Y226000
X216000Y226000
X226000Y226000
X236000Y226000
X246000Y226000
X256000Y226000
X266000Y226000
X276000Y226000
X286000Y226000
T04
X51000Y61000
X51000Y71000
X86000Y53500
X96000Y53500
X106000Y53500
X86000Y91000
X86000Y101000
X166000Y131000
X166000Y141000
X86000Y171000
X86000Y181000
X86000Y208500
X96000Y208500
X106000Y208500
X248500Y198500
X258500Y198500
X268500Y198500
X278500Y198500
X278500Y71000
X278500Y61000
X256000Y61000
X256000Y71000
T05
X232250Y71000
X232250Y61000
X232250Y81000
M30
