G75*
%MOIN*%
%OFA0B0*%
%FSLAX25Y25*%
%IPPOS*%
%LPD*%
%AMOC8*
5,1,8,0,0,1.08239X$1,22.5*
%
%ADD10C,0.00000*%
%ADD11C,0.05200*%
%ADD12OC8,0.05200*%
%ADD13R,0.02362X0.06299*%
%ADD14C,0.06000*%
%ADD15OC8,0.06600*%
%ADD16R,0.00984X0.03937*%
%ADD17R,0.05118X0.06299*%
%ADD18R,0.05118X0.05906*%
%ADD19C,0.06496*%
%ADD20R,0.05906X0.05118*%
%ADD21C,0.01200*%
%ADD22C,0.02400*%
%ADD23C,0.01600*%
%ADD24R,0.04362X0.04362*%
%ADD25C,0.05600*%
%ADD26C,0.03200*%
%ADD27C,0.10000*%
%ADD28C,0.07000*%
%ADD29C,0.05000*%
D10*
X0027000Y0005000D02*
X0027000Y0214961D01*
X0296951Y0214961D01*
X0296951Y0005000D01*
X0027000Y0005000D01*
D11*
X0189500Y0040000D03*
D12*
X0189500Y0060000D03*
D13*
X0114500Y0064764D03*
X0109500Y0064764D03*
X0104500Y0064764D03*
X0099500Y0064764D03*
X0099500Y0085236D03*
X0104500Y0085236D03*
X0109500Y0085236D03*
X0114500Y0085236D03*
X0114500Y0144764D03*
X0109500Y0144764D03*
X0104500Y0144764D03*
X0099500Y0144764D03*
X0099500Y0165236D03*
X0104500Y0165236D03*
X0109500Y0165236D03*
X0114500Y0165236D03*
D14*
X0097000Y0184500D02*
X0097000Y0190500D01*
X0087000Y0190500D02*
X0087000Y0184500D01*
X0077000Y0184500D02*
X0077000Y0190500D01*
X0080000Y0160000D02*
X0074000Y0160000D01*
X0074000Y0150000D02*
X0080000Y0150000D01*
X0154000Y0120000D02*
X0160000Y0120000D01*
X0160000Y0110000D02*
X0154000Y0110000D01*
X0080000Y0080000D02*
X0074000Y0080000D01*
X0074000Y0070000D02*
X0080000Y0070000D01*
X0045000Y0050000D02*
X0039000Y0050000D01*
X0039000Y0040000D02*
X0045000Y0040000D01*
X0077000Y0035500D02*
X0077000Y0029500D01*
X0087000Y0029500D02*
X0087000Y0035500D01*
X0097000Y0035500D02*
X0097000Y0029500D01*
X0244000Y0040000D02*
X0250000Y0040000D01*
X0250000Y0050000D02*
X0244000Y0050000D01*
X0266500Y0050000D02*
X0272500Y0050000D01*
X0272500Y0040000D02*
X0266500Y0040000D01*
X0269500Y0174500D02*
X0269500Y0180500D01*
X0259500Y0180500D02*
X0259500Y0174500D01*
X0249500Y0174500D02*
X0249500Y0180500D01*
X0239500Y0180500D02*
X0239500Y0174500D01*
D15*
X0237000Y0205000D03*
X0247000Y0205000D03*
X0257000Y0205000D03*
X0267000Y0205000D03*
X0277000Y0205000D03*
X0227000Y0205000D03*
X0217000Y0205000D03*
X0207000Y0205000D03*
X0191000Y0205000D03*
X0181000Y0205000D03*
X0171000Y0205000D03*
X0161000Y0205000D03*
X0151000Y0205000D03*
X0141000Y0205000D03*
X0131000Y0205000D03*
X0121000Y0205000D03*
X0157000Y0015000D03*
X0167000Y0015000D03*
X0177000Y0015000D03*
X0187000Y0015000D03*
X0197000Y0015000D03*
X0207000Y0015000D03*
X0227000Y0015000D03*
X0237000Y0015000D03*
X0247000Y0015000D03*
X0257000Y0015000D03*
X0267000Y0015000D03*
X0277000Y0015000D03*
D16*
X0180937Y0101681D03*
X0178969Y0101681D03*
X0177000Y0101681D03*
X0175031Y0101681D03*
X0173063Y0101681D03*
X0173063Y0118319D03*
X0175031Y0118319D03*
X0177000Y0118319D03*
X0178969Y0118319D03*
X0180937Y0118319D03*
D17*
X0175740Y0135000D03*
X0168260Y0135000D03*
X0170740Y0090000D03*
X0163260Y0090000D03*
X0180760Y0090000D03*
X0188240Y0090000D03*
D18*
X0188240Y0080000D03*
X0180760Y0080000D03*
X0187010Y0128750D03*
X0194490Y0128750D03*
X0108240Y0132500D03*
X0100760Y0132500D03*
X0099510Y0096250D03*
X0106990Y0096250D03*
D19*
X0220002Y0060000D02*
X0226498Y0060000D01*
X0226498Y0050000D02*
X0220002Y0050000D01*
X0220002Y0040000D02*
X0226498Y0040000D01*
D20*
X0089500Y0071260D03*
X0089500Y0078740D03*
X0089500Y0151260D03*
X0089500Y0158740D03*
D21*
X0168260Y0135000D02*
X0169500Y0133760D01*
X0169500Y0127500D02*
X0170750Y0126250D01*
X0175031Y0121969D01*
X0175031Y0118319D01*
X0173063Y0118319D02*
X0173063Y0113937D01*
X0174500Y0112500D01*
X0174500Y0107500D02*
X0173063Y0106063D01*
X0173063Y0101681D01*
X0175031Y0101681D02*
X0175031Y0090531D01*
X0177000Y0097500D02*
X0187000Y0097500D01*
X0189500Y0092500D02*
X0188240Y0091240D01*
X0188240Y0090000D01*
X0177000Y0097500D02*
X0177000Y0101681D01*
X0177000Y0118319D02*
X0177000Y0133740D01*
D22*
X0177000Y0147500D01*
X0169500Y0133760D02*
X0169500Y0127500D01*
X0170750Y0126250D02*
X0168250Y0123750D01*
X0157000Y0123750D01*
X0157000Y0120000D01*
X0174500Y0112500D02*
X0209500Y0112500D01*
X0209500Y0060000D01*
X0205750Y0056250D01*
X0180760Y0080000D02*
X0180760Y0090000D01*
X0174500Y0090000D01*
X0170740Y0090000D01*
X0163260Y0090000D02*
X0163260Y0088760D01*
X0162000Y0088760D01*
X0162000Y0040000D01*
X0205750Y0026250D02*
X0227000Y0026250D01*
X0227000Y0015000D01*
X0189500Y0092500D02*
X0189500Y0095000D01*
X0187000Y0097500D01*
X0194500Y0107500D02*
X0199500Y0102500D01*
X0194500Y0107500D02*
X0174500Y0107500D01*
D23*
X0173252Y0110000D02*
X0172921Y0109863D01*
X0172137Y0109079D01*
X0171713Y0108054D01*
X0171713Y0107806D01*
X0170876Y0106969D01*
X0170876Y0100775D01*
X0170983Y0100667D01*
X0170983Y0099055D01*
X0171913Y0098125D01*
X0172844Y0098125D01*
X0172844Y0094737D01*
X0167524Y0094737D01*
X0167000Y0094213D01*
X0166476Y0094737D01*
X0160043Y0094737D01*
X0159113Y0093807D01*
X0159113Y0086193D01*
X0159213Y0086094D01*
X0159213Y0052103D01*
X0158231Y0053085D01*
X0155810Y0054087D01*
X0111387Y0054087D01*
X0111387Y0060076D01*
X0112000Y0060688D01*
X0112661Y0060027D01*
X0116339Y0060027D01*
X0117268Y0060957D01*
X0117268Y0063118D01*
X0117687Y0064130D01*
X0117687Y0071813D01*
X0122634Y0071813D01*
X0123806Y0072298D01*
X0124702Y0073194D01*
X0124702Y0073194D01*
X0132202Y0080694D01*
X0132687Y0081866D01*
X0132687Y0126180D01*
X0138805Y0132298D01*
X0138806Y0132298D01*
X0139702Y0133194D01*
X0140187Y0134366D01*
X0140187Y0161180D01*
X0140820Y0161813D01*
X0207608Y0161813D01*
X0197683Y0151887D01*
X0146127Y0151887D01*
X0144515Y0151219D01*
X0143281Y0149985D01*
X0142613Y0148373D01*
X0142613Y0134317D01*
X0139515Y0131219D01*
X0138281Y0129985D01*
X0137613Y0128373D01*
X0137613Y0101627D01*
X0138281Y0100015D01*
X0142613Y0095683D01*
X0142613Y0066627D01*
X0143231Y0065133D01*
X0143231Y0064661D01*
X0144161Y0063731D01*
X0144633Y0063731D01*
X0146127Y0063113D01*
X0147873Y0063113D01*
X0149367Y0063731D01*
X0149839Y0063731D01*
X0150768Y0064661D01*
X0150768Y0065133D01*
X0151387Y0066627D01*
X0151387Y0098373D01*
X0150719Y0099985D01*
X0149485Y0101219D01*
X0146387Y0104317D01*
X0146387Y0125683D01*
X0150719Y0130015D01*
X0151387Y0131627D01*
X0151387Y0143113D01*
X0174213Y0143113D01*
X0174213Y0139737D01*
X0172524Y0139737D01*
X0172000Y0139213D01*
X0171476Y0139737D01*
X0165043Y0139737D01*
X0164113Y0138807D01*
X0164113Y0131193D01*
X0165043Y0130263D01*
X0166713Y0130263D01*
X0166713Y0126946D01*
X0166882Y0126537D01*
X0156446Y0126537D01*
X0155421Y0126113D01*
X0154637Y0125329D01*
X0154330Y0124587D01*
X0153088Y0124587D01*
X0151401Y0123889D01*
X0150111Y0122599D01*
X0149413Y0120912D01*
X0149413Y0119087D01*
X0150111Y0117401D01*
X0151401Y0116111D01*
X0153088Y0115413D01*
X0160912Y0115413D01*
X0162599Y0116111D01*
X0163889Y0117401D01*
X0164587Y0119087D01*
X0164587Y0120912D01*
X0164567Y0120963D01*
X0168804Y0120963D01*
X0169829Y0121387D01*
X0171174Y0122732D01*
X0172031Y0121875D01*
X0171913Y0121875D01*
X0170983Y0120945D01*
X0170983Y0119333D01*
X0170876Y0119225D01*
X0170876Y0113031D01*
X0171713Y0112194D01*
X0171713Y0111946D01*
X0172137Y0110921D01*
X0172921Y0110137D01*
X0173252Y0110000D01*
X0172556Y0110502D02*
X0164780Y0110502D01*
X0164800Y0110378D02*
X0164682Y0111124D01*
X0164448Y0111843D01*
X0164105Y0112516D01*
X0163661Y0113127D01*
X0163127Y0113661D01*
X0162516Y0114105D01*
X0161843Y0114448D01*
X0161124Y0114682D01*
X0160378Y0114800D01*
X0157200Y0114800D01*
X0157200Y0110200D01*
X0156800Y0110200D01*
X0156800Y0114800D01*
X0153622Y0114800D01*
X0152876Y0114682D01*
X0152157Y0114448D01*
X0151484Y0114105D01*
X0150873Y0113661D01*
X0150339Y0113127D01*
X0149895Y0112516D01*
X0149552Y0111843D01*
X0149318Y0111124D01*
X0149200Y0110378D01*
X0149200Y0110200D01*
X0156800Y0110200D01*
X0156800Y0109800D01*
X0157200Y0109800D01*
X0157200Y0110200D01*
X0164800Y0110200D01*
X0164800Y0110378D01*
X0164800Y0109800D02*
X0157200Y0109800D01*
X0157200Y0105200D01*
X0160378Y0105200D01*
X0161124Y0105318D01*
X0161843Y0105552D01*
X0162516Y0105895D01*
X0163127Y0106339D01*
X0163661Y0106873D01*
X0164105Y0107484D01*
X0164448Y0108157D01*
X0164682Y0108876D01*
X0164800Y0109622D01*
X0164800Y0109800D01*
X0164686Y0108903D02*
X0172064Y0108903D01*
X0171211Y0107305D02*
X0163975Y0107305D01*
X0162146Y0105706D02*
X0170876Y0105706D01*
X0170876Y0104108D02*
X0146597Y0104108D01*
X0146387Y0105706D02*
X0151854Y0105706D01*
X0152157Y0105552D02*
X0152876Y0105318D01*
X0153622Y0105200D01*
X0156800Y0105200D01*
X0156800Y0109800D01*
X0149200Y0109800D01*
X0149200Y0109622D01*
X0149318Y0108876D01*
X0149552Y0108157D01*
X0149895Y0107484D01*
X0150339Y0106873D01*
X0150873Y0106339D01*
X0151484Y0105895D01*
X0152157Y0105552D01*
X0150025Y0107305D02*
X0146387Y0107305D01*
X0146387Y0108903D02*
X0149314Y0108903D01*
X0149220Y0110502D02*
X0146387Y0110502D01*
X0146387Y0112100D02*
X0149683Y0112100D01*
X0150925Y0113699D02*
X0146387Y0113699D01*
X0146387Y0115297D02*
X0170876Y0115297D01*
X0170876Y0113699D02*
X0163075Y0113699D01*
X0164317Y0112100D02*
X0171713Y0112100D01*
X0170876Y0116896D02*
X0163383Y0116896D01*
X0164342Y0118494D02*
X0170876Y0118494D01*
X0170983Y0120093D02*
X0164587Y0120093D01*
X0170133Y0121691D02*
X0171729Y0121691D01*
X0179187Y0121875D02*
X0179187Y0125563D01*
X0182863Y0125563D01*
X0182863Y0125140D01*
X0183793Y0124210D01*
X0190226Y0124210D01*
X0190600Y0124583D01*
X0190826Y0124357D01*
X0191236Y0124120D01*
X0191694Y0123997D01*
X0194011Y0123997D01*
X0194011Y0128270D01*
X0194970Y0128270D01*
X0194970Y0123997D01*
X0197286Y0123997D01*
X0197744Y0124120D01*
X0198154Y0124357D01*
X0198490Y0124692D01*
X0198727Y0125102D01*
X0198849Y0125560D01*
X0198849Y0128270D01*
X0194970Y0128270D01*
X0194970Y0129230D01*
X0194011Y0129230D01*
X0194011Y0133503D01*
X0191694Y0133503D01*
X0191236Y0133380D01*
X0190826Y0133143D01*
X0190600Y0132917D01*
X0190226Y0133290D01*
X0183793Y0133290D01*
X0182863Y0132360D01*
X0182863Y0131937D01*
X0179887Y0131937D01*
X0179887Y0138807D01*
X0179787Y0138906D01*
X0179787Y0143113D01*
X0200373Y0143113D01*
X0201985Y0143781D01*
X0203219Y0145015D01*
X0218817Y0160613D01*
X0250373Y0160613D01*
X0251985Y0161281D01*
X0253219Y0162515D01*
X0253887Y0164127D01*
X0253887Y0173105D01*
X0254087Y0173587D01*
X0254087Y0181412D01*
X0253389Y0183099D01*
X0252099Y0184389D01*
X0250412Y0185087D01*
X0248587Y0185087D01*
X0246901Y0184389D01*
X0245611Y0183099D01*
X0244913Y0181412D01*
X0244913Y0173587D01*
X0245113Y0173105D01*
X0245113Y0169387D01*
X0216127Y0169387D01*
X0215731Y0169223D01*
X0229702Y0183194D01*
X0230187Y0184366D01*
X0230187Y0201276D01*
X0231887Y0202976D01*
X0231887Y0207024D01*
X0229024Y0209887D01*
X0224976Y0209887D01*
X0222113Y0207024D01*
X0222113Y0202976D01*
X0223813Y0201276D01*
X0223813Y0186320D01*
X0205680Y0168187D01*
X0138866Y0168187D01*
X0137694Y0167702D01*
X0135194Y0165202D01*
X0134298Y0164306D01*
X0133813Y0163134D01*
X0133813Y0136320D01*
X0127694Y0130202D01*
X0126798Y0129306D01*
X0126313Y0128134D01*
X0126313Y0083820D01*
X0120680Y0078187D01*
X0113866Y0078187D01*
X0112694Y0077702D01*
X0112687Y0077695D01*
X0112687Y0080499D01*
X0116339Y0080499D01*
X0117268Y0081429D01*
X0117268Y0082317D01*
X0117792Y0082534D01*
X0124702Y0089444D01*
X0125187Y0090616D01*
X0125187Y0128680D01*
X0132202Y0135694D01*
X0132687Y0136866D01*
X0132687Y0168680D01*
X0133320Y0169313D01*
X0202634Y0169313D01*
X0203806Y0169798D01*
X0204702Y0170694D01*
X0219702Y0185694D01*
X0220187Y0186866D01*
X0220187Y0201276D01*
X0221887Y0202976D01*
X0221887Y0207024D01*
X0219024Y0209887D01*
X0214976Y0209887D01*
X0212113Y0207024D01*
X0212113Y0202976D01*
X0213813Y0201276D01*
X0213813Y0188820D01*
X0200680Y0175687D01*
X0131366Y0175687D01*
X0130194Y0175202D01*
X0127694Y0172702D01*
X0126798Y0171806D01*
X0126313Y0170634D01*
X0126313Y0138820D01*
X0120194Y0132702D01*
X0119298Y0131806D01*
X0118813Y0130634D01*
X0118813Y0092570D01*
X0116216Y0089973D01*
X0113178Y0089973D01*
X0113219Y0090015D01*
X0113887Y0091627D01*
X0113887Y0139623D01*
X0113720Y0140027D01*
X0116339Y0140027D01*
X0117268Y0140957D01*
X0117268Y0143118D01*
X0117687Y0144130D01*
X0117687Y0151180D01*
X0118320Y0151813D01*
X0122634Y0151813D01*
X0123806Y0152298D01*
X0124702Y0153194D01*
X0125187Y0154366D01*
X0125187Y0178680D01*
X0125820Y0179313D01*
X0200134Y0179313D01*
X0201306Y0179798D01*
X0202202Y0180694D01*
X0209702Y0188194D01*
X0210187Y0189366D01*
X0210187Y0201276D01*
X0211887Y0202976D01*
X0211887Y0207024D01*
X0209024Y0209887D01*
X0204976Y0209887D01*
X0202113Y0207024D01*
X0202113Y0202976D01*
X0203813Y0201276D01*
X0203813Y0191320D01*
X0198180Y0185687D01*
X0123866Y0185687D01*
X0122694Y0185202D01*
X0120194Y0182702D01*
X0119298Y0181806D01*
X0118813Y0180634D01*
X0118813Y0158187D01*
X0116366Y0158187D01*
X0115194Y0157702D01*
X0112694Y0155202D01*
X0112687Y0155195D01*
X0112687Y0160499D01*
X0116339Y0160499D01*
X0117268Y0161429D01*
X0117268Y0163591D01*
X0117687Y0164602D01*
X0117687Y0183680D01*
X0120820Y0186813D01*
X0192634Y0186813D01*
X0193806Y0187298D01*
X0194702Y0188194D01*
X0195187Y0189366D01*
X0195187Y0202276D01*
X0195887Y0202976D01*
X0195887Y0207024D01*
X0193024Y0209887D01*
X0188976Y0209887D01*
X0186113Y0207024D01*
X0186113Y0202976D01*
X0188813Y0200276D01*
X0188813Y0193187D01*
X0171685Y0193187D01*
X0172556Y0193548D01*
X0173452Y0194444D01*
X0173452Y0194444D01*
X0173702Y0194694D01*
X0174187Y0195866D01*
X0174187Y0201276D01*
X0175887Y0202976D01*
X0175887Y0207024D01*
X0173024Y0209887D01*
X0168976Y0209887D01*
X0166113Y0207024D01*
X0166113Y0202976D01*
X0167813Y0201276D01*
X0167813Y0199437D01*
X0108320Y0199437D01*
X0105952Y0201806D01*
X0105056Y0202702D01*
X0103884Y0203187D01*
X0086366Y0203187D01*
X0085194Y0202702D01*
X0084298Y0201806D01*
X0083813Y0200634D01*
X0083813Y0193800D01*
X0083111Y0193099D01*
X0082413Y0191412D01*
X0082413Y0183587D01*
X0083111Y0181901D01*
X0084401Y0180611D01*
X0086088Y0179913D01*
X0087912Y0179913D01*
X0089599Y0180611D01*
X0090889Y0181901D01*
X0091587Y0183587D01*
X0091587Y0191412D01*
X0090889Y0193099D01*
X0090187Y0193800D01*
X0090187Y0196813D01*
X0101930Y0196813D01*
X0105194Y0193548D01*
X0106366Y0193063D01*
X0118565Y0193063D01*
X0117694Y0192702D01*
X0116798Y0191806D01*
X0111798Y0186806D01*
X0111313Y0185634D01*
X0111313Y0169973D01*
X0107661Y0169973D01*
X0107000Y0169312D01*
X0106339Y0169973D01*
X0102661Y0169973D01*
X0102143Y0169454D01*
X0102121Y0169491D01*
X0101786Y0169826D01*
X0101376Y0170063D01*
X0100918Y0170186D01*
X0099500Y0170186D01*
X0099500Y0165236D01*
X0096519Y0165236D01*
X0096519Y0161937D01*
X0094040Y0161937D01*
X0094040Y0161957D01*
X0093110Y0162887D01*
X0088360Y0162887D01*
X0087634Y0163187D01*
X0083300Y0163187D01*
X0082599Y0163889D01*
X0080912Y0164587D01*
X0073088Y0164587D01*
X0071401Y0163889D01*
X0070111Y0162599D01*
X0069413Y0160912D01*
X0069413Y0159088D01*
X0070111Y0157401D01*
X0071401Y0156111D01*
X0073088Y0155413D01*
X0080912Y0155413D01*
X0082599Y0156111D01*
X0083300Y0156813D01*
X0084960Y0156813D01*
X0084960Y0155524D01*
X0085483Y0155000D01*
X0084960Y0154476D01*
X0084960Y0153187D01*
X0083300Y0153187D01*
X0082599Y0153889D01*
X0080912Y0154587D01*
X0073088Y0154587D01*
X0071401Y0153889D01*
X0070111Y0152599D01*
X0069413Y0150912D01*
X0069413Y0149088D01*
X0070111Y0147401D01*
X0071401Y0146111D01*
X0073088Y0145413D01*
X0080912Y0145413D01*
X0082599Y0146111D01*
X0083300Y0146813D01*
X0088874Y0146813D01*
X0089600Y0147113D01*
X0093110Y0147113D01*
X0094040Y0148043D01*
X0094040Y0148063D01*
X0096313Y0148063D01*
X0096313Y0144130D01*
X0096731Y0143118D01*
X0096731Y0140957D01*
X0097661Y0140027D01*
X0101339Y0140027D01*
X0102000Y0140688D01*
X0102661Y0140027D01*
X0105280Y0140027D01*
X0105113Y0139623D01*
X0105113Y0137040D01*
X0105024Y0137040D01*
X0104650Y0136667D01*
X0104424Y0136893D01*
X0104014Y0137130D01*
X0103556Y0137253D01*
X0101239Y0137253D01*
X0101239Y0132980D01*
X0100280Y0132980D01*
X0100280Y0137253D01*
X0097964Y0137253D01*
X0097506Y0137130D01*
X0097096Y0136893D01*
X0096760Y0136558D01*
X0096523Y0136148D01*
X0096401Y0135690D01*
X0096401Y0132980D01*
X0100280Y0132980D01*
X0100280Y0132020D01*
X0101239Y0132020D01*
X0101239Y0127747D01*
X0103556Y0127747D01*
X0104014Y0127870D01*
X0104424Y0128107D01*
X0104650Y0128333D01*
X0105024Y0127960D01*
X0105113Y0127960D01*
X0105113Y0100790D01*
X0103774Y0100790D01*
X0103400Y0100417D01*
X0103174Y0100643D01*
X0102764Y0100880D01*
X0102306Y0101003D01*
X0099989Y0101003D01*
X0099989Y0096730D01*
X0099030Y0096730D01*
X0099030Y0101003D01*
X0096714Y0101003D01*
X0096256Y0100880D01*
X0095846Y0100643D01*
X0095510Y0100308D01*
X0095273Y0099898D01*
X0095151Y0099440D01*
X0095151Y0096730D01*
X0099030Y0096730D01*
X0099030Y0095770D01*
X0099989Y0095770D01*
X0099989Y0091497D01*
X0102306Y0091497D01*
X0102764Y0091620D01*
X0103174Y0091857D01*
X0103400Y0092083D01*
X0103774Y0091710D01*
X0105113Y0091710D01*
X0105113Y0091627D01*
X0105781Y0090015D01*
X0105822Y0089973D01*
X0102661Y0089973D01*
X0102143Y0089454D01*
X0102121Y0089491D01*
X0101786Y0089826D01*
X0101376Y0090063D01*
X0100918Y0090186D01*
X0099500Y0090186D01*
X0099500Y0085236D01*
X0096519Y0085236D01*
X0096519Y0081937D01*
X0094040Y0081937D01*
X0094040Y0081957D01*
X0093110Y0082887D01*
X0088360Y0082887D01*
X0087634Y0083187D01*
X0083300Y0083187D01*
X0082599Y0083889D01*
X0080912Y0084587D01*
X0073088Y0084587D01*
X0071401Y0083889D01*
X0070111Y0082599D01*
X0069413Y0080912D01*
X0069413Y0079088D01*
X0070111Y0077401D01*
X0071401Y0076111D01*
X0073088Y0075413D01*
X0080912Y0075413D01*
X0082599Y0076111D01*
X0083300Y0076813D01*
X0084960Y0076813D01*
X0084960Y0075524D01*
X0085483Y0075000D01*
X0084960Y0074476D01*
X0084960Y0073187D01*
X0083300Y0073187D01*
X0082599Y0073889D01*
X0080912Y0074587D01*
X0073088Y0074587D01*
X0071401Y0073889D01*
X0070111Y0072599D01*
X0069413Y0070912D01*
X0069413Y0069088D01*
X0070111Y0067401D01*
X0071401Y0066111D01*
X0073088Y0065413D01*
X0080912Y0065413D01*
X0082599Y0066111D01*
X0083300Y0066813D01*
X0087634Y0066813D01*
X0088360Y0067113D01*
X0093110Y0067113D01*
X0094040Y0068043D01*
X0094040Y0068063D01*
X0094430Y0068063D01*
X0096313Y0066180D01*
X0096313Y0064130D01*
X0096731Y0063118D01*
X0096731Y0060957D01*
X0097661Y0060027D01*
X0101339Y0060027D01*
X0102000Y0060688D01*
X0102613Y0060076D01*
X0102613Y0054087D01*
X0063190Y0054087D01*
X0060769Y0053085D01*
X0058915Y0051231D01*
X0054271Y0046587D01*
X0048376Y0046587D01*
X0048661Y0046873D01*
X0049105Y0047484D01*
X0049448Y0048157D01*
X0049682Y0048876D01*
X0049800Y0049622D01*
X0049800Y0049800D01*
X0042200Y0049800D01*
X0042200Y0050200D01*
X0041800Y0050200D01*
X0041800Y0054800D01*
X0038622Y0054800D01*
X0037876Y0054682D01*
X0037157Y0054448D01*
X0036484Y0054105D01*
X0035873Y0053661D01*
X0035339Y0053127D01*
X0034895Y0052516D01*
X0034552Y0051843D01*
X0034318Y0051124D01*
X0034200Y0050378D01*
X0034200Y0050200D01*
X0041800Y0050200D01*
X0041800Y0049800D01*
X0042200Y0049800D01*
X0042200Y0045200D01*
X0045378Y0045200D01*
X0045385Y0045201D01*
X0044771Y0044587D01*
X0038088Y0044587D01*
X0036401Y0043889D01*
X0035111Y0042599D01*
X0034413Y0040912D01*
X0034413Y0039088D01*
X0035111Y0037401D01*
X0036401Y0036111D01*
X0038088Y0035413D01*
X0044771Y0035413D01*
X0045769Y0034415D01*
X0048190Y0033413D01*
X0058310Y0033413D01*
X0060731Y0034415D01*
X0067229Y0040913D01*
X0151771Y0040913D01*
X0156415Y0036269D01*
X0158269Y0034415D01*
X0160690Y0033413D01*
X0190810Y0033413D01*
X0193231Y0034415D01*
X0193729Y0034913D01*
X0224262Y0034913D01*
X0224870Y0035165D01*
X0227460Y0035165D01*
X0229237Y0035901D01*
X0230597Y0037261D01*
X0231333Y0039038D01*
X0231333Y0040962D01*
X0230597Y0042739D01*
X0229237Y0044099D01*
X0227460Y0044835D01*
X0224870Y0044835D01*
X0224684Y0044913D01*
X0270512Y0044913D01*
X0271719Y0045413D01*
X0273412Y0045413D01*
X0275099Y0046111D01*
X0276389Y0047401D01*
X0277087Y0049087D01*
X0277087Y0050912D01*
X0276389Y0052599D01*
X0275099Y0053889D01*
X0273412Y0054587D01*
X0271719Y0054587D01*
X0270512Y0055087D01*
X0222238Y0055087D01*
X0221630Y0054835D01*
X0219040Y0054835D01*
X0217263Y0054099D01*
X0215903Y0052739D01*
X0215167Y0050962D01*
X0215167Y0049038D01*
X0215903Y0047261D01*
X0217263Y0045901D01*
X0219040Y0045165D01*
X0221630Y0045165D01*
X0221816Y0045087D01*
X0193729Y0045087D01*
X0193231Y0045585D01*
X0190810Y0046587D01*
X0164787Y0046587D01*
X0164787Y0085263D01*
X0166476Y0085263D01*
X0167000Y0085787D01*
X0167524Y0085263D01*
X0173957Y0085263D01*
X0174887Y0086193D01*
X0174887Y0087213D01*
X0176613Y0087213D01*
X0176613Y0086193D01*
X0177543Y0085263D01*
X0177972Y0085263D01*
X0177972Y0084540D01*
X0177543Y0084540D01*
X0176613Y0083610D01*
X0176613Y0076390D01*
X0177543Y0075460D01*
X0183976Y0075460D01*
X0184350Y0075833D01*
X0184576Y0075607D01*
X0184986Y0075370D01*
X0185444Y0075247D01*
X0187761Y0075247D01*
X0187761Y0079520D01*
X0188720Y0079520D01*
X0188720Y0075247D01*
X0191036Y0075247D01*
X0191494Y0075370D01*
X0191904Y0075607D01*
X0192240Y0075942D01*
X0192477Y0076352D01*
X0192599Y0076810D01*
X0192599Y0079520D01*
X0188720Y0079520D01*
X0188720Y0080480D01*
X0187761Y0080480D01*
X0187761Y0084753D01*
X0185444Y0084753D01*
X0184986Y0084630D01*
X0184576Y0084393D01*
X0184350Y0084167D01*
X0183976Y0084540D01*
X0183547Y0084540D01*
X0183547Y0085263D01*
X0183976Y0085263D01*
X0184350Y0085636D01*
X0184576Y0085410D01*
X0184986Y0085173D01*
X0185444Y0085050D01*
X0187761Y0085050D01*
X0187761Y0089520D01*
X0188720Y0089520D01*
X0188720Y0085050D01*
X0191036Y0085050D01*
X0191494Y0085173D01*
X0191904Y0085410D01*
X0192240Y0085745D01*
X0192477Y0086156D01*
X0192599Y0086613D01*
X0192599Y0089520D01*
X0188720Y0089520D01*
X0188720Y0090480D01*
X0187761Y0090480D01*
X0187761Y0094950D01*
X0185444Y0094950D01*
X0184986Y0094827D01*
X0184576Y0094590D01*
X0184350Y0094364D01*
X0183976Y0094737D01*
X0177543Y0094737D01*
X0177219Y0094413D01*
X0177219Y0097912D01*
X0177729Y0097912D01*
X0178187Y0098035D01*
X0178343Y0098125D01*
X0182087Y0098125D01*
X0183017Y0099055D01*
X0183017Y0104307D01*
X0182611Y0104713D01*
X0193345Y0104713D01*
X0195731Y0102327D01*
X0195731Y0099661D01*
X0196661Y0098731D01*
X0202339Y0098731D01*
X0203268Y0099661D01*
X0203268Y0105339D01*
X0202339Y0106268D01*
X0199673Y0106268D01*
X0196229Y0109713D01*
X0206713Y0109713D01*
X0206713Y0061155D01*
X0205577Y0060018D01*
X0202911Y0060018D01*
X0201981Y0059089D01*
X0201981Y0053411D01*
X0202911Y0052481D01*
X0208589Y0052481D01*
X0209518Y0053411D01*
X0209518Y0056077D01*
X0211863Y0058421D01*
X0212287Y0059446D01*
X0212287Y0113054D01*
X0211863Y0114079D01*
X0211079Y0114863D01*
X0210054Y0115287D01*
X0182611Y0115287D01*
X0183017Y0115693D01*
X0183017Y0120945D01*
X0182087Y0121875D01*
X0179187Y0121875D01*
X0179187Y0123290D02*
X0214500Y0123290D01*
X0214500Y0124888D02*
X0198603Y0124888D01*
X0198849Y0126487D02*
X0214500Y0126487D01*
X0214500Y0128085D02*
X0198849Y0128085D01*
X0198849Y0129230D02*
X0198849Y0131940D01*
X0198727Y0132398D01*
X0198490Y0132808D01*
X0198154Y0133143D01*
X0197744Y0133380D01*
X0197286Y0133503D01*
X0194970Y0133503D01*
X0194970Y0129230D01*
X0198849Y0129230D01*
X0198849Y0129684D02*
X0214500Y0129684D01*
X0214500Y0131282D02*
X0198849Y0131282D01*
X0198417Y0132881D02*
X0214500Y0132881D01*
X0214500Y0134479D02*
X0179887Y0134479D01*
X0179887Y0132881D02*
X0183384Y0132881D01*
X0179887Y0136078D02*
X0214500Y0136078D01*
X0214500Y0137676D02*
X0179887Y0137676D01*
X0179787Y0139275D02*
X0214500Y0139275D01*
X0214500Y0140873D02*
X0179787Y0140873D01*
X0179787Y0142472D02*
X0214500Y0142472D01*
X0214500Y0144070D02*
X0202275Y0144070D01*
X0203874Y0145669D02*
X0215169Y0145669D01*
X0214500Y0145000D02*
X0214500Y0072500D01*
X0229500Y0072500D01*
X0239500Y0062500D01*
X0274500Y0062500D01*
X0282000Y0055000D01*
X0295151Y0055000D01*
X0295151Y0023151D01*
X0287000Y0015000D01*
X0287000Y0006800D01*
X0028800Y0006800D01*
X0028800Y0213161D01*
X0283839Y0213161D01*
X0287000Y0210000D01*
X0287000Y0165000D01*
X0295151Y0156849D01*
X0295151Y0147500D01*
X0217000Y0147500D01*
X0214500Y0145000D01*
X0216768Y0147268D02*
X0205472Y0147268D01*
X0207071Y0148866D02*
X0295151Y0148866D01*
X0295151Y0150465D02*
X0208669Y0150465D01*
X0210268Y0152063D02*
X0295151Y0152063D01*
X0295151Y0153662D02*
X0211866Y0153662D01*
X0213465Y0155260D02*
X0295151Y0155260D01*
X0295141Y0156859D02*
X0215063Y0156859D01*
X0216662Y0158457D02*
X0293543Y0158457D01*
X0291944Y0160056D02*
X0218260Y0160056D01*
X0207449Y0161654D02*
X0140662Y0161654D01*
X0140187Y0160056D02*
X0205851Y0160056D01*
X0204252Y0158457D02*
X0140187Y0158457D01*
X0140187Y0156859D02*
X0202654Y0156859D01*
X0201055Y0155260D02*
X0140187Y0155260D01*
X0140187Y0153662D02*
X0199457Y0153662D01*
X0197858Y0152063D02*
X0140187Y0152063D01*
X0140187Y0150465D02*
X0143760Y0150465D01*
X0142817Y0148866D02*
X0140187Y0148866D01*
X0140187Y0147268D02*
X0142613Y0147268D01*
X0142613Y0145669D02*
X0140187Y0145669D01*
X0140187Y0144070D02*
X0142613Y0144070D01*
X0142613Y0142472D02*
X0140187Y0142472D01*
X0140187Y0140873D02*
X0142613Y0140873D01*
X0142613Y0139275D02*
X0140187Y0139275D01*
X0140187Y0137676D02*
X0142613Y0137676D01*
X0142613Y0136078D02*
X0140187Y0136078D01*
X0140187Y0134479D02*
X0142613Y0134479D01*
X0141176Y0132881D02*
X0139389Y0132881D01*
X0139578Y0131282D02*
X0137790Y0131282D01*
X0138156Y0129684D02*
X0136192Y0129684D01*
X0137613Y0128085D02*
X0134593Y0128085D01*
X0132995Y0126487D02*
X0137613Y0126487D01*
X0137613Y0124888D02*
X0132687Y0124888D01*
X0132687Y0123290D02*
X0137613Y0123290D01*
X0137613Y0121691D02*
X0132687Y0121691D01*
X0132687Y0120093D02*
X0137613Y0120093D01*
X0137613Y0118494D02*
X0132687Y0118494D01*
X0132687Y0116896D02*
X0137613Y0116896D01*
X0137613Y0115297D02*
X0132687Y0115297D01*
X0132687Y0113699D02*
X0137613Y0113699D01*
X0137613Y0112100D02*
X0132687Y0112100D01*
X0132687Y0110502D02*
X0137613Y0110502D01*
X0137613Y0108903D02*
X0132687Y0108903D01*
X0132687Y0107305D02*
X0137613Y0107305D01*
X0137613Y0105706D02*
X0132687Y0105706D01*
X0132687Y0104108D02*
X0137613Y0104108D01*
X0137613Y0102509D02*
X0132687Y0102509D01*
X0132687Y0100911D02*
X0137909Y0100911D01*
X0138983Y0099312D02*
X0132687Y0099312D01*
X0132687Y0097714D02*
X0140582Y0097714D01*
X0142180Y0096115D02*
X0132687Y0096115D01*
X0132687Y0094517D02*
X0142613Y0094517D01*
X0142613Y0092918D02*
X0132687Y0092918D01*
X0132687Y0091320D02*
X0142613Y0091320D01*
X0142613Y0089721D02*
X0132687Y0089721D01*
X0132687Y0088123D02*
X0142613Y0088123D01*
X0142613Y0086524D02*
X0132687Y0086524D01*
X0132687Y0084926D02*
X0142613Y0084926D01*
X0142613Y0083327D02*
X0132687Y0083327D01*
X0132630Y0081729D02*
X0142613Y0081729D01*
X0142613Y0080130D02*
X0131638Y0080130D01*
X0130039Y0078532D02*
X0142613Y0078532D01*
X0142613Y0076933D02*
X0128441Y0076933D01*
X0126842Y0075334D02*
X0142613Y0075334D01*
X0142613Y0073736D02*
X0125244Y0073736D01*
X0123418Y0072137D02*
X0142613Y0072137D01*
X0142613Y0070539D02*
X0117687Y0070539D01*
X0117687Y0068940D02*
X0142613Y0068940D01*
X0142613Y0067342D02*
X0117687Y0067342D01*
X0117687Y0065743D02*
X0142979Y0065743D01*
X0143748Y0064145D02*
X0117687Y0064145D01*
X0117268Y0062546D02*
X0159213Y0062546D01*
X0159213Y0060948D02*
X0117260Y0060948D01*
X0111387Y0059349D02*
X0159213Y0059349D01*
X0159213Y0057751D02*
X0111387Y0057751D01*
X0111387Y0056152D02*
X0159213Y0056152D01*
X0159213Y0054554D02*
X0111387Y0054554D01*
X0102613Y0054554D02*
X0046518Y0054554D01*
X0046843Y0054448D02*
X0046124Y0054682D01*
X0045378Y0054800D01*
X0042200Y0054800D01*
X0042200Y0050200D01*
X0049800Y0050200D01*
X0049800Y0050378D01*
X0049682Y0051124D01*
X0049448Y0051843D01*
X0049105Y0052516D01*
X0048661Y0053127D01*
X0048127Y0053661D01*
X0047516Y0054105D01*
X0046843Y0054448D01*
X0048786Y0052955D02*
X0060639Y0052955D01*
X0059041Y0051357D02*
X0049606Y0051357D01*
X0049800Y0049758D02*
X0057442Y0049758D01*
X0058915Y0051231D02*
X0058915Y0051231D01*
X0055844Y0048160D02*
X0049449Y0048160D01*
X0045147Y0044963D02*
X0028800Y0044963D01*
X0028800Y0046561D02*
X0035650Y0046561D01*
X0035873Y0046339D02*
X0035339Y0046873D01*
X0034895Y0047484D01*
X0034552Y0048157D01*
X0034318Y0048876D01*
X0034200Y0049622D01*
X0034200Y0049800D01*
X0041800Y0049800D01*
X0041800Y0045200D01*
X0038622Y0045200D01*
X0037876Y0045318D01*
X0037157Y0045552D01*
X0036484Y0045895D01*
X0035873Y0046339D01*
X0034551Y0048160D02*
X0028800Y0048160D01*
X0028800Y0049758D02*
X0034200Y0049758D01*
X0034394Y0051357D02*
X0028800Y0051357D01*
X0028800Y0052955D02*
X0035214Y0052955D01*
X0037482Y0054554D02*
X0028800Y0054554D01*
X0028800Y0056152D02*
X0102613Y0056152D01*
X0102613Y0057751D02*
X0028800Y0057751D01*
X0028800Y0059349D02*
X0102613Y0059349D01*
X0096740Y0060948D02*
X0028800Y0060948D01*
X0028800Y0062546D02*
X0096731Y0062546D01*
X0096313Y0064145D02*
X0028800Y0064145D01*
X0028800Y0065743D02*
X0072289Y0065743D01*
X0070170Y0067342D02*
X0028800Y0067342D01*
X0028800Y0068940D02*
X0069473Y0068940D01*
X0069413Y0070539D02*
X0028800Y0070539D01*
X0028800Y0072137D02*
X0069920Y0072137D01*
X0071248Y0073736D02*
X0028800Y0073736D01*
X0028800Y0075334D02*
X0085149Y0075334D01*
X0084960Y0073736D02*
X0082752Y0073736D01*
X0081711Y0065743D02*
X0096313Y0065743D01*
X0095150Y0067342D02*
X0093339Y0067342D01*
X0112687Y0078532D02*
X0121024Y0078532D01*
X0122622Y0080130D02*
X0112687Y0080130D01*
X0117268Y0081729D02*
X0124221Y0081729D01*
X0125819Y0083327D02*
X0118585Y0083327D01*
X0120183Y0084926D02*
X0126313Y0084926D01*
X0126313Y0086524D02*
X0121782Y0086524D01*
X0123380Y0088123D02*
X0126313Y0088123D01*
X0126313Y0089721D02*
X0124817Y0089721D01*
X0125187Y0091320D02*
X0126313Y0091320D01*
X0126313Y0092918D02*
X0125187Y0092918D01*
X0125187Y0094517D02*
X0126313Y0094517D01*
X0126313Y0096115D02*
X0125187Y0096115D01*
X0125187Y0097714D02*
X0126313Y0097714D01*
X0126313Y0099312D02*
X0125187Y0099312D01*
X0125187Y0100911D02*
X0126313Y0100911D01*
X0126313Y0102509D02*
X0125187Y0102509D01*
X0125187Y0104108D02*
X0126313Y0104108D01*
X0126313Y0105706D02*
X0125187Y0105706D01*
X0125187Y0107305D02*
X0126313Y0107305D01*
X0126313Y0108903D02*
X0125187Y0108903D01*
X0125187Y0110502D02*
X0126313Y0110502D01*
X0126313Y0112100D02*
X0125187Y0112100D01*
X0125187Y0113699D02*
X0126313Y0113699D01*
X0126313Y0115297D02*
X0125187Y0115297D01*
X0125187Y0116896D02*
X0126313Y0116896D01*
X0126313Y0118494D02*
X0125187Y0118494D01*
X0125187Y0120093D02*
X0126313Y0120093D01*
X0126313Y0121691D02*
X0125187Y0121691D01*
X0125187Y0123290D02*
X0126313Y0123290D01*
X0126313Y0124888D02*
X0125187Y0124888D01*
X0125187Y0126487D02*
X0126313Y0126487D01*
X0126313Y0128085D02*
X0125187Y0128085D01*
X0126192Y0129684D02*
X0127176Y0129684D01*
X0127694Y0130202D02*
X0127694Y0130202D01*
X0127790Y0131282D02*
X0128775Y0131282D01*
X0129389Y0132881D02*
X0130373Y0132881D01*
X0130987Y0134479D02*
X0131972Y0134479D01*
X0132361Y0136078D02*
X0133570Y0136078D01*
X0133813Y0137676D02*
X0132687Y0137676D01*
X0132687Y0139275D02*
X0133813Y0139275D01*
X0133813Y0140873D02*
X0132687Y0140873D01*
X0132687Y0142472D02*
X0133813Y0142472D01*
X0133813Y0144070D02*
X0132687Y0144070D01*
X0132687Y0145669D02*
X0133813Y0145669D01*
X0133813Y0147268D02*
X0132687Y0147268D01*
X0132687Y0148866D02*
X0133813Y0148866D01*
X0133813Y0150465D02*
X0132687Y0150465D01*
X0132687Y0152063D02*
X0133813Y0152063D01*
X0133813Y0153662D02*
X0132687Y0153662D01*
X0132687Y0155260D02*
X0133813Y0155260D01*
X0133813Y0156859D02*
X0132687Y0156859D01*
X0132687Y0158457D02*
X0133813Y0158457D01*
X0133813Y0160056D02*
X0132687Y0160056D01*
X0132687Y0161654D02*
X0133813Y0161654D01*
X0133862Y0163253D02*
X0132687Y0163253D01*
X0132687Y0164851D02*
X0134843Y0164851D01*
X0136442Y0166450D02*
X0132687Y0166450D01*
X0132687Y0168048D02*
X0138530Y0168048D01*
X0129435Y0174442D02*
X0125187Y0174442D01*
X0125187Y0172844D02*
X0127836Y0172844D01*
X0126566Y0171245D02*
X0125187Y0171245D01*
X0125187Y0169647D02*
X0126313Y0169647D01*
X0126313Y0168048D02*
X0125187Y0168048D01*
X0125187Y0166450D02*
X0126313Y0166450D01*
X0126313Y0164851D02*
X0125187Y0164851D01*
X0125187Y0163253D02*
X0126313Y0163253D01*
X0126313Y0161654D02*
X0125187Y0161654D01*
X0125187Y0160056D02*
X0126313Y0160056D01*
X0126313Y0158457D02*
X0125187Y0158457D01*
X0125187Y0156859D02*
X0126313Y0156859D01*
X0126313Y0155260D02*
X0125187Y0155260D01*
X0124896Y0153662D02*
X0126313Y0153662D01*
X0126313Y0152063D02*
X0123239Y0152063D01*
X0126313Y0150465D02*
X0117687Y0150465D01*
X0117687Y0148866D02*
X0126313Y0148866D01*
X0126313Y0147268D02*
X0117687Y0147268D01*
X0117687Y0145669D02*
X0126313Y0145669D01*
X0126313Y0144070D02*
X0117663Y0144070D01*
X0117268Y0142472D02*
X0126313Y0142472D01*
X0126313Y0140873D02*
X0117185Y0140873D01*
X0113887Y0139275D02*
X0126313Y0139275D01*
X0125169Y0137676D02*
X0113887Y0137676D01*
X0113887Y0136078D02*
X0123570Y0136078D01*
X0121972Y0134479D02*
X0113887Y0134479D01*
X0113887Y0132881D02*
X0120373Y0132881D01*
X0119081Y0131282D02*
X0113887Y0131282D01*
X0113887Y0129684D02*
X0118813Y0129684D01*
X0118813Y0128085D02*
X0113887Y0128085D01*
X0113887Y0126487D02*
X0118813Y0126487D01*
X0118813Y0124888D02*
X0113887Y0124888D01*
X0113887Y0123290D02*
X0118813Y0123290D01*
X0118813Y0121691D02*
X0113887Y0121691D01*
X0113887Y0120093D02*
X0118813Y0120093D01*
X0118813Y0118494D02*
X0113887Y0118494D01*
X0113887Y0116896D02*
X0118813Y0116896D01*
X0118813Y0115297D02*
X0113887Y0115297D01*
X0113887Y0113699D02*
X0118813Y0113699D01*
X0118813Y0112100D02*
X0113887Y0112100D01*
X0113887Y0110502D02*
X0118813Y0110502D01*
X0118813Y0108903D02*
X0113887Y0108903D01*
X0113887Y0107305D02*
X0118813Y0107305D01*
X0118813Y0105706D02*
X0113887Y0105706D01*
X0113887Y0104108D02*
X0118813Y0104108D01*
X0118813Y0102509D02*
X0113887Y0102509D01*
X0113887Y0100911D02*
X0118813Y0100911D01*
X0118813Y0099312D02*
X0113887Y0099312D01*
X0113887Y0097714D02*
X0118813Y0097714D01*
X0118813Y0096115D02*
X0113887Y0096115D01*
X0113887Y0094517D02*
X0118813Y0094517D01*
X0118813Y0092918D02*
X0113887Y0092918D01*
X0113760Y0091320D02*
X0117562Y0091320D01*
X0105240Y0091320D02*
X0028800Y0091320D01*
X0028800Y0092918D02*
X0095189Y0092918D01*
X0095151Y0093060D02*
X0095273Y0092602D01*
X0095510Y0092192D01*
X0095846Y0091857D01*
X0096256Y0091620D01*
X0096714Y0091497D01*
X0099030Y0091497D01*
X0099030Y0095770D01*
X0095151Y0095770D01*
X0095151Y0093060D01*
X0095151Y0094517D02*
X0028800Y0094517D01*
X0028800Y0096115D02*
X0099030Y0096115D01*
X0099030Y0094517D02*
X0099989Y0094517D01*
X0099989Y0092918D02*
X0099030Y0092918D01*
X0099500Y0090186D02*
X0098082Y0090186D01*
X0097624Y0090063D01*
X0097214Y0089826D01*
X0096879Y0089491D01*
X0096642Y0089081D01*
X0096519Y0088623D01*
X0096519Y0085236D01*
X0099500Y0085236D01*
X0099500Y0085236D01*
X0099500Y0090186D01*
X0099500Y0089721D02*
X0099500Y0089721D01*
X0099500Y0088123D02*
X0099500Y0088123D01*
X0099500Y0086524D02*
X0099500Y0086524D01*
X0099500Y0085236D02*
X0099500Y0085236D01*
X0096519Y0084926D02*
X0028800Y0084926D01*
X0028800Y0086524D02*
X0096519Y0086524D01*
X0096519Y0088123D02*
X0028800Y0088123D01*
X0028800Y0089721D02*
X0097109Y0089721D01*
X0101891Y0089721D02*
X0102409Y0089721D01*
X0096519Y0083327D02*
X0083160Y0083327D01*
X0070839Y0083327D02*
X0028800Y0083327D01*
X0028800Y0081729D02*
X0069751Y0081729D01*
X0069413Y0080130D02*
X0028800Y0080130D01*
X0028800Y0078532D02*
X0069643Y0078532D01*
X0070579Y0076933D02*
X0028800Y0076933D01*
X0028800Y0097714D02*
X0095151Y0097714D01*
X0095151Y0099312D02*
X0028800Y0099312D01*
X0028800Y0100911D02*
X0096370Y0100911D01*
X0099030Y0100911D02*
X0099989Y0100911D01*
X0099989Y0099312D02*
X0099030Y0099312D01*
X0099030Y0097714D02*
X0099989Y0097714D01*
X0102649Y0100911D02*
X0105113Y0100911D01*
X0105113Y0102509D02*
X0028800Y0102509D01*
X0028800Y0104108D02*
X0105113Y0104108D01*
X0105113Y0105706D02*
X0028800Y0105706D01*
X0028800Y0107305D02*
X0105113Y0107305D01*
X0105113Y0108903D02*
X0028800Y0108903D01*
X0028800Y0110502D02*
X0105113Y0110502D01*
X0105113Y0112100D02*
X0028800Y0112100D01*
X0028800Y0113699D02*
X0105113Y0113699D01*
X0105113Y0115297D02*
X0028800Y0115297D01*
X0028800Y0116896D02*
X0105113Y0116896D01*
X0105113Y0118494D02*
X0028800Y0118494D01*
X0028800Y0120093D02*
X0105113Y0120093D01*
X0105113Y0121691D02*
X0028800Y0121691D01*
X0028800Y0123290D02*
X0105113Y0123290D01*
X0105113Y0124888D02*
X0028800Y0124888D01*
X0028800Y0126487D02*
X0105113Y0126487D01*
X0104898Y0128085D02*
X0104387Y0128085D01*
X0101239Y0128085D02*
X0100280Y0128085D01*
X0100280Y0127747D02*
X0097964Y0127747D01*
X0097506Y0127870D01*
X0097096Y0128107D01*
X0096760Y0128442D01*
X0096523Y0128852D01*
X0096401Y0129310D01*
X0096401Y0132020D01*
X0100280Y0132020D01*
X0100280Y0127747D01*
X0100280Y0129684D02*
X0101239Y0129684D01*
X0101239Y0131282D02*
X0100280Y0131282D01*
X0100280Y0132881D02*
X0028800Y0132881D01*
X0028800Y0134479D02*
X0096401Y0134479D01*
X0096505Y0136078D02*
X0028800Y0136078D01*
X0028800Y0137676D02*
X0105113Y0137676D01*
X0105113Y0139275D02*
X0028800Y0139275D01*
X0028800Y0140873D02*
X0096815Y0140873D01*
X0096731Y0142472D02*
X0028800Y0142472D01*
X0028800Y0144070D02*
X0096337Y0144070D01*
X0096313Y0145669D02*
X0081531Y0145669D01*
X0082826Y0153662D02*
X0084960Y0153662D01*
X0085223Y0155260D02*
X0028800Y0155260D01*
X0028800Y0153662D02*
X0071174Y0153662D01*
X0069889Y0152063D02*
X0028800Y0152063D01*
X0028800Y0150465D02*
X0069413Y0150465D01*
X0069504Y0148866D02*
X0028800Y0148866D01*
X0028800Y0147268D02*
X0070245Y0147268D01*
X0072468Y0145669D02*
X0028800Y0145669D01*
X0028800Y0156859D02*
X0070654Y0156859D01*
X0069674Y0158457D02*
X0028800Y0158457D01*
X0028800Y0160056D02*
X0069413Y0160056D01*
X0069720Y0161654D02*
X0028800Y0161654D01*
X0028800Y0163253D02*
X0070765Y0163253D01*
X0083235Y0163253D02*
X0096519Y0163253D01*
X0096519Y0164851D02*
X0028800Y0164851D01*
X0028800Y0166450D02*
X0096519Y0166450D01*
X0096519Y0165236D02*
X0099500Y0165236D01*
X0099500Y0165236D01*
X0099500Y0170186D01*
X0098082Y0170186D01*
X0097624Y0170063D01*
X0097214Y0169826D01*
X0096879Y0169491D01*
X0096642Y0169081D01*
X0096519Y0168623D01*
X0096519Y0165236D01*
X0096519Y0168048D02*
X0028800Y0168048D01*
X0028800Y0169647D02*
X0097034Y0169647D01*
X0099500Y0169647D02*
X0099500Y0169647D01*
X0099500Y0168048D02*
X0099500Y0168048D01*
X0099500Y0166450D02*
X0099500Y0166450D01*
X0099500Y0165236D02*
X0099500Y0165236D01*
X0101966Y0169647D02*
X0102335Y0169647D01*
X0106665Y0169647D02*
X0107335Y0169647D01*
X0111313Y0171245D02*
X0028800Y0171245D01*
X0028800Y0172844D02*
X0111313Y0172844D01*
X0111313Y0174442D02*
X0028800Y0174442D01*
X0028800Y0176041D02*
X0111313Y0176041D01*
X0111313Y0177639D02*
X0028800Y0177639D01*
X0028800Y0179238D02*
X0111313Y0179238D01*
X0111313Y0180836D02*
X0100123Y0180836D01*
X0100127Y0180839D02*
X0100661Y0181373D01*
X0101105Y0181984D01*
X0101448Y0182657D01*
X0101682Y0183376D01*
X0101800Y0184122D01*
X0101800Y0187300D01*
X0097200Y0187300D01*
X0097200Y0187700D01*
X0101800Y0187700D01*
X0101800Y0190878D01*
X0101682Y0191624D01*
X0101448Y0192343D01*
X0101105Y0193016D01*
X0100661Y0193627D01*
X0100127Y0194161D01*
X0099516Y0194605D01*
X0098843Y0194948D01*
X0098124Y0195182D01*
X0097378Y0195300D01*
X0097200Y0195300D01*
X0097200Y0187700D01*
X0096800Y0187700D01*
X0096800Y0195300D01*
X0096622Y0195300D01*
X0095876Y0195182D01*
X0095157Y0194948D01*
X0094484Y0194605D01*
X0093873Y0194161D01*
X0093339Y0193627D01*
X0092895Y0193016D01*
X0092552Y0192343D01*
X0092318Y0191624D01*
X0092200Y0190878D01*
X0092200Y0187700D01*
X0096800Y0187700D01*
X0096800Y0187300D01*
X0097200Y0187300D01*
X0097200Y0179700D01*
X0097378Y0179700D01*
X0098124Y0179818D01*
X0098843Y0180052D01*
X0099516Y0180395D01*
X0100127Y0180839D01*
X0101335Y0182435D02*
X0111313Y0182435D01*
X0111313Y0184033D02*
X0101786Y0184033D01*
X0101800Y0185632D02*
X0111313Y0185632D01*
X0112223Y0187230D02*
X0101800Y0187230D01*
X0101800Y0188829D02*
X0113821Y0188829D01*
X0115420Y0190427D02*
X0101800Y0190427D01*
X0101551Y0192026D02*
X0117018Y0192026D01*
X0119639Y0185632D02*
X0123732Y0185632D01*
X0121526Y0184033D02*
X0118041Y0184033D01*
X0117687Y0182435D02*
X0119927Y0182435D01*
X0118896Y0180836D02*
X0117687Y0180836D01*
X0117687Y0179238D02*
X0118813Y0179238D01*
X0118813Y0177639D02*
X0117687Y0177639D01*
X0117687Y0176041D02*
X0118813Y0176041D01*
X0118813Y0174442D02*
X0117687Y0174442D01*
X0117687Y0172844D02*
X0118813Y0172844D01*
X0118813Y0171245D02*
X0117687Y0171245D01*
X0117687Y0169647D02*
X0118813Y0169647D01*
X0118813Y0168048D02*
X0117687Y0168048D01*
X0117687Y0166450D02*
X0118813Y0166450D01*
X0118813Y0164851D02*
X0117687Y0164851D01*
X0117268Y0163253D02*
X0118813Y0163253D01*
X0118813Y0161654D02*
X0117268Y0161654D01*
X0118813Y0160056D02*
X0112687Y0160056D01*
X0112687Y0158457D02*
X0118813Y0158457D01*
X0114351Y0156859D02*
X0112687Y0156859D01*
X0112687Y0155260D02*
X0112752Y0155260D01*
X0096313Y0147268D02*
X0093264Y0147268D01*
X0100280Y0136078D02*
X0101239Y0136078D01*
X0101239Y0134479D02*
X0100280Y0134479D01*
X0096401Y0131282D02*
X0028800Y0131282D01*
X0028800Y0129684D02*
X0096401Y0129684D01*
X0097133Y0128085D02*
X0028800Y0128085D01*
X0074401Y0180611D02*
X0076088Y0179913D01*
X0077912Y0179913D01*
X0079599Y0180611D01*
X0080889Y0181901D01*
X0081587Y0183587D01*
X0081587Y0191412D01*
X0080889Y0193099D01*
X0079599Y0194389D01*
X0077912Y0195087D01*
X0076088Y0195087D01*
X0074401Y0194389D01*
X0073111Y0193099D01*
X0072413Y0191412D01*
X0072413Y0183587D01*
X0073111Y0181901D01*
X0074401Y0180611D01*
X0074176Y0180836D02*
X0028800Y0180836D01*
X0028800Y0182435D02*
X0072890Y0182435D01*
X0072413Y0184033D02*
X0028800Y0184033D01*
X0028800Y0185632D02*
X0072413Y0185632D01*
X0072413Y0187230D02*
X0028800Y0187230D01*
X0028800Y0188829D02*
X0072413Y0188829D01*
X0072413Y0190427D02*
X0028800Y0190427D01*
X0028800Y0192026D02*
X0072667Y0192026D01*
X0073637Y0193624D02*
X0028800Y0193624D01*
X0028800Y0195223D02*
X0083813Y0195223D01*
X0083813Y0196821D02*
X0028800Y0196821D01*
X0028800Y0198420D02*
X0083813Y0198420D01*
X0083813Y0200018D02*
X0028800Y0200018D01*
X0028800Y0201617D02*
X0084220Y0201617D01*
X0090187Y0195223D02*
X0096135Y0195223D01*
X0096800Y0195223D02*
X0097200Y0195223D01*
X0097865Y0195223D02*
X0103519Y0195223D01*
X0105118Y0193624D02*
X0100663Y0193624D01*
X0097200Y0193624D02*
X0096800Y0193624D01*
X0096800Y0192026D02*
X0097200Y0192026D01*
X0097200Y0190427D02*
X0096800Y0190427D01*
X0096800Y0188829D02*
X0097200Y0188829D01*
X0096800Y0187300D02*
X0092200Y0187300D01*
X0092200Y0184122D01*
X0092318Y0183376D01*
X0092552Y0182657D01*
X0092895Y0181984D01*
X0093339Y0181373D01*
X0093873Y0180839D01*
X0094484Y0180395D01*
X0095157Y0180052D01*
X0095876Y0179818D01*
X0096622Y0179700D01*
X0096800Y0179700D01*
X0096800Y0187300D01*
X0096800Y0187230D02*
X0097200Y0187230D01*
X0097200Y0185632D02*
X0096800Y0185632D01*
X0096800Y0184033D02*
X0097200Y0184033D01*
X0097200Y0182435D02*
X0096800Y0182435D01*
X0096800Y0180836D02*
X0097200Y0180836D01*
X0093876Y0180836D02*
X0089824Y0180836D01*
X0091110Y0182435D02*
X0092665Y0182435D01*
X0092214Y0184033D02*
X0091587Y0184033D01*
X0091587Y0185632D02*
X0092200Y0185632D01*
X0092200Y0187230D02*
X0091587Y0187230D01*
X0091587Y0188829D02*
X0092200Y0188829D01*
X0092200Y0190427D02*
X0091587Y0190427D01*
X0091333Y0192026D02*
X0092449Y0192026D01*
X0093337Y0193624D02*
X0090363Y0193624D01*
X0083637Y0193624D02*
X0080363Y0193624D01*
X0081333Y0192026D02*
X0082667Y0192026D01*
X0082413Y0190427D02*
X0081587Y0190427D01*
X0081587Y0188829D02*
X0082413Y0188829D01*
X0082413Y0187230D02*
X0081587Y0187230D01*
X0081587Y0185632D02*
X0082413Y0185632D01*
X0082413Y0184033D02*
X0081587Y0184033D01*
X0081110Y0182435D02*
X0082890Y0182435D01*
X0084176Y0180836D02*
X0079824Y0180836D01*
X0106141Y0201617D02*
X0117471Y0201617D01*
X0116113Y0202976D02*
X0118976Y0200113D01*
X0123024Y0200113D01*
X0125887Y0202976D01*
X0125887Y0207024D01*
X0123024Y0209887D01*
X0118976Y0209887D01*
X0116113Y0207024D01*
X0116113Y0202976D01*
X0116113Y0203215D02*
X0028800Y0203215D01*
X0028800Y0204814D02*
X0116113Y0204814D01*
X0116113Y0206412D02*
X0028800Y0206412D01*
X0028800Y0208011D02*
X0117099Y0208011D01*
X0118698Y0209609D02*
X0028800Y0209609D01*
X0028800Y0211208D02*
X0285792Y0211208D01*
X0287000Y0209609D02*
X0279302Y0209609D01*
X0279024Y0209887D02*
X0274976Y0209887D01*
X0272113Y0207024D01*
X0272113Y0202976D01*
X0274976Y0200113D01*
X0279024Y0200113D01*
X0281887Y0202976D01*
X0281887Y0207024D01*
X0279024Y0209887D01*
X0280901Y0208011D02*
X0287000Y0208011D01*
X0287000Y0206412D02*
X0281887Y0206412D01*
X0281887Y0204814D02*
X0287000Y0204814D01*
X0287000Y0203215D02*
X0281887Y0203215D01*
X0280529Y0201617D02*
X0287000Y0201617D01*
X0287000Y0200018D02*
X0251489Y0200018D01*
X0250210Y0201298D02*
X0253320Y0198187D01*
X0270134Y0198187D01*
X0271306Y0197702D01*
X0272202Y0196806D01*
X0272687Y0195634D01*
X0272687Y0183800D01*
X0273389Y0183099D01*
X0274087Y0181412D01*
X0274087Y0173587D01*
X0273389Y0171901D01*
X0272099Y0170611D01*
X0270412Y0169913D01*
X0268588Y0169913D01*
X0266901Y0170611D01*
X0265611Y0171901D01*
X0264913Y0173587D01*
X0264913Y0181412D01*
X0265611Y0183099D01*
X0266313Y0183800D01*
X0266313Y0191813D01*
X0260435Y0191813D01*
X0261306Y0191452D01*
X0262202Y0190556D01*
X0262687Y0189384D01*
X0262687Y0183800D01*
X0263389Y0183099D01*
X0264087Y0181412D01*
X0264087Y0173587D01*
X0263389Y0171901D01*
X0262099Y0170611D01*
X0260412Y0169913D01*
X0258587Y0169913D01*
X0256901Y0170611D01*
X0255611Y0171901D01*
X0254913Y0173587D01*
X0254913Y0181412D01*
X0255611Y0183099D01*
X0256313Y0183800D01*
X0256313Y0185563D01*
X0246366Y0185563D01*
X0245194Y0186048D01*
X0244298Y0186944D01*
X0234298Y0196944D01*
X0233813Y0198116D01*
X0233813Y0201276D01*
X0232113Y0202976D01*
X0232113Y0207024D01*
X0234976Y0209887D01*
X0239024Y0209887D01*
X0241887Y0207024D01*
X0241887Y0202976D01*
X0240187Y0201276D01*
X0240187Y0200070D01*
X0248320Y0191937D01*
X0251065Y0191937D01*
X0250194Y0192298D01*
X0249298Y0193194D01*
X0244298Y0198194D01*
X0243813Y0199366D01*
X0243813Y0201276D01*
X0242113Y0202976D01*
X0242113Y0207024D01*
X0244976Y0209887D01*
X0249024Y0209887D01*
X0251887Y0207024D01*
X0251887Y0202976D01*
X0250210Y0201298D01*
X0250529Y0201617D02*
X0253471Y0201617D01*
X0252113Y0202976D02*
X0254976Y0200113D01*
X0259024Y0200113D01*
X0261887Y0202976D01*
X0261887Y0207024D01*
X0259024Y0209887D01*
X0254976Y0209887D01*
X0252113Y0207024D01*
X0252113Y0202976D01*
X0252113Y0203215D02*
X0251887Y0203215D01*
X0251887Y0204814D02*
X0252113Y0204814D01*
X0252113Y0206412D02*
X0251887Y0206412D01*
X0250901Y0208011D02*
X0253099Y0208011D01*
X0254698Y0209609D02*
X0249302Y0209609D01*
X0244698Y0209609D02*
X0239302Y0209609D01*
X0240901Y0208011D02*
X0243099Y0208011D01*
X0242113Y0206412D02*
X0241887Y0206412D01*
X0241887Y0204814D02*
X0242113Y0204814D01*
X0242113Y0203215D02*
X0241887Y0203215D01*
X0240529Y0201617D02*
X0243471Y0201617D01*
X0243813Y0200018D02*
X0240239Y0200018D01*
X0241838Y0198420D02*
X0244204Y0198420D01*
X0243436Y0196821D02*
X0245671Y0196821D01*
X0245035Y0195223D02*
X0247269Y0195223D01*
X0246633Y0193624D02*
X0248868Y0193624D01*
X0248232Y0192026D02*
X0250851Y0192026D01*
X0244012Y0187230D02*
X0230187Y0187230D01*
X0230187Y0185632D02*
X0246199Y0185632D01*
X0246546Y0184033D02*
X0242755Y0184033D01*
X0242627Y0184161D02*
X0242016Y0184605D01*
X0241343Y0184948D01*
X0240624Y0185182D01*
X0239878Y0185300D01*
X0239700Y0185300D01*
X0239700Y0177700D01*
X0244300Y0177700D01*
X0244300Y0180878D01*
X0244182Y0181624D01*
X0243948Y0182343D01*
X0243605Y0183016D01*
X0243161Y0183627D01*
X0242627Y0184161D01*
X0243901Y0182435D02*
X0245336Y0182435D01*
X0244913Y0180836D02*
X0244300Y0180836D01*
X0244300Y0179238D02*
X0244913Y0179238D01*
X0244913Y0177639D02*
X0239700Y0177639D01*
X0239700Y0177700D02*
X0239700Y0177300D01*
X0244300Y0177300D01*
X0244300Y0174122D01*
X0244182Y0173376D01*
X0243948Y0172657D01*
X0243605Y0171984D01*
X0243161Y0171373D01*
X0242627Y0170839D01*
X0242016Y0170395D01*
X0241343Y0170052D01*
X0240624Y0169818D01*
X0239878Y0169700D01*
X0239700Y0169700D01*
X0239700Y0177300D01*
X0239300Y0177300D01*
X0239300Y0169700D01*
X0239122Y0169700D01*
X0238376Y0169818D01*
X0237657Y0170052D01*
X0236984Y0170395D01*
X0236373Y0170839D01*
X0235839Y0171373D01*
X0235395Y0171984D01*
X0235052Y0172657D01*
X0234818Y0173376D01*
X0234700Y0174122D01*
X0234700Y0177300D01*
X0239300Y0177300D01*
X0239300Y0177700D01*
X0239300Y0185300D01*
X0239122Y0185300D01*
X0238376Y0185182D01*
X0237657Y0184948D01*
X0236984Y0184605D01*
X0236373Y0184161D01*
X0235839Y0183627D01*
X0235395Y0183016D01*
X0235052Y0182343D01*
X0234818Y0181624D01*
X0234700Y0180878D01*
X0234700Y0177700D01*
X0239300Y0177700D01*
X0239700Y0177700D01*
X0239300Y0177639D02*
X0224147Y0177639D01*
X0222548Y0176041D02*
X0234700Y0176041D01*
X0234700Y0174442D02*
X0220950Y0174442D01*
X0219351Y0172844D02*
X0234991Y0172844D01*
X0235967Y0171245D02*
X0217753Y0171245D01*
X0216154Y0169647D02*
X0245113Y0169647D01*
X0245113Y0171245D02*
X0243033Y0171245D01*
X0244009Y0172844D02*
X0245113Y0172844D01*
X0244913Y0174442D02*
X0244300Y0174442D01*
X0244300Y0176041D02*
X0244913Y0176041D01*
X0239700Y0176041D02*
X0239300Y0176041D01*
X0239300Y0174442D02*
X0239700Y0174442D01*
X0239700Y0172844D02*
X0239300Y0172844D01*
X0239300Y0171245D02*
X0239700Y0171245D01*
X0239700Y0179238D02*
X0239300Y0179238D01*
X0239300Y0180836D02*
X0239700Y0180836D01*
X0239700Y0182435D02*
X0239300Y0182435D01*
X0239300Y0184033D02*
X0239700Y0184033D01*
X0236245Y0184033D02*
X0230050Y0184033D01*
X0228942Y0182435D02*
X0235099Y0182435D01*
X0234700Y0180836D02*
X0227344Y0180836D01*
X0225745Y0179238D02*
X0234700Y0179238D01*
X0223124Y0185632D02*
X0219639Y0185632D01*
X0220187Y0187230D02*
X0223813Y0187230D01*
X0223813Y0188829D02*
X0220187Y0188829D01*
X0220187Y0190427D02*
X0223813Y0190427D01*
X0223813Y0192026D02*
X0220187Y0192026D01*
X0220187Y0193624D02*
X0223813Y0193624D01*
X0223813Y0195223D02*
X0220187Y0195223D01*
X0220187Y0196821D02*
X0223813Y0196821D01*
X0223813Y0198420D02*
X0220187Y0198420D01*
X0220187Y0200018D02*
X0223813Y0200018D01*
X0223471Y0201617D02*
X0220529Y0201617D01*
X0221887Y0203215D02*
X0222113Y0203215D01*
X0222113Y0204814D02*
X0221887Y0204814D01*
X0221887Y0206412D02*
X0222113Y0206412D01*
X0223099Y0208011D02*
X0220901Y0208011D01*
X0219302Y0209609D02*
X0224698Y0209609D01*
X0229302Y0209609D02*
X0234698Y0209609D01*
X0233099Y0208011D02*
X0230901Y0208011D01*
X0231887Y0206412D02*
X0232113Y0206412D01*
X0232113Y0204814D02*
X0231887Y0204814D01*
X0231887Y0203215D02*
X0232113Y0203215D01*
X0233471Y0201617D02*
X0230529Y0201617D01*
X0230187Y0200018D02*
X0233813Y0200018D01*
X0233813Y0198420D02*
X0230187Y0198420D01*
X0230187Y0196821D02*
X0234421Y0196821D01*
X0236019Y0195223D02*
X0230187Y0195223D01*
X0230187Y0193624D02*
X0237618Y0193624D01*
X0239216Y0192026D02*
X0230187Y0192026D01*
X0230187Y0190427D02*
X0240815Y0190427D01*
X0242414Y0188829D02*
X0230187Y0188829D01*
X0221526Y0184033D02*
X0218041Y0184033D01*
X0216442Y0182435D02*
X0219927Y0182435D01*
X0218329Y0180836D02*
X0214844Y0180836D01*
X0213245Y0179238D02*
X0216730Y0179238D01*
X0215132Y0177639D02*
X0211647Y0177639D01*
X0210048Y0176041D02*
X0213533Y0176041D01*
X0211935Y0174442D02*
X0208450Y0174442D01*
X0206851Y0172844D02*
X0210336Y0172844D01*
X0208738Y0171245D02*
X0205253Y0171245D01*
X0203441Y0169647D02*
X0207139Y0169647D01*
X0201033Y0176041D02*
X0125187Y0176041D01*
X0125187Y0177639D02*
X0202632Y0177639D01*
X0204230Y0179238D02*
X0125745Y0179238D01*
X0128888Y0199900D02*
X0130816Y0199900D01*
X0130816Y0204816D01*
X0131184Y0204816D01*
X0131184Y0199900D01*
X0133112Y0199900D01*
X0136100Y0202888D01*
X0136100Y0204816D01*
X0131184Y0204816D01*
X0131184Y0205184D01*
X0136100Y0205184D01*
X0136100Y0207112D01*
X0133112Y0210100D01*
X0131184Y0210100D01*
X0131184Y0205184D01*
X0130816Y0205184D01*
X0130816Y0204816D01*
X0125900Y0204816D01*
X0125900Y0202888D01*
X0128888Y0199900D01*
X0128769Y0200018D02*
X0107739Y0200018D01*
X0124529Y0201617D02*
X0127171Y0201617D01*
X0125900Y0203215D02*
X0125887Y0203215D01*
X0125887Y0204814D02*
X0125900Y0204814D01*
X0125900Y0205184D02*
X0130816Y0205184D01*
X0130816Y0210100D01*
X0128888Y0210100D01*
X0125900Y0207112D01*
X0125900Y0205184D01*
X0125887Y0206412D02*
X0125900Y0206412D01*
X0126798Y0208011D02*
X0124901Y0208011D01*
X0123302Y0209609D02*
X0128397Y0209609D01*
X0130816Y0209609D02*
X0131184Y0209609D01*
X0131184Y0208011D02*
X0130816Y0208011D01*
X0130816Y0206412D02*
X0131184Y0206412D01*
X0131184Y0204814D02*
X0130816Y0204814D01*
X0130816Y0203215D02*
X0131184Y0203215D01*
X0131184Y0201617D02*
X0130816Y0201617D01*
X0130816Y0200018D02*
X0131184Y0200018D01*
X0133231Y0200018D02*
X0167813Y0200018D01*
X0167471Y0201617D02*
X0164529Y0201617D01*
X0165887Y0202976D02*
X0163024Y0200113D01*
X0158976Y0200113D01*
X0156113Y0202976D01*
X0156113Y0207024D01*
X0158976Y0209887D01*
X0163024Y0209887D01*
X0165887Y0207024D01*
X0165887Y0202976D01*
X0165887Y0203215D02*
X0166113Y0203215D01*
X0166113Y0204814D02*
X0165887Y0204814D01*
X0165887Y0206412D02*
X0166113Y0206412D01*
X0167099Y0208011D02*
X0164901Y0208011D01*
X0163302Y0209609D02*
X0168698Y0209609D01*
X0173302Y0209609D02*
X0178698Y0209609D01*
X0178976Y0209887D02*
X0176113Y0207024D01*
X0176113Y0202976D01*
X0178976Y0200113D01*
X0183024Y0200113D01*
X0185887Y0202976D01*
X0185887Y0207024D01*
X0183024Y0209887D01*
X0178976Y0209887D01*
X0177099Y0208011D02*
X0174901Y0208011D01*
X0175887Y0206412D02*
X0176113Y0206412D01*
X0176113Y0204814D02*
X0175887Y0204814D01*
X0175887Y0203215D02*
X0176113Y0203215D01*
X0177471Y0201617D02*
X0174529Y0201617D01*
X0174187Y0200018D02*
X0188813Y0200018D01*
X0188813Y0198420D02*
X0174187Y0198420D01*
X0174187Y0196821D02*
X0188813Y0196821D01*
X0188813Y0195223D02*
X0173921Y0195223D01*
X0172632Y0193624D02*
X0188813Y0193624D01*
X0195187Y0193624D02*
X0203813Y0193624D01*
X0203813Y0192026D02*
X0195187Y0192026D01*
X0195187Y0190427D02*
X0202920Y0190427D01*
X0201321Y0188829D02*
X0194965Y0188829D01*
X0193642Y0187230D02*
X0199723Y0187230D01*
X0203942Y0182435D02*
X0207427Y0182435D01*
X0209026Y0184033D02*
X0205541Y0184033D01*
X0207139Y0185632D02*
X0210624Y0185632D01*
X0212223Y0187230D02*
X0208738Y0187230D01*
X0209965Y0188829D02*
X0213813Y0188829D01*
X0213813Y0190427D02*
X0210187Y0190427D01*
X0210187Y0192026D02*
X0213813Y0192026D01*
X0213813Y0193624D02*
X0210187Y0193624D01*
X0210187Y0195223D02*
X0213813Y0195223D01*
X0213813Y0196821D02*
X0210187Y0196821D01*
X0210187Y0198420D02*
X0213813Y0198420D01*
X0213813Y0200018D02*
X0210187Y0200018D01*
X0210529Y0201617D02*
X0213471Y0201617D01*
X0212113Y0203215D02*
X0211887Y0203215D01*
X0211887Y0204814D02*
X0212113Y0204814D01*
X0212113Y0206412D02*
X0211887Y0206412D01*
X0210901Y0208011D02*
X0213099Y0208011D01*
X0214698Y0209609D02*
X0209302Y0209609D01*
X0204698Y0209609D02*
X0193302Y0209609D01*
X0194901Y0208011D02*
X0203099Y0208011D01*
X0202113Y0206412D02*
X0195887Y0206412D01*
X0195887Y0204814D02*
X0202113Y0204814D01*
X0202113Y0203215D02*
X0195887Y0203215D01*
X0195187Y0201617D02*
X0203471Y0201617D01*
X0203813Y0200018D02*
X0195187Y0200018D01*
X0195187Y0198420D02*
X0203813Y0198420D01*
X0203813Y0196821D02*
X0195187Y0196821D01*
X0195187Y0195223D02*
X0203813Y0195223D01*
X0187471Y0201617D02*
X0184529Y0201617D01*
X0185887Y0203215D02*
X0186113Y0203215D01*
X0186113Y0204814D02*
X0185887Y0204814D01*
X0185887Y0206412D02*
X0186113Y0206412D01*
X0187099Y0208011D02*
X0184901Y0208011D01*
X0183302Y0209609D02*
X0188698Y0209609D01*
X0158698Y0209609D02*
X0153302Y0209609D01*
X0153024Y0209887D02*
X0148976Y0209887D01*
X0146113Y0207024D01*
X0146113Y0202976D01*
X0148976Y0200113D01*
X0153024Y0200113D01*
X0155887Y0202976D01*
X0155887Y0207024D01*
X0153024Y0209887D01*
X0154901Y0208011D02*
X0157099Y0208011D01*
X0156113Y0206412D02*
X0155887Y0206412D01*
X0155887Y0204814D02*
X0156113Y0204814D01*
X0156113Y0203215D02*
X0155887Y0203215D01*
X0154529Y0201617D02*
X0157471Y0201617D01*
X0147471Y0201617D02*
X0144529Y0201617D01*
X0145887Y0202976D02*
X0143024Y0200113D01*
X0138976Y0200113D01*
X0136113Y0202976D01*
X0136113Y0207024D01*
X0138976Y0209887D01*
X0143024Y0209887D01*
X0145887Y0207024D01*
X0145887Y0202976D01*
X0145887Y0203215D02*
X0146113Y0203215D01*
X0146113Y0204814D02*
X0145887Y0204814D01*
X0145887Y0206412D02*
X0146113Y0206412D01*
X0147099Y0208011D02*
X0144901Y0208011D01*
X0143302Y0209609D02*
X0148698Y0209609D01*
X0138698Y0209609D02*
X0133603Y0209609D01*
X0135202Y0208011D02*
X0137099Y0208011D01*
X0136113Y0206412D02*
X0136100Y0206412D01*
X0136100Y0204814D02*
X0136113Y0204814D01*
X0136100Y0203215D02*
X0136113Y0203215D01*
X0134829Y0201617D02*
X0137471Y0201617D01*
X0202344Y0180836D02*
X0205829Y0180836D01*
X0252454Y0184033D02*
X0256313Y0184033D01*
X0255336Y0182435D02*
X0253664Y0182435D01*
X0254087Y0180836D02*
X0254913Y0180836D01*
X0254913Y0179238D02*
X0254087Y0179238D01*
X0254087Y0177639D02*
X0254913Y0177639D01*
X0254913Y0176041D02*
X0254087Y0176041D01*
X0254087Y0174442D02*
X0254913Y0174442D01*
X0255221Y0172844D02*
X0253887Y0172844D01*
X0253887Y0171245D02*
X0256267Y0171245D01*
X0253887Y0169647D02*
X0287000Y0169647D01*
X0287000Y0171245D02*
X0272733Y0171245D01*
X0273779Y0172844D02*
X0287000Y0172844D01*
X0287000Y0174442D02*
X0274087Y0174442D01*
X0274087Y0176041D02*
X0287000Y0176041D01*
X0287000Y0177639D02*
X0274087Y0177639D01*
X0274087Y0179238D02*
X0287000Y0179238D01*
X0287000Y0180836D02*
X0274087Y0180836D01*
X0273664Y0182435D02*
X0287000Y0182435D01*
X0287000Y0184033D02*
X0272687Y0184033D01*
X0272687Y0185632D02*
X0287000Y0185632D01*
X0287000Y0187230D02*
X0272687Y0187230D01*
X0272687Y0188829D02*
X0287000Y0188829D01*
X0287000Y0190427D02*
X0272687Y0190427D01*
X0272687Y0192026D02*
X0287000Y0192026D01*
X0287000Y0193624D02*
X0272687Y0193624D01*
X0272687Y0195223D02*
X0287000Y0195223D01*
X0287000Y0196821D02*
X0272186Y0196821D01*
X0269024Y0200113D02*
X0271887Y0202976D01*
X0271887Y0207024D01*
X0269024Y0209887D01*
X0264976Y0209887D01*
X0262113Y0207024D01*
X0262113Y0202976D01*
X0264976Y0200113D01*
X0269024Y0200113D01*
X0270529Y0201617D02*
X0273471Y0201617D01*
X0272113Y0203215D02*
X0271887Y0203215D01*
X0271887Y0204814D02*
X0272113Y0204814D01*
X0272113Y0206412D02*
X0271887Y0206412D01*
X0270901Y0208011D02*
X0273099Y0208011D01*
X0274698Y0209609D02*
X0269302Y0209609D01*
X0264698Y0209609D02*
X0259302Y0209609D01*
X0260901Y0208011D02*
X0263099Y0208011D01*
X0262113Y0206412D02*
X0261887Y0206412D01*
X0261887Y0204814D02*
X0262113Y0204814D01*
X0262113Y0203215D02*
X0261887Y0203215D01*
X0260529Y0201617D02*
X0263471Y0201617D01*
X0253088Y0198420D02*
X0287000Y0198420D01*
X0284194Y0212806D02*
X0028800Y0212806D01*
X0147192Y0126487D02*
X0156324Y0126487D01*
X0154454Y0124888D02*
X0146387Y0124888D01*
X0146387Y0123290D02*
X0150802Y0123290D01*
X0149735Y0121691D02*
X0146387Y0121691D01*
X0146387Y0120093D02*
X0149413Y0120093D01*
X0149658Y0118494D02*
X0146387Y0118494D01*
X0146387Y0116896D02*
X0150617Y0116896D01*
X0156800Y0113699D02*
X0157200Y0113699D01*
X0157200Y0112100D02*
X0156800Y0112100D01*
X0156800Y0110502D02*
X0157200Y0110502D01*
X0157200Y0108903D02*
X0156800Y0108903D01*
X0156800Y0107305D02*
X0157200Y0107305D01*
X0157200Y0105706D02*
X0156800Y0105706D01*
X0149794Y0100911D02*
X0170876Y0100911D01*
X0170876Y0102509D02*
X0148196Y0102509D01*
X0150998Y0099312D02*
X0170983Y0099312D01*
X0172844Y0097714D02*
X0151387Y0097714D01*
X0151387Y0096115D02*
X0172844Y0096115D01*
X0177219Y0096115D02*
X0206713Y0096115D01*
X0206713Y0094517D02*
X0191978Y0094517D01*
X0191904Y0094590D02*
X0191494Y0094827D01*
X0191036Y0094950D01*
X0188720Y0094950D01*
X0188720Y0090480D01*
X0192599Y0090480D01*
X0192599Y0093387D01*
X0192477Y0093844D01*
X0192240Y0094255D01*
X0191904Y0094590D01*
X0192599Y0092918D02*
X0206713Y0092918D01*
X0206713Y0091320D02*
X0192599Y0091320D01*
X0188720Y0091320D02*
X0187761Y0091320D01*
X0187761Y0092918D02*
X0188720Y0092918D01*
X0188720Y0094517D02*
X0187761Y0094517D01*
X0184503Y0094517D02*
X0184197Y0094517D01*
X0183017Y0099312D02*
X0196081Y0099312D01*
X0195731Y0100911D02*
X0183017Y0100911D01*
X0183017Y0102509D02*
X0195549Y0102509D01*
X0193950Y0104108D02*
X0183017Y0104108D01*
X0177219Y0097714D02*
X0206713Y0097714D01*
X0206713Y0099312D02*
X0202919Y0099312D01*
X0203268Y0100911D02*
X0206713Y0100911D01*
X0206713Y0102509D02*
X0203268Y0102509D01*
X0203268Y0104108D02*
X0206713Y0104108D01*
X0206713Y0105706D02*
X0202901Y0105706D01*
X0206713Y0107305D02*
X0198637Y0107305D01*
X0197039Y0108903D02*
X0206713Y0108903D01*
X0212287Y0108903D02*
X0214500Y0108903D01*
X0214500Y0107305D02*
X0212287Y0107305D01*
X0212287Y0105706D02*
X0214500Y0105706D01*
X0214500Y0104108D02*
X0212287Y0104108D01*
X0212287Y0102509D02*
X0214500Y0102509D01*
X0214500Y0100911D02*
X0212287Y0100911D01*
X0212287Y0099312D02*
X0214500Y0099312D01*
X0214500Y0097714D02*
X0212287Y0097714D01*
X0212287Y0096115D02*
X0214500Y0096115D01*
X0214500Y0094517D02*
X0212287Y0094517D01*
X0212287Y0092918D02*
X0214500Y0092918D01*
X0214500Y0091320D02*
X0212287Y0091320D01*
X0212287Y0089721D02*
X0214500Y0089721D01*
X0214500Y0088123D02*
X0212287Y0088123D01*
X0212287Y0086524D02*
X0214500Y0086524D01*
X0214500Y0084926D02*
X0212287Y0084926D01*
X0212287Y0083327D02*
X0214500Y0083327D01*
X0214500Y0081729D02*
X0212287Y0081729D01*
X0212287Y0080130D02*
X0214500Y0080130D01*
X0214500Y0078532D02*
X0212287Y0078532D01*
X0212287Y0076933D02*
X0214500Y0076933D01*
X0214500Y0075334D02*
X0212287Y0075334D01*
X0212287Y0073736D02*
X0214500Y0073736D01*
X0212287Y0072137D02*
X0229863Y0072137D01*
X0231461Y0070539D02*
X0212287Y0070539D01*
X0212287Y0068940D02*
X0233060Y0068940D01*
X0234658Y0067342D02*
X0212287Y0067342D01*
X0212287Y0065743D02*
X0236257Y0065743D01*
X0237855Y0064145D02*
X0229127Y0064145D01*
X0229237Y0064099D02*
X0227460Y0064835D01*
X0219040Y0064835D01*
X0217263Y0064099D01*
X0215903Y0062739D01*
X0215167Y0060962D01*
X0215167Y0059038D01*
X0215903Y0057261D01*
X0217263Y0055901D01*
X0219040Y0055165D01*
X0227460Y0055165D01*
X0229237Y0055901D01*
X0230597Y0057261D01*
X0231333Y0059038D01*
X0231333Y0060962D01*
X0230597Y0062739D01*
X0229237Y0064099D01*
X0230677Y0062546D02*
X0239454Y0062546D01*
X0231333Y0060948D02*
X0276052Y0060948D01*
X0277651Y0059349D02*
X0231333Y0059349D01*
X0230800Y0057751D02*
X0279249Y0057751D01*
X0280848Y0056152D02*
X0229489Y0056152D01*
X0218360Y0054554D02*
X0209518Y0054554D01*
X0209594Y0056152D02*
X0217011Y0056152D01*
X0215700Y0057751D02*
X0211193Y0057751D01*
X0212248Y0059349D02*
X0215167Y0059349D01*
X0215167Y0060948D02*
X0212287Y0060948D01*
X0212287Y0062546D02*
X0215823Y0062546D01*
X0217373Y0064145D02*
X0212287Y0064145D01*
X0206713Y0064145D02*
X0191578Y0064145D01*
X0191323Y0064400D02*
X0189500Y0064400D01*
X0189500Y0060000D01*
X0189500Y0060000D01*
X0193900Y0060000D01*
X0193900Y0061823D01*
X0191323Y0064400D01*
X0189500Y0064400D02*
X0187677Y0064400D01*
X0185100Y0061823D01*
X0185100Y0060000D01*
X0189500Y0060000D01*
X0189500Y0060000D01*
X0189500Y0060000D01*
X0189500Y0064400D01*
X0189500Y0064145D02*
X0189500Y0064145D01*
X0189500Y0062546D02*
X0189500Y0062546D01*
X0189500Y0060948D02*
X0189500Y0060948D01*
X0189500Y0060000D02*
X0185100Y0060000D01*
X0185100Y0058177D01*
X0187677Y0055600D01*
X0189500Y0055600D01*
X0191323Y0055600D01*
X0193900Y0058177D01*
X0193900Y0060000D01*
X0189500Y0060000D01*
X0189500Y0055600D01*
X0189500Y0060000D01*
X0189500Y0060000D01*
X0189500Y0059349D02*
X0189500Y0059349D01*
X0189500Y0057751D02*
X0189500Y0057751D01*
X0189500Y0056152D02*
X0189500Y0056152D01*
X0191875Y0056152D02*
X0201981Y0056152D01*
X0201981Y0054554D02*
X0164787Y0054554D01*
X0164787Y0056152D02*
X0187125Y0056152D01*
X0185527Y0057751D02*
X0164787Y0057751D01*
X0164787Y0059349D02*
X0185100Y0059349D01*
X0185100Y0060948D02*
X0164787Y0060948D01*
X0164787Y0062546D02*
X0185824Y0062546D01*
X0187422Y0064145D02*
X0164787Y0064145D01*
X0164787Y0065743D02*
X0206713Y0065743D01*
X0206713Y0067342D02*
X0164787Y0067342D01*
X0164787Y0068940D02*
X0206713Y0068940D01*
X0206713Y0070539D02*
X0164787Y0070539D01*
X0164787Y0072137D02*
X0206713Y0072137D01*
X0206713Y0073736D02*
X0164787Y0073736D01*
X0164787Y0075334D02*
X0185118Y0075334D01*
X0187761Y0075334D02*
X0188720Y0075334D01*
X0188720Y0076933D02*
X0187761Y0076933D01*
X0187761Y0078532D02*
X0188720Y0078532D01*
X0188720Y0080130D02*
X0206713Y0080130D01*
X0206713Y0078532D02*
X0192599Y0078532D01*
X0192599Y0076933D02*
X0206713Y0076933D01*
X0206713Y0075334D02*
X0191362Y0075334D01*
X0192599Y0080480D02*
X0188720Y0080480D01*
X0188720Y0084753D01*
X0191036Y0084753D01*
X0191494Y0084630D01*
X0191904Y0084393D01*
X0192240Y0084058D01*
X0192477Y0083648D01*
X0192599Y0083190D01*
X0192599Y0080480D01*
X0192599Y0081729D02*
X0206713Y0081729D01*
X0206713Y0083327D02*
X0192562Y0083327D01*
X0192575Y0086524D02*
X0206713Y0086524D01*
X0206713Y0084926D02*
X0183547Y0084926D01*
X0187761Y0086524D02*
X0188720Y0086524D01*
X0188720Y0088123D02*
X0187761Y0088123D01*
X0188720Y0089721D02*
X0206713Y0089721D01*
X0206713Y0088123D02*
X0192599Y0088123D01*
X0188720Y0083327D02*
X0187761Y0083327D01*
X0187761Y0081729D02*
X0188720Y0081729D01*
X0177972Y0084926D02*
X0164787Y0084926D01*
X0164787Y0083327D02*
X0176613Y0083327D01*
X0176613Y0081729D02*
X0164787Y0081729D01*
X0164787Y0080130D02*
X0176613Y0080130D01*
X0176613Y0078532D02*
X0164787Y0078532D01*
X0164787Y0076933D02*
X0176613Y0076933D01*
X0176613Y0086524D02*
X0174887Y0086524D01*
X0174500Y0090000D02*
X0175031Y0090531D01*
X0177219Y0094517D02*
X0177323Y0094517D01*
X0167303Y0094517D02*
X0166697Y0094517D01*
X0159823Y0094517D02*
X0151387Y0094517D01*
X0151387Y0092918D02*
X0159113Y0092918D01*
X0159113Y0091320D02*
X0151387Y0091320D01*
X0151387Y0089721D02*
X0159113Y0089721D01*
X0159113Y0088123D02*
X0151387Y0088123D01*
X0151387Y0086524D02*
X0159113Y0086524D01*
X0159213Y0084926D02*
X0151387Y0084926D01*
X0151387Y0083327D02*
X0159213Y0083327D01*
X0159213Y0081729D02*
X0151387Y0081729D01*
X0151387Y0080130D02*
X0159213Y0080130D01*
X0159213Y0078532D02*
X0151387Y0078532D01*
X0151387Y0076933D02*
X0159213Y0076933D01*
X0159213Y0075334D02*
X0151387Y0075334D01*
X0151387Y0073736D02*
X0159213Y0073736D01*
X0159213Y0072137D02*
X0151387Y0072137D01*
X0151387Y0070539D02*
X0159213Y0070539D01*
X0159213Y0068940D02*
X0151387Y0068940D01*
X0151387Y0067342D02*
X0159213Y0067342D01*
X0159213Y0065743D02*
X0151021Y0065743D01*
X0150252Y0064145D02*
X0159213Y0064145D01*
X0159213Y0052955D02*
X0158361Y0052955D01*
X0164787Y0052955D02*
X0202438Y0052955D01*
X0201981Y0057751D02*
X0193473Y0057751D01*
X0193900Y0059349D02*
X0202242Y0059349D01*
X0206506Y0060948D02*
X0193900Y0060948D01*
X0193176Y0062546D02*
X0206713Y0062546D01*
X0209062Y0052955D02*
X0216119Y0052955D01*
X0215330Y0051357D02*
X0164787Y0051357D01*
X0164787Y0049758D02*
X0215167Y0049758D01*
X0215530Y0048160D02*
X0164787Y0048160D01*
X0152517Y0040167D02*
X0098169Y0040167D01*
X0098124Y0040182D02*
X0097378Y0040300D01*
X0097200Y0040300D01*
X0097200Y0032700D01*
X0101800Y0032700D01*
X0101800Y0035878D01*
X0101682Y0036624D01*
X0101448Y0037343D01*
X0101105Y0038016D01*
X0100661Y0038627D01*
X0100127Y0039161D01*
X0099516Y0039605D01*
X0098843Y0039948D01*
X0098124Y0040182D01*
X0097200Y0040167D02*
X0096800Y0040167D01*
X0096800Y0040300D02*
X0096622Y0040300D01*
X0095876Y0040182D01*
X0095157Y0039948D01*
X0094484Y0039605D01*
X0093873Y0039161D01*
X0093339Y0038627D01*
X0092895Y0038016D01*
X0092552Y0037343D01*
X0092318Y0036624D01*
X0092200Y0035878D01*
X0092200Y0032700D01*
X0096800Y0032700D01*
X0096800Y0040300D01*
X0095831Y0040167D02*
X0066483Y0040167D01*
X0064885Y0038569D02*
X0073581Y0038569D01*
X0073111Y0038099D02*
X0072413Y0036412D01*
X0072413Y0028587D01*
X0073111Y0026901D01*
X0074401Y0025611D01*
X0076088Y0024913D01*
X0077912Y0024913D01*
X0079599Y0025611D01*
X0080889Y0026901D01*
X0081587Y0028587D01*
X0081587Y0036412D01*
X0080889Y0038099D01*
X0079599Y0039389D01*
X0077912Y0040087D01*
X0076088Y0040087D01*
X0074401Y0039389D01*
X0073111Y0038099D01*
X0072644Y0036970D02*
X0063286Y0036970D01*
X0061688Y0035372D02*
X0072413Y0035372D01*
X0072413Y0033773D02*
X0059181Y0033773D01*
X0047319Y0033773D02*
X0028800Y0033773D01*
X0028800Y0032175D02*
X0072413Y0032175D01*
X0072413Y0030576D02*
X0028800Y0030576D01*
X0028800Y0028978D02*
X0072413Y0028978D01*
X0072913Y0027379D02*
X0028800Y0027379D01*
X0028800Y0025781D02*
X0074232Y0025781D01*
X0079768Y0025781D02*
X0084232Y0025781D01*
X0084401Y0025611D02*
X0086088Y0024913D01*
X0087912Y0024913D01*
X0089599Y0025611D01*
X0090889Y0026901D01*
X0091587Y0028587D01*
X0091587Y0036412D01*
X0090889Y0038099D01*
X0089599Y0039389D01*
X0087912Y0040087D01*
X0086088Y0040087D01*
X0084401Y0039389D01*
X0083111Y0038099D01*
X0082413Y0036412D01*
X0082413Y0028587D01*
X0083111Y0026901D01*
X0084401Y0025611D01*
X0082913Y0027379D02*
X0081087Y0027379D01*
X0081587Y0028978D02*
X0082413Y0028978D01*
X0082413Y0030576D02*
X0081587Y0030576D01*
X0081587Y0032175D02*
X0082413Y0032175D01*
X0082413Y0033773D02*
X0081587Y0033773D01*
X0081587Y0035372D02*
X0082413Y0035372D01*
X0082644Y0036970D02*
X0081356Y0036970D01*
X0080419Y0038569D02*
X0083581Y0038569D01*
X0090419Y0038569D02*
X0093296Y0038569D01*
X0092431Y0036970D02*
X0091356Y0036970D01*
X0091587Y0035372D02*
X0092200Y0035372D01*
X0092200Y0033773D02*
X0091587Y0033773D01*
X0092200Y0032300D02*
X0092200Y0029122D01*
X0092318Y0028376D01*
X0092552Y0027657D01*
X0092895Y0026984D01*
X0093339Y0026373D01*
X0093873Y0025839D01*
X0094484Y0025395D01*
X0095157Y0025052D01*
X0095876Y0024818D01*
X0096622Y0024700D01*
X0096800Y0024700D01*
X0096800Y0032300D01*
X0097200Y0032300D01*
X0097200Y0032700D01*
X0096800Y0032700D01*
X0096800Y0032300D01*
X0092200Y0032300D01*
X0092200Y0032175D02*
X0091587Y0032175D01*
X0091587Y0030576D02*
X0092200Y0030576D01*
X0092223Y0028978D02*
X0091587Y0028978D01*
X0091087Y0027379D02*
X0092693Y0027379D01*
X0093953Y0025781D02*
X0089768Y0025781D01*
X0096800Y0025781D02*
X0097200Y0025781D01*
X0097200Y0024700D02*
X0097378Y0024700D01*
X0098124Y0024818D01*
X0098843Y0025052D01*
X0099516Y0025395D01*
X0100127Y0025839D01*
X0100661Y0026373D01*
X0101105Y0026984D01*
X0101448Y0027657D01*
X0101682Y0028376D01*
X0101800Y0029122D01*
X0101800Y0032300D01*
X0097200Y0032300D01*
X0097200Y0024700D01*
X0097200Y0027379D02*
X0096800Y0027379D01*
X0096800Y0028978D02*
X0097200Y0028978D01*
X0097200Y0030576D02*
X0096800Y0030576D01*
X0096800Y0032175D02*
X0097200Y0032175D01*
X0097200Y0033773D02*
X0096800Y0033773D01*
X0096800Y0035372D02*
X0097200Y0035372D01*
X0097200Y0036970D02*
X0096800Y0036970D01*
X0096800Y0038569D02*
X0097200Y0038569D01*
X0100704Y0038569D02*
X0154115Y0038569D01*
X0155714Y0036970D02*
X0101569Y0036970D01*
X0101800Y0035372D02*
X0157312Y0035372D01*
X0156415Y0036269D02*
X0156415Y0036269D01*
X0159819Y0033773D02*
X0101800Y0033773D01*
X0101800Y0032175D02*
X0295151Y0032175D01*
X0295151Y0033773D02*
X0191681Y0033773D01*
X0201981Y0029089D02*
X0201981Y0023411D01*
X0202911Y0022481D01*
X0208589Y0022481D01*
X0209518Y0023411D01*
X0209518Y0023463D01*
X0224213Y0023463D01*
X0224213Y0019124D01*
X0222113Y0017024D01*
X0222113Y0012976D01*
X0224976Y0010113D01*
X0229024Y0010113D01*
X0231887Y0012976D01*
X0231887Y0017024D01*
X0229787Y0019124D01*
X0229787Y0026804D01*
X0229363Y0027829D01*
X0228579Y0028613D01*
X0227554Y0029037D01*
X0209518Y0029037D01*
X0209518Y0029089D01*
X0208589Y0030018D01*
X0202911Y0030018D01*
X0201981Y0029089D01*
X0201981Y0028978D02*
X0101777Y0028978D01*
X0101800Y0030576D02*
X0295151Y0030576D01*
X0295151Y0028978D02*
X0227699Y0028978D01*
X0229549Y0027379D02*
X0295151Y0027379D01*
X0295151Y0025781D02*
X0229787Y0025781D01*
X0229787Y0024182D02*
X0295151Y0024182D01*
X0294584Y0022584D02*
X0229787Y0022584D01*
X0229787Y0020985D02*
X0292985Y0020985D01*
X0291387Y0019387D02*
X0279525Y0019387D01*
X0279024Y0019887D02*
X0274976Y0019887D01*
X0272113Y0017024D01*
X0272113Y0012976D01*
X0274976Y0010113D01*
X0279024Y0010113D01*
X0281887Y0012976D01*
X0281887Y0017024D01*
X0279024Y0019887D01*
X0281124Y0017788D02*
X0289788Y0017788D01*
X0288190Y0016190D02*
X0281887Y0016190D01*
X0281887Y0014591D02*
X0287000Y0014591D01*
X0287000Y0012993D02*
X0281887Y0012993D01*
X0280306Y0011394D02*
X0287000Y0011394D01*
X0287000Y0009796D02*
X0028800Y0009796D01*
X0028800Y0011394D02*
X0153694Y0011394D01*
X0154976Y0010113D02*
X0159024Y0010113D01*
X0161887Y0012976D01*
X0161887Y0017024D01*
X0159024Y0019887D01*
X0154976Y0019887D01*
X0152113Y0017024D01*
X0152113Y0012976D01*
X0154976Y0010113D01*
X0152113Y0012993D02*
X0028800Y0012993D01*
X0028800Y0014591D02*
X0152113Y0014591D01*
X0152113Y0016190D02*
X0028800Y0016190D01*
X0028800Y0017788D02*
X0152876Y0017788D01*
X0154475Y0019387D02*
X0028800Y0019387D01*
X0028800Y0020985D02*
X0224213Y0020985D01*
X0224213Y0019387D02*
X0209525Y0019387D01*
X0209024Y0019887D02*
X0204976Y0019887D01*
X0202113Y0017024D01*
X0202113Y0012976D01*
X0204976Y0010113D01*
X0209024Y0010113D01*
X0211887Y0012976D01*
X0211887Y0017024D01*
X0209024Y0019887D01*
X0208691Y0022584D02*
X0224213Y0022584D01*
X0222876Y0017788D02*
X0211124Y0017788D01*
X0211887Y0016190D02*
X0222113Y0016190D01*
X0222113Y0014591D02*
X0211887Y0014591D01*
X0211887Y0012993D02*
X0222113Y0012993D01*
X0223694Y0011394D02*
X0210306Y0011394D01*
X0203694Y0011394D02*
X0200607Y0011394D01*
X0202100Y0012888D02*
X0202100Y0014816D01*
X0197184Y0014816D01*
X0197184Y0009900D01*
X0199112Y0009900D01*
X0202100Y0012888D01*
X0202100Y0012993D02*
X0202113Y0012993D01*
X0202100Y0014591D02*
X0202113Y0014591D01*
X0202100Y0015184D02*
X0202100Y0017112D01*
X0199112Y0020100D01*
X0197184Y0020100D01*
X0197184Y0015184D01*
X0196816Y0015184D01*
X0196816Y0014816D01*
X0197184Y0014816D01*
X0197184Y0015184D01*
X0202100Y0015184D01*
X0202100Y0016190D02*
X0202113Y0016190D01*
X0201424Y0017788D02*
X0202876Y0017788D01*
X0204475Y0019387D02*
X0199826Y0019387D01*
X0197184Y0019387D02*
X0196816Y0019387D01*
X0196816Y0020100D02*
X0196816Y0015184D01*
X0192100Y0015184D01*
X0187184Y0015184D01*
X0186816Y0015184D01*
X0186816Y0014816D01*
X0187184Y0014816D01*
X0187184Y0009900D01*
X0189112Y0009900D01*
X0192000Y0012788D01*
X0194888Y0009900D01*
X0196816Y0009900D01*
X0196816Y0014816D01*
X0187184Y0014816D01*
X0187184Y0015184D01*
X0187184Y0020100D01*
X0189112Y0020100D01*
X0192000Y0017212D01*
X0194888Y0020100D01*
X0196816Y0020100D01*
X0196816Y0017788D02*
X0197184Y0017788D01*
X0197184Y0016190D02*
X0196816Y0016190D01*
X0196816Y0014591D02*
X0197184Y0014591D01*
X0197184Y0012993D02*
X0196816Y0012993D01*
X0196816Y0011394D02*
X0197184Y0011394D01*
X0193393Y0011394D02*
X0190607Y0011394D01*
X0187184Y0011394D02*
X0186816Y0011394D01*
X0186816Y0009900D02*
X0184888Y0009900D01*
X0181900Y0012888D01*
X0181900Y0014816D01*
X0186816Y0014816D01*
X0186816Y0009900D01*
X0186816Y0012993D02*
X0187184Y0012993D01*
X0187184Y0014591D02*
X0186816Y0014591D01*
X0186816Y0015184D02*
X0181900Y0015184D01*
X0181900Y0017112D01*
X0184888Y0020100D01*
X0186816Y0020100D01*
X0186816Y0015184D01*
X0186816Y0016190D02*
X0187184Y0016190D01*
X0187184Y0017788D02*
X0186816Y0017788D01*
X0186816Y0019387D02*
X0187184Y0019387D01*
X0189826Y0019387D02*
X0194174Y0019387D01*
X0192576Y0017788D02*
X0191424Y0017788D01*
X0184174Y0019387D02*
X0179525Y0019387D01*
X0179024Y0019887D02*
X0174976Y0019887D01*
X0172113Y0017024D01*
X0172113Y0012976D01*
X0174976Y0010113D01*
X0179024Y0010113D01*
X0181887Y0012976D01*
X0181887Y0017024D01*
X0179024Y0019887D01*
X0181124Y0017788D02*
X0182576Y0017788D01*
X0181900Y0016190D02*
X0181887Y0016190D01*
X0181887Y0014591D02*
X0181900Y0014591D01*
X0181887Y0012993D02*
X0181900Y0012993D01*
X0183393Y0011394D02*
X0180306Y0011394D01*
X0173694Y0011394D02*
X0170306Y0011394D01*
X0169024Y0010113D02*
X0164976Y0010113D01*
X0162113Y0012976D01*
X0162113Y0017024D01*
X0164976Y0019887D01*
X0169024Y0019887D01*
X0171887Y0017024D01*
X0171887Y0012976D01*
X0169024Y0010113D01*
X0171887Y0012993D02*
X0172113Y0012993D01*
X0172113Y0014591D02*
X0171887Y0014591D01*
X0171887Y0016190D02*
X0172113Y0016190D01*
X0172876Y0017788D02*
X0171124Y0017788D01*
X0169525Y0019387D02*
X0174475Y0019387D01*
X0164475Y0019387D02*
X0159525Y0019387D01*
X0161124Y0017788D02*
X0162876Y0017788D01*
X0162113Y0016190D02*
X0161887Y0016190D01*
X0161887Y0014591D02*
X0162113Y0014591D01*
X0162113Y0012993D02*
X0161887Y0012993D01*
X0160306Y0011394D02*
X0163694Y0011394D01*
X0201981Y0024182D02*
X0028800Y0024182D01*
X0028800Y0022584D02*
X0202809Y0022584D01*
X0201981Y0025781D02*
X0100047Y0025781D01*
X0101307Y0027379D02*
X0201981Y0027379D01*
X0190873Y0046561D02*
X0216602Y0046561D01*
X0229972Y0043364D02*
X0240576Y0043364D01*
X0240339Y0043127D02*
X0240873Y0043661D01*
X0241484Y0044105D01*
X0242157Y0044448D01*
X0242876Y0044682D01*
X0243622Y0044800D01*
X0246800Y0044800D01*
X0246800Y0040200D01*
X0247200Y0040200D01*
X0247200Y0044800D01*
X0250378Y0044800D01*
X0251124Y0044682D01*
X0251843Y0044448D01*
X0252516Y0044105D01*
X0253127Y0043661D01*
X0253661Y0043127D01*
X0254105Y0042516D01*
X0254448Y0041843D01*
X0254682Y0041124D01*
X0254800Y0040378D01*
X0254800Y0040200D01*
X0247200Y0040200D01*
X0247200Y0039800D01*
X0254800Y0039800D01*
X0254800Y0039622D01*
X0254682Y0038876D01*
X0254448Y0038157D01*
X0254105Y0037484D01*
X0253661Y0036873D01*
X0253127Y0036339D01*
X0252516Y0035895D01*
X0251843Y0035552D01*
X0251124Y0035318D01*
X0250378Y0035200D01*
X0247200Y0035200D01*
X0247200Y0039800D01*
X0246800Y0039800D01*
X0246800Y0035200D01*
X0243622Y0035200D01*
X0242876Y0035318D01*
X0242157Y0035552D01*
X0241484Y0035895D01*
X0240873Y0036339D01*
X0240339Y0036873D01*
X0239895Y0037484D01*
X0239552Y0038157D01*
X0239318Y0038876D01*
X0239200Y0039622D01*
X0239200Y0039800D01*
X0246800Y0039800D01*
X0246800Y0040200D01*
X0239200Y0040200D01*
X0239200Y0040378D01*
X0239318Y0041124D01*
X0239552Y0041843D01*
X0239895Y0042516D01*
X0240339Y0043127D01*
X0239527Y0041766D02*
X0231000Y0041766D01*
X0231333Y0040167D02*
X0246800Y0040167D01*
X0247200Y0040167D02*
X0269300Y0040167D01*
X0269300Y0040200D02*
X0269300Y0039800D01*
X0269700Y0039800D01*
X0269700Y0040200D01*
X0269300Y0040200D01*
X0269300Y0044800D01*
X0266122Y0044800D01*
X0265376Y0044682D01*
X0264657Y0044448D01*
X0263984Y0044105D01*
X0263373Y0043661D01*
X0262839Y0043127D01*
X0262395Y0042516D01*
X0262052Y0041843D01*
X0261818Y0041124D01*
X0261700Y0040378D01*
X0261700Y0040200D01*
X0269300Y0040200D01*
X0269700Y0040200D02*
X0269700Y0044800D01*
X0272878Y0044800D01*
X0273624Y0044682D01*
X0274343Y0044448D01*
X0275016Y0044105D01*
X0275627Y0043661D01*
X0276161Y0043127D01*
X0276605Y0042516D01*
X0276948Y0041843D01*
X0277182Y0041124D01*
X0277300Y0040378D01*
X0277300Y0040200D01*
X0269700Y0040200D01*
X0269700Y0040167D02*
X0295151Y0040167D01*
X0295151Y0038569D02*
X0277082Y0038569D01*
X0277182Y0038876D02*
X0277300Y0039622D01*
X0277300Y0039800D01*
X0269700Y0039800D01*
X0269700Y0035200D01*
X0272878Y0035200D01*
X0273624Y0035318D01*
X0274343Y0035552D01*
X0275016Y0035895D01*
X0275627Y0036339D01*
X0276161Y0036873D01*
X0276605Y0037484D01*
X0276948Y0038157D01*
X0277182Y0038876D01*
X0276232Y0036970D02*
X0295151Y0036970D01*
X0295151Y0035372D02*
X0273789Y0035372D01*
X0269700Y0035372D02*
X0269300Y0035372D01*
X0269300Y0035200D02*
X0269300Y0039800D01*
X0261700Y0039800D01*
X0261700Y0039622D01*
X0261818Y0038876D01*
X0262052Y0038157D01*
X0262395Y0037484D01*
X0262839Y0036873D01*
X0263373Y0036339D01*
X0263984Y0035895D01*
X0264657Y0035552D01*
X0265376Y0035318D01*
X0266122Y0035200D01*
X0269300Y0035200D01*
X0269300Y0036970D02*
X0269700Y0036970D01*
X0269700Y0038569D02*
X0269300Y0038569D01*
X0269300Y0041766D02*
X0269700Y0041766D01*
X0269700Y0043364D02*
X0269300Y0043364D01*
X0270633Y0044963D02*
X0295151Y0044963D01*
X0295151Y0046561D02*
X0275549Y0046561D01*
X0276703Y0048160D02*
X0295151Y0048160D01*
X0295151Y0049758D02*
X0277087Y0049758D01*
X0276903Y0051357D02*
X0295151Y0051357D01*
X0295151Y0052955D02*
X0276032Y0052955D01*
X0273493Y0054554D02*
X0295151Y0054554D01*
X0295151Y0043364D02*
X0275924Y0043364D01*
X0276973Y0041766D02*
X0295151Y0041766D01*
X0265211Y0035372D02*
X0251289Y0035372D01*
X0253732Y0036970D02*
X0262768Y0036970D01*
X0261918Y0038569D02*
X0254582Y0038569D01*
X0254473Y0041766D02*
X0262027Y0041766D01*
X0263076Y0043364D02*
X0253424Y0043364D01*
X0247200Y0043364D02*
X0246800Y0043364D01*
X0246800Y0041766D02*
X0247200Y0041766D01*
X0247200Y0038569D02*
X0246800Y0038569D01*
X0246800Y0036970D02*
X0247200Y0036970D01*
X0247200Y0035372D02*
X0246800Y0035372D01*
X0242711Y0035372D02*
X0227960Y0035372D01*
X0230307Y0036970D02*
X0240268Y0036970D01*
X0239418Y0038569D02*
X0231139Y0038569D01*
X0234976Y0019887D02*
X0232113Y0017024D01*
X0232113Y0012976D01*
X0234976Y0010113D01*
X0239024Y0010113D01*
X0241887Y0012976D01*
X0241887Y0017024D01*
X0239024Y0019887D01*
X0234976Y0019887D01*
X0234475Y0019387D02*
X0229787Y0019387D01*
X0231124Y0017788D02*
X0232876Y0017788D01*
X0232113Y0016190D02*
X0231887Y0016190D01*
X0231887Y0014591D02*
X0232113Y0014591D01*
X0232113Y0012993D02*
X0231887Y0012993D01*
X0230306Y0011394D02*
X0233694Y0011394D01*
X0240306Y0011394D02*
X0243694Y0011394D01*
X0244976Y0010113D02*
X0242113Y0012976D01*
X0242113Y0017024D01*
X0244976Y0019887D01*
X0249024Y0019887D01*
X0251887Y0017024D01*
X0251887Y0012976D01*
X0249024Y0010113D01*
X0244976Y0010113D01*
X0242113Y0012993D02*
X0241887Y0012993D01*
X0241887Y0014591D02*
X0242113Y0014591D01*
X0242113Y0016190D02*
X0241887Y0016190D01*
X0241124Y0017788D02*
X0242876Y0017788D01*
X0244475Y0019387D02*
X0239525Y0019387D01*
X0249525Y0019387D02*
X0254475Y0019387D01*
X0254976Y0019887D02*
X0252113Y0017024D01*
X0252113Y0012976D01*
X0254976Y0010113D01*
X0259024Y0010113D01*
X0261887Y0012976D01*
X0261887Y0017024D01*
X0259024Y0019887D01*
X0254976Y0019887D01*
X0252876Y0017788D02*
X0251124Y0017788D01*
X0251887Y0016190D02*
X0252113Y0016190D01*
X0252113Y0014591D02*
X0251887Y0014591D01*
X0251887Y0012993D02*
X0252113Y0012993D01*
X0253694Y0011394D02*
X0250306Y0011394D01*
X0259525Y0019387D02*
X0264475Y0019387D01*
X0264976Y0019887D02*
X0262113Y0017024D01*
X0262113Y0012976D01*
X0264976Y0010113D01*
X0269024Y0010113D01*
X0271887Y0012976D01*
X0271887Y0017024D01*
X0269024Y0019887D01*
X0264976Y0019887D01*
X0262876Y0017788D02*
X0261124Y0017788D01*
X0261887Y0016190D02*
X0262113Y0016190D01*
X0262113Y0014591D02*
X0261887Y0014591D01*
X0261887Y0012993D02*
X0262113Y0012993D01*
X0263694Y0011394D02*
X0260306Y0011394D01*
X0270306Y0011394D02*
X0273694Y0011394D01*
X0272113Y0012993D02*
X0271887Y0012993D01*
X0271887Y0014591D02*
X0272113Y0014591D01*
X0272113Y0016190D02*
X0271887Y0016190D01*
X0271124Y0017788D02*
X0272876Y0017788D01*
X0274475Y0019387D02*
X0269525Y0019387D01*
X0287000Y0008197D02*
X0028800Y0008197D01*
X0028800Y0035372D02*
X0044812Y0035372D01*
X0035542Y0036970D02*
X0028800Y0036970D01*
X0028800Y0038569D02*
X0034627Y0038569D01*
X0034413Y0040167D02*
X0028800Y0040167D01*
X0028800Y0041766D02*
X0034766Y0041766D01*
X0035877Y0043364D02*
X0028800Y0043364D01*
X0041800Y0046561D02*
X0042200Y0046561D01*
X0042200Y0048160D02*
X0041800Y0048160D01*
X0041800Y0049758D02*
X0042200Y0049758D01*
X0042200Y0051357D02*
X0041800Y0051357D01*
X0041800Y0052955D02*
X0042200Y0052955D01*
X0042200Y0054554D02*
X0041800Y0054554D01*
X0148790Y0128085D02*
X0166713Y0128085D01*
X0166713Y0129684D02*
X0150389Y0129684D01*
X0151245Y0131282D02*
X0164113Y0131282D01*
X0164113Y0132881D02*
X0151387Y0132881D01*
X0151387Y0134479D02*
X0164113Y0134479D01*
X0164113Y0136078D02*
X0151387Y0136078D01*
X0151387Y0137676D02*
X0164113Y0137676D01*
X0164581Y0139275D02*
X0151387Y0139275D01*
X0151387Y0140873D02*
X0174213Y0140873D01*
X0174213Y0142472D02*
X0151387Y0142472D01*
X0171938Y0139275D02*
X0172062Y0139275D01*
X0175740Y0135000D02*
X0177000Y0133740D01*
X0179187Y0124888D02*
X0183115Y0124888D01*
X0182271Y0121691D02*
X0214500Y0121691D01*
X0214500Y0120093D02*
X0183017Y0120093D01*
X0183017Y0118494D02*
X0214500Y0118494D01*
X0214500Y0116896D02*
X0183017Y0116896D01*
X0182621Y0115297D02*
X0214500Y0115297D01*
X0214500Y0113699D02*
X0212020Y0113699D01*
X0212287Y0112100D02*
X0214500Y0112100D01*
X0214500Y0110502D02*
X0212287Y0110502D01*
X0194970Y0124888D02*
X0194011Y0124888D01*
X0194011Y0126487D02*
X0194970Y0126487D01*
X0194970Y0128085D02*
X0194011Y0128085D01*
X0194011Y0129684D02*
X0194970Y0129684D01*
X0194970Y0131282D02*
X0194011Y0131282D01*
X0194011Y0132881D02*
X0194970Y0132881D01*
X0252359Y0161654D02*
X0290346Y0161654D01*
X0288747Y0163253D02*
X0253525Y0163253D01*
X0253887Y0164851D02*
X0287149Y0164851D01*
X0287000Y0166450D02*
X0253887Y0166450D01*
X0253887Y0168048D02*
X0287000Y0168048D01*
X0266267Y0171245D02*
X0262733Y0171245D01*
X0263779Y0172844D02*
X0265221Y0172844D01*
X0264913Y0174442D02*
X0264087Y0174442D01*
X0264087Y0176041D02*
X0264913Y0176041D01*
X0264913Y0177639D02*
X0264087Y0177639D01*
X0264087Y0179238D02*
X0264913Y0179238D01*
X0264913Y0180836D02*
X0264087Y0180836D01*
X0263664Y0182435D02*
X0265336Y0182435D01*
X0266313Y0184033D02*
X0262687Y0184033D01*
X0262687Y0185632D02*
X0266313Y0185632D01*
X0266313Y0187230D02*
X0262687Y0187230D01*
X0262687Y0188829D02*
X0266313Y0188829D01*
X0266313Y0190427D02*
X0262255Y0190427D01*
D24*
X0199500Y0102500D03*
X0147000Y0067500D03*
X0205750Y0056250D03*
X0205750Y0026250D03*
D25*
X0147000Y0067500D02*
X0147000Y0097500D01*
X0142000Y0102500D01*
X0142000Y0127500D01*
X0147000Y0132500D01*
X0147000Y0147500D01*
X0177000Y0147500D01*
X0199500Y0147500D01*
X0217000Y0165000D01*
X0249500Y0165000D01*
X0249500Y0177500D01*
X0109500Y0138750D02*
X0109500Y0132500D01*
X0109500Y0096250D01*
X0109500Y0092500D01*
X0107000Y0064764D02*
X0107000Y0047500D01*
X0047000Y0040000D02*
X0042000Y0040000D01*
D26*
X0077000Y0070000D02*
X0087000Y0070000D01*
X0088250Y0071250D01*
X0089510Y0071250D01*
X0089500Y0071260D01*
X0089510Y0071250D02*
X0095750Y0071250D01*
X0099500Y0067500D01*
X0099500Y0064764D01*
X0104500Y0064764D02*
X0107000Y0064764D01*
X0109500Y0064764D01*
X0109500Y0085236D01*
X0109500Y0092500D01*
X0109500Y0096250D02*
X0106990Y0096250D01*
X0104500Y0085236D02*
X0104500Y0080000D01*
X0103250Y0078750D01*
X0089510Y0078750D01*
X0088250Y0078750D01*
X0087000Y0080000D01*
X0077000Y0080000D01*
X0089500Y0078740D02*
X0089510Y0078750D01*
X0114500Y0075000D02*
X0114500Y0064764D01*
X0114500Y0075000D02*
X0122000Y0075000D01*
X0129500Y0082500D01*
X0129500Y0127500D01*
X0137000Y0135000D01*
X0137000Y0162500D01*
X0139500Y0165000D01*
X0207000Y0165000D01*
X0227000Y0185000D01*
X0227000Y0205000D01*
X0217000Y0205000D02*
X0217000Y0187500D01*
X0202000Y0172500D01*
X0132000Y0172500D01*
X0129500Y0170000D01*
X0129500Y0137500D01*
X0122000Y0130000D01*
X0122000Y0091250D01*
X0115986Y0085236D01*
X0114500Y0085236D01*
X0175740Y0128750D02*
X0175740Y0135000D01*
X0175740Y0128750D02*
X0187010Y0128750D01*
X0122000Y0155000D02*
X0117000Y0155000D01*
X0114500Y0152500D01*
X0114500Y0144764D01*
X0109500Y0144764D02*
X0109500Y0138750D01*
X0109500Y0132500D02*
X0108240Y0132500D01*
X0109500Y0144764D02*
X0104500Y0144764D01*
X0099500Y0144764D02*
X0099500Y0151250D01*
X0089510Y0151250D01*
X0089500Y0151260D01*
X0088240Y0150000D01*
X0077000Y0150000D01*
X0077000Y0160000D02*
X0087000Y0160000D01*
X0088250Y0158750D01*
X0089510Y0158750D01*
X0089500Y0158740D01*
X0089510Y0158750D02*
X0103250Y0158750D01*
X0104500Y0160000D01*
X0104500Y0165236D01*
X0109500Y0165236D02*
X0109500Y0144764D01*
X0122000Y0155000D02*
X0122000Y0180000D01*
X0124500Y0182500D01*
X0199500Y0182500D01*
X0207000Y0190000D01*
X0207000Y0205000D01*
X0192000Y0204000D02*
X0191000Y0205000D01*
X0192000Y0204000D02*
X0192000Y0190000D01*
X0119500Y0190000D01*
X0114500Y0185000D01*
X0114500Y0165236D01*
X0087000Y0187500D02*
X0087000Y0200000D01*
X0103250Y0200000D01*
X0107000Y0196250D01*
X0170750Y0196250D01*
X0171000Y0196500D01*
X0171000Y0205000D01*
X0237000Y0205000D02*
X0237000Y0198750D01*
X0247000Y0188750D01*
X0259500Y0188750D01*
X0259500Y0177500D01*
X0269500Y0177500D02*
X0269500Y0195000D01*
X0252000Y0195000D01*
X0247000Y0200000D01*
X0247000Y0205000D01*
D27*
X0154500Y0047500D02*
X0107000Y0047500D01*
X0064500Y0047500D01*
X0057000Y0040000D01*
X0049500Y0040000D01*
X0154500Y0047500D02*
X0162000Y0040000D01*
X0189500Y0040000D01*
D28*
X0223250Y0040000D01*
X0223250Y0050000D02*
X0247000Y0050000D01*
X0269500Y0050000D01*
D29*
X0049500Y0040000D02*
X0047000Y0040000D01*
M02*
