G75*
%MOIN*%
%OFA0B0*%
%FSLAX25Y25*%
%IPPOS*%
%LPD*%
%AMOC8*
5,1,8,0,0,1.08239X$1,22.5*
%
%ADD10C,0.00400*%
%ADD11C,0.00300*%
%ADD12C,0.00600*%
%ADD13R,0.10000X0.02000*%
%ADD14C,0.00500*%
%ADD15C,0.00800*%
%ADD16R,0.02362X0.04331*%
%ADD17R,0.01181X0.00591*%
%ADD18R,0.01181X0.01181*%
D10*
X0066998Y0068950D02*
X0066998Y0072019D01*
X0067485Y0079717D02*
X0067485Y0082787D01*
X0065950Y0081252D02*
X0069019Y0081252D01*
X0070946Y0086450D02*
X0070946Y0088752D01*
X0071713Y0089519D01*
X0073248Y0089519D01*
X0074015Y0088752D01*
X0074015Y0086450D01*
X0074015Y0087985D02*
X0075550Y0089519D01*
X0075550Y0091054D02*
X0075550Y0092589D01*
X0075550Y0091821D02*
X0072481Y0091821D01*
X0072481Y0091054D01*
X0070946Y0091821D02*
X0070179Y0091821D01*
X0073248Y0094123D02*
X0074783Y0094123D01*
X0075550Y0094891D01*
X0075550Y0097192D01*
X0076317Y0097192D02*
X0072481Y0097192D01*
X0072481Y0094891D01*
X0073248Y0094123D01*
X0077085Y0095658D02*
X0077085Y0096425D01*
X0076317Y0097192D01*
X0075550Y0098727D02*
X0070946Y0098727D01*
X0072481Y0099494D02*
X0072481Y0101029D01*
X0073248Y0101796D01*
X0075550Y0101796D01*
X0072481Y0103331D02*
X0072481Y0104866D01*
X0071713Y0104098D02*
X0074783Y0104098D01*
X0075550Y0104866D01*
X0079981Y0104866D02*
X0079981Y0105633D01*
X0079981Y0104866D02*
X0081515Y0103331D01*
X0079981Y0103331D02*
X0083050Y0103331D01*
X0082283Y0101796D02*
X0080748Y0101796D01*
X0079981Y0101029D01*
X0079981Y0099494D01*
X0080748Y0098727D01*
X0082283Y0098727D01*
X0083050Y0099494D01*
X0083050Y0101029D01*
X0082283Y0101796D01*
X0083050Y0097192D02*
X0082283Y0096425D01*
X0079213Y0096425D01*
X0079981Y0095658D02*
X0079981Y0097192D01*
X0080748Y0094123D02*
X0079981Y0093356D01*
X0079981Y0091821D01*
X0080748Y0091054D01*
X0082283Y0091054D01*
X0083050Y0091821D01*
X0083050Y0093356D01*
X0082283Y0094123D01*
X0080748Y0094123D01*
X0078446Y0089519D02*
X0083050Y0089519D01*
X0079981Y0087985D02*
X0078446Y0089519D01*
X0079981Y0087985D02*
X0078446Y0086450D01*
X0083050Y0086450D01*
X0075550Y0086450D02*
X0070946Y0086450D01*
X0073248Y0098727D02*
X0072481Y0099494D01*
X0087732Y0102217D02*
X0088500Y0101450D01*
X0090034Y0101450D01*
X0090802Y0102217D01*
X0090802Y0105287D01*
X0087732Y0102217D01*
X0087732Y0105287D01*
X0088500Y0106054D01*
X0090034Y0106054D01*
X0090802Y0105287D01*
X0092336Y0102217D02*
X0093104Y0102217D01*
X0093104Y0101450D01*
X0092336Y0101450D01*
X0092336Y0102217D01*
X0094638Y0101450D02*
X0097707Y0101450D01*
X0096173Y0101450D02*
X0096173Y0106054D01*
X0094638Y0104519D01*
X0099242Y0104519D02*
X0099242Y0102217D01*
X0100009Y0101450D01*
X0102311Y0101450D01*
X0102311Y0104519D01*
X0103846Y0103752D02*
X0105381Y0103752D01*
X0103846Y0106054D02*
X0106915Y0106054D01*
X0103846Y0106054D02*
X0103846Y0101450D01*
X0119696Y0093393D02*
X0119696Y0090324D01*
X0124300Y0090324D01*
X0123533Y0088789D02*
X0120463Y0088789D01*
X0123533Y0085720D01*
X0124300Y0086487D01*
X0124300Y0088022D01*
X0123533Y0088789D01*
X0121998Y0090324D02*
X0121998Y0091858D01*
X0120463Y0088789D02*
X0119696Y0088022D01*
X0119696Y0086487D01*
X0120463Y0085720D01*
X0123533Y0085720D01*
X0123533Y0084185D02*
X0124300Y0083418D01*
X0124300Y0081883D01*
X0123533Y0081116D01*
X0124300Y0079581D02*
X0124300Y0076512D01*
X0121231Y0079581D01*
X0120463Y0079581D01*
X0119696Y0078814D01*
X0119696Y0077279D01*
X0120463Y0076512D01*
X0119696Y0074977D02*
X0120463Y0073442D01*
X0121998Y0071908D01*
X0121998Y0074210D01*
X0122765Y0074977D01*
X0123533Y0074977D01*
X0124300Y0074210D01*
X0124300Y0072675D01*
X0123533Y0071908D01*
X0121998Y0071908D01*
X0120463Y0070373D02*
X0119696Y0069606D01*
X0119696Y0067304D01*
X0124300Y0067304D01*
X0124300Y0069606D01*
X0123533Y0070373D01*
X0120463Y0070373D01*
X0120463Y0065769D02*
X0121231Y0065769D01*
X0121998Y0065002D01*
X0121998Y0062700D01*
X0119696Y0062700D02*
X0119696Y0065002D01*
X0120463Y0065769D01*
X0121998Y0065002D02*
X0122765Y0065769D01*
X0123533Y0065769D01*
X0124300Y0065002D01*
X0124300Y0062700D01*
X0119696Y0062700D01*
X0120463Y0081116D02*
X0119696Y0081883D01*
X0119696Y0083418D01*
X0120463Y0084185D01*
X0121231Y0084185D01*
X0121998Y0083418D01*
X0122765Y0084185D01*
X0123533Y0084185D01*
X0121998Y0083418D02*
X0121998Y0082650D01*
X0144981Y0106450D02*
X0144981Y0108752D01*
X0145748Y0109519D01*
X0147283Y0109519D01*
X0148050Y0108752D01*
X0148050Y0106450D01*
X0149585Y0106450D02*
X0144981Y0106450D01*
X0145748Y0111054D02*
X0144981Y0111821D01*
X0144981Y0113356D01*
X0145748Y0114123D01*
X0148050Y0114123D01*
X0147283Y0115658D02*
X0145748Y0115658D01*
X0144981Y0116425D01*
X0144981Y0117960D01*
X0145748Y0118727D01*
X0147283Y0118727D01*
X0148050Y0117960D01*
X0148050Y0116425D01*
X0147283Y0115658D01*
X0148050Y0111054D02*
X0143446Y0111054D01*
X0144981Y0120262D02*
X0144981Y0121796D01*
X0144213Y0121029D02*
X0147283Y0121029D01*
X0148050Y0121796D01*
X0147283Y0123331D02*
X0148050Y0124098D01*
X0148050Y0125633D01*
X0147283Y0126400D01*
X0145748Y0126400D01*
X0144981Y0125633D01*
X0144981Y0124098D01*
X0145748Y0123331D01*
X0147283Y0123331D01*
X0154696Y0127217D02*
X0155463Y0126450D01*
X0158533Y0126450D01*
X0159300Y0127217D01*
X0159300Y0128752D01*
X0158533Y0129519D01*
X0155463Y0129519D02*
X0154696Y0128752D01*
X0154696Y0127217D01*
X0165950Y0140200D02*
X0169019Y0140200D01*
X0167485Y0140200D02*
X0167485Y0144804D01*
X0165950Y0143269D01*
X0170554Y0142502D02*
X0172089Y0143269D01*
X0172856Y0143269D01*
X0173623Y0142502D01*
X0173623Y0140967D01*
X0172856Y0140200D01*
X0171321Y0140200D01*
X0170554Y0140967D01*
X0170554Y0142502D02*
X0170554Y0144804D01*
X0173623Y0144804D01*
X0175158Y0144804D02*
X0175158Y0140200D01*
X0175158Y0141735D02*
X0178227Y0144804D01*
X0175925Y0142502D02*
X0178227Y0140200D01*
X0186717Y0123554D02*
X0188252Y0123554D01*
X0189019Y0122787D01*
X0185950Y0119717D01*
X0186717Y0118950D01*
X0188252Y0118950D01*
X0189019Y0119717D01*
X0189019Y0122787D01*
X0186717Y0123554D02*
X0185950Y0122787D01*
X0185950Y0119717D01*
X0190554Y0119717D02*
X0190554Y0118950D01*
X0191321Y0118950D01*
X0191321Y0119717D01*
X0190554Y0119717D01*
X0192856Y0118950D02*
X0195925Y0118950D01*
X0194391Y0118950D02*
X0194391Y0123554D01*
X0192856Y0122019D01*
X0197460Y0122019D02*
X0197460Y0119717D01*
X0198227Y0118950D01*
X0200529Y0118950D01*
X0200529Y0122019D01*
X0202064Y0121252D02*
X0203598Y0121252D01*
X0202064Y0118950D02*
X0202064Y0123554D01*
X0205133Y0123554D01*
X0203165Y0091054D02*
X0200096Y0087985D01*
X0200863Y0088752D02*
X0203165Y0086450D01*
X0200096Y0086450D02*
X0200096Y0091054D01*
X0198561Y0090287D02*
X0195492Y0087217D01*
X0196259Y0086450D01*
X0197794Y0086450D01*
X0198561Y0087217D01*
X0198561Y0090287D01*
X0197794Y0091054D01*
X0196259Y0091054D01*
X0195492Y0090287D01*
X0195492Y0087217D01*
X0193957Y0086450D02*
X0190888Y0086450D01*
X0192423Y0086450D02*
X0192423Y0091054D01*
X0190888Y0089519D01*
X0171915Y0084804D02*
X0168846Y0081735D01*
X0169613Y0082502D02*
X0171915Y0080200D01*
X0168846Y0080200D02*
X0168846Y0084804D01*
X0167311Y0084804D02*
X0164242Y0084804D01*
X0164242Y0082502D01*
X0165777Y0083269D01*
X0166544Y0083269D01*
X0167311Y0082502D01*
X0167311Y0080967D01*
X0166544Y0080200D01*
X0165009Y0080200D01*
X0164242Y0080967D01*
X0162707Y0080200D02*
X0159638Y0080200D01*
X0161173Y0080200D02*
X0161173Y0084804D01*
X0159638Y0083269D01*
X0159300Y0098950D02*
X0154696Y0098950D01*
X0154696Y0102019D01*
X0156998Y0100485D02*
X0156998Y0098950D01*
X0159300Y0098950D02*
X0159300Y0102019D01*
X0181235Y0074804D02*
X0181235Y0070200D01*
X0182769Y0070200D02*
X0179700Y0070200D01*
X0179700Y0073269D02*
X0181235Y0074804D01*
X0184304Y0073269D02*
X0184304Y0070967D01*
X0185071Y0070200D01*
X0187373Y0070200D01*
X0187373Y0073269D01*
X0188908Y0072502D02*
X0190442Y0072502D01*
X0188908Y0070200D02*
X0188908Y0074804D01*
X0191977Y0074804D01*
X0235463Y0051994D02*
X0238533Y0051994D01*
X0239300Y0052762D01*
X0236231Y0052762D02*
X0236231Y0051227D01*
X0236231Y0049692D02*
X0236231Y0048158D01*
X0235463Y0048925D02*
X0238533Y0048925D01*
X0239300Y0049692D01*
X0239300Y0046623D02*
X0236998Y0046623D01*
X0236231Y0045856D01*
X0236231Y0044321D01*
X0237765Y0044321D02*
X0237765Y0046623D01*
X0239300Y0046623D02*
X0239300Y0044321D01*
X0238533Y0043554D01*
X0237765Y0044321D01*
X0237765Y0042019D02*
X0238533Y0042019D01*
X0239300Y0041252D01*
X0239300Y0038950D01*
X0234696Y0038950D01*
X0234696Y0041252D01*
X0235463Y0042019D01*
X0236231Y0042019D01*
X0236998Y0041252D01*
X0236998Y0038950D01*
X0236998Y0041252D02*
X0237765Y0042019D01*
X0246998Y0034519D02*
X0246998Y0031450D01*
X0254454Y0042326D02*
X0256756Y0042326D01*
X0257523Y0043093D01*
X0257523Y0043861D01*
X0256756Y0044628D01*
X0254454Y0044628D01*
X0256756Y0044628D02*
X0257523Y0045395D01*
X0257523Y0046163D01*
X0256756Y0046930D01*
X0254454Y0046930D01*
X0254454Y0042326D01*
X0259058Y0042326D02*
X0259058Y0045395D01*
X0260592Y0046930D01*
X0262127Y0045395D01*
X0262127Y0042326D01*
X0262127Y0044628D02*
X0259058Y0044628D01*
X0257404Y0047835D02*
X0264096Y0047835D01*
X0263662Y0046930D02*
X0266731Y0046930D01*
X0265196Y0046930D02*
X0265196Y0042326D01*
X0268266Y0043093D02*
X0268266Y0044628D01*
X0270568Y0044628D01*
X0271335Y0043861D01*
X0271335Y0043093D01*
X0270568Y0042326D01*
X0269033Y0042326D01*
X0268266Y0043093D01*
X0268266Y0044628D02*
X0269800Y0046163D01*
X0271335Y0046930D01*
X0272870Y0046163D02*
X0273637Y0046930D01*
X0275172Y0046930D01*
X0275939Y0046163D01*
X0272870Y0043093D01*
X0273637Y0042326D01*
X0275172Y0042326D01*
X0275939Y0043093D01*
X0275939Y0046163D01*
X0272870Y0046163D02*
X0272870Y0043093D01*
X0277474Y0043093D02*
X0278241Y0042326D01*
X0279008Y0042326D01*
X0279776Y0043093D01*
X0279776Y0046930D01*
X0280543Y0046930D02*
X0279008Y0046930D01*
X0264096Y0052165D02*
X0257404Y0052165D01*
X0247283Y0057985D02*
X0244213Y0057985D01*
X0245748Y0056450D02*
X0245748Y0059519D01*
X0253446Y0071450D02*
X0253446Y0074519D01*
X0254981Y0076054D02*
X0258050Y0076054D01*
X0256515Y0076054D02*
X0254981Y0077589D01*
X0254981Y0078356D01*
X0254981Y0080658D02*
X0254981Y0082192D01*
X0255748Y0082960D01*
X0258050Y0082960D01*
X0258050Y0080658D01*
X0257283Y0079891D01*
X0256515Y0080658D01*
X0256515Y0082960D01*
X0254981Y0084494D02*
X0254981Y0086796D01*
X0255748Y0087564D01*
X0258050Y0087564D01*
X0258050Y0089098D02*
X0253446Y0089098D01*
X0254981Y0091400D02*
X0256515Y0089098D01*
X0258050Y0091400D01*
X0253446Y0097539D02*
X0253446Y0100608D01*
X0253446Y0099074D02*
X0258050Y0099074D01*
X0258050Y0102143D02*
X0253446Y0102143D01*
X0254981Y0102910D02*
X0254981Y0104445D01*
X0255748Y0105212D01*
X0258050Y0105212D01*
X0257283Y0106747D02*
X0255748Y0106747D01*
X0254981Y0107514D01*
X0254981Y0109049D01*
X0255748Y0109816D01*
X0256515Y0109816D01*
X0256515Y0106747D01*
X0257283Y0106747D02*
X0258050Y0107514D01*
X0258050Y0109049D01*
X0254981Y0102910D02*
X0255748Y0102143D01*
X0256515Y0115955D02*
X0256515Y0118257D01*
X0255748Y0119024D01*
X0254213Y0119024D01*
X0253446Y0118257D01*
X0253446Y0115955D01*
X0258050Y0115955D01*
X0256515Y0117489D02*
X0258050Y0119024D01*
X0257283Y0120559D02*
X0255748Y0120559D01*
X0254981Y0121326D01*
X0254981Y0122860D01*
X0255748Y0123628D01*
X0257283Y0123628D01*
X0258050Y0122860D01*
X0258050Y0121326D01*
X0257283Y0120559D01*
X0258050Y0125162D02*
X0253446Y0125162D01*
X0254981Y0125162D02*
X0254981Y0127464D01*
X0255748Y0128232D01*
X0257283Y0128232D01*
X0258050Y0127464D01*
X0258050Y0125162D01*
X0257283Y0129766D02*
X0255748Y0129766D01*
X0254981Y0130534D01*
X0254981Y0132068D01*
X0255748Y0132836D01*
X0257283Y0132836D01*
X0258050Y0132068D01*
X0258050Y0130534D01*
X0257283Y0129766D01*
X0254981Y0134370D02*
X0254981Y0135905D01*
X0254213Y0135138D02*
X0257283Y0135138D01*
X0258050Y0135905D01*
X0249498Y0152700D02*
X0249498Y0155769D01*
X0247963Y0154235D02*
X0251033Y0154235D01*
X0251033Y0157304D02*
X0251800Y0158071D01*
X0251800Y0159606D01*
X0251033Y0160373D01*
X0250265Y0160373D01*
X0249498Y0159606D01*
X0249498Y0158839D01*
X0249498Y0159606D02*
X0248731Y0160373D01*
X0247963Y0160373D01*
X0247196Y0159606D01*
X0247196Y0158071D01*
X0247963Y0157304D01*
X0247196Y0161908D02*
X0250265Y0161908D01*
X0251800Y0163442D01*
X0250265Y0164977D01*
X0247196Y0164977D01*
X0247963Y0166512D02*
X0247196Y0167279D01*
X0247196Y0168814D01*
X0247963Y0169581D01*
X0248731Y0169581D01*
X0249498Y0168814D01*
X0250265Y0169581D01*
X0251033Y0169581D01*
X0251800Y0168814D01*
X0251800Y0167279D01*
X0251033Y0166512D01*
X0249498Y0168046D02*
X0249498Y0168814D01*
X0241800Y0166252D02*
X0241800Y0164717D01*
X0241033Y0163950D01*
X0237963Y0163950D01*
X0237196Y0164717D01*
X0237196Y0166252D01*
X0237963Y0167019D01*
X0239498Y0167019D02*
X0239498Y0165485D01*
X0239498Y0167019D02*
X0241033Y0167019D01*
X0241800Y0166252D01*
X0257196Y0165942D02*
X0258731Y0164408D01*
X0261800Y0164408D01*
X0261033Y0162873D02*
X0257963Y0162873D01*
X0257196Y0162106D01*
X0257196Y0159804D01*
X0261800Y0159804D01*
X0261800Y0162106D01*
X0261033Y0162873D01*
X0259498Y0164408D02*
X0259498Y0167477D01*
X0258731Y0167477D02*
X0261800Y0167477D01*
X0258731Y0167477D02*
X0257196Y0165942D01*
X0257963Y0158269D02*
X0257196Y0157502D01*
X0257196Y0155967D01*
X0257963Y0155200D01*
X0258731Y0155200D01*
X0259498Y0155967D01*
X0259498Y0157502D01*
X0260265Y0158269D01*
X0261033Y0158269D01*
X0261800Y0157502D01*
X0261800Y0155967D01*
X0261033Y0155200D01*
X0267196Y0157217D02*
X0267196Y0158752D01*
X0267963Y0159519D01*
X0267963Y0161054D02*
X0271033Y0161054D01*
X0271800Y0161821D01*
X0271800Y0163356D01*
X0271033Y0164123D01*
X0271800Y0165658D02*
X0267196Y0165658D01*
X0267963Y0164123D02*
X0267196Y0163356D01*
X0267196Y0161821D01*
X0267963Y0161054D01*
X0269498Y0158752D02*
X0270265Y0159519D01*
X0271033Y0159519D01*
X0271800Y0158752D01*
X0271800Y0157217D01*
X0271033Y0156450D01*
X0269498Y0157217D02*
X0269498Y0158752D01*
X0269498Y0157217D02*
X0268731Y0156450D01*
X0267963Y0156450D01*
X0267196Y0157217D01*
X0271800Y0165658D02*
X0271800Y0168727D01*
X0263165Y0186450D02*
X0261631Y0187985D01*
X0262398Y0187985D02*
X0260096Y0187985D01*
X0260096Y0186450D02*
X0260096Y0191054D01*
X0262398Y0191054D01*
X0263165Y0190287D01*
X0263165Y0188752D01*
X0262398Y0187985D01*
X0258561Y0188752D02*
X0255492Y0188752D01*
X0255492Y0189519D02*
X0257027Y0191054D01*
X0258561Y0189519D01*
X0258561Y0186450D01*
X0255492Y0186450D02*
X0255492Y0189519D01*
X0253957Y0190287D02*
X0253957Y0187217D01*
X0253190Y0186450D01*
X0250888Y0186450D01*
X0250888Y0191054D01*
X0253190Y0191054D01*
X0253957Y0190287D01*
X0249354Y0191054D02*
X0247819Y0191054D01*
X0248586Y0191054D02*
X0248586Y0186450D01*
X0247819Y0186450D02*
X0249354Y0186450D01*
X0246284Y0186450D02*
X0243215Y0186450D01*
X0243215Y0191054D01*
X0160665Y0198950D02*
X0159131Y0200485D01*
X0159898Y0200485D02*
X0157596Y0200485D01*
X0157596Y0198950D02*
X0157596Y0203554D01*
X0159898Y0203554D01*
X0160665Y0202787D01*
X0160665Y0201252D01*
X0159898Y0200485D01*
X0156061Y0199717D02*
X0156061Y0202787D01*
X0152992Y0199717D01*
X0153759Y0198950D01*
X0155294Y0198950D01*
X0156061Y0199717D01*
X0152992Y0199717D02*
X0152992Y0202787D01*
X0153759Y0203554D01*
X0155294Y0203554D01*
X0156061Y0202787D01*
X0151457Y0202787D02*
X0151457Y0202019D01*
X0150690Y0201252D01*
X0149155Y0201252D01*
X0148388Y0202019D01*
X0148388Y0202787D01*
X0149155Y0203554D01*
X0150690Y0203554D01*
X0151457Y0202787D01*
X0150690Y0201252D02*
X0151457Y0200485D01*
X0151457Y0199717D01*
X0150690Y0198950D01*
X0149155Y0198950D01*
X0148388Y0199717D01*
X0148388Y0200485D01*
X0149155Y0201252D01*
X0146854Y0198950D02*
X0143784Y0198950D01*
X0145319Y0198950D02*
X0145319Y0203554D01*
X0143784Y0202019D01*
X0121998Y0171858D02*
X0121998Y0170324D01*
X0120463Y0168789D02*
X0123533Y0165720D01*
X0124300Y0166487D01*
X0124300Y0168022D01*
X0123533Y0168789D01*
X0120463Y0168789D01*
X0119696Y0168022D01*
X0119696Y0166487D01*
X0120463Y0165720D01*
X0123533Y0165720D01*
X0123533Y0164185D02*
X0124300Y0163418D01*
X0124300Y0161883D01*
X0123533Y0161116D01*
X0124300Y0159581D02*
X0124300Y0156512D01*
X0121231Y0159581D01*
X0120463Y0159581D01*
X0119696Y0158814D01*
X0119696Y0157279D01*
X0120463Y0156512D01*
X0119696Y0154977D02*
X0120463Y0153442D01*
X0121998Y0151908D01*
X0121998Y0154210D01*
X0122765Y0154977D01*
X0123533Y0154977D01*
X0124300Y0154210D01*
X0124300Y0152675D01*
X0123533Y0151908D01*
X0121998Y0151908D01*
X0120463Y0150373D02*
X0119696Y0149606D01*
X0119696Y0147304D01*
X0124300Y0147304D01*
X0124300Y0149606D01*
X0123533Y0150373D01*
X0120463Y0150373D01*
X0120463Y0145769D02*
X0121231Y0145769D01*
X0121998Y0145002D01*
X0121998Y0142700D01*
X0119696Y0142700D02*
X0119696Y0145002D01*
X0120463Y0145769D01*
X0121998Y0145002D02*
X0122765Y0145769D01*
X0123533Y0145769D01*
X0124300Y0145002D01*
X0124300Y0142700D01*
X0119696Y0142700D01*
X0113165Y0126054D02*
X0110096Y0126054D01*
X0110096Y0121450D01*
X0108561Y0121450D02*
X0108561Y0124519D01*
X0110096Y0123752D02*
X0111631Y0123752D01*
X0108561Y0121450D02*
X0106259Y0121450D01*
X0105492Y0122217D01*
X0105492Y0124519D01*
X0103957Y0121450D02*
X0100888Y0121450D01*
X0099354Y0121450D02*
X0098586Y0121450D01*
X0098586Y0122217D01*
X0099354Y0122217D01*
X0099354Y0121450D01*
X0097052Y0122217D02*
X0097052Y0125287D01*
X0093982Y0122217D01*
X0094750Y0121450D01*
X0096284Y0121450D01*
X0097052Y0122217D01*
X0097052Y0125287D02*
X0096284Y0126054D01*
X0094750Y0126054D01*
X0093982Y0125287D01*
X0093982Y0122217D01*
X0100888Y0124519D02*
X0102423Y0126054D01*
X0102423Y0121450D01*
X0081800Y0126450D02*
X0077196Y0126450D01*
X0078731Y0127985D01*
X0077196Y0129519D01*
X0081800Y0129519D01*
X0081033Y0131054D02*
X0079498Y0131054D01*
X0078731Y0131821D01*
X0078731Y0133356D01*
X0079498Y0134123D01*
X0081033Y0134123D01*
X0081800Y0133356D01*
X0081800Y0131821D01*
X0081033Y0131054D01*
X0078731Y0135658D02*
X0078731Y0137192D01*
X0077963Y0136425D02*
X0081033Y0136425D01*
X0081800Y0137192D01*
X0081033Y0138727D02*
X0081800Y0139494D01*
X0081800Y0141029D01*
X0081033Y0141796D01*
X0079498Y0141796D01*
X0078731Y0141029D01*
X0078731Y0139494D01*
X0079498Y0138727D01*
X0081033Y0138727D01*
X0081800Y0143331D02*
X0078731Y0143331D01*
X0080265Y0143331D02*
X0078731Y0144866D01*
X0078731Y0145633D01*
X0074300Y0140262D02*
X0073533Y0139494D01*
X0070463Y0139494D01*
X0071231Y0138727D02*
X0071231Y0140262D01*
X0071998Y0137192D02*
X0071998Y0135658D01*
X0071998Y0134123D02*
X0071231Y0133356D01*
X0071231Y0131821D01*
X0071998Y0131054D01*
X0073533Y0131054D01*
X0074300Y0131821D01*
X0074300Y0133356D01*
X0072765Y0134123D02*
X0072765Y0131054D01*
X0074300Y0129519D02*
X0074300Y0126450D01*
X0069696Y0126450D01*
X0071998Y0134123D02*
X0072765Y0134123D01*
X0074300Y0136425D02*
X0070463Y0136425D01*
X0069696Y0137192D01*
X0066998Y0150200D02*
X0066998Y0153269D01*
X0067485Y0158467D02*
X0067485Y0161537D01*
X0065950Y0160002D02*
X0069019Y0160002D01*
X0119696Y0161883D02*
X0119696Y0163418D01*
X0120463Y0164185D01*
X0121231Y0164185D01*
X0121998Y0163418D01*
X0122765Y0164185D01*
X0123533Y0164185D01*
X0121998Y0163418D02*
X0121998Y0162650D01*
X0120463Y0161116D02*
X0119696Y0161883D01*
X0119696Y0170324D02*
X0119696Y0173393D01*
X0119696Y0170324D02*
X0124300Y0170324D01*
X0254981Y0084494D02*
X0258050Y0084494D01*
X0255748Y0072985D02*
X0255748Y0071450D01*
X0258050Y0071450D02*
X0253446Y0071450D01*
D11*
X0041248Y0033869D02*
X0041248Y0031400D01*
X0040014Y0032634D02*
X0042483Y0032634D01*
X0034350Y0038900D02*
X0030647Y0038900D01*
X0030647Y0040752D01*
X0031264Y0041369D01*
X0032498Y0041369D01*
X0033116Y0040752D01*
X0033116Y0038900D01*
X0033733Y0042583D02*
X0031881Y0042583D01*
X0033733Y0042583D02*
X0034350Y0043200D01*
X0033733Y0043818D01*
X0034350Y0044435D01*
X0033733Y0045052D01*
X0031881Y0045052D01*
X0031881Y0046266D02*
X0034350Y0046266D01*
X0033116Y0046266D02*
X0031881Y0047501D01*
X0031881Y0048118D01*
X0042498Y0057650D02*
X0042498Y0060119D01*
X0074397Y0043833D02*
X0078100Y0043833D01*
X0078100Y0045685D01*
X0077483Y0046302D01*
X0076248Y0046302D01*
X0075631Y0045685D01*
X0075631Y0043833D01*
X0076248Y0042619D02*
X0076248Y0040150D01*
X0075014Y0041384D02*
X0077483Y0041384D01*
X0077483Y0047516D02*
X0076866Y0048133D01*
X0076866Y0049985D01*
X0076248Y0049985D02*
X0078100Y0049985D01*
X0078100Y0048133D01*
X0077483Y0047516D01*
X0075631Y0048133D02*
X0075631Y0049368D01*
X0076248Y0049985D01*
X0075631Y0051199D02*
X0075631Y0052434D01*
X0075014Y0051817D02*
X0077483Y0051817D01*
X0078100Y0052434D01*
X0077483Y0054272D02*
X0078100Y0054889D01*
X0077483Y0054272D02*
X0075014Y0054272D01*
X0075631Y0053655D02*
X0075631Y0054889D01*
X0085631Y0048757D02*
X0085631Y0046906D01*
X0086248Y0046289D01*
X0087483Y0046289D01*
X0088100Y0046906D01*
X0088100Y0048757D01*
X0088717Y0048757D02*
X0085631Y0048757D01*
X0088717Y0048757D02*
X0089334Y0048140D01*
X0089334Y0047523D01*
X0088100Y0045068D02*
X0088100Y0043833D01*
X0088100Y0044450D02*
X0085631Y0044450D01*
X0085631Y0043833D01*
X0085631Y0042619D02*
X0085631Y0040767D01*
X0086248Y0040150D01*
X0086866Y0040767D01*
X0086866Y0042002D01*
X0087483Y0042619D01*
X0088100Y0042002D01*
X0088100Y0040150D01*
X0084397Y0044450D02*
X0083780Y0044450D01*
X0094397Y0043252D02*
X0094397Y0042017D01*
X0095014Y0041400D01*
X0097483Y0041400D01*
X0098100Y0042017D01*
X0098100Y0043252D01*
X0097483Y0043869D01*
X0096248Y0043869D01*
X0096248Y0042634D01*
X0095014Y0043869D02*
X0094397Y0043252D01*
X0091233Y0052650D02*
X0088764Y0052650D01*
X0088147Y0053267D01*
X0088147Y0054502D01*
X0088764Y0055119D01*
X0091233Y0052650D01*
X0091850Y0053267D01*
X0091850Y0054502D01*
X0091233Y0055119D01*
X0088764Y0055119D01*
X0091233Y0056333D02*
X0091233Y0056950D01*
X0091850Y0056950D01*
X0091850Y0056333D01*
X0091233Y0056333D01*
X0091850Y0058175D02*
X0091850Y0060643D01*
X0091850Y0059409D02*
X0088147Y0059409D01*
X0089381Y0058175D01*
X0089381Y0061858D02*
X0091233Y0061858D01*
X0091850Y0062475D01*
X0091850Y0064327D01*
X0089381Y0064327D01*
X0089998Y0065541D02*
X0089998Y0066775D01*
X0088147Y0065541D02*
X0091850Y0065541D01*
X0088147Y0065541D02*
X0088147Y0068010D01*
X0058100Y0082650D02*
X0058100Y0085119D01*
X0058100Y0086333D02*
X0058100Y0087568D01*
X0058100Y0086950D02*
X0055631Y0086950D01*
X0055631Y0086333D01*
X0054397Y0086950D02*
X0053780Y0086950D01*
X0052100Y0086950D02*
X0048397Y0086950D01*
X0048397Y0086333D01*
X0048397Y0085119D02*
X0048397Y0082650D01*
X0052100Y0082650D01*
X0052100Y0085119D01*
X0052100Y0086333D02*
X0052100Y0087568D01*
X0051483Y0088789D02*
X0050248Y0088789D01*
X0049631Y0089406D01*
X0049631Y0090640D01*
X0050248Y0091257D01*
X0050866Y0091257D01*
X0050866Y0088789D01*
X0051483Y0088789D02*
X0052100Y0089406D01*
X0052100Y0090640D01*
X0051483Y0092472D02*
X0050248Y0092472D01*
X0049631Y0093089D01*
X0049631Y0094940D01*
X0049631Y0096155D02*
X0049631Y0097389D01*
X0049014Y0096772D02*
X0051483Y0096772D01*
X0052100Y0097389D01*
X0052100Y0098610D02*
X0049631Y0098610D01*
X0050866Y0098610D02*
X0049631Y0099845D01*
X0049631Y0100462D01*
X0050248Y0101680D02*
X0051483Y0101680D01*
X0052100Y0102297D01*
X0052100Y0103531D01*
X0051483Y0104148D01*
X0050248Y0104148D01*
X0049631Y0103531D01*
X0049631Y0102297D01*
X0050248Y0101680D01*
X0046100Y0101066D02*
X0043631Y0101066D01*
X0043631Y0102917D01*
X0044248Y0103534D01*
X0046100Y0103534D01*
X0046100Y0104749D02*
X0046100Y0105983D01*
X0046100Y0105366D02*
X0043631Y0105366D01*
X0043631Y0104749D01*
X0042397Y0105366D02*
X0041780Y0105366D01*
X0040100Y0104756D02*
X0040100Y0103521D01*
X0040100Y0104138D02*
X0036397Y0104138D01*
X0036397Y0103521D01*
X0037631Y0101690D02*
X0038248Y0102307D01*
X0039483Y0102307D01*
X0040100Y0101690D01*
X0040100Y0099838D01*
X0040100Y0098624D02*
X0038248Y0098624D01*
X0037631Y0098006D01*
X0037631Y0096772D01*
X0038866Y0096772D02*
X0038866Y0098624D01*
X0040100Y0098624D02*
X0040100Y0096772D01*
X0039483Y0096155D01*
X0038866Y0096772D01*
X0037631Y0094937D02*
X0037631Y0094320D01*
X0038866Y0093086D01*
X0040100Y0093086D02*
X0037631Y0093086D01*
X0038248Y0091871D02*
X0039483Y0091871D01*
X0040100Y0091254D01*
X0040100Y0089402D01*
X0041334Y0089402D02*
X0037631Y0089402D01*
X0037631Y0091254D01*
X0038248Y0091871D01*
X0034100Y0091868D02*
X0034100Y0090633D01*
X0033483Y0090016D01*
X0032248Y0090633D02*
X0032248Y0091868D01*
X0032866Y0092485D01*
X0033483Y0092485D01*
X0034100Y0091868D01*
X0033483Y0093699D02*
X0032866Y0093699D01*
X0032248Y0094317D01*
X0032248Y0095551D01*
X0032866Y0096168D01*
X0033483Y0096168D01*
X0034100Y0095551D01*
X0034100Y0094317D01*
X0033483Y0093699D01*
X0032248Y0094317D02*
X0031631Y0093699D01*
X0031014Y0093699D01*
X0030397Y0094317D01*
X0030397Y0095551D01*
X0031014Y0096168D01*
X0031631Y0096168D01*
X0032248Y0095551D01*
X0031014Y0097383D02*
X0030397Y0098000D01*
X0030397Y0099234D01*
X0031014Y0099851D01*
X0031631Y0099851D01*
X0034100Y0097383D01*
X0034100Y0099851D01*
X0033483Y0101066D02*
X0034100Y0101683D01*
X0034100Y0102917D01*
X0033483Y0103534D01*
X0032866Y0103534D01*
X0032248Y0102917D01*
X0032248Y0101066D01*
X0033483Y0101066D01*
X0032248Y0101066D02*
X0031014Y0102300D01*
X0030397Y0103534D01*
X0032248Y0104749D02*
X0032248Y0106600D01*
X0032866Y0107218D01*
X0033483Y0107218D01*
X0034100Y0106600D01*
X0034100Y0105366D01*
X0033483Y0104749D01*
X0032248Y0104749D01*
X0031014Y0105983D01*
X0030397Y0107218D01*
X0030397Y0110901D02*
X0034100Y0108432D01*
X0036397Y0110901D02*
X0040100Y0110901D01*
X0040100Y0109049D01*
X0039483Y0108432D01*
X0038248Y0108432D01*
X0037631Y0109049D01*
X0037631Y0110901D01*
X0039483Y0112115D02*
X0039483Y0112732D01*
X0040100Y0112732D01*
X0040100Y0112115D01*
X0039483Y0112115D01*
X0039483Y0113957D02*
X0038248Y0113957D01*
X0037631Y0114574D01*
X0037631Y0116425D01*
X0038248Y0117640D02*
X0039483Y0117640D01*
X0040100Y0118257D01*
X0040100Y0119491D01*
X0039483Y0120109D01*
X0038248Y0120109D01*
X0037631Y0119491D01*
X0037631Y0118257D01*
X0038248Y0117640D01*
X0040100Y0116425D02*
X0040100Y0114574D01*
X0039483Y0113957D01*
X0043631Y0113356D02*
X0043631Y0111505D01*
X0044248Y0110887D01*
X0044866Y0111505D01*
X0044866Y0112739D01*
X0045483Y0113356D01*
X0046100Y0112739D01*
X0046100Y0110887D01*
X0046100Y0109673D02*
X0046100Y0107821D01*
X0045483Y0107204D01*
X0044248Y0107204D01*
X0043631Y0107821D01*
X0043631Y0109673D01*
X0047780Y0109663D02*
X0048397Y0109663D01*
X0049631Y0109663D02*
X0052100Y0109663D01*
X0052100Y0109046D02*
X0052100Y0110280D01*
X0051483Y0111501D02*
X0050248Y0111501D01*
X0049631Y0112118D01*
X0049631Y0113970D01*
X0050248Y0115184D02*
X0049631Y0115802D01*
X0049631Y0117653D01*
X0049631Y0118868D02*
X0050248Y0118868D01*
X0050248Y0119485D01*
X0049631Y0119485D01*
X0049631Y0118868D01*
X0051483Y0118868D02*
X0051483Y0119485D01*
X0052100Y0119485D01*
X0052100Y0118868D01*
X0051483Y0118868D01*
X0051483Y0117653D02*
X0050866Y0117036D01*
X0050866Y0115802D01*
X0050248Y0115184D01*
X0052100Y0115184D02*
X0052100Y0117036D01*
X0051483Y0117653D01*
X0054397Y0118871D02*
X0054397Y0120105D01*
X0055014Y0120723D01*
X0056248Y0120723D02*
X0056248Y0119488D01*
X0056248Y0120723D02*
X0057483Y0120723D01*
X0058100Y0120105D01*
X0058100Y0118871D01*
X0057483Y0118254D01*
X0055014Y0118254D01*
X0054397Y0118871D01*
X0054397Y0121937D02*
X0054397Y0123788D01*
X0055014Y0124406D01*
X0056248Y0124406D01*
X0056866Y0123788D01*
X0056866Y0121937D01*
X0058100Y0121937D02*
X0054397Y0121937D01*
X0052100Y0124392D02*
X0049631Y0124392D01*
X0048397Y0125627D01*
X0049631Y0126861D01*
X0052100Y0126861D01*
X0051483Y0128075D02*
X0050248Y0128075D01*
X0049631Y0128693D01*
X0049631Y0130544D01*
X0049631Y0131759D02*
X0052100Y0131759D01*
X0052100Y0130544D02*
X0052100Y0128693D01*
X0051483Y0128075D01*
X0050248Y0126861D02*
X0050248Y0124392D01*
X0046100Y0125620D02*
X0046100Y0127472D01*
X0045483Y0128089D01*
X0044866Y0127472D01*
X0044866Y0126237D01*
X0044248Y0125620D01*
X0043631Y0126237D01*
X0043631Y0128089D01*
X0044248Y0129303D02*
X0045483Y0129303D01*
X0046100Y0129920D01*
X0046100Y0131155D01*
X0045483Y0131772D01*
X0044248Y0131772D01*
X0043631Y0131155D01*
X0043631Y0129920D01*
X0044248Y0129303D01*
X0044248Y0132986D02*
X0044248Y0134221D01*
X0043631Y0135442D02*
X0043631Y0136676D01*
X0043014Y0136059D02*
X0045483Y0136059D01*
X0046100Y0136676D01*
X0045483Y0137897D02*
X0046100Y0138514D01*
X0045483Y0139132D01*
X0046100Y0139749D01*
X0045483Y0140366D01*
X0043631Y0140366D01*
X0043631Y0142197D02*
X0043631Y0143432D01*
X0044248Y0144049D01*
X0046100Y0144049D01*
X0046100Y0142197D01*
X0045483Y0141580D01*
X0044866Y0142197D01*
X0044866Y0144049D01*
X0044866Y0145263D02*
X0043631Y0146498D01*
X0043631Y0147115D01*
X0044248Y0148333D02*
X0043631Y0148950D01*
X0043631Y0150184D01*
X0044248Y0150802D01*
X0044866Y0150802D01*
X0044866Y0148333D01*
X0045483Y0148333D02*
X0044248Y0148333D01*
X0045483Y0148333D02*
X0046100Y0148950D01*
X0046100Y0150184D01*
X0046100Y0152016D02*
X0045483Y0152016D01*
X0045483Y0152633D01*
X0046100Y0152633D01*
X0046100Y0152016D01*
X0044248Y0152016D02*
X0043631Y0152016D01*
X0043631Y0152633D01*
X0044248Y0152633D01*
X0044248Y0152016D01*
X0048397Y0150184D02*
X0048397Y0148333D01*
X0052100Y0148333D01*
X0052100Y0150184D01*
X0051483Y0150801D01*
X0050866Y0150801D01*
X0050248Y0150184D01*
X0050248Y0148333D01*
X0050248Y0150184D02*
X0049631Y0150801D01*
X0049014Y0150801D01*
X0048397Y0150184D01*
X0050248Y0152016D02*
X0051483Y0152016D01*
X0052100Y0152633D01*
X0052100Y0153867D01*
X0051483Y0154485D01*
X0050248Y0154485D01*
X0049631Y0153867D01*
X0049631Y0152633D01*
X0050248Y0152016D01*
X0049631Y0155699D02*
X0051483Y0155699D01*
X0052100Y0156316D01*
X0051483Y0156933D01*
X0052100Y0157551D01*
X0051483Y0158168D01*
X0049631Y0158168D01*
X0049631Y0159382D02*
X0051483Y0159382D01*
X0052100Y0159999D01*
X0052100Y0161851D01*
X0052717Y0161851D02*
X0053334Y0161234D01*
X0053334Y0160617D01*
X0052717Y0161851D02*
X0049631Y0161851D01*
X0050248Y0163065D02*
X0049631Y0163682D01*
X0049631Y0164917D01*
X0050248Y0165534D01*
X0050866Y0165534D01*
X0050866Y0163065D01*
X0051483Y0163065D02*
X0050248Y0163065D01*
X0051483Y0163065D02*
X0052100Y0163682D01*
X0052100Y0164917D01*
X0052100Y0166748D02*
X0049631Y0166748D01*
X0050866Y0166748D02*
X0049631Y0167983D01*
X0049631Y0168600D01*
X0047334Y0171052D02*
X0047334Y0171669D01*
X0046717Y0172287D01*
X0043631Y0172287D01*
X0046100Y0172287D02*
X0046100Y0170435D01*
X0045483Y0169818D01*
X0043631Y0169818D01*
X0042397Y0167979D02*
X0046100Y0167979D01*
X0046100Y0167362D02*
X0046100Y0168597D01*
X0046100Y0166141D02*
X0046100Y0164907D01*
X0046100Y0165524D02*
X0042397Y0165524D01*
X0042397Y0164907D01*
X0043631Y0163075D02*
X0044248Y0163693D01*
X0046100Y0163693D01*
X0046100Y0161841D01*
X0045483Y0161224D01*
X0044866Y0161841D01*
X0044866Y0163693D01*
X0043631Y0163075D02*
X0043631Y0161841D01*
X0043014Y0160009D02*
X0042397Y0159392D01*
X0042397Y0158158D01*
X0043014Y0157541D01*
X0043631Y0157541D01*
X0044248Y0158158D01*
X0044248Y0159392D01*
X0044866Y0160009D01*
X0045483Y0160009D01*
X0046100Y0159392D01*
X0046100Y0158158D01*
X0045483Y0157541D01*
X0034100Y0158168D02*
X0034100Y0156316D01*
X0033483Y0155699D01*
X0032248Y0155699D01*
X0031631Y0156316D01*
X0031631Y0158168D01*
X0030397Y0158168D02*
X0034100Y0158168D01*
X0034100Y0154478D02*
X0034100Y0153244D01*
X0034100Y0153861D02*
X0030397Y0153861D01*
X0030397Y0153244D01*
X0031631Y0151412D02*
X0032248Y0152029D01*
X0032866Y0152029D01*
X0032866Y0149560D01*
X0033483Y0149560D02*
X0032248Y0149560D01*
X0031631Y0150178D01*
X0031631Y0151412D01*
X0034100Y0151412D02*
X0034100Y0150178D01*
X0033483Y0149560D01*
X0034100Y0148339D02*
X0034100Y0147105D01*
X0034100Y0147722D02*
X0031631Y0147722D01*
X0031631Y0147105D01*
X0032248Y0145891D02*
X0034100Y0145891D01*
X0032248Y0145891D02*
X0031631Y0145273D01*
X0031631Y0144039D01*
X0032248Y0143422D01*
X0032866Y0142208D02*
X0033483Y0142208D01*
X0034100Y0141590D01*
X0034100Y0140356D01*
X0033483Y0139739D01*
X0032248Y0140356D02*
X0032248Y0141590D01*
X0032866Y0142208D01*
X0034100Y0143422D02*
X0030397Y0143422D01*
X0031014Y0142208D02*
X0030397Y0141590D01*
X0030397Y0140356D01*
X0031014Y0139739D01*
X0031631Y0139739D01*
X0032248Y0140356D01*
X0032248Y0134841D02*
X0031631Y0134224D01*
X0031631Y0132990D01*
X0032248Y0132372D01*
X0033483Y0132372D01*
X0034100Y0132990D01*
X0034100Y0134224D01*
X0033483Y0134841D01*
X0032248Y0134841D01*
X0032248Y0131158D02*
X0034100Y0131158D01*
X0032248Y0131158D02*
X0031631Y0130541D01*
X0031631Y0128689D01*
X0034100Y0128689D01*
X0034100Y0127468D02*
X0034100Y0126234D01*
X0034100Y0126851D02*
X0031631Y0126851D01*
X0031631Y0126234D01*
X0031631Y0125020D02*
X0034100Y0125020D01*
X0034100Y0123168D01*
X0033483Y0122551D01*
X0031631Y0122551D01*
X0031631Y0121336D02*
X0031631Y0119485D01*
X0032248Y0118868D01*
X0033483Y0118868D01*
X0034100Y0119485D01*
X0034100Y0121336D01*
X0030397Y0121336D01*
X0031631Y0117650D02*
X0031631Y0117033D01*
X0032866Y0115798D01*
X0034100Y0115798D02*
X0031631Y0115798D01*
X0031631Y0114584D02*
X0034100Y0114584D01*
X0032248Y0114584D02*
X0032248Y0112115D01*
X0031631Y0112115D02*
X0030397Y0113350D01*
X0031631Y0114584D01*
X0031631Y0112115D02*
X0034100Y0112115D01*
X0037631Y0107211D02*
X0037631Y0105977D01*
X0037014Y0106594D02*
X0039483Y0106594D01*
X0040100Y0107211D01*
X0037631Y0101690D02*
X0037631Y0099838D01*
X0041334Y0099838D01*
X0043631Y0099234D02*
X0044248Y0099851D01*
X0046100Y0099851D01*
X0046100Y0098000D01*
X0045483Y0097383D01*
X0044866Y0098000D01*
X0044866Y0099851D01*
X0043631Y0099234D02*
X0043631Y0098000D01*
X0044248Y0096168D02*
X0046100Y0096168D01*
X0044248Y0096168D02*
X0043631Y0095551D01*
X0043631Y0094317D01*
X0044248Y0093699D01*
X0043631Y0092485D02*
X0043631Y0090633D01*
X0044248Y0090016D01*
X0045483Y0090016D01*
X0046100Y0090633D01*
X0046100Y0092485D01*
X0046100Y0093699D02*
X0042397Y0093699D01*
X0044248Y0088802D02*
X0044866Y0088802D01*
X0044866Y0086333D01*
X0045483Y0086333D02*
X0044248Y0086333D01*
X0043631Y0086950D01*
X0043631Y0088185D01*
X0044248Y0088802D01*
X0046100Y0088185D02*
X0046100Y0086950D01*
X0045483Y0086333D01*
X0046100Y0085119D02*
X0042397Y0085119D01*
X0043631Y0083884D01*
X0042397Y0082650D01*
X0046100Y0082650D01*
X0050248Y0082650D02*
X0050248Y0083884D01*
X0054397Y0082650D02*
X0058100Y0082650D01*
X0057483Y0088789D02*
X0056248Y0088789D01*
X0055631Y0089406D01*
X0055631Y0091257D01*
X0056248Y0092472D02*
X0055631Y0093089D01*
X0055631Y0094323D01*
X0056248Y0094940D01*
X0056866Y0094940D01*
X0056866Y0092472D01*
X0057483Y0092472D02*
X0056248Y0092472D01*
X0057483Y0092472D02*
X0058100Y0093089D01*
X0058100Y0094323D01*
X0058100Y0096155D02*
X0055631Y0096155D01*
X0055631Y0098006D01*
X0056248Y0098624D01*
X0058100Y0098624D01*
X0057483Y0099838D02*
X0056248Y0099838D01*
X0055631Y0100455D01*
X0055631Y0102307D01*
X0056248Y0103521D02*
X0055631Y0104138D01*
X0055631Y0105373D01*
X0056248Y0105990D01*
X0056866Y0105990D01*
X0056866Y0103521D01*
X0057483Y0103521D02*
X0056248Y0103521D01*
X0057483Y0103521D02*
X0058100Y0104138D01*
X0058100Y0105373D01*
X0058100Y0102307D02*
X0058100Y0100455D01*
X0057483Y0099838D01*
X0052100Y0105363D02*
X0049631Y0105363D01*
X0049631Y0107214D01*
X0050248Y0107831D01*
X0052100Y0107831D01*
X0049631Y0109046D02*
X0049631Y0109663D01*
X0051483Y0111501D02*
X0052100Y0112118D01*
X0052100Y0113970D01*
X0056248Y0113356D02*
X0056248Y0110887D01*
X0046100Y0118871D02*
X0045483Y0118254D01*
X0044866Y0118254D01*
X0043631Y0119488D01*
X0043014Y0119488D01*
X0042397Y0118871D01*
X0043014Y0118254D01*
X0043631Y0118254D01*
X0046100Y0120723D01*
X0044866Y0120723D02*
X0046100Y0119488D01*
X0046100Y0118871D01*
X0040100Y0121323D02*
X0037631Y0121323D01*
X0037631Y0121940D01*
X0038248Y0122557D01*
X0037631Y0123175D01*
X0038248Y0123792D01*
X0040100Y0123792D01*
X0040100Y0122557D02*
X0038248Y0122557D01*
X0030397Y0126851D02*
X0029780Y0126851D01*
X0042397Y0134221D02*
X0043014Y0133603D01*
X0046100Y0133603D01*
X0047780Y0135445D02*
X0048397Y0135445D01*
X0049631Y0135445D02*
X0052100Y0135445D01*
X0052100Y0134828D02*
X0052100Y0136062D01*
X0051483Y0137283D02*
X0050866Y0137900D01*
X0050866Y0139752D01*
X0050248Y0139752D02*
X0052100Y0139752D01*
X0052100Y0137900D01*
X0051483Y0137283D01*
X0049631Y0137900D02*
X0049631Y0139135D01*
X0050248Y0139752D01*
X0049631Y0140966D02*
X0049631Y0142818D01*
X0050248Y0143435D01*
X0052100Y0143435D01*
X0052100Y0140966D02*
X0049631Y0140966D01*
X0045483Y0137897D02*
X0043631Y0137897D01*
X0049631Y0135445D02*
X0049631Y0134828D01*
X0049631Y0133610D02*
X0049631Y0132993D01*
X0050866Y0131759D01*
X0052100Y0130544D02*
X0048397Y0130544D01*
X0054397Y0125620D02*
X0058100Y0125620D01*
X0058100Y0128089D01*
X0046100Y0145263D02*
X0043631Y0145263D01*
X0030397Y0147722D02*
X0029780Y0147722D01*
X0030397Y0163065D02*
X0032866Y0163065D01*
X0034100Y0164300D01*
X0032866Y0165534D01*
X0030397Y0165534D01*
X0031631Y0166748D02*
X0030397Y0167983D01*
X0034100Y0167983D01*
X0034100Y0169217D02*
X0034100Y0166748D01*
X0034100Y0170432D02*
X0034100Y0171049D01*
X0033483Y0171049D01*
X0033483Y0170432D01*
X0034100Y0170432D01*
X0034100Y0172273D02*
X0034100Y0174742D01*
X0034100Y0173508D02*
X0030397Y0173508D01*
X0031631Y0172273D01*
X0042397Y0167979D02*
X0042397Y0167362D01*
X0042397Y0177184D02*
X0042397Y0179036D01*
X0043014Y0179653D01*
X0043631Y0179653D01*
X0044248Y0179036D01*
X0044248Y0177184D01*
X0042397Y0177184D02*
X0046100Y0177184D01*
X0046100Y0179036D01*
X0045483Y0179653D01*
X0044866Y0179653D01*
X0044248Y0179036D01*
X0044248Y0180867D02*
X0045483Y0180867D01*
X0046100Y0181484D01*
X0046100Y0182719D01*
X0045483Y0183336D01*
X0044248Y0183336D01*
X0043631Y0182719D01*
X0043631Y0181484D01*
X0044248Y0180867D01*
X0043631Y0184550D02*
X0045483Y0184550D01*
X0046100Y0185167D01*
X0045483Y0185785D01*
X0046100Y0186402D01*
X0045483Y0187019D01*
X0043631Y0187019D01*
X0043631Y0188233D02*
X0045483Y0188233D01*
X0046100Y0188851D01*
X0046100Y0190702D01*
X0046717Y0190702D02*
X0047334Y0190085D01*
X0047334Y0189468D01*
X0046717Y0190702D02*
X0043631Y0190702D01*
X0044248Y0191917D02*
X0043631Y0192534D01*
X0043631Y0193768D01*
X0044248Y0194385D01*
X0044866Y0194385D01*
X0044866Y0191917D01*
X0045483Y0191917D02*
X0044248Y0191917D01*
X0045483Y0191917D02*
X0046100Y0192534D01*
X0046100Y0193768D01*
X0046100Y0195600D02*
X0043631Y0195600D01*
X0043631Y0196834D02*
X0043631Y0197451D01*
X0043631Y0196834D02*
X0044866Y0195600D01*
X0077150Y0197650D02*
X0079619Y0197650D01*
X0080833Y0197650D02*
X0081450Y0197650D01*
X0081450Y0198267D01*
X0080833Y0198267D01*
X0080833Y0197650D01*
X0086358Y0197650D02*
X0088209Y0197650D01*
X0088827Y0198267D01*
X0088209Y0198884D01*
X0086975Y0198884D01*
X0086358Y0199502D01*
X0086975Y0200119D01*
X0088827Y0200119D01*
X0090041Y0199502D02*
X0090041Y0198267D01*
X0090658Y0197650D01*
X0091893Y0197650D01*
X0092510Y0198884D02*
X0090041Y0198884D01*
X0090041Y0199502D02*
X0090658Y0200119D01*
X0091893Y0200119D01*
X0092510Y0199502D01*
X0092510Y0198884D01*
X0093724Y0197650D02*
X0093724Y0200119D01*
X0095576Y0200119D01*
X0096193Y0199502D01*
X0096193Y0197650D01*
X0097407Y0197650D02*
X0099259Y0197650D01*
X0099876Y0198267D01*
X0099259Y0198884D01*
X0098024Y0198884D01*
X0097407Y0199502D01*
X0098024Y0200119D01*
X0099876Y0200119D01*
X0101090Y0199502D02*
X0101708Y0200119D01*
X0102942Y0200119D01*
X0103559Y0199502D01*
X0103559Y0198884D01*
X0101090Y0198884D01*
X0101090Y0198267D02*
X0101090Y0199502D01*
X0101090Y0198267D02*
X0101708Y0197650D01*
X0102942Y0197650D01*
X0111145Y0198002D02*
X0113614Y0198002D01*
X0113614Y0198619D02*
X0113614Y0196150D01*
X0114828Y0196150D02*
X0114828Y0199853D01*
X0116680Y0199853D01*
X0117297Y0199236D01*
X0117297Y0198002D01*
X0116680Y0197384D01*
X0114828Y0197384D01*
X0116063Y0197384D02*
X0117297Y0196150D01*
X0118511Y0196767D02*
X0118511Y0198002D01*
X0119129Y0198619D01*
X0120363Y0198619D01*
X0120980Y0198002D01*
X0120980Y0197384D01*
X0118511Y0197384D01*
X0118511Y0196767D02*
X0119129Y0196150D01*
X0120363Y0196150D01*
X0122812Y0196150D02*
X0122812Y0199236D01*
X0123429Y0199853D01*
X0123429Y0198002D02*
X0122195Y0198002D01*
X0126101Y0198002D02*
X0126101Y0196767D01*
X0126718Y0196150D01*
X0128569Y0196150D01*
X0128569Y0195533D02*
X0128569Y0198619D01*
X0126718Y0198619D01*
X0126101Y0198002D01*
X0128569Y0195533D02*
X0127952Y0194916D01*
X0127335Y0194916D01*
X0129784Y0196150D02*
X0129784Y0198619D01*
X0131635Y0198619D01*
X0132252Y0198002D01*
X0132252Y0196150D01*
X0133467Y0196767D02*
X0133467Y0198002D01*
X0134084Y0198619D01*
X0135936Y0198619D01*
X0135936Y0199853D02*
X0135936Y0196150D01*
X0134084Y0196150D01*
X0133467Y0196767D01*
X0138284Y0196150D02*
X0140752Y0196150D01*
X0139518Y0196150D02*
X0139518Y0199853D01*
X0138284Y0198619D01*
X0141967Y0199236D02*
X0142584Y0199853D01*
X0143818Y0199853D01*
X0144436Y0199236D01*
X0144436Y0198619D01*
X0143818Y0198002D01*
X0144436Y0197384D01*
X0144436Y0196767D01*
X0143818Y0196150D01*
X0142584Y0196150D01*
X0141967Y0196767D01*
X0143201Y0198002D02*
X0143818Y0198002D01*
X0148284Y0198619D02*
X0149518Y0199853D01*
X0149518Y0196150D01*
X0148284Y0196150D02*
X0150752Y0196150D01*
X0151967Y0196150D02*
X0154436Y0198619D01*
X0154436Y0199236D01*
X0153818Y0199853D01*
X0152584Y0199853D01*
X0151967Y0199236D01*
X0151967Y0196150D02*
X0154436Y0196150D01*
X0158284Y0196150D02*
X0160752Y0196150D01*
X0161967Y0196150D02*
X0164436Y0196150D01*
X0163201Y0196150D02*
X0163201Y0199853D01*
X0161967Y0198619D01*
X0159518Y0199853D02*
X0159518Y0196150D01*
X0158284Y0198619D02*
X0159518Y0199853D01*
X0168284Y0198619D02*
X0169518Y0199853D01*
X0169518Y0196150D01*
X0168284Y0196150D02*
X0170752Y0196150D01*
X0171967Y0196767D02*
X0174436Y0199236D01*
X0174436Y0196767D01*
X0173818Y0196150D01*
X0172584Y0196150D01*
X0171967Y0196767D01*
X0171967Y0199236D01*
X0172584Y0199853D01*
X0173818Y0199853D01*
X0174436Y0199236D01*
X0179967Y0199236D02*
X0179967Y0198619D01*
X0180584Y0198002D01*
X0182436Y0198002D01*
X0182436Y0199236D02*
X0181818Y0199853D01*
X0180584Y0199853D01*
X0179967Y0199236D01*
X0182436Y0199236D02*
X0182436Y0196767D01*
X0181818Y0196150D01*
X0180584Y0196150D01*
X0179967Y0196767D01*
X0189967Y0196767D02*
X0189967Y0197384D01*
X0190584Y0198002D01*
X0191818Y0198002D01*
X0192436Y0197384D01*
X0192436Y0196767D01*
X0191818Y0196150D01*
X0190584Y0196150D01*
X0189967Y0196767D01*
X0190584Y0198002D02*
X0189967Y0198619D01*
X0189967Y0199236D01*
X0190584Y0199853D01*
X0191818Y0199853D01*
X0192436Y0199236D01*
X0192436Y0198619D01*
X0191818Y0198002D01*
X0205967Y0196767D02*
X0205967Y0196150D01*
X0205967Y0196767D02*
X0208436Y0199236D01*
X0208436Y0199853D01*
X0205967Y0199853D01*
X0215967Y0198002D02*
X0215967Y0196767D01*
X0216584Y0196150D01*
X0217818Y0196150D01*
X0218436Y0196767D01*
X0218436Y0197384D01*
X0217818Y0198002D01*
X0215967Y0198002D01*
X0217201Y0199236D01*
X0218436Y0199853D01*
X0225967Y0199853D02*
X0225967Y0198002D01*
X0227201Y0198619D01*
X0227818Y0198619D01*
X0228436Y0198002D01*
X0228436Y0196767D01*
X0227818Y0196150D01*
X0226584Y0196150D01*
X0225967Y0196767D01*
X0225967Y0199853D02*
X0228436Y0199853D01*
X0235967Y0198002D02*
X0238436Y0198002D01*
X0237818Y0199853D02*
X0237818Y0196150D01*
X0235967Y0198002D02*
X0237818Y0199853D01*
X0245967Y0199236D02*
X0246584Y0199853D01*
X0247818Y0199853D01*
X0248436Y0199236D01*
X0248436Y0198619D01*
X0247818Y0198002D01*
X0248436Y0197384D01*
X0248436Y0196767D01*
X0247818Y0196150D01*
X0246584Y0196150D01*
X0245967Y0196767D01*
X0247201Y0198002D02*
X0247818Y0198002D01*
X0255967Y0199236D02*
X0256584Y0199853D01*
X0257818Y0199853D01*
X0258436Y0199236D01*
X0258436Y0198619D01*
X0255967Y0196150D01*
X0258436Y0196150D01*
X0265967Y0196150D02*
X0268436Y0196150D01*
X0267201Y0196150D02*
X0267201Y0199853D01*
X0265967Y0198619D01*
X0275967Y0199236D02*
X0275967Y0196767D01*
X0278436Y0199236D01*
X0278436Y0196767D01*
X0277818Y0196150D01*
X0276584Y0196150D01*
X0275967Y0196767D01*
X0275967Y0199236D02*
X0276584Y0199853D01*
X0277818Y0199853D01*
X0278436Y0199236D01*
X0260812Y0210767D02*
X0260812Y0213236D01*
X0260194Y0213853D01*
X0258960Y0213853D01*
X0258343Y0213236D01*
X0258343Y0210767D01*
X0258960Y0210150D01*
X0260194Y0210150D01*
X0260812Y0210767D01*
X0257128Y0213853D02*
X0254660Y0210150D01*
X0253439Y0210150D02*
X0252204Y0210150D01*
X0252821Y0210150D02*
X0252821Y0213853D01*
X0252204Y0213853D02*
X0253439Y0213853D01*
X0246683Y0213853D02*
X0246683Y0210150D01*
X0246066Y0210150D02*
X0247300Y0210150D01*
X0244851Y0210150D02*
X0244851Y0212002D01*
X0244234Y0212619D01*
X0243000Y0212619D01*
X0243000Y0211384D02*
X0244851Y0211384D01*
X0244851Y0210150D02*
X0243000Y0210150D01*
X0242383Y0210767D01*
X0243000Y0211384D01*
X0241162Y0210150D02*
X0240544Y0210767D01*
X0240544Y0213236D01*
X0239927Y0212619D02*
X0241162Y0212619D01*
X0238089Y0212619D02*
X0238089Y0210150D01*
X0237472Y0210150D02*
X0238706Y0210150D01*
X0236257Y0210150D02*
X0234406Y0210150D01*
X0233789Y0210767D01*
X0233789Y0212002D01*
X0234406Y0212619D01*
X0236257Y0212619D01*
X0236257Y0209533D01*
X0235640Y0208916D01*
X0235023Y0208916D01*
X0232568Y0210150D02*
X0231333Y0210150D01*
X0231950Y0210150D02*
X0231950Y0212619D01*
X0231333Y0212619D01*
X0230119Y0213236D02*
X0229502Y0213853D01*
X0227650Y0213853D01*
X0227650Y0210150D01*
X0229502Y0210150D01*
X0230119Y0210767D01*
X0230119Y0213236D01*
X0231950Y0213853D02*
X0231950Y0214470D01*
X0237472Y0212619D02*
X0238089Y0212619D01*
X0238089Y0213853D02*
X0238089Y0214470D01*
X0246066Y0213853D02*
X0246683Y0213853D01*
X0184812Y0213236D02*
X0184812Y0210767D01*
X0184194Y0210150D01*
X0182960Y0210150D01*
X0182343Y0210767D01*
X0182343Y0213236D01*
X0182960Y0213853D01*
X0184194Y0213853D01*
X0184812Y0213236D01*
X0181128Y0213853D02*
X0178660Y0210150D01*
X0177439Y0210150D02*
X0176204Y0210150D01*
X0176821Y0210150D02*
X0176821Y0213853D01*
X0176204Y0213853D02*
X0177439Y0213853D01*
X0170683Y0213853D02*
X0170683Y0210150D01*
X0170066Y0210150D02*
X0171300Y0210150D01*
X0168851Y0210150D02*
X0168851Y0212002D01*
X0168234Y0212619D01*
X0167000Y0212619D01*
X0167000Y0211384D02*
X0168851Y0211384D01*
X0168851Y0210150D02*
X0167000Y0210150D01*
X0166383Y0210767D01*
X0167000Y0211384D01*
X0165162Y0210150D02*
X0164544Y0210767D01*
X0164544Y0213236D01*
X0163927Y0212619D02*
X0165162Y0212619D01*
X0162089Y0212619D02*
X0162089Y0210150D01*
X0161472Y0210150D02*
X0162706Y0210150D01*
X0160257Y0210150D02*
X0158406Y0210150D01*
X0157789Y0210767D01*
X0157789Y0212002D01*
X0158406Y0212619D01*
X0160257Y0212619D01*
X0160257Y0209533D01*
X0159640Y0208916D01*
X0159023Y0208916D01*
X0156568Y0210150D02*
X0155333Y0210150D01*
X0155950Y0210150D02*
X0155950Y0212619D01*
X0155333Y0212619D01*
X0154119Y0213236D02*
X0153502Y0213853D01*
X0151650Y0213853D01*
X0151650Y0210150D01*
X0153502Y0210150D01*
X0154119Y0210767D01*
X0154119Y0213236D01*
X0155950Y0213853D02*
X0155950Y0214470D01*
X0161472Y0212619D02*
X0162089Y0212619D01*
X0162089Y0213853D02*
X0162089Y0214470D01*
X0170066Y0213853D02*
X0170683Y0213853D01*
X0113614Y0198619D02*
X0112380Y0199853D01*
X0111145Y0198619D01*
X0111145Y0196150D01*
X0089334Y0180640D02*
X0088717Y0181257D01*
X0085631Y0181257D01*
X0085631Y0179406D01*
X0086248Y0178789D01*
X0087483Y0178789D01*
X0088100Y0179406D01*
X0088100Y0181257D01*
X0089334Y0180640D02*
X0089334Y0180023D01*
X0088100Y0177568D02*
X0088100Y0176333D01*
X0088100Y0176950D02*
X0085631Y0176950D01*
X0085631Y0176333D01*
X0085631Y0175119D02*
X0085631Y0173267D01*
X0086248Y0172650D01*
X0086866Y0173267D01*
X0086866Y0174502D01*
X0087483Y0175119D01*
X0088100Y0174502D01*
X0088100Y0172650D01*
X0084397Y0176950D02*
X0083780Y0176950D01*
X0078100Y0177485D02*
X0078100Y0175633D01*
X0077483Y0175016D01*
X0076866Y0175633D01*
X0076866Y0177485D01*
X0076248Y0177485D02*
X0078100Y0177485D01*
X0076248Y0177485D02*
X0075631Y0176868D01*
X0075631Y0175633D01*
X0076248Y0173802D02*
X0075631Y0173185D01*
X0075631Y0171333D01*
X0074397Y0171333D02*
X0078100Y0171333D01*
X0078100Y0173185D01*
X0077483Y0173802D01*
X0076248Y0173802D01*
X0076248Y0170119D02*
X0076248Y0167650D01*
X0075014Y0168884D02*
X0077483Y0168884D01*
X0075631Y0178699D02*
X0075631Y0179934D01*
X0075014Y0179317D02*
X0077483Y0179317D01*
X0078100Y0179934D01*
X0077483Y0181772D02*
X0078100Y0182389D01*
X0077483Y0181772D02*
X0075014Y0181772D01*
X0075631Y0181155D02*
X0075631Y0182389D01*
X0077150Y0197650D02*
X0077150Y0201353D01*
X0096264Y0177619D02*
X0095647Y0177002D01*
X0095647Y0175767D01*
X0096264Y0175150D01*
X0098733Y0175150D01*
X0099350Y0175767D01*
X0099350Y0177002D01*
X0098733Y0177619D01*
X0097498Y0177619D01*
X0097498Y0176384D01*
X0086897Y0148010D02*
X0086897Y0145541D01*
X0090600Y0145541D01*
X0090600Y0144327D02*
X0088131Y0144327D01*
X0088748Y0145541D02*
X0088748Y0146775D01*
X0090600Y0144327D02*
X0090600Y0142475D01*
X0089983Y0141858D01*
X0088131Y0141858D01*
X0086897Y0139409D02*
X0090600Y0139409D01*
X0090600Y0138175D02*
X0090600Y0140643D01*
X0088131Y0138175D02*
X0086897Y0139409D01*
X0089983Y0136950D02*
X0090600Y0136950D01*
X0090600Y0136333D01*
X0089983Y0136333D01*
X0089983Y0136950D01*
X0089983Y0135119D02*
X0087514Y0135119D01*
X0089983Y0132650D01*
X0090600Y0133267D01*
X0090600Y0134502D01*
X0089983Y0135119D01*
X0087514Y0135119D02*
X0086897Y0134502D01*
X0086897Y0133267D01*
X0087514Y0132650D01*
X0089983Y0132650D01*
X0052100Y0094940D02*
X0052100Y0093089D01*
X0051483Y0092472D01*
X0058100Y0091257D02*
X0058100Y0089406D01*
X0057483Y0088789D01*
X0040100Y0087571D02*
X0040100Y0086336D01*
X0039483Y0085719D01*
X0038248Y0085719D01*
X0037631Y0086336D01*
X0037631Y0087571D01*
X0038248Y0088188D01*
X0038866Y0088188D01*
X0038866Y0085719D01*
X0037631Y0084502D02*
X0037631Y0083884D01*
X0038866Y0082650D01*
X0040100Y0082650D02*
X0037631Y0082650D01*
X0034100Y0082650D02*
X0034100Y0085119D01*
X0034100Y0086333D02*
X0030397Y0086333D01*
X0030397Y0088185D01*
X0031014Y0088802D01*
X0032248Y0088802D01*
X0032866Y0088185D01*
X0032866Y0086333D01*
X0032248Y0083884D02*
X0032248Y0082650D01*
X0030397Y0082650D02*
X0034100Y0082650D01*
X0030397Y0082650D02*
X0030397Y0085119D01*
X0031014Y0090016D02*
X0031631Y0090016D01*
X0032248Y0090633D01*
X0031014Y0090016D02*
X0030397Y0090633D01*
X0030397Y0091868D01*
X0031014Y0092485D01*
X0077150Y0023853D02*
X0079002Y0023853D01*
X0079619Y0023236D01*
X0079619Y0022002D01*
X0079002Y0021384D01*
X0077150Y0021384D01*
X0077150Y0020150D02*
X0077150Y0023853D01*
X0078384Y0021384D02*
X0079619Y0020150D01*
X0080833Y0020150D02*
X0081450Y0020150D01*
X0081450Y0020767D01*
X0080833Y0020767D01*
X0080833Y0020150D01*
X0086358Y0020150D02*
X0088209Y0020150D01*
X0088827Y0020767D01*
X0088209Y0021384D01*
X0086975Y0021384D01*
X0086358Y0022002D01*
X0086975Y0022619D01*
X0088827Y0022619D01*
X0090041Y0022002D02*
X0090041Y0020767D01*
X0090658Y0020150D01*
X0091893Y0020150D01*
X0092510Y0021384D02*
X0090041Y0021384D01*
X0090041Y0022002D02*
X0090658Y0022619D01*
X0091893Y0022619D01*
X0092510Y0022002D01*
X0092510Y0021384D01*
X0093724Y0020150D02*
X0093724Y0022619D01*
X0095576Y0022619D01*
X0096193Y0022002D01*
X0096193Y0020150D01*
X0097407Y0020150D02*
X0099259Y0020150D01*
X0099876Y0020767D01*
X0099259Y0021384D01*
X0098024Y0021384D01*
X0097407Y0022002D01*
X0098024Y0022619D01*
X0099876Y0022619D01*
X0101090Y0022002D02*
X0101708Y0022619D01*
X0102942Y0022619D01*
X0103559Y0022002D01*
X0103559Y0021384D01*
X0101090Y0021384D01*
X0101090Y0020767D02*
X0101090Y0022002D01*
X0101090Y0020767D02*
X0101708Y0020150D01*
X0102942Y0020150D01*
X0150110Y0020150D02*
X0150110Y0023853D01*
X0151962Y0023853D01*
X0152579Y0023236D01*
X0152579Y0022002D01*
X0151962Y0021384D01*
X0150110Y0021384D01*
X0151345Y0021384D02*
X0152579Y0020150D01*
X0153793Y0020767D02*
X0154411Y0020150D01*
X0155645Y0020150D01*
X0156262Y0020767D01*
X0156262Y0021384D01*
X0155645Y0022002D01*
X0154411Y0022002D01*
X0153793Y0022619D01*
X0153793Y0023236D01*
X0154411Y0023853D01*
X0155645Y0023853D01*
X0156262Y0023236D01*
X0157477Y0023853D02*
X0159945Y0023853D01*
X0158711Y0023853D02*
X0158711Y0020150D01*
X0163970Y0020767D02*
X0164587Y0020150D01*
X0165822Y0020150D01*
X0166439Y0020767D01*
X0166439Y0021384D01*
X0165822Y0022002D01*
X0165204Y0022002D01*
X0165822Y0022002D02*
X0166439Y0022619D01*
X0166439Y0023236D01*
X0165822Y0023853D01*
X0164587Y0023853D01*
X0163970Y0023236D01*
X0167653Y0022619D02*
X0168888Y0020150D01*
X0170122Y0022619D01*
X0174970Y0022002D02*
X0176204Y0022619D01*
X0176822Y0022619D01*
X0177439Y0022002D01*
X0177439Y0020767D01*
X0176822Y0020150D01*
X0175587Y0020150D01*
X0174970Y0020767D01*
X0174970Y0022002D02*
X0174970Y0023853D01*
X0177439Y0023853D01*
X0178653Y0022619D02*
X0179888Y0020150D01*
X0181122Y0022619D01*
X0187690Y0023236D02*
X0187690Y0020767D01*
X0188307Y0020150D01*
X0189541Y0020150D01*
X0190159Y0020767D01*
X0190159Y0022002D01*
X0188924Y0022002D01*
X0187690Y0023236D02*
X0188307Y0023853D01*
X0189541Y0023853D01*
X0190159Y0023236D01*
X0191373Y0022619D02*
X0191373Y0020150D01*
X0193842Y0020150D02*
X0193842Y0022002D01*
X0193224Y0022619D01*
X0191373Y0022619D01*
X0195056Y0022002D02*
X0195056Y0020767D01*
X0195673Y0020150D01*
X0197525Y0020150D01*
X0197525Y0023853D01*
X0197525Y0022619D02*
X0195673Y0022619D01*
X0195056Y0022002D01*
X0203470Y0021384D02*
X0204704Y0020150D01*
X0205939Y0021384D01*
X0205939Y0023853D01*
X0207153Y0022619D02*
X0207770Y0022619D01*
X0207770Y0020150D01*
X0207153Y0020150D02*
X0208388Y0020150D01*
X0209609Y0020150D02*
X0209609Y0022619D01*
X0211460Y0022619D01*
X0212077Y0022002D01*
X0212077Y0020150D01*
X0207770Y0023853D02*
X0207770Y0024470D01*
X0203470Y0023853D02*
X0203470Y0021384D01*
X0225650Y0020767D02*
X0228119Y0023236D01*
X0228119Y0020767D01*
X0227502Y0020150D01*
X0226267Y0020150D01*
X0225650Y0020767D01*
X0225650Y0023236D01*
X0226267Y0023853D01*
X0227502Y0023853D01*
X0228119Y0023236D01*
X0235650Y0022619D02*
X0236884Y0023853D01*
X0236884Y0020150D01*
X0235650Y0020150D02*
X0238119Y0020150D01*
X0245650Y0020150D02*
X0248119Y0022619D01*
X0248119Y0023236D01*
X0247502Y0023853D01*
X0246267Y0023853D01*
X0245650Y0023236D01*
X0245650Y0020150D02*
X0248119Y0020150D01*
X0255650Y0020767D02*
X0256267Y0020150D01*
X0257502Y0020150D01*
X0258119Y0020767D01*
X0258119Y0021384D01*
X0257502Y0022002D01*
X0256884Y0022002D01*
X0257502Y0022002D02*
X0258119Y0022619D01*
X0258119Y0023236D01*
X0257502Y0023853D01*
X0256267Y0023853D01*
X0255650Y0023236D01*
X0265650Y0022002D02*
X0268119Y0022002D01*
X0267502Y0023853D02*
X0267502Y0020150D01*
X0265650Y0022002D02*
X0267502Y0023853D01*
X0275650Y0023853D02*
X0275650Y0022002D01*
X0276884Y0022619D01*
X0277502Y0022619D01*
X0278119Y0022002D01*
X0278119Y0020767D01*
X0277502Y0020150D01*
X0276267Y0020150D01*
X0275650Y0020767D01*
X0275650Y0023853D02*
X0278119Y0023853D01*
X0280248Y0031165D02*
X0281483Y0031165D01*
X0282100Y0031782D01*
X0282100Y0033634D01*
X0282100Y0034848D02*
X0278397Y0034848D01*
X0279631Y0035465D02*
X0279631Y0036700D01*
X0280248Y0037317D01*
X0282100Y0037317D01*
X0281483Y0038531D02*
X0280866Y0039148D01*
X0280866Y0041000D01*
X0280248Y0041000D02*
X0282100Y0041000D01*
X0282100Y0039148D01*
X0281483Y0038531D01*
X0279631Y0039148D02*
X0279631Y0040383D01*
X0280248Y0041000D01*
X0279631Y0042214D02*
X0282100Y0042214D01*
X0280866Y0042214D02*
X0279631Y0043449D01*
X0279631Y0044066D01*
X0280248Y0045284D02*
X0281483Y0045284D01*
X0282100Y0045901D01*
X0282100Y0047752D01*
X0282717Y0047752D02*
X0279631Y0047752D01*
X0279631Y0045901D01*
X0280248Y0045284D01*
X0283334Y0046518D02*
X0283334Y0047135D01*
X0282717Y0047752D01*
X0281483Y0048967D02*
X0280248Y0048967D01*
X0279631Y0049584D01*
X0279631Y0050818D01*
X0280248Y0051436D01*
X0280866Y0051436D01*
X0280866Y0048967D01*
X0281483Y0048967D02*
X0282100Y0049584D01*
X0282100Y0050818D01*
X0279631Y0035465D02*
X0280248Y0034848D01*
X0279631Y0033634D02*
X0279631Y0031782D01*
X0280248Y0031165D01*
X0269051Y0009439D02*
X0267199Y0009439D01*
X0267199Y0006970D01*
X0265978Y0006970D02*
X0264744Y0006970D01*
X0265361Y0006970D02*
X0265361Y0010673D01*
X0264744Y0010673D02*
X0265978Y0010673D01*
X0269051Y0009439D02*
X0269668Y0008822D01*
X0269668Y0006970D01*
X0259847Y0006970D02*
X0257995Y0006970D01*
X0257378Y0007587D01*
X0257378Y0008822D01*
X0257995Y0009439D01*
X0259847Y0009439D01*
X0259847Y0006353D01*
X0259229Y0005736D01*
X0258612Y0005736D01*
X0256163Y0007587D02*
X0256163Y0008822D01*
X0255546Y0009439D01*
X0254312Y0009439D01*
X0253695Y0008822D01*
X0253695Y0007587D01*
X0254312Y0006970D01*
X0255546Y0006970D01*
X0256163Y0007587D01*
X0252474Y0006970D02*
X0251239Y0006970D01*
X0251856Y0006970D02*
X0251856Y0010673D01*
X0251239Y0010673D01*
X0249408Y0009439D02*
X0250025Y0008822D01*
X0250025Y0006970D01*
X0248173Y0006970D01*
X0247556Y0007587D01*
X0248173Y0008204D01*
X0250025Y0008204D01*
X0249408Y0009439D02*
X0248173Y0009439D01*
X0246342Y0008822D02*
X0246342Y0006970D01*
X0246342Y0008822D02*
X0245724Y0009439D01*
X0243873Y0009439D01*
X0243873Y0006970D01*
X0242659Y0006970D02*
X0242659Y0009439D01*
X0241424Y0010673D01*
X0240190Y0009439D01*
X0240190Y0006970D01*
X0240190Y0008822D02*
X0242659Y0008822D01*
D12*
X0209950Y0033762D02*
X0203545Y0033762D01*
X0203545Y0031627D02*
X0203545Y0035897D01*
X0203545Y0038072D02*
X0209950Y0038072D01*
X0209950Y0042343D01*
X0208882Y0044518D02*
X0209950Y0045586D01*
X0209950Y0047721D01*
X0208882Y0048788D01*
X0207815Y0048788D01*
X0206747Y0047721D01*
X0206747Y0046653D01*
X0206747Y0047721D02*
X0205680Y0048788D01*
X0204612Y0048788D01*
X0203545Y0047721D01*
X0203545Y0045586D01*
X0204612Y0044518D01*
X0206747Y0050963D02*
X0206747Y0054166D01*
X0207815Y0055234D01*
X0208882Y0055234D01*
X0209950Y0054166D01*
X0209950Y0052031D01*
X0208882Y0050963D01*
X0206747Y0050963D01*
X0204612Y0053099D01*
X0203545Y0055234D01*
X0203545Y0057409D02*
X0203545Y0060612D01*
X0204612Y0061679D01*
X0206747Y0061679D01*
X0207815Y0060612D01*
X0207815Y0057409D01*
X0209950Y0057409D02*
X0203545Y0057409D01*
X0204612Y0063854D02*
X0208882Y0063854D01*
X0209950Y0064922D01*
X0209950Y0067057D01*
X0208882Y0068125D01*
X0204612Y0068125D01*
X0203545Y0067057D01*
X0203545Y0064922D01*
X0204612Y0063854D01*
X0199000Y0063000D02*
X0199000Y0038500D01*
X0196000Y0035500D01*
X0183000Y0035500D01*
X0180000Y0038500D01*
X0180000Y0063000D01*
X0180002Y0063076D01*
X0180008Y0063152D01*
X0180017Y0063227D01*
X0180031Y0063302D01*
X0180048Y0063376D01*
X0180069Y0063449D01*
X0180093Y0063521D01*
X0180122Y0063592D01*
X0180153Y0063661D01*
X0180188Y0063728D01*
X0180227Y0063793D01*
X0180269Y0063857D01*
X0180314Y0063918D01*
X0180362Y0063977D01*
X0180413Y0064033D01*
X0180467Y0064087D01*
X0180523Y0064138D01*
X0180582Y0064186D01*
X0180643Y0064231D01*
X0180707Y0064273D01*
X0180772Y0064312D01*
X0180839Y0064347D01*
X0180908Y0064378D01*
X0180979Y0064407D01*
X0181051Y0064431D01*
X0181124Y0064452D01*
X0181198Y0064469D01*
X0181273Y0064483D01*
X0181348Y0064492D01*
X0181424Y0064498D01*
X0181500Y0064500D01*
X0197500Y0064500D01*
X0197576Y0064498D01*
X0197652Y0064492D01*
X0197727Y0064483D01*
X0197802Y0064469D01*
X0197876Y0064452D01*
X0197949Y0064431D01*
X0198021Y0064407D01*
X0198092Y0064378D01*
X0198161Y0064347D01*
X0198228Y0064312D01*
X0198293Y0064273D01*
X0198357Y0064231D01*
X0198418Y0064186D01*
X0198477Y0064138D01*
X0198533Y0064087D01*
X0198587Y0064033D01*
X0198638Y0063977D01*
X0198686Y0063918D01*
X0198731Y0063857D01*
X0198773Y0063793D01*
X0198812Y0063728D01*
X0198847Y0063661D01*
X0198878Y0063592D01*
X0198907Y0063521D01*
X0198931Y0063449D01*
X0198952Y0063376D01*
X0198969Y0063302D01*
X0198983Y0063227D01*
X0198992Y0063152D01*
X0198998Y0063076D01*
X0199000Y0063000D01*
X0189500Y0056000D02*
X0189500Y0052500D01*
X0184700Y0049500D02*
X0184700Y0047500D01*
X0189500Y0047500D01*
X0194300Y0047500D01*
X0194300Y0049500D01*
X0184700Y0049500D01*
X0189500Y0047500D02*
X0189500Y0044000D01*
X0185400Y0043000D02*
X0182900Y0043000D01*
X0184100Y0044300D02*
X0184100Y0041700D01*
X0242000Y0042500D02*
X0242000Y0037500D01*
X0244500Y0035000D01*
X0249500Y0035000D01*
X0252000Y0037500D01*
X0252000Y0042500D01*
X0249500Y0045000D01*
X0252000Y0047500D01*
X0252000Y0052500D01*
X0249500Y0055000D01*
X0244500Y0055000D01*
X0242000Y0052500D01*
X0242000Y0047500D01*
X0244500Y0045000D01*
X0249500Y0045000D01*
X0244500Y0045000D02*
X0242000Y0042500D01*
X0270750Y0042500D02*
X0270750Y0037500D01*
X0273250Y0035000D01*
X0278250Y0035000D01*
X0280750Y0037500D01*
X0280750Y0042500D01*
X0278250Y0045000D01*
X0280750Y0047500D01*
X0280750Y0052500D01*
X0278250Y0055000D01*
X0273250Y0055000D01*
X0270750Y0052500D01*
X0270750Y0047500D01*
X0273250Y0045000D01*
X0278250Y0045000D01*
X0273250Y0045000D02*
X0270750Y0042500D01*
X0162000Y0107500D02*
X0159500Y0105000D01*
X0154500Y0105000D01*
X0152000Y0107500D01*
X0152000Y0112500D01*
X0154500Y0115000D01*
X0152000Y0117500D01*
X0152000Y0122500D01*
X0154500Y0125000D01*
X0159500Y0125000D01*
X0162000Y0122500D01*
X0162000Y0117500D01*
X0159500Y0115000D01*
X0162000Y0112500D01*
X0162000Y0107500D01*
X0159500Y0115000D02*
X0154500Y0115000D01*
X0082000Y0082500D02*
X0082000Y0077500D01*
X0079500Y0075000D01*
X0082000Y0072500D01*
X0082000Y0067500D01*
X0079500Y0065000D01*
X0074500Y0065000D01*
X0072000Y0067500D01*
X0072000Y0072500D01*
X0074500Y0075000D01*
X0072000Y0077500D01*
X0072000Y0082500D01*
X0074500Y0085000D01*
X0079500Y0085000D01*
X0082000Y0082500D01*
X0079500Y0075000D02*
X0074500Y0075000D01*
X0047000Y0052500D02*
X0047000Y0047500D01*
X0044500Y0045000D01*
X0047000Y0042500D01*
X0047000Y0037500D01*
X0044500Y0035000D01*
X0039500Y0035000D01*
X0037000Y0037500D01*
X0037000Y0042500D01*
X0039500Y0045000D01*
X0037000Y0047500D01*
X0037000Y0052500D01*
X0039500Y0055000D01*
X0044500Y0055000D01*
X0047000Y0052500D01*
X0044500Y0045000D02*
X0039500Y0045000D01*
X0072000Y0035000D02*
X0072000Y0030000D01*
X0074500Y0027500D01*
X0079500Y0027500D01*
X0082000Y0030000D01*
X0084500Y0027500D01*
X0089500Y0027500D01*
X0092000Y0030000D01*
X0094500Y0027500D01*
X0099500Y0027500D01*
X0102000Y0030000D01*
X0102000Y0035000D01*
X0099500Y0037500D01*
X0094500Y0037500D01*
X0092000Y0035000D01*
X0092000Y0030000D01*
X0092000Y0035000D02*
X0089500Y0037500D01*
X0084500Y0037500D01*
X0082000Y0035000D01*
X0082000Y0030000D01*
X0082000Y0035000D02*
X0079500Y0037500D01*
X0074500Y0037500D01*
X0072000Y0035000D01*
X0074500Y0145000D02*
X0072000Y0147500D01*
X0072000Y0152500D01*
X0074500Y0155000D01*
X0072000Y0157500D01*
X0072000Y0162500D01*
X0074500Y0165000D01*
X0079500Y0165000D01*
X0082000Y0162500D01*
X0082000Y0157500D01*
X0079500Y0155000D01*
X0082000Y0152500D01*
X0082000Y0147500D01*
X0079500Y0145000D01*
X0074500Y0145000D01*
X0074500Y0155000D02*
X0079500Y0155000D01*
X0079500Y0182500D02*
X0074500Y0182500D01*
X0072000Y0185000D01*
X0072000Y0190000D01*
X0074500Y0192500D01*
X0079500Y0192500D01*
X0082000Y0190000D01*
X0084500Y0192500D01*
X0089500Y0192500D01*
X0092000Y0190000D01*
X0094500Y0192500D01*
X0099500Y0192500D01*
X0102000Y0190000D01*
X0102000Y0185000D01*
X0099500Y0182500D01*
X0094500Y0182500D01*
X0092000Y0185000D01*
X0089500Y0182500D01*
X0084500Y0182500D01*
X0082000Y0185000D01*
X0079500Y0182500D01*
X0082000Y0185000D02*
X0082000Y0190000D01*
X0092000Y0190000D02*
X0092000Y0185000D01*
X0234500Y0180000D02*
X0234500Y0175000D01*
X0237000Y0172500D01*
X0242000Y0172500D01*
X0244500Y0175000D01*
X0247000Y0172500D01*
X0252000Y0172500D01*
X0254500Y0175000D01*
X0254500Y0180000D01*
X0252000Y0182500D01*
X0247000Y0182500D01*
X0244500Y0180000D01*
X0244500Y0175000D01*
X0244500Y0180000D02*
X0242000Y0182500D01*
X0237000Y0182500D01*
X0234500Y0180000D01*
X0254500Y0180000D02*
X0257000Y0182500D01*
X0262000Y0182500D01*
X0264500Y0180000D01*
X0267000Y0182500D01*
X0272000Y0182500D01*
X0274500Y0180000D01*
X0274500Y0175000D01*
X0272000Y0172500D01*
X0267000Y0172500D01*
X0264500Y0175000D01*
X0262000Y0172500D01*
X0257000Y0172500D01*
X0254500Y0175000D01*
X0264500Y0175000D02*
X0264500Y0180000D01*
D13*
X0189500Y0052000D03*
D14*
X0178250Y0050710D02*
X0178250Y0049208D01*
X0177499Y0048458D01*
X0174497Y0051460D01*
X0177499Y0051460D01*
X0178250Y0050710D01*
X0177499Y0048458D02*
X0174497Y0048458D01*
X0173746Y0049208D01*
X0173746Y0050710D01*
X0174497Y0051460D01*
X0174497Y0053062D02*
X0173746Y0053812D01*
X0173746Y0055314D01*
X0174497Y0056064D01*
X0177499Y0053062D01*
X0178250Y0053812D01*
X0178250Y0055314D01*
X0177499Y0056064D01*
X0174497Y0056064D01*
X0175247Y0057666D02*
X0177499Y0057666D01*
X0178250Y0058416D01*
X0178250Y0060668D01*
X0175247Y0060668D01*
X0175998Y0062270D02*
X0175998Y0063771D01*
X0173746Y0062270D02*
X0173746Y0065272D01*
X0173746Y0062270D02*
X0178250Y0062270D01*
X0177499Y0053062D02*
X0174497Y0053062D01*
X0174497Y0046856D02*
X0177499Y0043854D01*
X0178250Y0044605D01*
X0178250Y0046106D01*
X0177499Y0046856D01*
X0174497Y0046856D01*
X0173746Y0046106D01*
X0173746Y0044605D01*
X0174497Y0043854D01*
X0177499Y0043854D01*
X0178250Y0042253D02*
X0178250Y0039250D01*
X0178250Y0040751D02*
X0173746Y0040751D01*
X0175247Y0039250D01*
X0166496Y0095250D02*
X0166496Y0098253D01*
X0166496Y0096751D02*
X0171000Y0096751D01*
X0170249Y0099854D02*
X0171000Y0100605D01*
X0171000Y0102106D01*
X0170249Y0102856D01*
X0169499Y0102856D01*
X0168748Y0102106D01*
X0168748Y0100605D01*
X0167997Y0099854D01*
X0167247Y0099854D01*
X0166496Y0100605D01*
X0166496Y0102106D01*
X0167247Y0102856D01*
X0166496Y0104458D02*
X0168748Y0104458D01*
X0167997Y0105959D01*
X0167997Y0106710D01*
X0168748Y0107460D01*
X0170249Y0107460D01*
X0171000Y0106710D01*
X0171000Y0105208D01*
X0170249Y0104458D01*
X0166496Y0104458D02*
X0166496Y0107460D01*
X0167997Y0109062D02*
X0166496Y0110563D01*
X0167997Y0112064D01*
X0171000Y0112064D01*
X0171000Y0113666D02*
X0167997Y0116668D01*
X0167247Y0116668D01*
X0166496Y0115918D01*
X0166496Y0114416D01*
X0167247Y0113666D01*
X0168748Y0112064D02*
X0168748Y0109062D01*
X0167997Y0109062D02*
X0171000Y0109062D01*
X0171000Y0113666D02*
X0171000Y0116668D01*
X0170249Y0118270D02*
X0171000Y0119020D01*
X0171000Y0120522D01*
X0170249Y0121272D01*
X0169499Y0121272D01*
X0168748Y0120522D01*
X0168748Y0119771D01*
X0168748Y0120522D02*
X0167997Y0121272D01*
X0167247Y0121272D01*
X0166496Y0120522D01*
X0166496Y0119020D01*
X0167247Y0118270D01*
X0167997Y0122874D02*
X0166496Y0124375D01*
X0171000Y0124375D01*
X0171000Y0122874D02*
X0171000Y0125876D01*
X0170249Y0127477D02*
X0171000Y0128228D01*
X0171000Y0129729D01*
X0170249Y0130480D01*
X0168748Y0130480D01*
X0167997Y0129729D01*
X0167997Y0128979D01*
X0168748Y0127477D01*
X0166496Y0127477D01*
X0166496Y0130480D01*
X0166496Y0132081D02*
X0166496Y0135084D01*
X0167247Y0135084D01*
X0170249Y0132081D01*
X0171000Y0132081D01*
D15*
X0171488Y0115512D02*
X0171488Y0104488D01*
X0182512Y0104488D01*
X0182512Y0115512D01*
X0171488Y0115512D01*
X0173850Y0108031D02*
X0173850Y0105669D01*
X0173783Y0105671D01*
X0173715Y0105677D01*
X0173649Y0105686D01*
X0173583Y0105700D01*
X0173517Y0105717D01*
X0173453Y0105738D01*
X0173390Y0105762D01*
X0173329Y0105790D01*
X0173269Y0105822D01*
X0173212Y0105856D01*
X0173156Y0105895D01*
X0173102Y0105936D01*
X0173051Y0105980D01*
X0173003Y0106027D01*
X0172957Y0106077D01*
X0172915Y0106129D01*
X0172875Y0106183D01*
X0172839Y0106240D01*
X0172805Y0106299D01*
X0172776Y0106359D01*
X0172749Y0106422D01*
X0172727Y0106485D01*
X0172708Y0106550D01*
X0172693Y0106615D01*
X0172681Y0106682D01*
X0172673Y0106749D01*
X0172669Y0106816D01*
X0172669Y0106884D01*
X0172673Y0106951D01*
X0172681Y0107018D01*
X0172693Y0107085D01*
X0172708Y0107150D01*
X0172727Y0107215D01*
X0172749Y0107278D01*
X0172776Y0107341D01*
X0172805Y0107401D01*
X0172839Y0107460D01*
X0172875Y0107517D01*
X0172915Y0107571D01*
X0172957Y0107623D01*
X0173003Y0107673D01*
X0173051Y0107720D01*
X0173102Y0107764D01*
X0173156Y0107805D01*
X0173212Y0107844D01*
X0173269Y0107878D01*
X0173329Y0107910D01*
X0173390Y0107938D01*
X0173453Y0107962D01*
X0173517Y0107983D01*
X0173583Y0108000D01*
X0173649Y0108014D01*
X0173715Y0108023D01*
X0173783Y0108029D01*
X0173850Y0108031D01*
X0213250Y0070000D02*
X0233250Y0070000D01*
X0233250Y0030000D01*
X0213250Y0030000D01*
X0213250Y0070000D01*
X0116429Y0066693D02*
X0116429Y0083209D01*
X0097571Y0083209D02*
X0097571Y0066693D01*
X0097787Y0072500D02*
X0097885Y0072502D01*
X0097983Y0072508D01*
X0098081Y0072517D01*
X0098178Y0072531D01*
X0098275Y0072548D01*
X0098371Y0072569D01*
X0098466Y0072594D01*
X0098560Y0072622D01*
X0098652Y0072655D01*
X0098744Y0072690D01*
X0098834Y0072730D01*
X0098922Y0072772D01*
X0099009Y0072819D01*
X0099093Y0072868D01*
X0099176Y0072921D01*
X0099256Y0072977D01*
X0099335Y0073037D01*
X0099411Y0073099D01*
X0099484Y0073164D01*
X0099555Y0073232D01*
X0099623Y0073303D01*
X0099688Y0073376D01*
X0099750Y0073452D01*
X0099810Y0073531D01*
X0099866Y0073611D01*
X0099919Y0073694D01*
X0099968Y0073778D01*
X0100015Y0073865D01*
X0100057Y0073953D01*
X0100097Y0074043D01*
X0100132Y0074135D01*
X0100165Y0074227D01*
X0100193Y0074321D01*
X0100218Y0074416D01*
X0100239Y0074512D01*
X0100256Y0074609D01*
X0100270Y0074706D01*
X0100279Y0074804D01*
X0100285Y0074902D01*
X0100287Y0075000D01*
X0100285Y0075098D01*
X0100279Y0075196D01*
X0100270Y0075294D01*
X0100256Y0075391D01*
X0100239Y0075488D01*
X0100218Y0075584D01*
X0100193Y0075679D01*
X0100165Y0075773D01*
X0100132Y0075865D01*
X0100097Y0075957D01*
X0100057Y0076047D01*
X0100015Y0076135D01*
X0099968Y0076222D01*
X0099919Y0076306D01*
X0099866Y0076389D01*
X0099810Y0076469D01*
X0099750Y0076548D01*
X0099688Y0076624D01*
X0099623Y0076697D01*
X0099555Y0076768D01*
X0099484Y0076836D01*
X0099411Y0076901D01*
X0099335Y0076963D01*
X0099256Y0077023D01*
X0099176Y0077079D01*
X0099093Y0077132D01*
X0099009Y0077181D01*
X0098922Y0077228D01*
X0098834Y0077270D01*
X0098744Y0077310D01*
X0098652Y0077345D01*
X0098560Y0077378D01*
X0098466Y0077406D01*
X0098371Y0077431D01*
X0098275Y0077452D01*
X0098178Y0077469D01*
X0098081Y0077483D01*
X0097983Y0077492D01*
X0097885Y0077498D01*
X0097787Y0077500D01*
X0097571Y0146693D02*
X0097571Y0163209D01*
X0097787Y0157500D02*
X0097885Y0157498D01*
X0097983Y0157492D01*
X0098081Y0157483D01*
X0098178Y0157469D01*
X0098275Y0157452D01*
X0098371Y0157431D01*
X0098466Y0157406D01*
X0098560Y0157378D01*
X0098652Y0157345D01*
X0098744Y0157310D01*
X0098834Y0157270D01*
X0098922Y0157228D01*
X0099009Y0157181D01*
X0099093Y0157132D01*
X0099176Y0157079D01*
X0099256Y0157023D01*
X0099335Y0156963D01*
X0099411Y0156901D01*
X0099484Y0156836D01*
X0099555Y0156768D01*
X0099623Y0156697D01*
X0099688Y0156624D01*
X0099750Y0156548D01*
X0099810Y0156469D01*
X0099866Y0156389D01*
X0099919Y0156306D01*
X0099968Y0156222D01*
X0100015Y0156135D01*
X0100057Y0156047D01*
X0100097Y0155957D01*
X0100132Y0155865D01*
X0100165Y0155773D01*
X0100193Y0155679D01*
X0100218Y0155584D01*
X0100239Y0155488D01*
X0100256Y0155391D01*
X0100270Y0155294D01*
X0100279Y0155196D01*
X0100285Y0155098D01*
X0100287Y0155000D01*
X0100285Y0154902D01*
X0100279Y0154804D01*
X0100270Y0154706D01*
X0100256Y0154609D01*
X0100239Y0154512D01*
X0100218Y0154416D01*
X0100193Y0154321D01*
X0100165Y0154227D01*
X0100132Y0154135D01*
X0100097Y0154043D01*
X0100057Y0153953D01*
X0100015Y0153865D01*
X0099968Y0153778D01*
X0099919Y0153694D01*
X0099866Y0153611D01*
X0099810Y0153531D01*
X0099750Y0153452D01*
X0099688Y0153376D01*
X0099623Y0153303D01*
X0099555Y0153232D01*
X0099484Y0153164D01*
X0099411Y0153099D01*
X0099335Y0153037D01*
X0099256Y0152977D01*
X0099176Y0152921D01*
X0099093Y0152868D01*
X0099009Y0152819D01*
X0098922Y0152772D01*
X0098834Y0152730D01*
X0098744Y0152690D01*
X0098652Y0152655D01*
X0098560Y0152622D01*
X0098466Y0152594D01*
X0098371Y0152569D01*
X0098275Y0152548D01*
X0098178Y0152531D01*
X0098081Y0152517D01*
X0097983Y0152508D01*
X0097885Y0152502D01*
X0097787Y0152500D01*
X0116429Y0146693D02*
X0116429Y0163209D01*
D16*
X0259372Y0050000D03*
D17*
X0136409Y0191388D03*
X0136409Y0196112D03*
D18*
X0136409Y0193750D03*
M02*
