%
M48
M72
T01C0.02362
T02C0.03200
T03C0.03937
T04C0.04000
T05C0.04331
%
T01
X147000Y67500
X199500Y102500
X205750Y56250
X205750Y26250
T02
X189500Y40000
X189500Y60000
T03
X187000Y15000
X177000Y15000
X167000Y15000
X157000Y15000
X197000Y15000
X207000Y15000
X227000Y15000
X237000Y15000
X247000Y15000
X257000Y15000
X267000Y15000
X277000Y15000
X277000Y205000
X267000Y205000
X257000Y205000
X247000Y205000
X237000Y205000
X227000Y205000
X217000Y205000
X207000Y205000
X191000Y205000
X181000Y205000
X171000Y205000
X161000Y205000
X151000Y205000
X141000Y205000
X131000Y205000
X121000Y205000
T04
X42000Y40000
X42000Y50000
X77000Y32500
X87000Y32500
X97000Y32500
X77000Y70000
X77000Y80000
X157000Y110000
X157000Y120000
X77000Y150000
X77000Y160000
X77000Y187500
X87000Y187500
X97000Y187500
X239500Y177500
X249500Y177500
X259500Y177500
X269500Y177500
X269500Y50000
X269500Y40000
X247000Y40000
X247000Y50000
T05
X223250Y50000
X223250Y60000
X223250Y40000
M30
